<mxfile host="app.diagrams.net" agent="Mozilla/5.0 (X11; Ubuntu; Linux x86_64; rv:128.0) Gecko/20100101 Firefox/128.0" version="24.7.6">
  <diagram name="Page-1" id="PzIjzFmgimJRg9DAw7yh">
    <mxGraphModel dx="1434" dy="795" grid="1" gridSize="10" guides="1" tooltips="1" connect="1" arrows="1" fold="1" page="1" pageScale="1" pageWidth="850" pageHeight="1100" math="0" shadow="0">
      <root>
        <mxCell id="0" />
        <mxCell id="1" parent="0" />
        <mxCell id="U8PuOopB3r8MZxE_C5kV-1" value="" style="shape=image;verticalLabelPosition=bottom;labelBackgroundColor=default;verticalAlign=top;aspect=fixed;imageAspect=0;image=data:image/png,iVBORw0KGgoAAAANSUhEUgAAB4AAAAQ4CAYAAADo08FDAAAABHNCSVQICAgIfAhkiAAAABl0RVh0U29mdHdhcmUAZ25vbWUtc2NyZWVuc2hvdO8Dvz4AAAApdEVYdENyZWF0aW9uIFRpbWUAVHVlIDA2IEF1ZyAyMDI0IDEyOjEwOjM5IFBND1ENTQAAIABJREFUeJzs3XeYFdX9x/HPzG3bd2HpVbBR7KKxxoK9JDEqUePPhrElGgtGxa6JJpYYEUVMNBFLFFsUEbtYEBQERbr0LmVh+91bZn5/WMHlexZYiuv79Tx5nsjn3pkz55yZOXPOvXe90tLSUAAAAAAAAAAAAACAHz1/SxcAAAAAAAAAAAAAANA4WAAGAAAAAAAAAAAAgCaCBWAAAAAAAAAAAAAAaCJYAAYAAAAAAAAAAACAJoIFYGArdeyxx2rs2LG64447tnRRAAAAAKBBwjBUEAQKgkBhGH7732EYbumiAQAAAPgJmTNnzhr/+6lhARjYSn3wwQdq0aKFDjrooC1dFAAAAABw+max99BDD9VRRx2laDSqWCymww47TAUFBcpms1u6iAAAAAA2s3POOWez7at79+4aOnSoJk+e/INs8uTJGjp0qLp3777ZyrMleaWlpXwMFw3W+6r7dcScv6r/0AXi0X3TKiws1Pvvv6/jjz9eCxYs2NLFaTD6CAAAAPDTFASBDj74YA0ePFie5+lPf/qTFi9erMcee0yDBg3SXXfdpXg8vqWLCQAAAPyktGvXTscff7z22Wcf7bDDDmrevLkkqaysTDNmzNDo0aP18ssva/HixY2+7969e2vw4MHabrvt1vj3nJwcJZPJRt/f888/r+HDh+uFF17Q6tWrFQSBJMn3fZWUlOiEE07QMcccoxNPPLHR97212eq+Adx+z946cIc8ed//x9jeuuSV8RrZf3f3Bup57UZvE9/aqffh2qtDzld12ch1SDut6aCDDtKSJUu0dOnSTbujRq7jNfpIA9Tb7gAAAD9xpz01S7Nnz673f3Om/Uv/t4k+xxu2OFn3TZilaY+frI6b5WkxqpKdT9Kldz+hl98fr4lDz9b2kYa/O6fbWRo4aqqePrX4e/+aUNtDLtadQ9/VJ1Omaeq4t/T07ado96IN3Z6kSDvtd+m/NPyjKZo6aZSGD+irfZvX3waH3zNOk2fM0qxZs/TFtM819p3n9fBNp2u/1t9VaOTIBzVxxkjdcUBOPVuIqvP5wzR52uM6v4O7zFuTMAyVm5uraDSqeDyu7t27q6SkRIlEQq1atZL01SJxNpvlJ6EBAACATaxdu3YaMGCAhg8frm222UZPPfWU+vTpo91331277767+vTpo6efflpdunTRK6+8ogEDBqhdu3aNtv9ddtlF9913nyKRNR/yPM/T0KFDdfDBB2/0PvbZZ581/rtnz5565pln9NBDD2nWrFnf/vzzrFmzNHjwYD3zzDPq2bPnRu/3x2CTPNJvzKTBOQMf0JU/L1pzMSio1JdzZ2v2l1XuDdTz2o3e5o/A5p+oUaPX4U+hnRqqWbNm6t+/v7p167bpP4myheu43nYHAAD4iXvz5tN06qmn6tRT/0/XjVil7KJndcPpp+rUU0/VKWfcoTcqNsXoKaIufc7RYenlKu91rs7ebT1WYjdIrrY74xENe/hMbb9kuAb1P0+nXzNMCxvwMzJ+cQ8deelDevGZa3Vk6zWzMH8/nXfNL9Tik8G6/vcX6rLBk1X0yz/roav2Vt7Xr7n4hXc1vN8uDdqeFFOXcx/UQ79rq+n3X6zz+j2uWbtcpYfuOUmd63n2KmxeosSEe3R2n5N1ypm/V/8HRyt10HV69KnrdGiRJPlq1qal4tGOOuFPZ6hnbK3ytzpBV5zXQ7l+C7Vs7q6LrUEYhspkMgqCQG+++ab69eungQMHatSoUWu8zvd9HXDAATrhhBMUjUZZBAYAAAA2kSOOOELDhg3T/Pnztf/+++uaa67Ra6+9pkWLFimZTCqZTGrRokV69dVXdc0112j//ffXggULNGzYMB155JEbvf+OHTvqkUceUW5u7hr/7nmewjDUDTfcoLvuuuvbbyNvqD/+8Y9r/Hc8HldFRYX23HPPH7y2V69eqqioUCKRcG53gz8c3OAPD+eoa5979NyoiZo0doT+/fs91fybx/zoDjpj6CS9c9VOyq3nnQ21CZYKN8GkQXaqnr7oJJ3z8BeN99r12eZWb3NP1Hxtc9Rhk2qndTv22GNVXFysgoICHXfccXr55Zf19ttva8SIEXruuec27c5/InUMAADwY7Js6kf66KOP9NFHH2vSkrRUu0iTP/763z6eoaVp6frR0/XSuW2+e6jreIGenDpKf93n66fGWEcd+MdBevad8Zo8ZYLef/o2nbnzun95Jcw9UGec1k6f/P083T22k04662A1W+vFzn36rbTnuffoqZGfasr06Zoy/n29+vR9OreeD1jH9rpKA8+v1IMn/Uq/v+tJDX9/nCbOWqHaBtRPm5Nv0Y0Hr9b/Lr5Rz5evmXnV7+i2447R2X97Uq+8845e/efVuuONlJrvvqe6fP2olFfcXCW5kQZtL4zvo9+e0U2rnrha1wx5S++/Okj9bn5ZFT/7nf5vp3UUcNVMffLJeH3y0Xt64+k79fvLn9Sc9ifpN/tHJflq0bql/KVzNL9LX118WMH32iShnmf/XkdUztacoIVKm2/9H5P85u/+7rvvvjruuON02GGHKZlMatSoUfrwww8VhqHS6bRSqZR69eql++67T3fffbfOOuss/iYwAAAAsIlMmjRJ2WxW7777rmpra3XggQfqrrvu0siRIzV16lRNnTpVI0eO1F133aUDDjhANTU1euONNxQEgaZOnbpB+zzzzDO//cbte++9p9LS0jXynJwcvfTSS+rYsaM+/fRTDR8+XGedddYGH+M+++zzg28Ab6yN+3Dwenx4uO0puv7aHTTl2qN0aN+X5fW9XX/Y1ZPkq/lxV+ni9i/pjsGTGvR8vM5j2Yj31qshkwaKtFav8wfomfc+09RpkzV+5BO6fM9vHr5j2qn/h5o5e7Zmz56ih4+LSJGeumD4DL33p26SpP3/9qlmDr9APb99XvfU7LShmjr+Dh1b1GON1zZ0m1+9zJgg8Qq0/W/u0FPvfqapM6Zp0pgRuv/EH7T+FtGQOj+0/2P639sfa+K0LzRjysd664k/65w9i9foAA15zRrqq8N1tm1EHU79p17/eJKmzpiuyR8N1yOX7692a6xVN7CdIm31s4vu13MffK5p0z7TqBf+rj/sW6rvb6r3DU9q2Dsf67OpX+iLqZ9q1HN36ne752+1bTlw4ECNHTtW48eP13333acZM2bouuuu00UXXaR0Ov3t38nyfV+jR4/WnDlztP3220uS9t13X3PbznZdq46Lj7xPH0x9RTfu9fWnYGI76oynJmvsgMPVxtd6TiRuYLtLDWrn/S8brKFvfKSJ02Zo+sT3NfjXP5KvSAAAAGxyedq13xA99JuoPrzjd/rNb6/SoxW9de3gq9S7oL5PH3sqOvx0/Uov6OGXJuqlR19X9aFn6IT1+vWvXHW7ZIgeu7ynVj3VXxeccabO/8uHSu92kPZov9Zo0WuhI37XR50z7XXCw6M0/tOxeufp23Ver+IG/TLM4kf66IBf/UmDPlyhVD15OpX+7j/8ZmrZIqrk3Dla8tWff9LfDt1Z+986oUHb8zrtqT1Ky/XJh5NV9/W/1Y0dpXHBNtp9t1I1RFBbo2QYVSIRkeSrpHmJvGkP6Zan6nTIhaeqe/Sr14Utf6WLfpOv9wbcq3fL8lVaWt9PRG9dwjDUkUce+e3f+f3mf//973917LHHaubMmbrxxhv1yKOPat78+frPf/6j6dOnKxaLyfO2/gVuAAAA4Mdo8eLFuuqqqzRo0CANGzZMQ4YM0YknnqjOnTsrJydHOTk56ty5s0488UQ99thjevHFF/Xggw/quuuu0/z58zdonyeffLKZJ5NJvfHGG+rfv78kaejQoTrqqKM2aF/SD7/92xg25sPB6/Xh4c47avvyD/TaqMVaNmm43prZUTvukC+v8CBdfNkemjHgHr22euOOJbpxb1/bd5MGV7w0UaNXvK7L/nGGTmj3lh5Z9M1rctXt4kf1aN+M3rj3Sv3j80rFWjZTzfxvPvmb1sx/nqNLnl+hUIEqF/3wE8GfvDdW1b/YX/u0elCTl0hSoXrtv5P8T4ZoTI2njj94h3ub306QHD9T/7z1d7ppaan2uehWXTs4rUVH3KA3O1ygu28+UKvuvUSnvbtCXsvtVLJkZeNU20ZpSJ1LO+y/jzp88VddccNU1eZ21t6nXaI/PdpNxX1+o3umZBv8GpvVtp5WTXhCd102SEsqfLXc7wLdcNk/dP2Un+vCV7/5DEND2ilXPS4bon+fWatX7vyj7pwR1ba/7qerH35YeaecpDsmZiRJ2/9sL7WZfpsuv3aqavO66KDzrtJV99do9uE36K2OW19bzpgxQ6effro8z9Pjjz+uDz744Nvs4IMP1q233qrTTz9d8+bN04oVK9SmTRutWLFC8Xhc999/v/bYY491bnt927X89Vt0/YhXNOiWi/TKr+/T0lP+ois6v6YbL3lDS4M87XqVcZ5UrT2BE2xguzesnXc+rLe2nfc39bvhU62OlkhzVm1kSwAAADQRJceq76nNNfqGy3TPiCqFkibd0FkHvXO+ju11k94cudYisN9Zv/ztAap48Vf6oEZKvfeEnlv2mE49qauG3DtbmQbsMiw8XL87s4sWDj5af3xwtlKSwpnb68zwmB++NraH9t0zqmWjnte/nvhEc6uba7e+t+rGf96h2mPP12OLHTsLAgUNqoi4Opz8F13Wc6weOOUNla3rF4et7ZW2VAut0LgV373Cq/tSX67ytUurUkn1PEv4MSUSCWXjRWq17T464cpT1aNujP48rk5SoZo3y1O2/EuNeeRhfdDnPPU9YIiuGJnVtqf21WHLHtMpr8zXAed5al7aTNqoz3xvep7nacyYMfr73/++xs+3rVq1SiNHjtTimjrNbNdTtTecIq+6Sg++PkxPn3OOysvL5fub6+8XAQAAAD8977zzjkaMGKFTTz3V+doePXromWee0WuvvbbB++vSpYvzNY8++qhGjhwpz/M0ffp0de7cWb7vKwga9oT3jU3x7V/p6w8H/ytQED9Ct66VrfvDwcdo991K5dXYuSZ+9+wYLlmgBSUHqde2cX24qpf26rxS8+dntN05V6vP6kHq8/zyBj7zrlvjLgA3YNIgLDpS5525jeYMPFz9/rWg3omE5PJZmjF96XcHt9YvGteOflOjMjfokAOL9MjQCgW5++nQn0kT7v5Qq8K29RbNtU3nBEmyVM21SuM+Hq0JU1KSJm9YHTW2Bk/UhKqZNUrvfDBNGX2o99+bpuz/nlHfcw/QPZe/ux6vWTe7bUNVTxup17/5zyl3adtjX9JZu3eVXv2uLp3tVHyUzju9o2YPPFxXDVmgrKQx4+Yrd8dhuvTcn+uOS97+dn+1s0fr3Q+nKaMx+nBpFx347FE6dCdPb3lbX1t+/zf1jzjiiG//v+/7OvPMM9WhQwfdcMMNqq6u1jbbbCNJevnll7V48WI1a9bMsfX1bNdwud7+y816adid+sttrbTs4HYac/15emmZ1n8icUPbvcHtHKh6xvt6e/S0Bk1KAgAA/FR4XXqoR26+Ov11rKb+9ZsP6fmKxLIa27pAUuWar9/hZP1m50l6rv80pSV5qU/07HNz9LuTT1KvQX/TmJT7m5retrtq59xFGj1qTr3fyl1DYWu1yc9q5htP6tWPvhrJTb1xgPb94Db96rBSPTakMT6gmattfjNAQ65tpfcuO12Dpm3ozw178rR+f6vWP+xejfvmV9PClMqnv6GBF92kxxZK8otVUhyqammlgiXPaPCwi/SfvsfrnvEVOvuU1hr7j8c1MVWiXas8FTUrluRaDd/yKisr9c4776hTp06aNWuWZs6cqWbNmmlxdVKZR15SZafvJoK+3KmXVv+7g/Sv25QTjSoS2Ux/wggAAAD4Cbrxxhu1xx57qHv37uYv8MyePVvXXXfdJi9PXV2dYrHYGou+G7IA/P1v/86ZM0djxoxp0EK308Z8OHg9PjzszX9Cf/vXIRr0/Gc636vTwv/109lLT9WtZ0X14pUT1PPWp3X3z5qpavxjuv3mx/RJxfofSqMuADdk0sDfdhftnLtQH3y8cIMXbLxVb2n46Jt0V+8D1fyZ4Srf+3AdnPOhHnhrpQLVvwDs3KZjgiR84THd/2Fv3TTkdfV48Qk9/vgzenXK6i2+6LShEzVe3SS999Eq/WGfnSXVv7jbkNd8n922CbU7/I+6+rwjtGfXlspLrVaywFN0fHw9jlbyuu6snjlf7ePb6ZvMLH308XIlDtlV0tv1v3HRPC0IS9W8xFP4ztbZlmvLzc1VbW2tLrnkEo0aNUrbb7+9Bg0apNtvv13Lly9Xq1atdNBBB6l16/X7+eoGtf3K4brtr7/SG3/vo07v99Ohr5Qp0PpPJG5ou29wOwMAAPyEZAMpGo3V/5PJnicFSzXiqjM1YNL3g0A1y6rXenFCO5/4K3XLaaueb8zWZWu8vEh99rtHY0amnfv0IlFFlFEm04DF0nRa6dBXy5Ii+fp6rFm7RAtXedqptET1fqt2vcTV8ZQH9ET/lnr30v/T9W+XrfEQn1NQqGimRlXJBiwKr1ym5Wqpli186euthPFWal0SqGxZ/eUMP7pTp//tQ1XVVat82UItWpn8blzrFauoMFR1dY1C1ejjfz+uyS/9Tv36l6t3eqguemmlgjCmqhpfhUUFG1MJm0UYhtp///314IMPqrCwUPfff79eeeUV9ejRQ0+121mV7beRsmv2iXSf01U0/h2lx49mARgAAADYhIIg0G9/+1u9//77Kiio//mitrZWp59+urLZDf3Q7FfmzJmjnj17mq856qijvv37xJ07d9by5cuVyaz/6sw3i71z5syRJN17773rX+D15vpw8Hp8eDgs16cDTta+Dxao0K9RZV1zHXrPX7XLqBv0z11u16AuL+j3F36ibtc9qH/84VMdeNvn613aRlwAbuCkgefbf9OpIXUTrtTIYaOU/MuxOqz525p31MEqHnOzXlvu1f9XjRuyTccEiZeaov/2PUQf7H+STu97jm5/8Xz1/fvpOmHQtAZsfFNp+ERNfcIg+Oq4DQ15zbestt3xQg2897eKPn2j/nTLFC0Pt9XJdw7Qr9bYWYN20qC/Cba2MJNWRp5inrbStlxTUVGRXn/9dT355JMqLCzUhAkTdOGFF6qmpubb1yxevFj//e9/9dJLL6339p3t6pWo+8+6K7+6SsGux+rwDi/o0flaz4lEbUS7b1g7AwAA/JQsL4uo3badldAC1ayVhXOnaXr6NPXYJtSCF2eb38gNcw/Qicc11+T7fqP+r1Z9NzzzWujwPz+i3510kJq9+6ZWhfY+g3kzNTvooz32aCP/06Xmz1V5NTM0fWFEB/TaTYWPva1ySWq+g7q3TGv+3KXrVxH1SOx9tQZf216jLztF1621+CtJV74xQSe8dar2uG6sc1vh/E80fuVFOmKf7kqM/OqnvBJ7HaBekbka8ek6FoDL52jip5+pnhGy5BeqsCBUsrr2q7qe/V89/O55GnhyJ02743J9mPQkVaum1lN+Yf56HfeW0qJFC+XkfPX3ipcvX66WLVtq2cqVyhyxp+r7pG3gRVXVYVvFP/lwM5cUAAAA+OlZvXq1zj77bD355JOKxWJrZOl0Wn379tWyZcs2ej9Dhw7VzTffvM48JydHV155pS699FJJ0nHHHaeRI0du9H7HjBmjMWPGbPR2nFwfDt6ADw8rVaVKSbG9LtZVB0/V4BM/1zZ/aa9Jzz2qUdOq9PHQ8bq8796StuACcIMnDeZO1bT0Kdpr7w6KTvjhT0DX1nkqLC6UL2vCIFTV289qRO1d+tWvf60FvUO9d+MbWr6OBcSGbLNBEyRhtRZ88Khu/+BZDe8/XM+e0UcadItZL5vS+kzU/ECki/bYo1TpL6bWE9qv8fz6l+ZCo20jO+ys7v5o3Xrv/zRqtSS/RnPW+gPaDWqn2Z9rct2p2mvv9opM+PrbodFttfdeLZWaOnHdx/KDDW1dbbm2o446Sq1bt9Zll12mBQsW6Kijjlpj8ff7qqvrnVZaN2fbeyo4+DrdfvxCDTr1Bq267jn96c999P7ZQzW7gROJ3/SRDW33RmtnAACAJuztN2brigv6669T/6FnplQo6LS9mnuh5ktS2XA9/PQFevL8B3Vf9n49NW6pknnt1K1ktp594TNVfu8ZIffnv9axxeM0eOhYTVn0/T34WvXKFF30x5N0dOkbenKFZ+7TWzlcjw2/RA//4V7dVHO/Xp7lq90hx6hHJNSnaxc+85mef3qSzu3XX385vVqDPs3V3n/8vQ5Y8Zwuems9x7dr8zvol5f8Vh3H3qYbF7XWjt2//sWcsE5lc2fpy6SneRM+1idz1/71mvp5qTF6Ysh0nXLx7bp17l16fvn2OvmaY1T00XV6fJL7/T/cYL4K8qSa2q8XgMMVevP+O/T46lyNHPrNL+CkVVublVdUvAE72Lw8z9OIESPUvn175eTk6MUXX9Tuu++uWDwur6L8B9/+lSSlA4Xlq82foAMAAADQeMaNG6f77rtPF1988beLwNlsVg888IBGjx7dKPsYMmSIhgwZIknq2LGjXnjhBZWWln6bJ5NJHX/88SorK1Pbtm119tln66STTtro/X7z7d+G/JS079f3LdKGcX04eEM+PCxJinXX6VefqMgTJ2vIXF8neqGCr7+NHQShQn/DfjWp0RaAGz5pMFwPP3WB/nvJQ/qHN1DPTlihVHFHFc5/Ua9NS2vS1Iwu+MUfdNanT2qy10mtyl7Vi5/9cH9e9UgNfblCQy+7VruVPaUL36lRuI7vDDZom64Jko6H6//2DTRj6hJVxzton+0K5K0ua6zq2yDrM1EjRdSy9wX6w9xX9MliX52Pv1SXdpul525/73vvc79m5Wpfbfc5Tgdv86DeXLBWgcqMtp01XTN1ik7+/S+0YPgsrci0U8eiNd/eoHYqH6GHHrtQz/z+Af215h49OyOq7X59pS7dYYqG3PieGqTT1teWaxs6dKg+//xzDRgwQI888sg6F38bpiFt/z2FB+nyG49R8l+/0EOTv1Dquvt19P+u1i0njdQZT7snEtfoIxva7uMboZ0BAACauJmDL9JlJbfo8ov+oYeLfaXKl2nRZ6M1aWUoqVLj//pb9V11jS47+WYNvCRPXuVizXz1Nr32P62xAHzIrw5R0We36tUla+8h0JLXXtH4fn/Ur49uqScfW2HvMyzTezedpauS1+rcS+5Xn5IazftsqTJhoOwPnsGzmv/vC3Vuzk265qKH9XzzrJZ/9j/dcN5tenMD/rbR94XRHtq1Z0z5xTfq6YO/F2Sm6V+/Pka3TZKGXHSahjR4i2nN+df5Oj/vVl17xWD9Im+1Zr99p86/6VnNXb8/U/VV+bxc5eeFStYkv/0Qb2byY7qp/xqvUk1NrdSuqJ4tbF08z1M6ndbAgQMlffUTc9FoVN123FFvv/qsarbb/Qe/PuQt/1Le+A8VjTbqX6UCAAAAYLjvvvu033776Wc/+5mkrxaF//GPf2ySfS1YsEDnnHOOnnrqKeXm5n7772VlZfI8TwMHDtSDDz6ouXPnbtR+vv/t3yAIlMlkVFBQoHHjxqlXr15rvHbs2LEqKipSMpncoH25PhzsBRvy4WFfpb+8Wr9v/YL6PzRVyWxMn05YoSuPP1E9Ro1T9+N3U+WEBzaovI32tLU+kwYT7jhd56zur8tPu00PXJ5QUDZLb9z2jl6btlJv3HG9nrjzCl18/9GKVc3Rh/eMrXcBWErq06ef0aTfXqCiZ5/QB8l1f3K4Ydu0J0hqW/bQ4b87Q1d3KlYiU66Fn7+u2656ZKPqbGOtT51LoeoypfrZhXfo/HYxVc0epaf/eLPu+uj73+F0v+blgf/Wkbf+n6475XW9eefan+SuWnfbvnS/Lr+xhW658BYNPitf0XSNVi+focnzv/vUfcPaqVaT7zlT59Repz9dMECPloYqm/qWHjr3z3rgs3X/3PX3RbfCtqzP1KlTlUgkGuEnEBrS9t/Z9pz+Ok2P69x/zVCdPGnWI/rzkJP0vz9eqiNf7a8RjonENfrIXzew3cfP3eh2BgAAaBrSmvjnfbR9PYlXN1MjbjlNI9b1QzbpRRo18A8aNdDew4gLe2jEOjJvwWCd1m1ww/dZPVnPX3+anr/+6//e7lK9MOx4rajvw87ZJRoz8Hz90lE+U+p1Xb9n9zXLnHpd1+7eVdc20vYkSdnFGnVPXx1zj3sTz5+5nZ43cq/uZfXr+bKrIPq4/271tvvWyPO8bxdzM5mMMpmMjjzySD3//Pla+cjfpd9coDAWVxgG8lYuk3/jOYqVr5D/9c9GAwAAANg8+vbtq/fff1+e5+ncc8/dpPuaOHGiLr74Yg0ePHiNfw/DUNdcc41mzJix0ftY+2//TpkyRX369NH555+v8vLyb/+ucSQSUUlJiU466SRNmrQhP+UkuT8cvAEfHi46VJdcspOmDrhCb5Z/tY3JD16tQXf/WY++fpmqJgzRVfeOkzbgj2Z6paWlDfyLxPgxu2D4DJ327i906B3T6vsTTA1+DTaPUaNGKZvNqn379urevbtSKeuvttloVwAAAGweUW171Jna25+pOV9WKFO4ow49/0/qW/qYTj/+7xpbx8/9/hR88w3gc889V0OHDtXCJUsV77mnMtvsqPTqVfI+H6NYRZkSicRG/fwaAAAAgA2z4447SpKmT5++WfZ3zjnn6JFHNs+X8Lp3765bbrlF3bp1U0FBwRpZZWWlpk2bpuuvv36zHfuWxO8tAVupjh07SpLatm2refPmbeHSAAAAAA5ekdrtfrTOOn5btW+eJ79mqWaOeUyXXT2Qxd+fEN/3lclk9MADD8jzPOUl4kpPHS9v8jjl+L6i0aj8nBz+/i8AAACwhWzuxc/NtfgrffXLqieffPJm29/WjAVgYCu0//77b+kiAAAAAOsnLNM8Wi8iAAAgAElEQVT7t5+kI2/f0gXBlub7/hrf7k0kEluwNAAAAADw08NPQAMAAAAAAAAAAABAE8Ef3AEAAAAAAAAAAACAJoIFYAAAAAAAAAAAAABoIlgABgAAAAAAAAAAAIAmggVgAAAAAAAAAAAAAGgiop06ddrSZQAAAAAAAAAAAAAANIJoeXn5li4DAAAAAAAAAAAAAKAR8BPQAAAAAAAAAAAAANBEsAAMAAAAAAAAAAAAAE0EC8AAAAAAAAAAAAAA0ESwAAwAAAAAAAAAAAAATQQLwAAAAAAAAAAAAADQRES3dAEAAAAAAAAAAAAANH3RaFSJRELRaFSe50mSwjBUJpNRXV2dMpkM5WiEcnhdu3YNG7OgAAAAAAAAAAAAAPCNeDyu/Px8xWIx83XpdFrV1dVKpVKUYyPKwQIwAAAAAAAAAAAAgEbneZ4KCwuVk5OzXu+rra1VVVWVwrBxljF/auXgbwADAAAAAAAAAAAAaFSe56m4uHi9FzslKTc3V0VFRd/+LDLlWL9ysAAMAAAAAAAAAAAAoFEVFhYqHo9v8PsTiYQKCgooxwaUgwVgAAAAAEDT5pdq56N+o76XnK/DO0a2dGkAAAAAoMmLx+Mb9E3XteXm5m7UoulPtRwsAAMAAAAAmrboLjrtput1+bknaPfS734uy89ppo7ddlTb3C1YNgAAAABogvLz87eKbW3t5fD9dS/VritrSDmiDSsWAAAAAABNh1f0C9379m06NDZZ95xwmv41O7uliwQAAAAATUI0GlUsFmu07cViMUWjUWUymUYvx1lnnVXvv//nP//Z5OXwfV933nmn3nrrLb3yyitrZMccc4x69+6tK6+8UkEQrHc5WAAGAAAAAPz0eL6iEc/9OgAAAADAekkkEptkm+u78NqQctS30LuuReHGLkcQBHrzzTfVr18/xWIxvfjii5Kko48+WldccYUGDBjwg8XfhpaDBWAAAAAAwI9XZEf1+fOVOmmXbdWhVTPlR2q1fPY4vTbkfg0aNk1VoeP90Z102bCJukxSetztOvrsx7Wk/udrAAAAAEADRKONv/y4Idu03vPOO+/U+++HHHLIZi3HiBEjJEn9+vWTJKVSKfXr108DBgz4dkF4Q8rBAjAAAAAA4Mcr0k67H7KPehaESlasVFm6QK27Haqz/tJLPUtO17lDZsn8bHaY1KpFS7Q6LWWWVIgfggYAAACAjeN5jf9rSxuyTdd71l7sXdei8KYux4gRI+R5nq644gpJ0t133/2Dn4Re322u+y8LAwAAAADwYxEs0tMXHaZD9j9UZzw8RXVekfY89yztm+t4X3am/nPhL3XcccfpV1e/pGV8+xcAAAAA8CPHN4ABAAAAAE1HWKHP/vs/TTyzh/Yq7qGeHSJ6f96WLhQAAAAA/HSEoetv8Wyebf5YyvH9v/n7zU9Af/9vAm/INlkABgAAAAA0KWE6pVQoyfcUiazrRaG+elz25Tf+r5MBAAAAwE9WJpNRIpGoN3P9zPK6/gZvOp1u1HJY/vOf/6wza+xyHH300fX+zd9v/ibwuhaBXeVgARgAAAAA0AREFI35kqJqd+gh2ikqhdVzNWtRVgqzygah5BWrTZt8eSpXWFepqlQo5bXV9l3z5c2qkBeNSpmM+BVoAAAAANhwdXV1ys/Przdb1wKvSyqVatRySA37m7+bshy+76t3794/+Ju/3/xN4N69e2vYsGEKgh8+pbrK4XXt2rXxv/8MAAAAAMDmED9Et793n35RKIWpSi1fFaioZbFyvKzmPfk7nXzbx6qOdNbZj/1PV+wal1Jf6tnLjtNN7xXoxAeG6eYDC6R0hZavSCmnZpgu+PVd+iyzpQ8KAAAAAH7cmjVrplgs1ijbSqfTWrVqVZMsh+/79S7wWllDyuFvUCkBAAAAANiahLVaumCVYkX5UsVcffj41fr93R+rWpKy8/T0LX/Rc58sUEWmSqtX1EnBMr14yzX69/uztCqTp9LSuCor6hTnd7IAAAAAYKNVV1dvFdva2suxrsVfK2tIOfgGMAAAAADgx+ubbwDnLdSjZxynOz7l67sAAAAAsDUoLCxUbm7uRm2jtrZWlZWVlGM9y8E3gAEAAAAAAAAAAAA0qqqqKtXV1W3w++vq6lRVVUU5NqAcLAADAAAAAAAAAAAAaFRhGKqiokK1tbXr/d7a2lpVVFQoDDf+h4x/iuXgJ6ABAAAAAAAAAAAAbDLxeFz5+fmKxWLm69LptKqrq5VKpSjHRpSDBWAAAAAAAAAAAAAAm1w0GlU8HlcsFpPneZK++mZsOp1WKpVSJpOhHI1QjmhjFhIAAAAAAAAAAAAA6pPJZDbb4upPuRz8DWAAAAAAAAAAAAAAaCJYAAYAAAAAAAAAAACAJoIFYAAAAAAAAAAAAABoIlgABgAAAAAAAAAAAIAmggVgAAAAAAAAAAAAAGgiWAAGAAAAAAAAAAAAgCYiWlNTs6XLAAAAAAAAAAAAAABoBN70iZND6wWZjGduYFWy2swXTpxk5mHFUjNv031nMz943wPMXKXFdr6xMmkzLk9WmfncCdPNfOyHH9i7j9jbj+W1NPN2RTuYeYtOuWYu2cffMs+u/0y00M5zEmael2PGqg1SZp6at9LMy5JfmnkY2F+iz2m/rZkn4vb5FffsPCo7j7i+5B+PmnEYSZp5us68fCgS2HnMs3N5cTN2vFueo39mw4iZpx37Dxz1m5+ts/evWnv/oeP8sYsnhXb/jzjaLwzt/uVFXf3T3r/j8qlUzNE/w8Cx/5iZxyL2+5csmm3nn88w8+577WHmu+9v37/COvsDWtUrF5v58qUrzHzB0iVmXpe0+29dNmPmQdbuX7n25V3b7ry3mXfdbkcznzfjCzOf9MkoM48Wl5p5IsfOk8vt8U3nrq3NvPte+5t5+ZIFZj5+zHgzX7ZkkZnHHA0Uyy8w80jGvj4mQjtvt0MbM+++q31+KW6PXxbPtfv/uDEjzbwuYV/Adti+l5kX5Nn3n7rAPr+8rH0DiDvqN/Ts619W9vkvx/OBHNdfRe39Z+zqUUT2/SHuOL4wnTXztGfn8u0Ceo7xj6v2HLdfZ/tks3b5fEf9ufqHkvb2Y477dzZmjw++rKow8/LJM828qNg+/3vtYV9fizq0NXMXx/BGStvja9U5xqd29Sovx3H+baRPXx9u5pPm2uOPqvKFZp7It69v+zrar1uvfcxcWXv+onLZajNfuswef1VW2M+Xq2vs/SerXONr+/qel28/P7RqX2TmnXfYzswTec3M/IupE8x86sTJZp7bwt5+oqU9fkqX2/0vtdqePwmz9vOZInb9J6N2//W8PDMvLLDbryBhX99KHNe/SMQuXyptX58Dx+0hG7UvUBHH80M2Y98/447xQ8QxfyI5HkBi9vtTWcf+Hc+XMcf4IgzsPHDs33c8Hwcxu34zgWP8kHZMwDnmt4LQMT/k28cfdfSvlOP9YWCXz3ec/nL0f8Xs60PEcfwZxwixzvF87Tvm13IdE2gRx/OD6+tj2Yhd/7mO8mU8ewSVctR/PGv3D88xfor4dv1nHQMw1/SmY/jtnH8LHc+Hrv7jOeav5Th+Oa4/oe+oAMf1R47zM+J4e5i266c6affgIG33v9C374+JuH3/Lo47xuc5dvtUlNv7n/n5ODOvdZxARxxxjJm37dzBzGuWzjfzOYtmmfmqleVmnnbM33uOE6xFkd0+hcX2+DMnZt//fMf1XYH9/Bck7fapkF0/5cvKzJyfgAYAAAAAAAAAAACAJoIFYAAAAAAAAAAAAABoIlgABgAAAAAAAAAAAIAmggVgAAAAAAAAAAAAAGgiWAAGAAAAAAAAAAAAgCaCBWAAAAAAAAAAAAAAaCJYAAYAAAAAAAAAAACAJiIay4+bLyirTpn58sVLzdxT1My323k3M9/zkEPMXImYna+uMePKunIzD5J2HlXEzOOF+Wa+Q9dOZt685dFmPmnMGDOvC+z2a9+qysxLSovMPCe3o73/8pVmvrRinpmrzO6fkSL7+KpXJM18dSow81wzlXK7tLNfkOOZcVEkNHOvLmPmKcf5FYb29sM6+/hDzy5/RPb7/WzW3r7jMyjZwD5+X3VmHona/SewD08x366/lOzjy0Ts/um6fmRC+/gj9u4lR/tHI2nH/u0Ksrfurt90aB+/F9j9K+LZFRBztI+XtfuHgjwzDh39w4vY7efkal/H+VGZsu9f5ZX2/TFM2+dX2nF+RZKO/p20DzBwHb9D1HF9SDje7+i+zubJRuwtBJHVji3Y7RONFZh5bp7j+p1v999EzG6/wHF/SId2DaUd5++SL+3xZdsVy8y8pF1nM487Gjjr2f07m7Q3kHHcHwPfUQDPvr9HHPUfZhz3d3vvcl2+PNn3j9Bxf4s6ChBznGB1jvpN+3b5As8ef3iO3HUFyDrax8/a2w8c47uMZ1dgzDF+iAf2++tCe/+BY/8Rx/jCd4z/WhTYzx/hNl3NPFi5xMzHjnvX3v+iVmbepvN2Zp4TKTTzPOdHsO3+rVr7/raiwu6fVZV2/Xw2cqK9/dVlZp4obG3muQVtzLy5b/ffghbtzVy+XcGpSvvtyTL7Bcka+/5dl3Kcf6F9f8nEHe1vP94qHdjjvxWL7fO7tP1yM0/kNTPzwjzH/IHj+uil7ftHaY49gsvLt/tfbUmxmYdZu3wpR/nleH5KxEvM3Hc0cI3n6B+hI3c8X8lxf/Ad2/ccI+hoxO5/MVf5HdsPXPXjuD8FjutH1O6ezvkP1/OF77j/B475vbRzfOgYn/j2/v2Yq/3s4085nl9drZ91bD+WcozvXPMvUbt/pB3zKxHH+DFwjH9CRw14ETtPuCrQMX0eRu36TTiuj6HnmN9xPIH4afsAoo73e475GecTkGN87pr/VMwxwMvYedpRPsftRXKM/72Iff+MO8b/oeMBLRPWmnnguL7HfLuDus4vx/BKvmP9K0jbKwCO00M5gaP9XfNDjgnUTOiYv8va60+tiuznk7ZdOpi5XPe3wK7fmG9fH2K+3T8d00eOq7uUrVtl5slKx/2rzD4/y2urzfzL1XPMvEVJSzMv7WSvHzbrvIOZ8w1gAAAAAAAAAAAAAGgiWAAGAAAAAAAAAAAAgCaCBWAAAAAAAAAAAAAAaCJYAAYAAAAAAAAAAACAJoIFYAAAAAAAAAAAAABoIlgABgAAAAAAAAAAAIAmggVgAAAAAAAAAAAAAGgionWKmS/I1qw288qFM8y8Y+t2Zr7nwQeauUvtlC/NfHVqhf3+tH18FeXldgHSETPu3KbUzPNL2pt5x7xWZh7sZtffssnjzXxVtRmrVW6hmReWFNkbyFSacXKm3X51VVkzr8hJmHkiz+7fiaLmZl7SvJmZK5Znbz9rl9935JnQkStqb1/2++3eK/kpOw8c26+LhPb25chjdgGCwN5/1lF/QRg385jj+OzeJ0U9u//Js+NEYNdPJrRbMOL4iE80kTbzpKOH1NjVoyAamHmeb1dAaB++5DneH7Fzz7ED1/kRidvnX9xRPsmuH4UZM/aq7LdXV9nHl6yxz68wW2fmkaj9fi9u3x9i+fb1s7C0wMw3VuDZ9ZuTsOsvVmif36sX2fVXOdO+P9buYo9P8lvY46u8WImZR7XMzOtqHTcAR/8NAvsMyjquT77dPKqutsdnJXJsIOK4v2bLzDy5xK6fZEd7/BnN2neQIJFr5umIff/Kidj90/PsBkin7e277v8xz849xxU2dGzfc9zfs/btTdGo4/7guEFnA7v+PM8+Pi+0z5906DoA+/1Rx/7jjuPz4nZe4zvKn3VcP1J2//d9u/wtSorNvMIx/lq5dKGZV06bZObzZti5X9TazstrzTzu2/ePMGrXX2XlEjNfvrDCzBeusAcYObk5Zt4iap8f8cBun6oW9vOv8yPsjjxZZ9f/8tRyM69WjWP79v4jvj1+zMmz+39dzHF9kn39yPqrzLxsof38X9Lcvv/mFDier2J2/0k6xq+qs68/Xo5dv/n59vXDDxz169n7zzje7zly39GBo47c8+08E7H7R+g4fyIZ+wW+4/7i59j9w3PUb5B0zK94rgdIe3wYpu33R7OO8Ytj/67xjRz371jGPn/8uF1/rstnNuvovxHH+Sf7/p/w7frJOiYwPOfjiWP+xPH8HjrOn0RgX+Czjv4TuqYHHPNjnmMDUcf9V47xbxA45h+idh5kHfXruP4p6hg/O84/x/BccUf9ut4fOOY3XdWfSdvXX9f56Tp/HNNrCtKO52NH/wrsy7d7ftnx/JMKHPOTnj3+jTpK4DnmLyIpx/x6xFF/jucz+XYFuu6/6bQ9fs3JsfvHNt062jvYyAF2brE9fxGtsNfHcu3pQdVmHPfvCsf6k2v+IGuPj8vL7f0vXL3IzPPi9v27sFlLMy8uzjfzXEfON4ABAAAAAAAAAAAAoIlgARgAAAAAAAAAAAAAmggWgAEAAAAAAAAAAACgiWABGAAAAAAAAAAAAACaCBaAAQAAAAAAAAAAAKCJYAEYAAAAAAAAAAAAAJoIFoABAAAAAAAAAAAAoImILpwyx3zBiiUzzLwukjHzHXu2tkuQk2/GtYvKzXxl2VIzr/aqzDyMpM08N5Fj5lk/YeYrK7P2+71VZl5a2tbMi0pamvmSguZmXlmxyMynL7Trr6e3zMwTuXb9dN1zPzMf+8H7Zp7O2u3XMt7KzEtbdjZz3/kRCXv/WcdnLFKOrQehZ+YxBfb+IxHHHmzZuCP3Y/YL0vb1QVFHAaKhY/t2AUPH+RlxtE+YtevXk+P4Qrt+Mo7q8z17/463K4g4+l/Grr9MnaP+o/b1Le7Z/S/w7A4QD+z6DRzdOxs6Olhgn1/N8+zr69LcZmb+xcwvzbxL+8Vmnsi12ye30C5fQWylvf1ItZlXBbVm7up/sYTd/1q2aWfmrUvbO/ZgWzTPvr/ZvVeK+fb9Ny9mj1/8mF1Ds+cvNPOdF9n3X9m3L+1yyF5mXvGivf0V5RVmnk3ZeSD7+pGVfQLHHOdv0KzIzFOOy9fSsk/NfPHnc808Xmyf//OmTjbzRHGumbsEWbv+SlqUmHnrku3NPJpv3z8le3wsx/gk8B33B9WZuee6PcXs62fU1T8d94fQcwyQHPfviCPPceSpwL6++I76CRzjK0f3Utz1GWLPzrNZxxXYMQCNFdrHXxyxr8+R2LZmXrnafn5aPGuqma+aY5//tatWmHnCs8+vLl22MfOI7Otju23t61ebnQrNPKe1nc+fYM8fVFfax1+bsscnFeleZu66/qTSNWaeTFfaeZVjfBq3r5++Y37BcfrKy9pPkKFjA57j/Ew5nm9r0nb9Zlz7d4xvVee4/ubaeZ2j/b2U4/6Utg8g9B3zR477T+C4QNulkzzH5TOVtevHizv2n3GUILRvEFFH//Ic5UtlXR3IzuOu9zskXPMXjvK7nk8zjvt7OrQbOOEYH0cdz+9px/N3WvbxZR09NMfx/O8Y/kuea/7I7l8Z1/jSd8zAZRznT2DXnx9x9D/XA6jjDuCcHnO830/bx6eMXX+u+avQ1b9T9v59e3gh33F98tKu8aljftCznz9cV5eU4xWu7hF1XF8zvuP+6FjfSOTYHdBx+XE+fynqOD88R/un7fMzm7ELWBfY7Z9wTPDHHPcvBXb/q3M8Pscc+w+T9vFF0vb43s+15x/nfzHJzLffxn7+cS1glCft9TvPcf5Hffv5LR6z5yejrbqaeU7U3n9tnf18korMMvMCx/hux27d7fc3t8ePtVnH80uZ4/pvpgAAAAAAAAAAAACAHw0WgAEAAAAAAAAAAACgiWABGAAAAAAAAAAAAACaCBaAAQAAAAAAAAAAAKCJYAEYAAAAAAAAAAAAAJoIFoABAAAAAAAAAAAAoIlgARgAAAAAAAAAAAAAmojokkVjzResLEuZ+TatY2bu57VY70J9X12mysyTddVmnkrXmnluPDTzvLw2Zl5ZaL8/rLX3X5OqM/NYXdrMC1oVm7nyomZcu7zGzOOrVpj5qhz7MwTtOrcz844d7Ty52oz1+YzRZu4pYm8g4shDu/+Habt9MolcM3eVzwvs7ceUNXMFdp727P37kbi9f9+z95+0z4+M3T0VZuzyhWl7/57jIy5e2i5AxEuaeRB11G/CUT5H+weBXX9BxN6/L9f+bTHZ+3flXmA3QFaBmSczjutrYNdfxHF99zxHDRTacfPm25p5qmKemU8f94GZ79jr52ae26GVmbcot/PVFWVmXre6tZnnxOz67dCpp5l36trZzF0dtOzLL8186YoFZh4E+Wae387uAEUJ+/qR28J+f5ldPE2bMNHM9+y8g70Bz77/HPDLQ8z8s48+N/OVS1ea+eqknXu+ff526LKNmRcGdv1WLppm5sumLTbzmqx9/89E7LxDfhczj4R2+1SWLzHzZNUqM89L2fevRWX2+K71NruZebzYPn9C+/IuL7BP8DCwxx9eYNe/6/qRdoyPlLXP79AxfpFnj9+yjv7j25dX+Wn7+Svj2w3gOe6/juGnU0R2+2UTjvGPfXiKOu7f8ajdQC1KHOP/mN2/iypKzTwds8c/BXH7+a3nXr3MvE3rlmaeaGGXv7jAzuUoX8Z+t3Zo18nMX3/hJTP3a+zzY/6kyWbeY5u29vYdJ1iq0u5f2azdQb38hJ3HN+75U7WuFrDVyS5/6Lh+ZmTPv9TG7AuI4/anINeeH6lK2vMrnuvyXmtf/9JRe/8K7f7TyrcPMJFXYG8/1+4fjsNTxvH8HXc8X3mO8yOddTx/Oq5/nmP+y/H4K9/xgmxgnx+hZ+dZx/N56Lj/eL59/K7rTzR07N81wHL0kJRj/6FjABW4yhdxXkBMKccAy/PtDXh1jvktx/xQ1nH8acf4Ne4Yf/lRR/065rdcFZh1zc84nm8Cx3fEXOMbpR37d4w/VWPfP1zli3mO54eoo/87rm8xR/8MnDNstkxoH1/Gcf76jv4ZOG7wrvdHHOVLua7PjhPQMfqR73h+ikUd9x/H80kQc8zPp+3xnRzDh6Tj+cZ1f4k3s8sfKSsy89qUPX8w5dMJZp5bbI9vUoF9fiQc949cz34+iefZ+49H7OejIGtfP1NZe35IjvWPdiU5Zt62UwczT5Ta/WvpdHsCsabSnn/jG8AAAAAAAAAAAAAA0ESwAAwAAAAAAAAAAAAATQQLwAAAAAAAAAAAAADQRLAADAAAAAAAAAAAAABNBAvAAAAAAAAAAAAAANBEsAAMAAAAAAAAAAAAAE0EC8AAAAAAAAAAAAAA0EREy1dWmS+oLqs283RxB8cuYutZpDUFVUkzX1FRZuY5cXv7KRWaeWE6bebRiF2+8pRdf/FEnpl7icRG5SXRiJnPTAZmXlVVbuY1q+3y17awt59vplJJa/sVLWfYeVZ2/cdSKTNPOOovGTraJ5Mxc9cnMDKBZ+ZZ3859PzRzL7DbJ0zZedR1ADl2nPbs+lXG3kEkbp+fWbt6lArt9sn17P0Hnn19C2XXfzTI2tt35KGjfArtCohG7fIHcbv9Fdj1r4x9/I7qUejYfSj7/Atd/duz2z8as+unuJN9/auaaefLK5aZef6ccWbe1t/XzAtLSsx8+/0OsHMzlZrn2fXv4rg8KVNj33+mvfeemSdkDwDiXTuaeW5gt79XZ5+f7Vq0NfPV7SrN/ItFy808560RZt6z99FmLi/XjHfdZ28zX7ZssZlnK2rMPCduj7/iod1B0rV2/5j/2WQzz3XcoA76+X5mvv0Bh5q5S1FR8Ua9f9mUCWa+dNF8M184d4GZz5vwiZl32quHmXs5zcw86tvnj+/b1++IHzVz1wirLrTf73l2+WKu+59nlz9wXD69Ovv6kyP7/hXKvv8HnmN84LgBB3K0n+P67od2+8RC+/ij9u6d4y8vZo//oxH7+lyxcqmZ58bsBj70zDPMvF1BczMPZbdPJqw1c88x/o3W1Jm5iu3xTcm2u5j5L06wr78jh79o5tlK+/o1a9YSM2/V1q7fojYtzLz2S3v+RI769R3Xv4irfzueT4PQHv8kEnbeMs++P+WpyMwr0yvMvHq53T5VKbv+Msvs+R/Jrp+so/kcj4+SVpppmeP62Kykq5nntW5n5vlF9vXF9+w8yLGvv47bg+Ip+wURx/0vk7Xb13M9H7qmF+3Lu7t98+3+4yqf53j+9R3904s47l9xxwUibY9vEhG7/TMRe3yTqHO0v5lKijjmrxzzX2HWPr5Uxu5/vu8YfzimV7JRu3wZx/jTOXp1lC+btftHGNgngBc6xm8pxwnmGOBFHB3Ac1SA56i/wDF+dMSS4/7rvP44xsdRx/ygn3BcgRzV73p7JOWqYDvPJu3rczrrmL90zE97jitw1HWGuPqXY/zgRxzPN47nT1f/tPcuBa75+Yi9hZjj+Ft0tcevqxbZ5V/imH8vmG+3f2GJPf6IlTgW6Irt+k/EHdef0B5fVtTYz0eZGsf4XPb9MVJYYOaxFvb8iFdnz595jgtcENrl4xvAAAAAAAAAAAAAANBEsAAMAAAAAAAAAAAAAE0EC8AAAAAAAAAAAAAA0ESwAAwAAAAAAAAAAAAATQQLwAAAAAAAAAAAAADQRLAADAAAAAAAAAAAAABNBAvAAAAAAAAAAAAAANBERLdp18V8wdh575t5+bJCM09lHSVI2nF55Wozry2vMnM/L9fOo7VmvjBdYeYVK9P29rN2BfglUTMvidjvD73AzCXPTGMxO/dz7fKtrqsz89wly808r307M2+en2fmsdJ8M0+n7Papk12/sUjEzEPP3r7C0Ix92XnEz5h54Nvt4ylh5559fNmsfXwVjuOLR+zPmISy9x+Vvf+YvXuFjvqNx+wLkBfG7R0EMTvPOtovYpcvTDkOMOPoXzl2+UPHZ4AijutH4Dvaz7PLF8jRf+P2+Z8v+/rnhSkzT4Z2+0Q8u35K8+37S3XLZmZeUVtp5isz9vH7Cz8389Yddv5qq5kAACAASURBVDbzNqV2+Ta1TE25mY8f9rKZr6y1+3e8VSczb5ZnH380Yt/fArt7KZtr9/82u9jjr6Wj7f4xdvx4M1+5eKGZ7/TzX5p5886tzLxVK/v+LfvtTsunjTXzRRNmmHltnT2+a9mjl5lvv/duZu5mX1/cuX197LjT7nbezc7zP/vAzKd9NMXMl0ycZeZdd9vJzP2I4/oTs6/vvuP2GDjuX9GInWd9x/0lcIzvHeOrSGA/P3mBY3wfs69P6dAuXzZwjP8d44OYc3xUbcZpx0eQHcVXNOMYfzkGiBnH+H3RDPv5xUva15e9Dj3QzNu1bWnmqnZUwKpVZlyjlWaeXG6/3yVe1MbMm3Xdxszbdulm5nsfZD/fz/h0tJlXLv3CzFu13d/MO7dub+Y5mblmvqTS8XyXtAcQjuGpElG7/7vGzx0c49MWndra21eOmS8a+5GZL5hfZuZBzK6AQsf8RUF+ZzOPJOzyZwvs+ol4Lez3l08z8wXL55t5QZ19gSx0zH+06+Aof779/mytPf4II/b9KXQ8n8XszUtR+/zJ2s2vTMTeQcR1g5F9f4055lfkmP/wXLfPrH38XuioAMf8lesrQK75LxffMX5ydA85hlfyEvbxxx39M+oY/wSO+Qs55hfk2f2vzrH5uKN94o75s9DRfHHH/GEmsDeQSDnG544DCBz9y3P0f9/R/T3H+N71+OU55jfrPMf4OmPPLyYc/S+dsuvHdfw5ccf1L+JYH0k42tcxP+w4PEn2+MX37A2EWccJknWcAI7HBz+7cdevqGP3rqtrJG23X3XGLkCe7Pt7aA/ftWK1/XxTFbH7d4HjBp9K2zfAtOv5x7H8UuiaH3Bsf9lSe36y1rF+GWnhKH/S7gExueZnF9mx6/rs2DoAAAAAAAAAAAAA4EeCBWAAAAAAAAAAAAAAaCJYAAYAAAAAAAAAAACAJoIFYAAAAAAAAAAAAABoIlgABgAAAAAAAAAAAIAmggVgAAAAAAAAAAAAAGgiWAAGAAAAAAAAAAAAgCYi2mHXn5kv+PSd0WZesWqpmWers3YJPEcczTHzMBo183RO2sxrM6GZJ2vs94cVSTP38uw19jzPrp9IxIydViar7BfE88w4lrHrN/AzZp6UXb+ZlF1/cTOVwrzAzlMJM/eSjvIlUmYe+Hb/kG/XX7XjBIhkHHnWLr8idv/zHOdfjuz6rY3YeTZi13/Uc30GpcLefmDXbyRrXz+yoX2ChZ7dv7OhnXt29cjzHPsP7DMg5Ti/so72iTrKF7q6d2hfPyTH9d/RvyKO8idlXz8ivn3+JhzdL0w7yp+126e0tJWZR2N2/83W2dfvRavsfP7yt828xZxSM7fPHsmP2+d3nW9X8JcLlph5OhGzC5DX2oxbt2lp5tG4fQHMpOz+l47aJ4gXs7dfErX7T7Dfzma+ZKK9/XmVdWa+4tX/mXmrZnb9Nd+unZnbvVtatWymmc/7fKGZt2/ZxswLeu5n5l137GDm2Qr7/lPx5WQz/7Lcvv6UV9nbjznGB+2262XmbdrY9dNj1wPMPLncPj8XL1hs5mXLVpp5887FZq6sYwDs2/e/iOz6d9x+5HmO+6vj+vb/7NvZk2TXYef3c+6Wa+1VXV29oRuNlQABEKZIaUaWRhPUeORlxq/++7xGTDjs8dgT1kgKjT2iSJEUCYKAsDa6G7137UtmZeZdjl/tl98vJhB+yfh+Xn91t3PPfrPaoPsvM7yFUJrrm/PHTo9fbdDzl67T5Z8l/fx1MPMb0713re5BUmfmt5l+/rMDM/8Y6f597c6KzLdWbsncavX85vHpA5kfPj+XeWfmT/NWl2/5+FTmK9Njmd987W19/J3XZD6+94XMv31wT+ajsX4/N+7uyXzv5l2Zb8wvZX401eUfct3/p1LPvzd7egY3Ggxk3pju89d//69l/ne/+ETmevYYwtar+v3/6A//SJ/fTGB3t/X7c8z0MITwn8v06y9/J/N7n+r6e3Z4X+bjFT1+bBa6/qSk61/WufFRxmb0CaGo9QkWhb5+kZkNDjO+FHN9/tpsvzQ9Pf70zAw52v/RcRuE5vkXE5O7DVo9gDdmfpTM/K4Luv/sTP3smf2VzMwP2s7s75j3H8363hRPmJn96ZE5Ps90B3hp2m9Tmf3tVneAVdLXz037tvPPnr5+NM93cXIg8/nErJ+P9mUeGrN/NNP11w0vcWSev2/2p8bbMh9v6PVZvzQ79EnfX2NGALe+qMwGq9k+DWb5EFJyDVzHtns2XP9WmP7Tre+qYiTzK+u6f+8GuoAb036fLsz4emn6v5nZXzEt6Nz07yYO06ken+KF+X5jxs9g5i9N1OU/M/vv/AcwAAAAAAAAAAAAACwJPgADAAAAAAAAAAAAwJLgAzAAAAAAAAAAAAAALAk+AAMAAAAAAAAAAADAkuADMAAAAAAAAAAAAAAsCT4AAwAAAAAAAAAAAMCS4AMwAAAAAAAAAAAAACyJYmPzmvyDwSs7Mr98/JXMz2cH+g56Oh5GnW/1c5nPx6syn7UTmXcXrczbTsahzCuZ7+1elfloOJb5yeOnMp+dm/uP+vxFXsi8TroAuqSfPwt9mZ+k5zIPl0mfv9C/cUilPn1X67zJ9AmazFTwsJBplnT5B5dXjYxjMBW41vUnz3Segs7LpJ+/Nb9R6aLOs8y8f317IQTdv2TRtK/K5K1rH/r4LOj3217q92uKL0TTvu37KXT9zBvdwTdR14+60O0/zvX9u/afm/ffLPT586G+v82BHp8m57r/ODnW5T89msv86MW3Mu8a/Xxlo+tfl+v7763o+cXK7esy39kYyHykm1eoJ/r9TIOpv0kfX5r+swy6Aq6Venwcvf8DmR+/PJT5xbNjmT86uS/z+x8/knlX6/pz/5meH8aLI5mP7vwTmf/j3/uezNuzM5l/+su/kvnBqZ4/nsx1/9ZVuv2Oop6AvPzVv5P5Bz/8ZzK/ekPPPzduviPzB/f1+395rN/veO+mzItK978x6v4nmPHBTX/M8iNk0fxF0u+v6/T91eb8nblDt37SpRtCHJnx1czfytZMMJK7QZ23pn50rb7/uZkAdpeXMr+y8arMN0Zu/q/tH+jx+fnjfZlftPr+u2Dq30Q3kIVZf6x/rfuH2On6sX77jsz33n5f5i/+9q9l/nc//wuZFyv/pcyvXt+U+WB9XebXXf9m5l/dwvRvZvxdmPnbr/72z2X++S//zlxf39+13/+JzP/5f6bHr17frH/N+ijM9fw4ZHoCWbgOtNT913vvfV8fn6Yy/t3f6v5hvq+Pn2+6AVC/v8L0H8n0/8mtr8z46Jbv0ey/DE31iGkmc7e/0XZm/J7p5+vM/ZWm+kdT/938JmWm/zDr+yya9ZNe3oTMrK9rswHbmPlTYQpgHs38Itfvbxj1/VWtuYFOl5/bf7io9fnN44VBNPubQc9vG7N/1Dfl4/ZnWlODXzzS/ePJ4QuZT470+jNcmP6xrx+gK/ULGPR1/zU/1v37LOnxbT/o8lnf1OvDmzdvy3w80vtbwdSv1tQfM/sJudvfNPuPwXz/WJj2Hzqz/9rq99uZ8TeY/fdovr+Upnxzs3+er+j7zxZ6fei+r8xa/Xy16T/mpa7/bvwruyv6+vv6+1Q6MBVwqOt/0dP1L+ntTzv+8R/AAAAAAAAAAAAAALAk+AAMAAAAAAAAAAAAAEuCD8AAAAAAAAAAAAAAsCT4AAwAAAAAAAAAAAAAS4IPwAAAAAAAAAAAAACwJPgADAAAAAAAAAAAAABLgg/AAAAAAAAAAAAAALAkihvb+g/Wtm7L/PjFQ5mfffalvsAf/LGM19+6K/NUrsq8C1OZ3z85lnm5eaDPX3Yyv3n3lsy3dt7W55/WMr/38BuZn5zp5+8PejKPo0ofn5cyv75xQ+aDXMZh+kKX/+VUl3+2NpL5uN/qG8gKGafQl3nZ6eMX+UzmnS7+EBpz/7r6hCzoC3SlzrOQZB5n+v4yc4Mx6PqZCl3/cvP8Idf1Z1Ho99d0UeZZp8uny3T5dEOdx7m+/yLpAui3rnz18y1iI/Oy0nnI9G+Q8qifL891B5KFob5+o++vcw1oqK+fm/ZRdPr5h8OBzFNft8+1vWsyDws9Pizm+vB4qcsv6uoV9kbr5gK6fKOpH1m9kHkqdPtqo35//cy0n06fP0X9/jtTf7ZzPf6s7u3J/GJdTwCbuZ6/zLpLmT97dirztal+vrW1V2X+h3+q50/Oo3u/k/mzR7r9FxubMl+7uiLzUabr7/nsXObN+aHMD/f18129cVXm19+4KfOPfqHb72xi+pdG159+fyzzmHT9j42Zn2S6f4hmehUzPT4mk4ek+8+21f1DGfT8J5r+JTf5otH1MwVdQEXS86eQzPwm1+8nRD3+Neb6l9OJPn2nx59qqNcXodDHtwt9/YOXT2X+dKr718IsINz8ydTeEHLdviZB15/Tl/sy37mq1483XtH979ef6fdzutDr/5/++jcy/97ktsxXg27fg7G+v7rW68PZxYXMs6T7h+f7+vmfPnkh81Dp+enNd9+S+b/8l/9Mn9+ZvpTxy2dnMj8/fiLzoa6+IY70829d35F5uX5H5m+/+YHMH977XObnfT2B35jqPNvQ9afq9Pib5rr/jZluH6b3D2Z5HcbmD0qz/2SGp5CZ8b0y+xPu/I2ZHwaXG6XZ30lmfWWWryEGtz7W9S9W+vja1K/ObgDpB6jM+L9odA11/2GVmfIxw2fITf3rmRuoTJ6Z9XFm9r/c/LZu9PMn0wF8c0+Pz43Zv+jMDOeVm+/IfPPOKzIvXPmXZv/Dmevx+fmpXn+dP3wk8+NLvb785ku9vrx983WZj9b1/C6a+XMXzPhi9l/M54vQVfr4qtEvuK11/YrRVVCzf+TWl2Z/1SzfQmbGV5eHsd5/Hcz0CcY9833C7E83te7/80rn9Uyf//JM75+0Uz0/f2Hmb7e/967Mdzeu6PPv6++D/AcwAAAAAAAAAAAAACwJPgADAAAAAAAAAAAAwJLgAzAAAAAAAAAAAAAALAk+AAMAAAAAAAAAAADAkuADMAAAAAAAAAAAAAAsCT4AAwAAAAAAAAAAAMCS4AMwAAAAAAAAAAAAACyJIgwH8g/u7JUyf/x1X+Zfnl/I/Hu/+kjm+e23ZL5x7ZrMq0LGYf3WqcyfPtuSed+cf228KfO2ncr8tw8/lvnTTz+TeapWZD7a2ZH5tc01mW/2tmW+886qzNvpicwfPHos8yxEmW9v6frbhE6fv9V5mcs4pNDq4zN9/6dRXz91SZ+/6cl8EfQDdFGfv590nrX6NyZdp/N8ZBpYY47PzPsd6PuPXaMvr19fyPTrD9mglnlq9QVqUz+KqI8vTPtpFzIOWW7qZ9DvL2Xf8TdIc33/MdPv19X/otTvPzPtI13KOMRCXz8z/cO2a/+5aT8jPT7N9PQgtOu6fMzhIV/oCjYzx5fBlL/rn00HPjT9k3n9oTbVe27uP29M/1vp9rdinn9kJkizqN9gzDdkXhX6+HJ6KPNbN16R+dqanl90Zy9lfvT0ucwnpgJf3dLzq81Kz4+T6Z9D0u/3+Giij78055/o+VeodAXau35X5g8fPZR5fazXB73BWOZ2gDXts4lmfmIaeKdfT4hRl58bn8pa96/u/K2Zf7n5SzLzizZU+gSNzouenv/E3Iy/SR8/L/T4kkz9bqN5PlM+Tneq639e6/M3ZnwISZdfnunnH5j5R2bmh3Wj+6e20ONPs9Dr4yLT85eru9dlfnSq3+9opNePz56/0Odv9fu18wfzfgv3G/5cD2DnzVzm80zn65u6/P/0++/LPJj1QTDzg8/+/hOZn0Vd/+vaXN/M/8YT/X6L3lDm2+umARk7196Q+cv9fZk/3T+T+Y2Rnt9djnX5DM34FBa6f1uY9Xsy+w8h6PrbmP7NSeb+OrP/k5kFiru7xsx/8qD7r2CqXzTzIzd+hM7sb5gOsDXrc7f/544PUbf/2OkFvFuftblZP+Zu/qOPT+b5V9zwkOn+sTX9nxNN9Wunuv08/PK3Mp9cHMl8fUWP/69/8EOZX39Vrz9LWzxmfuimj678M71/r+8+hJN335P5t7/5lczvfaa/Pzy+95XMr70q4zDe0+8vJLN+a3X/6NZ3sTH7/7XuX3pmeLqszPrVLNBiZxqYibPcjE+tPkGmu6+Qmf2L3oqef6e5KZ9C918zs/9ZmfozXtXPfzDW3x/3L76UeXes1w8hvCvTtav6+lfu6/k//wEMAAAAAAAAAAAAAEuCD8AAAAAAAAAAAAAAsCT4AAwAAAAAAAAAAAAAS4IPwAAAAAAAAAAAAACwJPgADAAAAAAAAAAAAABLgg/AAAAAAAAAAAAAALAk+AAMAAAAAAAAAAAAAEuiaMwfzJuezFdXrsp8tLIn8199+7nMr18cynz7lTsyv3LnVZkPwqbM767rfHJ6JvN0NJf5k6e/lPnTB49l3vX7Mt8x5XPn9l2ZD8b6/W/urMq8bVqZf/HZb2XeNKXMV2/o65dhKPOuTTrvcp339PNlrcl19QgrWZR5E3Te5ub5gr6/ZN5fnem81yvM9XUeOxmHvNV/UOfm+TJdPoX5jUzP3F9T6edzD9i70D10XujnawpTf8ta5pfm/Hmty69d6PabTPllboCqTf0cm984NTpfBF1+ea3bX+z0A7ZRl39Kpv6Y+6vN9cPlQl8/0/cXMn1/80ZfPw86TyZfdHp8mpvHL037N91TmKWpzJPpP7Ku0pc399cE07/PZByCGR9CqQswq3X9yxpdf6JuPmG1dfVfm0/dbxxN/Rzp6/czPf/qCv2AnSn+4NpPq8v/ZGI6UNM+qnJF/4F5f/OgJzh1YW4g6P7JDRB1GMi8NRWwTa783P3r8+f69YVkyje5+Zs5Pma6fRRufrYwedAdUGbmb51+PDv/LDLXP+n2m8z8bLE4knloTf+3uiPz8dq2zG8enMr8aa3rb5t0+V2a/unCHK9bXwjdiu5fyiv6+UNt5letXv+tr+jxd7CzJvPV1XWZL6amAre6fbSm++uXen4dzfr23NSfwap+g2/kev41vHFT5sHMX778jd4feHx4IPNMv97Q5Hp/J5n+uU56fIuH+v1u3j6XeV7oB1gd6/bx7Kk+/9yMH5cTXQHHlT5+Yc6fmwmQm57HaObHJg/RzA/NAJ3c+VvT/5rpRWPyLOn7j5VZn5v++8IsoEozvyjd+s48X2rN+sncf4r6Aq57jgs3gdLzn8ZNsM31s2T2BypdPxuz/9WY+hMWuv+JpX7+dKmvf/D8vswv5rr+bm++IfP3f/JDmW9mZn5h9mdn9b7OZ/r5T834UJrxZzjelfnqhj5+3Xw/WP+Df6zzqyOZf/Qffi3zZ4+/lfnVDT3/uDIey7wzBbgw67fMzJ/c8NFLZn+n1RWsMfsryawvY27Wn+YBUvbd9tfd7ssw6udrB7r8ZxN9/sYsgBszwRuY/dXeK3p9EPZ1+/r4d/r758att3R+87rM3/yDP5M5/wEMAAAAAAAAAAAAAEuCD8AAAAAAAAAAAAAAsCT4AAwAAAAAAAAAAAAAS4IPwAAAAAAAAAAAAACwJPgADAAAAAAAAAAAAABLgg/AAAAAAAAAAAAAALAk+AAMAAAAAAAAAAAAAEuiOHt6IP+gnp3IfHfvdZlX61syn89fyvz+o/sy/+bzr2T+zgc3ZL756o9lXso0hPrgXObHZy9kfjiLMl/felXmmzdvy/z6zT2Z93v6Cd3zp0v9/J9/9UuZHx7UMi9WRzLPq3WZZ0mXb2h03o314SF1Ms5Dqw+3P8HQbyDv9PnbXOd5rq/ea3TeRf38i2iub95PHpK5vj6+KcwDdvr8rY5DZl5ganT9bhf6/E3el3mX6/N3sZD5RdAvOEWddzP9/st4KfMYdfsOpb7+wtSPLNPvJxvp+mNuP3SdOb40/U9u6nft6qc+f5Z0+6tb0z5N/5SZ/qc2za/V1Sf0zPlDp19QCvoGTPMO0fTvwfQv3UznWWeON9Untab/M/1jZvrvzBR/4/pP07+Y4TGkYMrfMKcPZ2fHMs9jT+Yn5UTmV4Z6fhKSHgAWnRlfTfn0XfHFyvyBlg/nMk9xpk/QM/V/pOc/aa7rd+r0+BdKXUNiMv1HozvIONIvwHTPIeRmfmp6sMI0P9f/+f5Rv//C9N+Z+Q2y6z/qVueDma4/W8OhzKdzPf+6fHEh87NOr482eqsy72/dlvmo0ePf5iO9/jTTmxB09xeqnq4h1VDP73b2dmS+3tP908VkKvOzxanMu55+/9fX9f1lKwOZN6Xu39u4InMzfQllqV9QdqnXB9WZHr/yxa7Mr//Rfypz9z8Gjz7+B5k/ONbvd3qh+5d+ZiZQK2b8KnT/Pel0+x+Z/ZXpqR4fh+u6/o/2dP8xeKwrUDvV91/lun4XU11/6kKPv1muy6dn1j/R7C/Uuvrb/s1Mb0Ns9fPlSeetfT49vlXBPGCry3dhpke5WYCUboPEjN+x1ffv5v+1ad89swLozP5YY+pnMvPDLOr+ry7088egx4+8Ni9wpt9PY95fXpj1o7m/w4sjme8fPJP5MOgN2B/+6PsyXxltyzxc6vp5dvxU5hcv9feTg5meYeWmfmQ9Xf6z+aHMm7OrMu9fkXEYr12T+a3XfiDzutbz39/95guZHz3Yl3nxfd2Br5r92awzudmfM58PgtkeDaNgTmBytz7KTf9YmP4rmPGnMevT1uw/Lzrd/y3c/oXJK7N/4vrvptHvf9V8H9q6fV3miy++lvkv/vL/lPl7f/bfyHzvql7f8B/AAAAAAAAAAAAAALAk+AAMAAAAAAAAAAAAAEuCD8AAAAAAAAAAAAAAsCT4AAwAAAAAAAAAAAAAS4IPwAAAAAAAAAAAAACwJPgADAAAAAAAAAAAAABLgg/AAAAAAAAAAAAAALAkiv39L+QfzNtS5it3b8j8ypWrMq8vV2R+uP9S5peTfZn//Lf6+Ov3/43MN/fuyLxbGck89Poy3lrdk/naji6fUchlni9OZH5y3Mi8udDl9+jgQOaLTsYh39DPNxxsyrwMun6GptV5p58/1knmPfMbipjr95MKfXwbCpkHU74rYa6vn+n7C5XO61jr89e6fKtGnz+a62eVLoDS/MSlrU39MQWcdyYPUeYp1/UrJFN/k37AzJw+r837n+jyuQgLfXxclXFV6PJpM12/2qgfMC30+fvm9kPSxy9M/UhB31/UzSNknak/5v0Wrb6/LtPnN7UjlPrwEDNdP+fm+GnQ9X/Y6gJYMf3r3LY/HQ+jfoB5qcf/uNAXqKN+/sxcPzd5menzu/a1aPT5h0M9vvcqPb4/fPxE5m+enct8MOzJ/O77P5L5px9/LPPzY31/zameH2W9ocwXs6nM3fTn7hU9Pw9jc/3FhcwvDp/KvJ+b+V2rr5/qSueZnh+1rv81w2tu5m9FX9d/17/XU90/18mML66D7swEyE1/ctNBG1muL5CZ8glm/Hfz76LQL3hdV6/waFfPX548fSzz2199I/ONH16X+eb1DZkX1fdkPtoYy/zkUK8PuqALaFDo97u+ptvn3h29vnYe3Pt7mae5rh97o12ZL0zzKWa6/Mz0P6RSN4BkTjCPun+46PT9zcJE5isD3f6KlXWd9/Xxs7m+/8XZTObJrD/6mR5fYqXzy0bPL+YTPb6c58cyr0/189Xruv8ZJrOAMQvA0qwvOrM/0PXM/oYbPnT1CJnZ/1i0ZgBpdP0q7ApH32Btyq8x+6dZzxRQX99f07n5jXs+rTcw+yutvv+60e+vcet3U39zk3dmguTWr6WZH3Stnl+Y6h2CWd8mM0F10zvXfrLo5k9m/tno8p9NLmUeKn387jW9vz7Y0fOn0Oj+4eDwkcwnT57JfN9twJoXZJp3iCavMz1+n08fyHz6RK+/Lxs9f9i58qrMN175UOabX+rvT6ezM5m3B/r+8i29/s873T6imX81pn1kQdf/2rzgdmTG31r3D3mn5wdNrXuoPNMdYJVc/2L6D/N9pTP7e65/DLkrH/P9zNx/2Zr1xdWbMn+Z6fo5f3xP5r/+q38l89vX9fX5D2AAAAAAAAAAAAAAWBJ8AAYAAAAAAAAAAACAJcEHYAAAAAAAAAAAAABYEnwABgAAAAAAAAAAAIAlwQdgAAAAAAAAAAAAAFgSfAAGAAAAAAAAAAAAgCXBB2AAAAAAAAAAAAAAWBLF2effyD8YlPoEO5sDmW9umDvY2NZxf1XmJ7t7Mn++/0zmB8cHMp+dnMh8PJnJfPWafr6qdyTz6fGpzo8mMj+Y1DKfLfT5Z12SeRaGMl+9viLzlUyXT5np3yhkrX4+c3hYhFz/Qd3o3P2EItPnj60+QRF0+bvzZ50+PLU6d+cPWSXjXrOQeTQvyNx+0G8/hLKZy7zoTP2K7v50AcYi6utn+v3WSZdA0qcPZafrb1br91tUhcy7rifzqam+Mek3WJgKUJkK0NS2gcq0K/UDNMn1j7p+lKb9RdP8FlFXgNqcoMr1AJ+b9hvM81Wlvr9oyn+RdP1rFrqC6NoZwsC0P9P7h2yh72+ku5/Q9PQV8qgreJfc+KHFRpdfm+n3l3emgpr319/T87t4rE9//+/+jczv/Pi/kvnN730g84uhrkGf/fbXMl+cXMg8TPX8Mc91+a6N12R+7Qfv6usbk8efyPzy1NT/nl4A9NdHMs+Tfv62mso8C6b/mevzl3M3Pny3+UuemQGg1fe/aMz80owPpZlf1ibvTP9wmev+Lea6hDLTf2Tm+oWbv/V0/7p9ZSzzyxf6/h9+8aXMd3o7Ml/9/ls631n/Tvn0il4/Zgs9Pyh09xMKsz5w7n/2W5l/+7Vev/dX9POXO6Z/MPNrMz0Pwcx/3PohmP6pMPPPNun2l2Z6glKa/Z/tnisA7aDR+w9Z0jcwMuvn3qbpH031nJn5UWVeX2Xqf3epx383AY1z3X+lwszPKr1/V9V98VdxdQAAIABJREFUff6ezsuk1w9FrQvwsv/d9k+imT/kjangZodhujDtO+r22RvqF9yY9VubdP0auv7FjJ/B3H80Mxyz/REa937c8lNXP99/m/3DGE39MO+ntA1Y19+m0e83mfJvcjN/Mvdvho9QN/oPLie6f+/M/t/1vdsyd+vb04PHMj/85oXMT9K5voDZXqp6mzJ3899omm8z0eP36cmlzIuxfj/b6YbMZ4MzmW/2dfsZ33pP5if3Ppf5+VQX0M6OGf/08jOY4ctOAHOz/2m2P0Oy8ys9fzg7eWmO19z+8ML0T6NVvUAw04cQCrP+bMz4a75f5GZ+0brhs9X7Q1Wm891tvf57NtP7G48f/E7mX/zVVzLnP4ABAAAAAAAAAAAAYEnwARgAAAAAAAAAAAAAlgQfgAEAAAAAAAAAAABgSfABGAAAAAAAAAAAAACWBB+AAQAAAAAAAAAAAGBJ8AEYAAAAAAAAAAAAAJYEH4ABAAAAAAAAAAAAYEkU05DLPxjduivzjf6KzONMnz/pOBRjne/Eocy31vT9Hx+t6QvMkoyTeYCjs3OZn8/05cNEx7PQ6T9ozDf+Sj//YNiTeX+10nkYybxLUeYx6gJKsdXnz0qZV7GQ+cTcX13ovJf09YuFrl9Zpp9v1tf1r636Mg9NLeO5frxQdo3MY9DP1+a6fJKpvlnQ1+8WunxiOJP5eT2V+b5pnzHp49cyXcBtpetnEfT7XRno9t319PmbUr+AvNH1s+r083emfXSdzqO5vhleQjLt18kWOo/m/TWF7r/nQd9fFvTzZ6Z+me4thKTvv45mfDR5MM9XZKZ/6+n82IwfI9M/dUmPb/NO339lzt/k+vxd0sfHVvd/WWvej0xDqEt9f6nS1x9F3X8cr67LvGvmMn/e6v578tP/XeZv/vN/IfM7r9yS+V6p24dzdHSp/yDT868777wpc9u7nT2S8S//5mN9vJl/r712XebjQtePlOkBdtHq/q9v+i83wYi6eodo5h9Nqfv3WJkWqB8vhKDb58y0/8qsH0z3FkLPPJ873uSNWd4UZoRPuen/TPluDAYyn959Q+bt/fsy/5tPfybz186eyfz63h2Z97d1++xFXX/OS70+CDPdP6djXcDfPLkn86ePXso8Rv3+N65ek3k1NvPHZNrHXPfPhemfiqD7JzP8h2DmvyMzv4hR799Mp3p8WjRPZR5KvT65vXFV5scbev+kPdbtcz4389dWr0/aqc6j+R+Kcb4p8+HN12TeBb3AeDI/0sfP9fErG7r+ViOzPjX9p8tP3QLNzG/7jWkgub7AwuyPJdM+o9l/yjvdfxQXMg5xZPYvzP6Lu74bf+emeGPS9ccs30IR9PjSmQlQY+Zn7vqxNfOHwvTPensimOVRaGuzPjfzuxh0/5zl+v3nZn5spo9hYhr43Oxvr7j90aEpYFO+Jyd6fnJwcizz2UJfoNrQD7io9fHjUo8Pi6j778Nz/XztuR6/8k6331n3rcxXj/UHmv7ensw3B3r9fz+Y8f1crw/PFtsyLwa6fmWmf607sz9/pt/P2dmBzOOxrl8nsxOZB1N+ff15JgTTP8/N9kV4otcvq2u6/9m4fkPmZaHnl5kZn9z6MrkFrNk/KJIuv8mp7n+ePPpS5k1uym/zLZnzH8AAAAAAAAAAAAAAsCT4AAwAAAAAAAAAAAAAS4IPwAAAAAAAAAAAAACwJPgADAAAAAAAAAAAAABLgg/AAAAAAAAAAAAAALAk+AAMAAAAAAAAAAAAAEuCD8AAAAAAAAAAAAAAsCSK+fqr8g9u7Fwxp4gyzVv9jTmFTuZNpa+ep1zmRavvb2e4LfM01Pc3XTQyPx62Mi9kGkLStx9yc4ZRpcu/P9TlNy/NbwRq837144cUdfnNs57MmyzJPE9zmY9y835MBTyr9flPFxOZjyem/pv33/R1+fRWdPmUpn7ErDY3YN6ffrwQo76/2JoWstDvr758IfPJ7FTmD58sZB7jhcxL0wCmmX6+GHX77KKuIJtb12S+fnVd5lU3lHnr2l+j778x40eb6/MX5vis1OXfFrr+BvN8IZkKXo10bvrvXqOv33T6+q59FYVu36nQ95c6/X5Trcu/c+XbmvfXK2VetKb8o+6fY67LJ5oOOuU671z9T2YCZOY/WdD33wVdfsG0vyzNZB5zXX9uDfT7+Wbcl/nhA1N+Zvz86n/9P2T++n/9X8h8/frr+gLG+vXvdLg1Oflc5j/7y5/LfFrr+jN45ZbM98YrMo9mfKwbnbv538L0f3mm5z9tpY9P5vqZmcB3me6/O7dA6PT4VSS3/tJiY8Y3M3/Oop4/ZGb9V2S6f5m5+5vquDb9Uyp0+d0Y6OMfXRvI/GT/a5l/9OCezB/c/1bmN9c2ZV5vj2Wem/qdjvX8+KuX+v7s+DXekPnNu7dlXvb0+8vM/Ko19TNFsz4wv7E30/vQ6tOHZmYW2G79tqb753Cm6/fnP7sv87f+6G2Z7731mswnJ2cy/2b6UOZu/A9m/6YoTf9g3u+11/XzD1b1+v18eiTzw998IfOstybzlQ3dP7n+u251+bVu+eRGIDP/aMz4Wpj5azDtuzP7U25/Lpj1edvq+Xc11dePpb5/V/9N7xE68wdzU35u+zCWuv4nM79Jl2Z90+j2W5r5X+P6f7P+j5cyDsHMz8z2UGhM/S7N/UezP+LaZzPT+589Mz3r9U356sODW75etHqAnTS6/pw3en8v7ev6ub5qyj/p9a97v7PpuT7erJ/yqS6fWOj89EzPz9f3ZByqQq/v86Dz1Jn5aa3vL+vp52ujrt/Tc93A7z/W8/vF432Zp7m+/2Ksx+e1G3p+31/X+7+9vs5nR7p9HD3U88PnLx7L/OJct5/bb74j88p835hG00GZ8as088f9Uz1/3f/i1/r8M/3+b+y9JfM3/9G7Muc/gAEAAAAAAAAAAABgSfABGAAAAAAAAAAAAACWBB+AAQAAAAAAAAAAAGBJ8AEYAAAAAAAAAAAAAJYEH4ABAAAAAAAAAAAAYEnwARgAAAAAAAAAAAAAlgQfgAEAAAAAAAAAAABgSRSv3bmt/yKby7huW5nnddI30EWZj1Mu83ltvmEX+vxxrM8fW338oGtkXvU6nUddfnNd/KG+1HmZ6fNXC/1+Qk8/f8hLGRe1fv6u0PcX3OVN/eliIfPzM339yfSJzPcvDmQezvQLPDP1uwm1zGfNQua9wYbMd3auy3y0N5J50ej376SkK3A90/Xz3sNP9QUaXX4rpb7/na0dmVejWzIf7g5kXuruIyzmuv0cfftc5vNGl++Lx+cyX1nT9We8sinz0Lr+WT9fqnQect1+Uqfbf0gznUczfvT19fNkxsegjw+5riAL031mra7/aaCfrzUdcD7V1w+56790++tM/26Gh9BLuvzyrqdPEHX7ac3r65vqW871/U3M/CAFM36b+U8KZoJhmm/m2ldjrm8K6JU93f8eT3T5NAdnMv9yoa//yf/wv8n8g7dfl/mqKZ5g3t8i0/lkeijzR8+O9eXLSsard27LfPfuVZnPO33/PT19CVmj3+9q1BV0Vur80jSfEPUf5EnX78ocn0wDc/dX1br/yHJXAU377Mz4Vuj7z4O+v7ox47+5/TLTx89N/Qhm/CzM/Cxk+gZvbI5l3u+/KfPpuWkgR7p/e1Tr4xfPjmTe11cPnVlfZmvXZL5Zrct89eqKPr+bABi1Oz6ZAdys32aNa5/mBsz8zBR/6CVd/7fWhjKfXOj5z7MHL2T+yts3ZV7tyTi89vsfyjz/bFWfoD3RuVlftIWunxur+gFGengNzUS3v4///V/IfDqdyHy4qu9/ZV2v/zuz/ky5nj9Wrv809bMw82tT/e36pTAdfBF1D9gGvX6MQY8Ptvsx42dh1i9trvv/TC/PQjTjawp6Adg2egKTmfHZ9Y8uN9UnRNOBFmb+Zra/w8LtTySzf5br+lVE/X7c9mqd3PpRn8BsfwQ3/Zqc6P4rtKYDMdffWtXj2/Oh+T5h9scXwcw/zePlSTfAzq3vjdbtH5gOqMj1/HX91o3/2Fv6/5gu9PicpVOZF5XeH+gPdP+YJd0/Hs10/viTT/T5Tf0YXNPzozd29f7qzd33Ze72F1av6vbh9n9OLnT/VL/9gcx/9dM/l/nC7M8cP3oq81tv6PnZ1Z7+vrHf6gZc17p9HX7zucxjqcv/g9d1+b3zoZ4fx0qPL/wHMAAAAAAAAAAAAAAsCT4AAwAAAAAAAAAAAMCS4AMwAAAAAAAAAAAAACwJPgADAAAAAAAAAAAAwJLgAzAAAAAAAAAAAAAALAk+AAMAAAAAAAAAAADAkuADMAAAAAAAAAAAAAAsiSKrOvkHbWPOsNBxG6PMq6qnT5DVMq6DzlPX6vwyl3ns9P1nlYxDFUqZ90Jf5mWp7/9sMZd50epv/NH9BuBcP3+Iuvz7UZdv0o8XmkxXwDro+1sc6/Nf7H8l8+cvn8o8Bn1/q+PrMl/fWpV5FnT5PTn4Wuanz3V+efC5zNcPPpD5tbu3ZD4YFTKfT3QH8vk3/yDzNNH91+qK7l827r4m8xtX35L5cHcg88LUz57JnfPv6Qb01c8/kvmLU12+85f6/G2n+4+t0ZbM+5Wu322n87pOOjf9y9D0T6HR72dmus+U6fqZor7BJujnyyqd52cyDsVMH99G3b+1SZdPN9LtL5n6n051+eQzMwHJ9QvKcjP+J33/TdLltzDnD0E/X2nmZ/OZHn+7Rr8/Mz0LqdZ/UJj62VWmgeT6+d0vFLfvXJX5YrQp8+ZAN5DnZ89l/tvf6v61WOjnG+W6/IIp30WlJ6D5xp7MN/d2Zb6zviLz1JrxwcxPW/N8Idf1rzTz89Do+Udw47Opn52Z/5nuIUQz/886dwLd/8XS9M+56Z9b3f9E03/FTpdPZwqoa3T9Lkz9aHJ9/+b2Qy/qHmjh6q/pwHY31vT5N8z848qOzLswlfnx0UTmZTGTeVXq9cvNoc5TYcqv0v1Hmpn6aaYHwbSvaPK2NbnpX8a17p+Sqd9tYeZnUZ9/ayjjcPD4UOaXx09k/uzFTZmv7d3RNxB0+7/ztl6/ebqCTE31TMf6+MOHen7w6W9/IfOvH+r2uzYeyXx0Ra9Pm3PdvnOzvhiY/rErzPonmfpv1h+dyWM08yO3/uj0/RVJ7++lXN9fL9fHd41ZHyczwJj9v7wx68tsLPOuuJB5bdaH84W+fs/Mj4toyt8N8PG7zb/d7k2sdP1ZmOlpNO2jMPvfwb1fMz3KTPXq93T97HT3E7r2UuYXJ3oDd1tvr4aNNb1+2bui10fPp3p/+NCs7xZJv59ypttPyPT7K837KYKuP2Wm1x9Xb9yW+Uqlj58Venyc1WaD3tTPlaGewAxNAz2b6PJ9/tFvzAn0/a++9gOZ/6MffV/m69t6fm+m9yHU5zpv9Pw6VLoBX7mi5/dmeRyKP/ljmf/f//4/yHx//xuZb+xsy3z9pn6+1Yluvx9/9anM01zXr/fe+FDmr/3R2zJ38+Pu6FTm/AcwAAAAAAAAAAAAACwJPgADAAAAAAAAAAAAwJLgAzAAAAAAAAAAAAAALAk+AAMAAAAAAAAAAADAkuADMAAAAAAAAAAAAAAsCT4AAwAAAAAAAAAAAMCS4AMwAAAAAAAAAAAAACyJounMX9RRxlmu85gVMp82lzI/Od2X+dn+kcwn85nMYzOXeREGMh+VfZln62sy3xmvy7wcb8g8z0qZz5Iu30qmIbStriBdaGV+XurfGPTNbxCa1Mh82ur8+OihPv/kQua741WZ3/7xn8h8dWck8yLo9+fiN8Lvyfz54y9l/tnf/Fzm0wtdfg8+1+1n5/qWzJ/v35d5nXT7vXP7usxvvf19me9evSHzJNMQutMzmZ8dn8v8RdD1d9jp/mV7cyzzD99/Q+ZfP9LH3/vmU5nvf3ss8/67KzJfb3X7KlIt88tk3pDJJ0Uu81zHoTMdaOx0/9noxwsx1+NnNP3zYujGZ3N/hS6/rtTnD43u37OFLuAs6ALK3OtvdPm59j0z41PKFzIvgu4fgxm/m8zUz6jzGPX43Jn3G1v9fDGaCaSZH5ruLyTT/pK5fral39/Oih6ftmo9vrw8fiHzztTfYq7fTxZ0+a1v6vnlsK/r/3jkZoC6fswX+gW2Zn6Y2xZo1g+5fr+t6X+rVh8f3f2Z8WOW9PP3F2YAMJefm/oxNv1vZ8onmLiNpn9POi8y079G0390uoDKaArQnD6Z95dy3X+35gJF0nluyreXm/srejLfu+b6Z71+6Zv1cSxM/Yh6fJxn+v66Sre/ojX960JX8Fjo97sw69tQ6/tropmfdPr521qXnxvfQ6nrx/VX9fh3ZOrfvad6fdBe/KXMt7f1/YVqW8Zprst3ZsbnyaneHzg5+Fbmx4/0+u/YzK8W5VDnlX6+xw/0+m2+P5X57k29Pquu7si8Z/YvUqvbR23ar5sf5GaBkGozfzH7n8GMb5mZHzRmgO/M+DFPuv648nHdV3LrB3N+N7+IZoIxN++vyvT9xU7fX9aY8aXV13fr47xv6q+Z/mVmfh1KM/8w+x+ZWf+72fm8MOsLs399OH0k89MXL/UNvKMLsLeq959effVtmVeVmb99q9d/l53uXzvXvZn+JS/0/uB4W4+Pa+u7Mn/9Fb0/6syPD2X+8FO9Px1zPf6sr+n6FWpdgx89/ELmXavf/+arP5T5j/6T12Vemvnf5FTPH86PdfsJEzO+zc0Cz4xfW1tXZd7f0vOD3StXZH5lQ9/f4yNdPiftRObrUZfPfjyV+eXZM31+84Xt2u+/JXPXA58919c/eKrnp/wHMAAAAAAAAAAAAAAsCT4AAwAAAAAAAAAAAMCS4AMwAAAAAAAAAAAAACwJPgADAAAAAAAAAAAAwJLgAzAAAAAAAAAAAAAALAk+AAMAAAAAAAAAAADAkuADMAAAAAAAAAAAAAAsiSIsGvkHMSSZd0WU+WR2IvPnD+7L/OzJQ33+Vn/DLmMu86yZy3w61+WTFfr6/aKQ+dPhnsxvv3ZL5r3tXZmHXF+/LluZd51+/lDr+hGTzttSl9/c1L+Tl0cy76J+vmtbmzJ/74//TOahp+PQmXx+qfOk21foD2W8evdDmd+6/qrM/+p//lcyn5x/KfOvP9LtrxiNZX771k2Zv/Wjn8h8feRekK4fJ19+LfP9R4cyfzI9k/lspvufsS6+sGHa/zvvvSPzO99/U+aT8wOZf/XFVzI/fLYi85VbqzLXvVcIwZRPzHT/kmW1zFPUd9CVOi9M/9k1+vgYdPvP85nM52Z8vIzmN2BxoXPTv/em+vx5azpIc3+dvX8dN0kfX3f6BIXpP1KnK2jt5leZrh9u/hFyff7C/AawTZXMF8HMD5J+vwvzgsz0MpQL/XxlLGWej/UFpvr0YW+o+9/atH/zeKFnCsB0fyE39dd0b6Ge6/pt5ze5vsNk6n+R9PymdTcQXW6erzHz49r0T6Z9NdFUMJO74g9B999Z59q/Ob2pQDNz/zHXT2C6rxDm5vyuAzHTw/bSlb/p/1z/Y9pnZvrPaMp33pj+ozT3V7kXoHVJz69a0z7yhenh3E/YC13/c1PBy1yX3yya+mX6/5md/pj9h0oXQDTr61wP72E81uvj/g3dPz989Ejmv/5I7/8UA32Ds5d/I/O1lb7Me0mvv/KVdZkPdq/JfP3GDZlXw1dk/pqZX8zmev5/9O0vdX6o1+/nM70+u17qCryyp/e39NsJIUu6f2oynWeFWX/1zP6U6f9jY84v0xDO3frOzM+S6b+im7+YATYzT+DmDyE3/ZOZfiVz/7Fw46POW1P+7vnd+tTcfsia77a+rhf6/kz3HkJh9ufM/nVV6uMHqxsyz/fvyvzgQJfP/kf/IPOdD96XeX9d70+9Onpb5sOB7h+P9qcy7zrdf1+a+jle1ePzxuaWzPdGMg6xb/bnj/X3nZ/+2z/XFzDdx+o1PX4UfV0/Xx7p+7t8fC7z3pp+v6//3rsyX9/Vx08O9f0dHOr91YsTPf7Mj/T3hdjXC6BRT7fv7vSlzHcG+v30+7p/eHX3uswf33sg89m53p+/nOj3c/5MHx9K3X6339L1Y2j296bn5vvp/gOZHz/X+/f8BzAAAAAAAAAAAAAALAk+AAMAAAAAAAAAAADAkuADMAAAAAAAAAAAAAAsCT4AAwAAAAAAAAAAAMCS4AMwAAAAAAAAAAAAACwJPgADAAAAAAAAAAAAwJLgAzAAAAAAAAAAAAAALIkipVb+QTQnON1/JvNHj3Vedvr8N2++JvPh1Rsy7/f1+Yf9gf4D4+XxqcwfPPidzKcvj2X+1ac637v9lsx337wm87KsZB67pPOo83wm45DV+viLmT5Be6zr1+pwLPP3/uCPZO60p4cyP3n5WOZnL85l3i83ZD6+oZ9v5fotff7+mszf+8mfyPz/+u/+W5m/3Nft4/bdN2W+++77Mh/KNITFy4nMn357X+bNXL+fozCX+aS9lPn0Ut/frJfLPB0dyPybwxcyf2VtRearu1dlXnz+lcyPJycy32q2ZL6WlTIvS10+Tat/41QEU765Hh+zhc7zme7fGjPCJn14CIUeQItcn78yz5+FnswnCxmHEHT9j6Uuv3aurx+LQl/elU+mz1+2+v6SKb8m13mI5v6Cfr4uTs3p9fFZq/MY9P11UbevJuryK0zxVHNdf2Myv2F05d+69qPr79ycf2Deb2Xeb97p5780HUQdG31+/XpsBxTN/ffM+U31DCnT91+YBcrC1N+mcM+nr99cmgcw5RMyfX+9oO8vy3QBNO723P2Z57caPX6HWs+fuqTbX0p6/RKSvn4yv4FuK92+Y9Drk7LT568b/f5c+yz08BXM9Mf+BDw3/Ufmzp/085nhNZjhw64fOzPAuPJxj5e7+WWm7y+ZB6zN9TMzvLn5RWbaXzXX99+r9PO/8epNmX9Tbcv86eNPZH42P5N5XNf9w61tvT6+8s73Zb7W0+unsqevv7J9Xeamdwsh6Qn4+Q/ekPnje1/L/IuPfy3z519+JvN2oSvola1dmYeerl/RjP+NmT8VZv3VM+snc/qQzP6Zm76OzB8szP3lZn1llkdhbsqna/T7zTPdg7nuK5n6k3J9/pibBbSd/ujyL838bGH2R2M045OZAJjpQ8hqPf8x01+7/itMAxgNdf+4dmNH5tOHT2X+0Refy/yt+YXMb7z3nsyzSj/ftdu6/97Y1u+vq93+gl7fX1y4Bqz3X48bc/5PfiPzn/3tz2Q+rXX5bW2tyjx366+Fbv/PXur5jWv/G9evyPzOrt6/DGZ98O3n+vvQZKLf78lCr49C0PVrrdbHT2b6+8NgpDuQ4jt+Xzs/1vO7wiwvx31dv7KgT9CZ/f2u1jO0cWae39x/ONf755em/R/Odf3jP4ABAAAAAAAAAAAAYEnwARgAAAAAAAAAAAAAlgQfgAEAAAAAAAAAAABgSfABGAAAAAAAAAAAAACWBB+AAQAAAAAAAAAAAGBJ8AEYAAAAAAAAAAAAAJYEH4ABAAAAAAAAAAAAYEkUWSjlH5wfPZP5o0cPZD6/rGV+940fyfydH74v815fxv+/u2XyH/zo92X+u09+KvOP/upXMn/0DzoP6YcyfuVN/QRVUci86VqZZzHKPIQk05enRzJvm4XMr914VV++Gunznx7K/Kt7v5X5/vNjmU9mFzIvs57Mt443ZX73tJP5yvduy3xv/a7M1+/o/PnL38i8t7Yi863BtszDeSPjB/fuyzxrdP8U+gOdR13/U6vLP7Vzmeetfv/TTLfPy1DJvJ3r5x8N9fmLVX3+RTyX+Xyqr9+t6vGpSLr/yBvT/+S5jJuony+vdfvNO3P/Qd/fZaefr+vcb7h03lXfrXzKXB9fpEuZ152u37W5vX6r60+W6fcXoh4/gnk/jcm7TPcPUb/eUJj+aWHqfxf09atc90/B1L+2My9orutPKHT9bE35xEyXT570+NDW+v5y076iKb/Y6bzrdP1rkq6/XTLjj2mfea2Pr039ak3/lpv2ERf6+k2h319m6k/fVM+FyVPS5y96uv6kZJ7f1I/Uuv5dj8/JNO+sM/ef6ffves+euf3M3H/b6Pqfkmm/tSnfTNevGHT/Yl5vaKI53pRP7a5v1k9ZMOVj6lcW9ftxHXQqdAG1bgDMzfw80/1Pl323+U2ozfzSlH+I+v5Sputnm2b6/GZ+2zMVLNW6fPvm+brC9B+m/m1u6/XV9Llu/+XeNZn/4Pt6/+jWB38o8/5Cl3+z0Ou3gR7eQjHT+wuhNPW31PsXm2tbOv9Q5xubV2X+i7/+X2R+8PIzmee1rp8b1/X+RszN/NosIOpO92990z2UpRkfzfqqMuPrzMzPMjP/drtvC9M+GzM+uzgUE53PTf/p5gdmf6Qy40sW9PjvBuh+1Hlj5s/RTCAqs3+aR/38uRm/U9L9f9Oa+mfyUg9/YXdrQ+YvGj0+vnj4QOa/+vILmT853Zf5j3/8nszjQO8vD8z2YSj1+HL68rnMp8cvdX6u96cOD3X7fHr/K5kfH5n9+TiWeb+vx8/isf7+NDH142L+ROZrQ/2C7rz6hsyd06f6/ZxP9f2fn01l3gS9v+ZMzf5AP53IPC30+OycH5/K/GCinz8FPX/pzP54NAP8ipl/XUZ9fOEmEGb8rTr9fWR1pOePB8M1mfMfwAAAAAAAAAAAAACwJPgADAAAAAAAAAAAAABLgg/AAAAAAAAAAAAAALAk+AAMAAAAAAAAAAAAAEuCD8AAAAAAAAAAAAAAsCT4AAwAAAAAAAAAAAAAS4IPwAAAAAAAAAAAAACwJIoUK/kHh2dH+gyLVsav3XhT5h/+4fv6/Mb86FDmx+f6/svU6AvkPRmvD7f14WurMv/grX8s862+fj9//ec/lfmzl1/LfK0/lvn2mxsyD4X+DUE962Q+qWuZZ3Odp94Vma8N9P0nXX3D88f3Zb5/PJUIHsNsAAAgAElEQVT5WZdkvmiizC+DPr47nMi86D+U+bvrW/r43YE+/rUPZf7ya13/8pjL/OjpM5nP58cyXxyfyLyJhczbVrf/g8m5zC8nun/qF/r6491rMt/e0fX/zkD3P1VmfgMUhzIuKn3/swvdwFKpr98lXT+6xVyfv9btyzT/0Nb6L9pOtw999RByU/xtz5yh1uWfOn18Z47v3BPkuvzbhW4/qdIFUGS6/0sLnTem/42dfr+xNfUvN+UTzfnN+++SPn9cmPYT9P03I9MCWl1+rak/ZvgKramfje5+QtHp53P1w3S/wbXgwtx/MPPL2pRPzEz90YeHrNUPGJPOm2Dad9DzO/sLUzO/Dq1+/sZc30yfQ2nKP6VS5+4NRD1/dSXk2kcw9aNrTf/RLXRuOqhkBrDW9N8xmfO3en2S524En+nrV7r+5Gb+1126CqTbfyp1+TeFfn9ufC9d+2x1+TdmfCty3f9GV3/144dQmfVfpp8vmv4v68z5F2b+6ObPunhCbPQfVOb9da59uvur9fVnwZSPeb6Z6f5ePNXro1D0ZfyDD96S+Tvv/kSfXl89tGe6/3i0/1jmuel/Q9L9x9y8vo2h7p82t0Yy763fkfnNW6/IPP7BP5X5Lz7+ucwPJ3p/oL94T+crpgKa7b026AnCRdTvZ2DGr9z1f7k+/yyaDtLsn6TMrP/c8GXm1zEz5W/KN45M/12Y+aGRmfHXLP/CvNAFVJrjMzf9S/r5k5mft2b/qsl0/5Wb+t0t9PlLtz5pL3Xe6fazsaX3V/r9uzJ/8ei5zPcP9f39u3/79zLfvf6JzC/OdfurDi9knm/r5+/M+iYU+vtE75beP/zB7Q9kftnp/W/TvYRg5jdHX96T+eSR3v89ff5U5ms39Pjnitcz30fM+N4kvb9/PjP7q6b/y3qm/y31/nFr9m/bTM/fLs9PZf7i+ZnMQ9DjQ29r3Rxv1qdRrz9TT1//6JGe3x4NX8g8FI9k3Ovp+7+xsiZz/gMYAAAAAAAAAAAAAJYEH4ABAAAAAAAAAAAAYEnwARgAAAAAAAAAAAAAlgQfgAEAAAAAAAAAAABgSfABGAAAAAAAAAAAAACWBB+AAQAAAAAAAAAAAGBJ8AEYAAAAAAAAAAAAAJZEcTb9Vv7B5csDma+PejJ/753f+4++qf+32Tf3ZH7/8TcyPz2byrzJGpmP+0OZH+T7Mn/t+g2Z53vXZX5zT5ffez88kflvPrkv86+f6vIdbL2n8+2BzEOWdN7OdByizHdzXf+Gr67IfHGykPkLfXthlunfUGRVIfN+tirzblLrG4i6fE4mc5m/WLyQ+W66KvNqpJ//+pW3ZJ4F/f6ml4cyDyfnMj6c6fYxi/oFX57qyy+OdfmWvVLmg1u6/b929RWZr6/q81dj8xufIpdxbPXhYabbdzfV5RNM+TVXK318pu+/zTt9fHD9ky6/pJtfqDN9/dZcPja6/2jM80czvmVR50XS91/rw0MqzPszr6c1eVOaClrp9p1H/X7LRr/gaO6vTvoF90z9SaZ/D5nOM3P9utEvMDfn70rTPjo9fuWm/WWN7t9Sret/ZypYXej6k0wFj6Z7CwNzf1lf5nnU5ZOSvv+56f+6zsxfGn3/mbl+HOrxPbkOwE1/Wn39bq7rb1Ho51+Y/rs2t9+Z8aM0ueufW3N/ybSvOPpu/XPe6Plzirr9LoIe33LzG+WsM/W70vU3mPE1mfEtN+3LTT/mub5ACvr+czO+xlo/n5uAtEPzfGYCVM5d/TTjS6frT2PGtxhM/2TmX01f17+2cxM4/fz9VvePIZj1a647yBRNbppHKHT5B9P/T/b19SdHD2S+c1U//7vv/qnMC1f9nz6V+T88+FzmzaVef6ak60+XdPs1059wppe34eylLr/d27r/Wd97XeY33tL7Q89e6v2xR0++kvl8+lzmvfVbMg8DM7+t9QRuYfrfaa7bfxHM+r/T5x+YCuD2L8ukG8DcjG/RzI+jGb9jcv2b6f/t/yi5/l+fvzXvtzXX73q6fyvd+GryzixvM1O/ulyvLxozwYlmfA2lWR83uvzmZvwIUb+ftVXdv+Vv6fp3sa870MMnz2T+zd/q8eFiX48vW72xzN/8Jz+W+cbOGzJf29XPfz3q7xvBlG8YmP1/w20vPtvakPlP//VfyPz4UM+/xpXe/w4Xen3jFJWu/8Oxbr/HZ2Z/p9TPl9n+zfTfq9dkXg02ZZ6b7asXzx/oPzD7e+s7OzLvm/V93/TvvUzX78tsJPMHjx/JPDs185uNNZmXY90++rmuX/wHMAAAAAAAAAAAAAAsCT4AAwAAAAAAAAAAAMCS4AMwAAAAAAAAAAAAACwJPgADAAAAAAAAAAAAwJLgAzAAAAAAAAAAAAAALAk+AAMAAAAAAAAAAADAkuADMAAAAAAAAAAAAAAsieJiv5Z/UKdc5turb8p8eG0g83R8IvPTFy9l/uLphczPu4nM27SQ+VGVZH59Xcbh0aE+fi+PMu9duSbzDz78U5k/f/Q/yvzy/FjmJycHMu+t3pa5Na1kPMgKmW/dWpV5Nh/K/GTeyDyFqcxHunmERezLvNfTz98W+v4uJ3N9A7p5h+mZbh/drJN5XOj77w3Nb0xKXf9Xerr80vZI5vvnl/r6C93+Z6en+vpBt+/R6prMb/WvyLwL+v1O5zoviw2Z69YVgqtAba3LJwv6/aZM51EXbwh5+Z3y2J3JPEv6+DzqDiB25gH044eom18w3WNIUdfvEPUNdJ1+vjKa9p1aff5Wl09ryicrXAXRBZR17gL6/J15P6nR5dPo7jPkpS7/wlWQRuedmX+4+hF7pvxN/cnM+JLV+vyN619K/f5LU3yLxpw/9nRu6ndW6v41M+NLa/JofuPZmPIpTP3NK92+3U9MO9M/JnP+ODfjk+sear0+KQem/Fpzf8kUQGYmaLk+fxXMBNSNP52eP7S1vv/k2ofr3wv9fCmY+adZv6VkBsjWjN/m+m6Adt1rz7WvXA8QXTTP5+JCP38X9PvJZmZ8NwOkm/+Z4de+n+gGaNN+7PzKtX9z9S7T7a8285OYTAGZ+VdW6vVTKPT9ZbUu33q2L/Ne1P3fne0bMi9KM4E6PZLxty+fyLxbzGQ+NfsHZaHXD13U5Tuf6wrYuveb6fVZ/yt9/Wqs16fDNb2+3d7ckfnxw29lXia9/o/RvH83vzH1140/jcm7WtfvRa3rR2aeL5r+KzfP58anujbzu6T3Xy/nhzI/P9P1bzYz/XOnx/9epetPYZ4/XxvLfDQw+wMjXf+SXb+Y+XHS9aty+x9mgtAz66/CDdDJrO+Cnn8vzPozJN3/VkG//7Ud3X+Vlb7+IunvF5mZn334L35f5ndWX5d50Zr9Xz18haP2qcwb8/2iWtX7i2Gk9+fXh/r939jbk/mPfvLHMn/4P/33Mv/6np6ffHj8SOa74abMR9v6+81dmYbQZbr9Ts51/zw25dvb0+9vPNbXb071/vrTh7+Q+cEzXf/GKysy39jdlfkwM+OjTEPorej+w33eOJzr+eeRmd/sXdH1q+jp71ux0B0A/wEMAAAAAAAAAAAAAEuCD8AAAAAAAAAAAAAAsCT4AAwAAAAAAAAAAAAAS4IPwAAAAAAAAAAAAACwJPgADAAAAAAAAAAAAABLgg/AAAAAAAAAAAAAALAk+AAMAAAAAAAAAAAAAEui+PrLz+UfjBZzmQ/e6vQVWh0vukLmk7Yn83KQ6wuc6m/cWaPzXhZl3uk4hKCfrw4zc32dh7Iv43fe+z2Z/+pnfyHzRX0m87xbyLxrSpmHxYWMi1Dr44N+/91cH593h9/p/GGu32+V6eOzga5/SZ8+pK4xx1cyL5JrH/r9ZaZ8YtLXHw51++6vr8l8VG3KPDPl/+jFE5kvLi5l3gZd/29sXpV5CLr/PD/Q7aMd6LP3Brr/7u+tyHxxqdt/anT5ZKtbMg9rpn5Vun5GU/6hM79xirr+5ab7st2/GR6bmPThpvtxP+GKyTxAqwfo1g3gpgT6ST9flun+uUz6/G37/7BvZ7uWZIeZ39eKaU9nHjJPzlmVNbI4lERSomSpKQHdkG3AvrEfwI9mGH4CA27A3YDUsmRKpEiRFFlFFouVVZVzninPsMeYlm999X02eOWN/+/2O7EjYs1rRaYZ/1s9gPbm/ZtkysesD7KkG0A0DSjr9fipSzeEvtDP35vnD53Oc3O5a39d0ONTl+vyy0z7KIO+fxF0/89yPb82hW6/0Vxvun/IzfwczQAzyHX/WBW6/BYD079b3b7y5VzmIer+mZX6/lF3j9Cb8u2iaR+12R+YAbox7Ttkrn71C5SmfXRm/dWvdP3kyawvo16AJDO+xlaXT16Y+XGgczM8hNyMD1nU/avJTf9f6evzTtefGf5C25nnM+sfMzzY8b82HSyaCS43FeTypnXzg4xDYfZXXWPmz9rM7+YG0a3fTP9x5w993JB50ekC0r0/BNN8Q21+IHcL5IlZvxrTqT4/ac3++c21Lp/OtL+lab+Zeb/k6mehn39u9r/Tob5+581rmYctswGd6/GxcfOnOV+JboNkxqfk+qdZ38SlGf/N9b1ZAMbKjY8yDuZ4NZjtWViY9dtips/Pzn//WOZLc7zZRnO+aPYvhdmfDip9fjo+35L5rNL5rYP7Mo975vzMzJ+lGX/7WrfPrDTtL9Pl05kZYl7p3O2/ozmfSWb9OzDr55jp328yPb5Nhvp88t5f3JX5N+68I/Nqcijz+uXXMv/iiy9lvrjQ53f52OzPxqcyHw91+bUTfT548OihzO99pMvvu3/0PZn/w9//rcx//sufy/zgrYcyv3njtsy3DnT+aKTPtxfzmczLUrfvganfMur28eKN/n749aefyzxEff58+OiRzCdmfHDfJ2Z2/67Lp231+Xy+0OPv9lvvy/zgo2/JfHCu98/L1bHM+R/AAAAAAAAAAAAAALAm+AAMAAAAAAAAAAAAAGuCD8AAAAAAAAAAAAAAsCb4AAwAAAAAAAAAAAAAa4IPwAAAAAAAAAAAAACwJvgADAAAAAAAAAAAAABrgg/AAAAAAAAAAAAAALAmitnqXP9F28r49flvZH77812ZX3f6G3RfDWV+cPSWzAe7J/r3zxcyj5WMwzBs6z+o9Q9kedLXh5XJo0yvnn+lfz3bknkTdV4Xhcxj1+nr80bmV0mXz/nJhcxv31nKfJyNZV5Wuv7m/bXMQ63fv1vl+vfjTP98msp8M+j+M6g2ZR5M+w+Zrv92pcv/+S+fyvy9/+oHMp9MJjIv+rsyXy31+HZ9U5fvfHGl87nuv7HR9y9GMg5d2JD5zp0D/QO9jl9/+muZX+vHD4OJHh+3Rrr9xUw/YGfu3/TmBe2/gdLjjx59QyjM+O6uj20t85QNzA/oO7jZJ5jydX9QF/oOuRnfu6THr9Cb/pN0/1uZ+7e9Hp/jUJdvdO1HV2+ok/6DPOnnS6X+/aCnpxB6/fwpNw0k188XctMDMr0+CL25vjPPX+j+3xR6/nLrt1jo969bXUGrRudF0uVfmfGz6HSe9WZ9bp6/18uDEE1emv6XJT1B5oXuP5kZH3tTPr1Zv0Yz/UTTf4MZ3hszfZnpIww7s343C4TWvGBfmv6RzAuYAWwZdP9080tpcrd66E0FuPG3M+NPb9pH3+jnz4Jun3Vh+q+bH0z1Vbn+g8r0vzaa+jH7j6wxGxjTv83jheg6eDANIOryyeOlzFNj+q8ZX7Noxlfzeo1ZH3Rm/deY4a8x41eY67g189dcb99CimZ9k7kVvBkfTQGnThdA4fqnaX4z9wdjNwG58x2dL3O9Pp9nuv42TPsozPq7y8z6UP98MMNT6KNen7SmAmPS+cQ0v97Mb2crPT9cvnwp87bV51NbB7dkfntDnw/3Q93+erN+yIMeP938dXGu22c70w3w8xe/l/lh2JP55v4NmYegB/i+0efbmRmfmsrkZoHTugI2E2xu1tehNfVfu+fX+dVSry/DTE8gB0Gfb1Vbpn67NzL+9POvZL64PJP5zOyPw0rXb2nOr88zs77YfyXzyYnuH6O7N2V+8P5Dme/9Sl9/da3Hn1/96Ecyn32gf39juC/z2nx/sVq9QGoudPu+vNTn38fH+vthbs5/N2/r8/kq1+Vfdnp9HxszQZr16XWt54/ZG70+3Nzdkfm3//3fyDzPdP1dm+9r82Pdf/kfwAAAAAAAAAAAAACwJvgADAAAAAAAAAAAAABrgg/AAAAAAAAAAAAAALAm+AAMAAAAAAAAAAAAAGuCD8AAAAAAAAAAAAAAsCb4AAwAAAAAAAAAAAAAa4IPwAAAAAAAAAAAAACwJorvf+Ob8g8Ww07mu9WGzE9Pn8j84nIl85SPZT6+f0fmk41DmQ8GS33/K53XeSnzbKzzy7NG5s3qRObzy6cy/83vfi/zkE9kvH3jtszbpH8+9K2+fa5/P0T9/KuoL1+1VzLfrDZlPi50fjk5k3l7quu363X7WjWXMk+Z7p+Dke4/G/syDmGsr29L/fzPXuv2+eSLn8v8g5//pcy3/2JP5qHQ8dj9wR/4b2RSoft/Xurx7+a+rqDD+x/8f36m/6ez3/1W5s+evJR53+Yyv/dN/XyDUpdv3+gBpmnN9VFfH039N72MQ8j1H3SZ/v0s2BvoOOn+35vxMbSVjGOnx+9Q6udP5gH6ZPLKTDD69UNu2kdnyqca6fIvhyOZx4Uuv7qrZd7a9qHzrDHjV6YLwE3v+ulDiOYvop4eQ++G38K8v6nf1Jn+Y24fWnOD6Mpfl3BhxpeVGX+Xpn8VQbfPSdLPH5Oe3+qkn68w40MKen7sMlNDpoO73y/CUOZ97gYgU/+dLp/ejL+pM+9vyndlOniM+vmiWT4VZgTpTQft3QajMf3P9K9kJpBk1n/DzNRvrctvkZv5NXfji87LaH4/mPI364/CjO+ZKb/W1L+rfjP8h2jyxrzfwjxfZR4gmhkkuvZT6v1nvtL7r6zXE2zMdQGXUa8P3QphZNbf12592pgVhnm82gzPIdflk2U6X5j9ydiOXzqulwOZ55mu/8K0r6HZ32dRnw8F0z7qXq8PilzPryMzfmVm/ZKZ9tmZ9Ulm1oem+4Q6X+j7u+lrYPZ/5vxxOtMNbPpEn89enZ7K/NY792X+0bvfk/nW1q7M3fbXDR9uA5PM+vHk8o3Mnzx5LPPzz/X55Ytnn8v8KOnxb2PvkcyroPt37Mz5u9k/B3N+kwczfvVu/6Pff2HO75ulHp/s/m42lXEy43s5vunuoG//Up//Ls3+5drsH9rKdDAzQTW17oFjcz59fKbbz+TWtcxHSZfvVq43KLfe09cvprp+L037+vRXz2S+E/T5+M0d/fvLUvev81aXfxn0/D6/msl8ONHzz5b5PleZ/fXQ7D97t/93zPxwab5PhuGFjB99/BcyH490/S6muvyXK72+qAud8z+AAQAAAAAAAAAAAGBN8AEYAAAAAAAAAAAAANYEH4ABAAAAAAAAAAAAYE3wARgAAAAAAAAAAAAA1gQfgAEAAAAAAAAAAABgTfABGAAAAAAAAAAAAADWBB+AAQAAAAAAAAAAAGBNFN/98/9a/sHl62cy7+uVzOvZpcxPpm9kvqxPZb7dv5T5zXe+I/Ph7R2Z5/syDvVgLPOijDKPr65kfnl2LvNPvtZ5ubEt8727D2S+M2xlHtpextHkYZDLeJTr+qnnr2W+GpQy3xzp3986OJP58fVE5u1+rXNdfaHIdfuaTPT7Hd49kvl4455+AGeu+/dgsCnz4aa+/09/8h9l/uAb78s8K2Qc9t+6IfN3BpXM26THv4PBQN//wYbMQ9jTcaPj5auvZf7bf/p7mU9L/f433v6mzHcOk8xj1ONLMsNPoX8+hFKPPylbyLzr9fV5MA0s6voPQb9A5t7PzL8hmufLTAHr4SWEoNtH6DsZR3N50NNn6Bs9f/SZrr+iMfnKPOBQl2/qdQWWSecp0++Xov43fLHQ9Vs0+vou6QooOlNBQd+/cZeb+5e9HgA704Bjq3/f9b9YmPWN6V65aZ8p6PVDXun2mcw/8cx19wxVrgugHZryc+P3Sj9AP9T37zLzAqb+UtLtp810+cbajK+Frr9g+nc07b9tzfhn5qeBa765mZ+jvn+xNO2j1OUfM11+o8KMj2YC6Vr9fm1ufr8w85uZX+z8bgaQzrTPrtPjX1ab+Sfq92vd+sWs76Kpn9jpASwzA1xvxq9o6i837df9G/pqZOavpO+/iqb/m/1tbtYfvRl/XPsvwkjm24U+f7gM+vfn1zOZp6jHh51ben91eaL316dL3X6zzvSfQq//o9m/jQrdv/NMnz8MhkOZ3949lHm5peePi+W1zI/P9P5zYrZHW7d3ZT40/SNr9PN3Zv1tli8hMxvQsdk/ta79mAfI3P5qqs9n8mt9vrq/pcv3vQ++L/ONSldwf6Xv36xM/erjpTA244ur4IFpXx880OdPD48eyvx3n/xGP0DQ+/vllT6fzMd6/OtN+SQz/sfe7D/d/sqcr2Tm+QZmem43dP/vp6b/mfvXxZb+/UqPv5Y53lk1ev7rzfajLMz6JNflVwf9frVZHw7M/s0sT+35UAy6fY3d94kt833g1h2Z552ugHpxIfPzSpfPXKYhxEqvD8pCr9/2NvQHsGKi10/DoJ+/zPT4kXJdwXPTPoaVbr9FbhZgc13CZnsUTPfxlvoGi6k+v+5PdfvifwADAAAAAAAAAAAAwJrgAzAAAAAAAAAAAAAArAk+AAMAAAAAAAAAAADAmuADMAAAAAAAAAAAAACsCT4AAwAAAAAAAAAAAMCa4AMwAAAAAAAAAAAAAKwJPgADAAAAAAAAAAAAwJoowslz/QfdXOZdHmW+ubcl84+3Ppb5T372E5lfPzmV+cHmY5mPHnxb5tlExiHL9Tf0drHQ+UqX7+WVfr+xTEPYuHVf5ru7+hcGWSPzOgxknlW5zMui1/e/bGV+fTmV+eL1a5mHt49kvDnU7ffocCbzs1PdPgb7unxDrePDjQcyv/XWgf6BcaHz+aWMn375f8k839W/vzd6T+ajla6/f/7H/1nmP/jL/0n//uGOzB+ZPOjqD6Z7hGCKP1zpGyzfvJL5T/7uf5P5Cz08hcmdd2W+81CXT9es9A26UsZRTy8hxiTzVOi8CXr8iVE/X96Y8T/Tvx8KPb7FrpO5+xdcWdDjS2fKJzd3yJJ7Pv37XdDl2/eug5jyy/T8Myh1+fT1lczrqWmgZv6MuS6fEHX5hl63rzwt9c8PdP0Wc70AKkz76DP9/K2Z/7POlK/pXsn8fqp1+yuSbn+96b+5ad+h19c3Og5V0uWTme6TTPtrgv793owfybTfrtP1U7j6N/07BX1/fXUIfaGv7zvTv83478Yf8/ghN/UTTP1Es3/Ll6b+GzN+pUrGXa9roM/0AthUf0itqT8zfmRugl2ZHzALGFd/MZrx2YyvTdLP15r5NS9NbtpnrN36wIyPpv6baOaPaOZ/sz6Jlalfs/7Icl1+sTMNLJn+ZdZ3da3LrzfPn4/1/je48cdcPx7c1tcvdflPz/T6bGNnW+b3PtL75/g7fT5zOtN5qPX6KTfNqxro8XM0Gsp874Z+/92b92S+TNcyf/yTH8u8aHT/Gx++o/Ok+0cyC5wmNwso078KM36EoMs/mvVPZfLedP/VVL/f6Zk+v3Hz772735L54VC3z/Zan18evzqTeTDzW7jS9d+a9e/C7N+LkS6fnXtv6/tv6AOgne/o8+9f/PY3Mn9z/LXM477uXzs39fzbmg1WNjfzl+mfmTvBMMdHodPn11lp6jfX52tDs8AcmvnzD3Vp1jdD076X5gCyNwvgotDjWxjo8mnM/ieZ89Hc7S+M0m2gzPpvvL0h84N9ff45Ks34HkYybxpdfv1Kt++xqb6+MP0v6vVLZc5Holmfps7Mr+b7mjs/TWaHH831w8asbxdm/2q+3zjmdCC0V3r9e1Hr+Z//AQwAAAAAAAAAAAAAa4IPwAAAAAAAAAAAAACwJvgADAAAAAAAAAAAAABrgg/AAAAAAAAAAAAAALAm+AAMAAAAAAAAAAAAAGuCD8AAAAAAAAAAAAAAsCb4AAwAAAAAAAAAAAAAa6J49cUn8g+6/V2Zbw0OZT7e0N+YY7Et87fff1fmn/3jM5n/6se/kHnWb+h8NJH5xau5zNOkl/lokMt8au5fjfZlPpwMZD5oK5kvVjIOXRFlXuT6/TMdh/HWnswvzk9k/sVnT2Q+GL8l882hLr9bB7dlfrgj4zBdLWU+yHX73Lqt66/ICv0AoZbpv/z8RzL/8kQ3kGJyU+YPH+r84vlI5mevrmX+L//4v8r8rbf/TOZFNZR5aHX8+vRY5t30Uuap0+Pnl6evZN5H3QCH796S+Y2Hj2S+2ZjxvelkHrIk4z4zBayHnxAz/XxZ1PUbzfuZ4TGEoPt3mRqZ16X5N1qmfWSmgKLN9fgRo74+LXUJpWh+P9ftIzMTSG/qvy71+Nkk8/yNbp9ZNO0/6PdLevoJWdDvv2p0+ZZm/g1hIdPOTC8x6RvkpnjaXK+PutKs30z5uH8C2fdmgMlL/fO6ekNnCrAIuoBip8eP0Ov22Ra6APqkr+/18BaKgX6/zLxfb8qv6U35m/FFt64Qss7MT+4HzB2aZNqXaZ+u/8RW/0Ft+qd7gDzp+TO55aeuvpCCHgDd+qI0/T8Ndf244bvt9PwRMte+zfxZ6+crzfrItY/O7M8K1zzM8FMmvX5Ppv905gGSab9dq9tva8af4NYPvS6A+Wwm89Tq84OrU/1811M9AG+59YVpn8vwQuabm/p8YmkGyOVEt49ntd7fbf7bP8v8g7/+G5kPc70/OnjwDZmn45cyn12ZDrTUeRzr9jce6gF2Wev2cXJ1LvOLf/uxvr7W489G0OdTI3M+1ZntXxt1/+szM78aI7O/6czvL8z4kCezvzH7u6vGtC+3QW10/9zY0eezyRWC8Z0AACAASURBVDz/9ExX4NKtz838uGr0+HlyafYvK/37rdn/Hk317994X5+fTLbHMn/r7pHMf3L6lcyvri5kvrenz+8rM390ZgHQmf1HY/Y/9nyi0A08mvVT1uv+VZgFyqrT95/WenwNZv2xdVvvb/OnmzKvhmcyr83506ybyrw1G7TKrP+yoPPJlm7/oTYL0IU+X12a+WUSdfkX7nzMHBBnZv5ozf51PNTt12y/QzD7q77Uz5/M+UC7MvvnaMrH7A9yM37UrWmfhb5Bfk+vX/qvzPe7J89lHn6g463dA5k/L8z6qTbrC317AAAAAAAAAAAAAMD/X/ABGAAAAAAAAAAAAADWBB+AAQAAAAAAAAAAAGBN8AEYAAAAAAAAAAAAANYEH4ABAAAAAAAAAAAAYE3wARgAAAAAAAAAAAAA1gQfgAEAAAAAAAAAAABgTRSfn8/lH9wuN2S+v5PLvBwUMs+2BzLfTG/JfHn4a5lPj1/K/NPzFzLfK2/IfDZNMi8q/Y19VUSZD4alzCfVUOZVvinzOrUyT30n83HX6/v3+v36qNtPPtTtZ+/+PZkvX76S+eef/heZv/3O92V+8+GBzEeZrj9dO3+4frWQ+b9+8mOZP/5M95+uGMn81ocfyPzORNfveKJ//4svdP9/8qV+/pfP/1bmw/GWzM+uLmVeL1YyT7r7hPHklsyL0b7M9z/ekfmtLf37E/NPhPToF0KX6f4dCj2+xF73n96UX+z0+FOY54u5KYBKl0C20vNb5/4Nlnm/POj3y1rzA+56Pb2ErtHXd6X+gT4zz9fr/lPp24eu1u2ryxqZp6zSea4foG31/FqY+i87038yff+UdP9pTfm0podnZv0wMOub0gwgbdTXN2Z9Uja6ffWrqcyz4UTmo1aXbyrMC5Z6fkt5LfPG9I9sbvq3TEMIZn3mZKb99JumA5vhITN/EKPOW1M9XaPbV0h6/RLN+q/rzAMU+vk7s7525R/M/dug569k5u/kKrB346Mp36DLtzL1n3Ldvle5Lp8u6jwlUz6meQUzvq46PX/lZn7Kgn7/vtXjS1/qEaTtdJ6Z/WPp1odmfdYWev5uk66/POnyXSx0/Vyf6f3H7MWF/v1al39T6fY/3tiWeW42IH2j58eLU73/SaUZ/6Kuv2Ta3+8uTfv8x3+W+Z1vflPms/m1zCuz/jif6/OHONPtJ17p9vt8U7ff2vx+/+ofZH5p2k/cOJR5uzOWecj1+8119wup1+ujfKDHN7v+ad3+T8cp6et70/9S0PUXzPiVoi6fzQ1dwNnY3N/sb3Izf7rzwdDr9cflUp9f16b/Lnuz/jHLl+Z4JvOVWb+/9d7HMh9v6f3z4f5dmc/munxOz3X979ww+xuzfoord4Chy6cbm/Nh0z2z2vQPs74td8z+7IWun9WZbh/zbinzjagHmL33b8u8+6Wu/2ZmFqC17t9u/1UOdfkd3DyS+eah/v4Uar0++fzlicxT0uVb7bjzH7M/cwekSY9/I3M+Z3/edL/K7J9SadaHc91+g+7eIboDZjM+B7P/inr7GJLZf2yZCb68fUfmJ0s9/1w+0d9ftu/9qcw//JM/kfmr//hG5vwPYAAAAAAAAAAAAABYE3wABgAAAAAAAAAAAIA1wQdgAAAAAAAAAAAAAFgTfAAGAAAAAAAAAAAAgDXBB2AAAAAAAAAAAAAAWBN8AAYAAAAAAAAAAACANcEHYAAAAAAAAAAAAABYE0VTDeUfXM6uZL43OJV5am7IfHe5lPnmspP5/mBX5tP+WOZd08p8MBjIfPvelr6+knHIqyTzJitlPjK/H7pG/37eyzwr9fO1rc6zUj9g0RUyr3T1hKPJjsyf3p7JfHas808/+1eZvzndl/nWjm4/MeQyXzW6fPuVrt+vXjyR+fRa1/9gQ7fv/Xe/JfO7+vVCCLVM9zb0D6R3PpD52eGRzFdXc5l3zUrm25NNmYfxtow3b+n2U+rqCZNK/xuevcq0v6TbV5rrB1hFc32UcWhaXf/pSo8Py/5a5qul7t9Fpdv38ECPv7mp/7Eb/6P5fdd/alN+C31558aXqNt/zHT9ZJsTnZt/g9YvdP01Og4h1+uHONH3z3udp2Tm10qXT27G/z7T/c8MD2EQ9V80ha7/YPp3NO23Sbr8Fxe6fb1ZnMi8N+vDutXrS6dv9O9vb+vxe7Slx4dqrNffWanbRwx6fK9cC0k6r3Nd/3lh2qdpX5npX27+S6Z/uwmoC2aCys31rgMG/f5lp3+/jmZ8cPOvuX9uxu8q6PLtTfvJkp6fYm/qLzP7D/N+y15PwFmry79JegPSu+fPdfuOpn2l2ozP5vrerB9c+XeufeW6fDKzvnft3z1fnuv2a9unKaBU6wXU5Uu9vzLb13D46J7MJ8GsL2/ekXmhp+ewN3RPqJ2eXMr8xfFXMm9O9fnSm970z5XOf/P0mcy/evZS5ptjXT5t5hbopv8HPT4NCl2+C338Fq5evZH5+dWFzLNT3f4Pbm7IfDTR6/9o/gtKb9YHvR5eQjTj09Csr4MbH1d6/WW6X8jN+sMtL4ZBr5+vo37+pSm/EPQGKzfnDwOz/6vc/q3T9Tde6fZZm/1xZWpoUOr5JUb9+9m1fsHpTO9vyvFtmd/YfCHzL2tzvhV0/2+WezIvi5HM3f4xuPOFRveAaMbfaNaPWdD798yc72zd0vPvxVSP3y+/0uuHR3dvyfzt3UOZ5+/q9rt1rOe/80u9f85KPX7dvaGf7+6HH8rceXb8VOYXS3N+c1OfD9/Y0PNbrHT7deP3qBvLPM/08y9M/6l7/QRVrcenlOv1WTM36+dMr2+GjR4/crP/jeZ8pM70/FH0Ot/Y0fVz68b7Mr96/lOZ/+z//JnMf/g/PJB5PtLt96//u7+ROf8DGAAAAAAAAAAAAADWBB+AAQAAAAAAAAAAAGBN8AEYAAAAAAAAAAAAANYEH4ABAAAAAAAAAAAAYE3wARgAAAAAAAAAAAAA1gQfgAEAAAAAAAAAAABgTfABGAAAAAAAAAAAAADWRFGOSvkHy3op8y/PX8j8zqKVeXzvnsy7Ltd5uJR5aqcyvz5fybzfmMk8DMYyHm9syDwvCpk3SZdfE3Re5LXMy3wg8z51Mu9yXT8L/XqhzBYyz9uof6DX8VG5I/Pzm/r6qydnMv/q8WP9A7p7hRB0+YZG129qdQF0lW6fg+0Dme/dP5L5Vq7rp0t6/Ijm/bJMF+DRjn6/o22dzy4qmSfXwIa6/eeFLp9B0tfHVZJ5X+jxqTL/xKc17WehHy/0rX6+Rl8eFrp7henFpzI/Pr+QeZxfyXxgCihN9mS+f/e2zLf2d2W+u6HH3xBM+9TFH2rT/twAmpv6zTKdx6UZv8z4mLnxLZj7m/WNmb5Cbrp/bfpvX5r1i6ufXo+ftZ4+Q8z0/JKN9PW5a2BznT8/PpX58uRY5tGsP/JKl1+2aV7Q9K+r5691fqLfb7Cl77/z9lsy3xvckvm2fvyQMl0+86DbZ+r1+riJuoO4/jvszfgb9POv9PASskwvQPNo7p/r9hdL8/5mfZ5qsz5o9PPVlb5/cv3HjJ/JrB+y3gygrfkBM7xEU/951OXb9nqAbFvdgcrOrM/N80XTv9w/we7N+B1z8wNR398MDyFlpn2Z8i9N+0iF/v3ebKBSb9pHa+qv1ePb8YtnMl91ev391m19vvHWo49lPhxuyTyY9hnN+G030KOhjDcP7sh85y29fzz++it9/1/q/fXJXPfv09f692dmf/D223r+vfHgkcw3Nu7L3Ew/YXNgOqjZf07v6flv+0KvX46ffCbzxUKf/12e6ftPtnQBDIpNmXemf+etOX805d+Z9X1n5v9hdOcLun5TMgv8Sr//0qx/ajM/rM71+WHcNeU/0OUzaMz5Z68PCNpT/fttrU8gsqFen2dBn99WQe/Prhu9wNl+reeP8oGMw+BAnz8MT85l3tamfs38m7n9rzv/M/vfwpz/ptwcMJv9oel+YcPsb+ZHenyafqXPp57+/Gcy39n79zLf39Xz64O3t2U+3db5jctrmY9zPb4N7un5042/q1q339df6vWZWX2Hww39fWBYmV8w+yu7fyr19Wb7HGpzPlzPdf++qPX405/p+acOuv9lZvxYbujxYWtT968+mPHbnF8l0wBbU/979/T1r97o8+NnT/X66vbf/a3MP/jL/yDzsHkoY/4HMAAAAAAAAAAAAACsCT4AAwAAAAAAAAAAAMCa4AMwAAAAAAAAAAAAAKwJPgADAAAAAAAAAAAAwJrgAzAAAAAAAAAAAAAArAk+AAMAAAAAAAAAAADAmuADMAAAAAAAAAAAAACsiWJ1cSr/YFRVMl+1Ol/0ncy3u0LmO4cjmd+6fSTz6+sLmWe7ezKPXS/zN69ey/x480rm7968LfNVnss8ZfobftXr5y+aJPNZijLvM/37WWpknoJuH00xlnmbWpnHVMp8I9+X+eihzmerqczb5VzmvXn/3v4TjYFO46bO94c6L3X76HrdPrpOP19pri+SKYCkny9luv9s68cLtelfTaXvn5vxI7U6D2mp75/p+y+iHl97c30w9b+81s9/dvpM5s21fj/3b5T2j+7LfCfT79/Fa5kfH+v58eLZC5O/knl670OZ72xP9PVBz78h1+NvYfK8MO2n1eNXvVzJfNzo+o2F/v1VqcePFE37bs34EXX5prG+vxufWjs/6/IpO9d/dZyCfv6m0fmXTx/LPDPvt723JfODm7dkvrGn+0cIev1YDXX7av/4PZm//PRrmR+ffiXz66efyTwc6flrvLMj81ZfHkrXvhu9/upbvf7pS91+U6Yn4K7Q6zu3voxm/q/tAsusr4Ie3zqzfukrc/+mlvGwNuOvXt6F3qw/skaP/40ZX7uky7835a9rP4RRpQe43jxfb26gW1cIualfMzqH0On6G3X6AVszP7vyc08Ye92A+ka3H7c/NNNjiO7fqJvlc590+Z691uu7aaPHx/3xXZk/un9P5iGeyXgx0+vj46/09XW9kPnQ1P+o0ONf9VC/XzbW/f/ugwcynz7V5zfPX/xU5n2Yyfy9P/6mzD/+k38n8y1zfpRNdflvdHp8D5u6/LpKn0+EwqzvwlsyX1x/X+Y//Zf/Xebzq3OZv3ijx6/bh7r9FWb9Fu3woce3aMaPstMzxCJ3+3szQZv9a1Pp9XNe6v6j386fz4Wo22fszflieyLz+lrf/+Rcl+8g1+dfcbQtc3c+1yTdPqPZ/8xq3T/3l2YGn+j9TZ/p9rVszPmpWwHl5vyhcud7uv1k5nx6FfXzm+O30Jvz9WgGkBtDvT9a3tXj8+UXen746X/6O5m//Z3vyPydd/X4Ptwy+xszf2RBl9/5yUuZry71+uXNcz0+nNZ6/T/aPpD55s0NmYeVWd+b/XXIdPs8M+vn1bGeP0/Pn5gH0GKl2++40i9ojpfCwqxvFidm/DHn03vmfGj7nq7/YM4f3Phddbp/vPfhN2T+e3O+98sLvX49+9v/LPMH7xzKnP8BDAAAAAAAAAAAAABrgg/AAAAAAAAAAAAAALAm+AAMAAAAAAAAAAAAAGuCD8AAAAAAAAAAAAAAsCb4AAwAAAAAAAAAAAAAa4IPwAAAAAAAAAAAAACwJvgADAAAAAAAAAAAAABropi9XMk/mNwbybwq9mS+8/59nd/clnnKc5kfHezLvGs/kPnerXdlvlolmT99/FOZNyfXMv/9spH5vQePZB6zKPO67WVeBJ1Xhf79zv0TgqYwfzDQca7vnwed97V+wNjr68ejocyHQ9N+J7p8Q5zJuO7c++vyLSb6/fOo23dr2ldq9Pv1fS3zmHT/Nq8X+tTJfNXr958XrcyrQr9fivr5u0yXr05DCIX+i2jun6dK5n2m36+5Xsj89NVnMr88eyXzanhL5h//0R/L/N6jt2TuNEudd+2lzH/745/J/Osnn8j85eNfy7x99F2ZHw5LmVe6+4Y+0+2nN8NXX+r+lUz7isncwAwApRn/oxkfuqT7V5/p8cHNP0Wry8cMD6HPzQRb6h/Ic12+y15ff/rlS5k3p8cy3715KPOPvv8Dme8M9fpzudLr1z5MZT4Y6/6Tx12Z3/rBQ5mfntyT+Sf/9o8yr09+I/OXxXsy397ZkfnE9M9uZNYPS7M+NP2r0cvfMGjNAqB06w99eWb6b5bM+rHT82sW9PiTSj3+JrP+rs38lS3078eBub9Zf3YrM/665Z0Z3v7Q9lOY/ePANK/OPH9szPjT6x9oTJ73enzqOjN/5bqAsmTav6nf4Nr3WM+fbv2fmfkpmPntcqbXb28WOi/M/uDu3W/JPGzp+ptfX8j85MkzmZ9f6eefXesBYqQfL4yHuoOMPtP3P3rvmzKf7Onzm+FEnw/MV3r/vHPzSOZ/+Vf/vcx3b+j5PwTdv65P3ujc9J/i/Fzf3hyfTHb0+UVZ6PIfb+jf/5M//SuZ/+S//GeZXz97IvOLLf38Oxv6/CU3E1BKun1nbn/S6/rLWz1+1d1c5sms7zeiOd9odfktaz2+1VE3sFSOZX7V6PPPq2M9f75+pdt/beb3ybZe//am/lMw5yeVPh8pSzN+6uILhVn/BXP+toz6+eqgJ4DW3L/M9PmeWz+mzExAuvmGoVnfhKCfb2rWl8G0j9L0v7sjPT49fle3r+knn8r8l//yDzJ/9sVXMn9g9ueVKf9po8v36ok+H5gv9Pg3C3r/X+7r+f3wwZbMc3MAszLr69Do9n1yac6nz7+W+XT2XOap1vcfHer1y3DngczHO7r9VqUev8vXev0TVvr9FvMrmZ9+/bnMlzO9/t2+f1vnZgMYzfi1Yc5XP/ru+zJ//OlTmX/26vcmfy1z/gcwAAAAAAAAAAAAAKwJPgADAAAAAAAAAAAAwJrgAzAAAAAAAAAAAAAArAk+AAMAAAAAAAAAAADAmuADMAAAAAAAAAAAAACsCT4AAwAAAAAAAAAAAMCa4AMwAAAAAAAAAAAAAKyJ4sG3Hsk/GI/2ZH5wcCjz3f1K5n2zkPnJk+cyf/70pcw3D45kfrS3LfPx9q7MbxxtyfyXv/ixzFezqcxPTh/L/ODggcxTlmTexCjzotL/RkDXbgjtSl/fhV7nrf79MutknuvXD2Wl/6CKtcxXtS6/UOk8lkOZl71+vtTr389bXYDzXtdPVhY67xqZp6Cv70wDSrnOQ9Dv39e6fcTCPYBun02vy7dq9QsM4h/WP0Onr88K/fwp6evrk2t9/1rX/62Dt2T+Z3/2ZzIfbQ30/ZOuX2eou18IlR7ff/Df/LXMd380lvlvnnwm8+nLZzIfPrgp8+3hSOau9DrTvzLzT8hykyc3QOvhN4RWXx+jHn9CMuNH0P07tqZ8zL+xc907Rt1/Y/mHXb+azmSe6mOZDzf1/T/88z+V+UFuKviNXh+dXV7IPNa6fQxd+e7p3z8c6/Xv0ZZeP4c//qGMf/XPfy/zyxdfy3wwMeuLQueFWZ+FQjfAqtfzQ27qv0u6/7S9md+jnn/zwoyAUe9PerNA6TuzvuqXMk+5Lv/erI9yUz55o38glWaAcuN/q58/MwNgNBNIOze/b/Y/uVn/J/N8mVnf56aCoinAujTzm0xDyMz+JHZmfWgmYPcvyGPnJiidR7PAyLK5uV7P3/1Uj0+DsS6fw7v6/KBL+v5Xx3r+7Wt9/XKp826l36+Oenzo53r93Q30/Lx6/kTmIdf7g960/63DGzJ/553vynxzR9efWyCf/9svZP7G1N+8Ppd5a5ZHXdTrs1Dp+rt7c1/mR/c+kvnunl7fvP3td2X+yU8/lfniQu8/97Z0/ee5qcDGjG9mgGsyM//XOi9MA6uCWV+5+cGc3+a5Pj9tTs5kfnVTj79peSnzzJzfDYbm/cz+3e7fzPlVaM38Zc6HipGu/62x7n/m8cNnzz6R+fWzVzLPzPnc06T7R9mvZJ708UfYMucr+4f6/L4w+/fC9N+B2R+sTP0uzPo2z3X7eWDa7+lH35b5/Nj0XzP+PHmh55/oCtDNT/2G/oNN3UC2x/qAYfeO3n/nboUadQdrzf7g5Ve6/JrLL2Wel7r97N/W66NH3/5jmVdmf3ho9u9O1psGrLtvOAvfl/m1WQB9/vOfyrxZ6vOb+Ze6/6TbenzeHejyyzI9Po3N+dOH7x/I/OW2Pt+d1vp8gf8BDAAAAAAAAAAAAABrgg/AAAAAAAAAAAAAALAm+AAMAAAAAAAAAAAAAGuCD8AAAAAAAAAAAAAAsCb4AAwAAAAAAAAAAAAAa4IPwAAAAAAAAAAAAACwJvgADAAAAAAAAAAAAABrovj4W98zf5Jkmodc5n3byPzLLz6R+fnXX8j82tx/chBlvriYyXy8uSXz/Zs3ZP7nH/+ZzP/5n34k89XrC5kvJyOZ70z2ZZ6Vun77vpd5aHVcmPpJ5ue7Tv9BrPT1sdD1H5P+NxC1br6hL/UflJkpIPNvMPpQmus7nZr6yzp9vev/vfknJDHq54/m+VM0uWlfIer670Mt8ybp+/e9boApmAaUm/Ydhvr+nW5ffdL3T2c6Pz59LPPtaizz7/67P5f5aHtX5mFxIuP+4kzmram/EEz9ZQOZD27p8fX9P/+BzC+mlzJ/9fKFzMPuoc6Huv8Wrn1Wun+58bNpdfnXUf9+mcz9M92/y2jGLzO+1F0hc7O8CZPC9O/cjP+tzt34uTLPf32h21+o9f0ffKTb952BXj+Fq3MZ//bVlzKv57r+i1733yZfyXwS9PUXK12/O7f2ZH5w40Bff/S2zJ8+NuVzPpd5trMj81Dp/pOS2R9Es0Aw6zezPAxLM/9vdvoGeavrfxn1E+RJ/75ZfoSYmfVRp5+vMOuHxpRg15vx04w/w6WMQ13q38/M+rwy7acfmfWdmf/d/GCG59Ca8aUM7v307yczPgUzf8aVbl+dmT9as38pcn3/vNd5lpn9SWbW92Z9UE/180ez/r97oMffLOj5ddnoDlKVen2/MBvsYdTPX2e6/ZjlWQitvv/crC9W2/r6i/pa3z/p8tvb0evfrX09v+mnD6F+qtff06DLd36t62e+0Hlvjg+awlSg+f2nM70+WHa6fT784JHMb9w6kvnxztcyr+f6+buFLqCq1AN4aea/Lurx3cShMuubrtXjc57r5zPL81De0P1r3NyVeW8OwKZv9PnsyOyfw4beH+Rz3UNjt5B5bcbPsjXru16/f2x0/Rzmuv1nlT6/fXqux5/rX+vz8zdnr2Q+nNyX+cYzfX0qzP7aHO+cLPT+L13q3x/d0jeoTPMbmuVFVukO1vbm+XQckhkgbpT6BVaVHn9XQfePbqrbt1m+2POhyYbuv+MtnY9Gunzc+Www59/R1N+bF7p9Xr7+jczLWs9fhx/q72/f+d73ZW6ap/8vnjP9/Stcv9Z5ZzYwWzdlvL+lz4/3gx4f9/+dLr8f/d3PZH725NcyPzLn2+GBnr+KqOefrjPnK4Vu/0f3NmVem/mL/wEMAAAAAAAAAAAAAGuCD8AAAAAAAAAAAAAAsCb4AAwAAAAAAAAAAAAAa4IPwAAAAAAAAAAAAACwJvgADAAAAAAAAAAAAABrgg/AAAAAAAAAAAAAALAm+AAMAAAAAAAAAAAAAGuiGG5vyD+Ynb+Wed2sZP78y1/J/NmzM5m3UcZhcGMi89OrK5nHRSPzxUzf/+67d2U+3DyQ+cNbt2X+2ddfyXx+3sp8e1MXYJWVMm9XvczrTsYhlPr+pnrDIE8yzwr9bxh6c4e+z2VedLXM804XQOr186VWv9+q1+Wfcv1+ZVnIPO/1/Ztet68smbzR9+9M+fRJP5+5PARTPjHq8s2Cbh9lY+pfv35oUiXz2Oj7D0z9LbqlzGfTc5mHsb7/wf0jmW8Mxvr3F29kvHx2KfPXb/T1i6TrdzjQ5V/men7ZW+r2NXprX+YH99+W+euXL2U+e/NK5puH+vd7M34GM77HVpdvpePQNLr82mT6XzT9u9Ljk9W48UHPD52Zf1I3kHmfdP1EfXlYmgm6vdQLnNzMjx89eqgfINfXn19NZT5M2zLfOTTz29isb2ZzmRfm30iOt/TzJTO+F71+/s3NXZln4ZnMVyvd/k33seuL2JjfT/r63Kx/omk/RaXLty/087W97h991M9XmP4Z9OVhZconBj3/pG5hrjcKXb69GZ+DGZ/d9BLM+t403/8X+wf9fCE39W/W99GsT7tWjz+5+zfYnXt+0/7N+q1ZmgZq2kcXzfOZ9l1mZv0c9fnC0hwQNGb9l8z63Y5fpgFWma6fVanXx+VQr38L0z878/51q9uf2/9sZrr9LDO9/9gI+v1So89n3PhXuPOJWr//KugB6Hqh7/9mrq9PZnwoMrN+lGkI5vgg1Lp4w/xK7w8XZ3r/Nx4OZb65tSPzk5e6fOeXFzJPYzO+uvLJdPsfLXU+rMz4aBbwrRnfOje+Br2+HB7p9cX8tS7f118ey/zho3syP9q4IfNyU9f/8lyv389rPX+kpDtAVWzJfGLG7w09/If5qS6/k5e/lHk+0PuP+994KPM7D3X/HboVVqXb13yly3e50PWzeqHPd776+tcyL7Y2ZX5nT7fPQdTfR0Zu/WLOD5IZ3936usz0+Jbn+v3jtvnAoV8/5O1I52b4bQfm/McM0EVmBvBMt8/LK93+nj3/vcxz83x3vvlDmX/v4/dkHsz5+uVzPT5Pr3X9nq2e6tubA8DmUpdfluvyu3H/fZnffXhf5pulHv++856eX/7pmW5/JzP9fXI36PVLNP2zt/snnde1Pn9MhTu/BAAAAAAAAAAAAACsBT4AAwAAAAAAAAAAAMCa4AMwAAAAAAAAAAAAAKwJPgADAAAAAAAAAAAAwJrgAzAAAAAAAAAAAAAArAk+AAMAAAAAAAAAAADAmuADMAAAAAAAAAAAAACsieLl734q/+D07Fjn569lfrFoZJ6FSuaTgy2ZD/NC5mk5lflZo/N50+v7n27L/ODubydTaAAAIABJREFUjswnt27IfHD2QuZN0OXbJBmHso8yr3v9/m1vyt9cH82/QcgL/ftdq38/a/T7hVyXX5d3Mm9yU8Cp1LcP+vmy0OqfT7p8evP7odT9L69N/SRdPqFYybiJucz7zuSm+KvMlK8pv5D0DRrz+qHT9y9Kff+y1O2zMP23qGUc5s2FzKtCt7/J1q6+Qabbf32+lPnLq5cyv251+Swa/fyzhYzDONPPFwr9frdm+zLfunEo87Icyrxvdf9aNfr5o2l/wY2fpv1luvuG0OkG2prxMyZ9/ybT41uIZn1i8tzNX/ruocvc/fUvlIW+/+WF7t9hpcv/zlv39PXm/fvlTF9uxqdhNPPnZEPm2Ug/X2XWL+M4kHkx1HnQy5MQWjN+jPZk/nhDt++U9PjQmu5dmfktBjd/6go2cShy/YCTVtdvl5v+WenxNUY9QcRezy/t3NRP1O+XCrPAMfufzKy/c1O+nXs+t/41/8TYLI9CyPTvF61uoG79WDSm/JLpwGZ8dstDV0B5GMncbH9CbdZvoTTrm96t/3UF9qb/rcz63O0v3Po3mPptM7O/NcsH8/ihXOn3L2p9/04fT4T5yvTfzuyfo9nfmBcsej1/ufmjN/tLt7/rGz2BRLN/Dmb6XprxtWn1/RdJ96/M7B+iWf+b7WnoTf+NpS6frr2UeWPWF4VZHwyjfr+rk+c6n+nn680GJJn5KTfjZ17pAWJjQ++P90p9flgdTGRetG79qq+vzPpnnuvymzbnMn91ocvv7m19vnt7rMtnuqnb3+5C989xdP8HSg8QpVlA128ey/zJ1SuZz870+nP/7vsyP/rOt2R+MNLjT3Dnh85K728vO51/2f6rzMtf6fKpKl1/xy+fyvzw7n19/6D7Vx/d+KjL361vml7/vlneh7bT41dnBshCL09Dbs6Pkjl/awdm/C31+LTK9PO/efpEP8DijYxvvv0dmX/8rW/o34/6/S5e/U7mL57r729zU77u+8ay1ec39VSvb0qz/p/+9uf6980LvP0NPf5tbR/JfGfnpszP01zmpzM9fu1v6fEhb/UCrjX7d333EDKzPud/AAMAAAAAAAAAAADAmuADMAAAAAAAAAAAAACsCT4AAwAAAAAAAAAAAMCa4AMwAAAAAAAAAAAAAKwJPgADAAAAAAAAAAAAwJrgAzAAAAAAAAAAAAAArAk+AAMAAAAAAAAAAADAmigePz6Wf3A5P5f5wt2gnMh8Mh7LfCMf6RvknYyXdS7zMjPfwLNexn13LfPU7phc3z7Fgf6DrJBxDPr5Q5Z0Pog67/X1fadfMHb6+lRU+npTfWWu3z+Z92+KP7D8et0+26kunz7pFyx18YRY6PrLGvMDQV9fJ50PslLmG7p7hqbS5RtbXb59r++fetf/GxlXpvhM9YdcP14ISb9/W+nnX7jxa2nKN+p8a3Qk82Se//jNK5nPWt0/rq71DLSa6fu78aHd1Hkx0/PXbHUl862h7j/bh4cyvzw+lXmzXOrfL/Xzd2b86XOdJzP+dGZ4jWZ8MNNfMI8XQtIdtB7qy4vW3cDMn+byvHPjtynAVo9fc9M/3QOmUhdQbHX7uzw9k/lZq/tP1W/rfE8PsNW1rv/juR5fRlMZh2qsx8ebe2Z9u6MnmL3Rnsxnpn3HXr9fFvT9XR5z0/9DLfPU6wEgug5kxq+80e2/NvuD+lr3r0Ghry/c+ifp/t2Z/mumtxBa8/u5WZ9n5gXM+iqf68vd9swsP0MKuv0PzQ/knal/c//oKiDX65um1ROc2z8WnVtg6vLJe/2CMZoFrts+rsz+3JSfGR7CzlCfP5xG/YCnl3r+cbNnPtbz49aGfr7La31+MNjQ5w+TRnew2o0PUT//ninfnYNHMm87Pf/MTnX7ml7q86vg2qfpHm5/ltX6/Yf5TOame4Q86d9vzS9Es/8LZn4KpS6A67kegFozP/3i8a9lfjbV/W9s1h87o1sy3xrr8l0EXX+zK/3+11cvZP6i1/nR8U2Z7z/al/loqNeXhVkfZZu6fDJz/rc06/fj15/LfJRtyHxh7j+8qZ+/i3r9Np3q84nmpR5/jhtzPmYGoFt378u8uKnrv32ln/9NYWYwO8Hp8+nhhp4/toe6/X38vW/L/ODOgcyf/O4TnR/r/teOzPnR5ocyrwa6fvuwkrk74C7c/GTWT1lpzg/N+jOa7y/BnJ/nZv9Rmv1D0+gFYKr1+uj84qXM3fnT/Q/+RP+BmV5XV09l/uqp7r/TuR6/QtAvUBS6fqtKzx/JHF+ERrfv3hwAXh2fyLx+eFfmg109Phzu6/X16clzmTdzvT5IG1syj6Z/DMz5d1Xo+W3V6f7J/wAGAAAAAAAAAAAAgDXBB2AAAAAAAAAAAAAAWBN8AAYAAAAAAAAAAACANcEHYAAAAAAAAAAAAABYE3wABgAAAAAAAAAAAIA1wQdgAAAAAAAAAAAAAFgTfAAGAAAAAAAAAAAAgDVR3HpwX/5B9zTJfFB0Mo+pl3melTJvYpR5aHWeOpPn+v5Vrp9/KNMQ7OPrnw8pO5H5ILst86oY6Rtk+gELk/e9foHU6/aTFTIOIZrfz0ye9L9xSL1+v67Wz7+qdfsfLRYyb035NUG3z5Wp30Grnz+tzmS+XEz19bV+/qtCl//ENID8cEPmpnmG2Db6D/pKxt1YX14lXb6xNA8YdPnFZK7vzP1nroPp6zerHZnnuvmH7npu/kDf/3pZyzzTcUim/dVJ/8DKtO+tqekfS339YKD79+5N3T6nC12/q2szf2/kMu+iruDWzK9Zrcu/C39Y/+hLt74wz9fqu+eu+1W6/PKVvr5sdPkWpvw7Uz4Dc30y67dZMv3XmE6XMj+9vpb5lZmf2ouXMs+emwF8oecH07xDZhaAOzu6/W+P9mTeF3p8yDb1+5Uz3QDN8jPUUbfvODDzV647WNmY3zf/RNXVT27af57M/sU8QDQlmPd6/WeKJ7RmfIxmfZiCLt/GPH+VdP9ISb+AW78mk2cDGYfO7P8yt76vdP32bv8SdPvpzf1b0766kek/M12/ZnsUulyvH8z2PYRat4+oqzcMgl7fpN7NX+YBR7p8DseHMh+Y+v/6t1/I/MFH78u8uKnH//1Cr0+77KbM04XeH1Yrc74x0h3w1oMjmY92d2V+ea4byOuzJzJ/+kKvH95bXsjc2RyZ/VOm598umus7Xf5F5jZYpoMZI7OA2Rzo9tmENzL/7Befyrx7cSzzwViX3wcf/Y3M772t+/dWZRZwZvl7uTqX+ZOvnsv868e/k/nZ8pnM541u/3vv6/Pd/UK//2Si29dmPpH5YqrH38sL3X5mrV7/Txvdf7IrGYd8pOff+Stdvqem/RaVHh8+/NbbMt/f1/nlTI9vl1enOl/p/UHs9fqjMOc323t6fjq6eUvm4zt6/rh75wOZX73W7efx717IPEzM+nZL55VbAJnziWj2B11uzm/M/iELenwdm+8jpvpDMO3HPH7IzPqwM/ubkwvdf/Nrvb7ae+ePZP5QTy8hdjOZv3ip5483cz0+rsz7F6Ve/5WVXt9lUeeF+77W6PG1bUwDN99HumtdvtVYz0+VWZ+OX+j5O1/p98tMAx+a71ume4bWdMBmpsuH/wEMAAAAAAAAAAAAAGuCD8AAAAAAAAAAAAAAsCb4AAwAAAAAAAAAAAAAa4IPwAAAAAAAAAAAAACwJvgADAAAAAAAAAAAAABrgg/AAAAAAAAAAAAAALAm+AAMAAAAAAAAAAAAAGui2Hv0UP7B8OimzC9PjmU+n76QebOsZV5n+ht1Yb5h54Nc5qXJ7+zsynxydE/mIer49bN/k3kXepmXB/syb8z1oTX/BkAXTwiNfsG8qGQeYzI36GSaUqsvz8wLtIWMVwt9+Wymyzcrdflu3tb9a2V+f94sZf7q6WuZD5upzFOuy6cNun5D0gV4Ptf1W39Vyny0O5T5jZHuH+WWjEMyzXNhOshIXx46Mz60unjCyDTvGMwLRN0+YzQPaPuvvv6y1de35v7zXOdVp9+v6XQBplo/33Ig4xBq3T9D0O07RVPBZvhuct0/35j6D0mXbzQNdGCmn2xg2k/S64PQ6vJZRj1+xWgqMOr7N2Z+KYKen7JcF1BjXj8sdP11+abMh5UeoebX5v0vnst8Y0O378EdvX7qf6/np2Wn21+x0v2vn8s4ZEOzfhnr+XtvW7evNtMT0KrTD3hxeirz8UjXf5/cDOXWTzMZl70eP7Jet486NjLvM1P/vXl+M7+OzfC4MnlrBujeDH9megtFpcePZMbHaOrHTM/BXB5CoQu4N+uDXg/foTLts13qfOqe36yf6mTaX6evz0yeCjO+b+r5pV2YFzT1m0Wzv8ldA9H51PQfc3vbP6pNPX6X9/T+vjm/kvnj15/JfHdTv+D2rfdlvjW4LfPhnYnM79+ScbisdfvpK11/sdfz28W5nn+ffvUTmQ839Pqg3NT18+ypPp/69vdlHMrtGzJ/8OBS5q9/eyHzttXrmzDW9ZOb/fdWrtcX+xtjmfdmeTD7+o3Mx7Uefw9v6/b9zg//W5nf2tD7eycmXf7VgR4fNooNmR/d1u3n0aN3ZP6zf/k/ZD6bPpP5+WPdPyfv3Jf5xkgPsJ1Zvw2Huv47M4AvzPzoZLkef/TqMoTrwUrm3VCPvztbun0c3P2WzPupXl9fXevx7Wqq33+21CVQmPm9yvQEPX2jn69P+v22i7dkfnh4IPN3vv09mf/+85cyd+cL9UyP76PxocxjbgbYzK2vdFxFs/7u9Q90Sbf/zKy/OrNB6Dq9wO8K/Xx11PNjc6nPvzOzv7h3qPfPsdDzZ1jo9l+/cRsQ/f6t20B2+vwmJT1+x6Tbf9Pr9hXN95OY6fuPzfgadvX86jb48zPdf7uVbl/VWI/v7nQlJnf+6M5n9fg+ffmFzPkfwAAAAAAAAAAAAACwJvgADAAAAAAAAAAAAABrgg/AAAAAAAAAAAAAALAm+AAMAAAAAAAAAAAAAGuCD8AAAAAAAAAAAAAAsCb4AAwAAAAAAAAAAAAAa4IPwAAAAAAAAAAAAACwJorlm+fyD+q4JfPR3p7MNyv9jXk+m8q8Xenri9DLPLu5IfPD/U2Zb+zflXlodfz48a9lfjbX13f5LZlXmX7/PHYyb5P5NwDLKOMy6TxmjcybqK8PXS7jotfvHwqdN9FUoCm/Uakv3/ngnswPtnX9vrnS/eP1b3T7uvjyhcwn1Ujm+4/0829OZBzSspb5sj+XeXOin392PZP5eTiS+a1HD2S+dVOPf1XQ7bfrTf/odQPKOt1/6krGoTH/xqcIun91mR4fU9LXl+1K5rm+PKx63T+XvR5Ax51u3+bxQ5cVMo+ZLt9+W99gYa5vFzIOqdPXx5G+f2/qP2vN+Gqubwa6/jIz/udmfgsh6bjReTK/35Rmfgh6fuhHuoP2rWmAA/P+uS6/otbrn8mOHh+72aXMz18/kfmt+49k/t4DPf6GpR7fX52fyLwf6fqLI11+g12zPtzTE+Ctm+/KPMv1/Pj6iV6fF6b55KOxzks9v6S0lHlj1t9Fq9u/vnsIjZtfzfyYMl1AyYw//VL/fu/Wr5WePzJTfqHQ14doGkB0Jaz1vdkfRD2+RrM+ca8f5/r9YhrI3E1ffWX+wMyvuZlfiqTrr0n6+v7alP/YrO8qXf9m+LHzYz3S75cHXT9Wph8wtfr+ZnUQRkM9Pp6WFzK/eHYm80/S72T+oVm/7h59W+bVvp7fO7N+3pFpCLMTvQCdXun1wde//6m+QabHz/GuHkD2V3p9sbrW++fnv/xc5ne+o+fv7Yc6v3+m9z8vLx/L3P0PjZHpn4OxLr/dbb1+mS50Dzq9/kTmIQxl+u0f/pXMb9zU668w1+X74vmXMk+dXr9vbb+WeTnQ55/Dm7p8b2zo858fbv2PMv/b//S/yPz69DcyP9/clnnx4LbMy97M/4WZH0u9Px+ZA4KsND2k0+0nN+dTkx2dF1Gvj2+/9Y7Mx5v6/Z8tdPs9N+dfbWvKp9TzZ1fo/jXvdf8pkl5/XJzr879qaA5Y98wMVuj+99739Pn+l5/p+ePiQj//xoYu3768KfPcvP6oM+crZv2+7PT8kYJZIGbm/NJsX5JZfrfmfD4tdf+7MDvMfqzHp8nQzD/G5cx8fyn089dzPT70je7/ydRvSLp8u0qXT9eY9peb8X+gy3d8R8+PZvsRrs34eH2uz1e6TO9flkGvj1Or1+ch178fzf5mdanXJ28Wen/C/wAGAAAAAAAAAAAAgDXBB2AAAAAAAAAAAAAAWBN8AAYAAAAAAAAAAACANcEHYAAAAAAAAAAAAABYE3wABgAAAAAAAAAAAIA1wQdgAAAAAAAAAAAAAFgTfAAGAAAAAAAAAAAAgDVRvPj89/IPsnIg84Pb92U+3illvnXwSOaD/5t9+3iy60rw/H7Ode/ly5c+gUwYAgRAgp5VRZZjVXdNTXUrpkdSKKKXWkja6O9ShEIxmoUWM6GR1N1SdXdVl2fRGwAkAJLwSADpzTPXHP0Hv9+Cq37x/Wx/77pzj7+Z+vAwGhb6B0avTjKvj3Zk/tXX12S+9WQi87yck/nSmVMyXxzk+vyd/sZ/fNLKPJW6fMpKxiGkRsatub+u0+83Bn3/eWP+xqHVzxeSzpeWo8yLWt//ZDSW+cH+nszX6qcyz1aXZX75zR/KfGlBl18TdP+Qgq7/z49XZL7/5qsyH316W+Yf3b0n8wc3vpB5yi7J/PTShszbQtefPHUyz4KuX1nU7b/MdPuIpe5gY9TvP3X6/UZdPcJCrvu/XD9eqEzzbTNdfnWn+6fKlF9h2kc/X5d52+n2fzLal3lmurfS9N/9Vhdw2+n62Zn6nRX6BgtdvCGa+t+Z95vr1xtCputv2+nyyUz9y4Iuv5j0/bdBXz+a8bdv64fuv56dHMj8+lePZL6+tinzXn9J5i+9+rLMT+0syly3rhCazozf1bzM15fXZN4l074fbMl8Z1u3/0Gpx8/5gfsbT10/kymfvumAuqw219cNNC/M/PZEn70L+vqTvhmg3PWnZnyI+vmS+Rtcl7cmzzN9/73SzP87PT/oJvr4ZirjUOS6frn6NzJ5MsvD1JjxI5r+uzDlow8PrVl/JDM/LGrTvnP9flozgUqdzmOrB6DcjI8h6vYZk9kAMOuPrNTtby7p8tlc0uvv3IzPE/N63v/ygf7BZzrfWNXjT1Hq+xtNTAU15bN3oPOy0ONTf123v6qn58+nhrqDOfzyQ5l/9OH/K/P1Bb1+7p3Xz3f1u3r+Mryv5z/Tw12ZuwXAxuKqzNvJSOZP738s861t3b7OnR3K/PR5vX8YRscy/vqm3n872D6UeRn1AJEF/f7n9PI17O7q/ZvNM3p+OWfmx9//wb+V+T//43+R+dFTvf+7vqbrT7ZsCiA388vWdJB6eRZ6rZ5fm+23UGR6/OqPBjJva12/UqXHJ7d+y/ZN/zzV7S9GPX5WfV1AdWvmx63uf6OZP0yjzo/2zQTC1I9KDy8hBN0/9Xq6f2x08w5FMP2LmSCmaOZvZv+7qV0B6PYXMzeB1nHP7Y+Y+f8oN/W30O8nHpv9mz1XPnr8cez6zH0/McUfTf1366fWfN8wn2dCZfr3WOkTzK/2Zb68ot//Ua33p77+k57f/f6zd2Ve5np8frHUL+j2gf4+s1To/idf0Nff2tPnD4XeH+M/gAEAAAAAAAAAAABgRvABGAAAAAAAAAAAAABmBB+AAQAAAAAAAAAAAGBG8AEYAAAAAAAAAAAAAGYEH4ABAAAAAAAAAAAAYEbwARgAAAAAAAAAAAAAZgQfgAEAAAAAAAAAAABgRhQpL+UPmsNdmT/+4oHMT5+9LPPB+pLMF8/r3H3CPjk60vnDHZnfuPknmR80JzJPnb7/5Qu6fOZ7lcwz/fpC23Qyj4U5vogyH7f6+KrLZV7q2wvTdiLzrtT3N5/rCtJ2ugBSanR+Mtb53L7MHx3tyXx860uZ9/syDm/++Psynx+a9jWeyvhkX99/HOj3t7R2RubLg0WZh83n9fX/8FuZ/+G9P8v80U1dQedf6cl8sDYv81SY9tnq9pOZDnDY0xXksNQdyPGR7v9POt3/VZm+/0nS7Xc1zcl8LySZN60un7zV7X9+qI9f6J+Wed9U36dPdfke7R/IvC10/Zor9P3Hoe7AqwNdP6eV7h+7QtevzLz/UOr325rxo0z6+XJTf7Jknn+qj0+ZPj43A3hmxqem1dfvzPV7mS7/xU1dv5/cvyPzj977VObPX9Djx+LLenxY2VyXeTbV/XNdmvlB1PVnNNHj2/43t2S+93gk89K8n2Ko+8eyGsg81TIOua5eIZjyy8z8cerGv6Trf3+gx5e21g9Qm/7f3H7ogq4fbWfaZ9Tze1P9Qsz1C4ymf6trs4CyfyKsy68yz5+Z+flRo+efMejnL0vzfk3/7Z7fdM8hTU3/3+kKVunqEWJpxt+kH6Bpdf8YWl2+VaevH4K5v1K339zUL1e/M1P/iqifv6h0/3rujJ5/bZv103H3VOYjs7668c1Nmff7+v2XQVewphrKPM6vyXxzTR9fzpsNDFP/lytdP29fviTzya0bMv/NB/+XzN/Y/4HM11+5KvNzz52TeTjS6/Pjse5fWtO/Pn36WOZ/eP8Tmc8PF2T+w5/+VObO46/uyXzrkd6/Ozp4IvNU6fLpBroC9kqdd2O9Pj75XLfvy6/p/unUc3r/8PzZ52R+977uf8Zjvf7sRd3/FVH37258SGb9FiY670U9vp5EM7+odF6emAniE90/TftmAm7Gv6mZnxSFmf/kZvyt9f2Z4g/BFE9VmA1MMzxMTvT+fq/S9bMc6w2a0d41ffxUr69iZvafzP6FmX6Fzrz/xsyPpmb9kpv1Z9Xp9hFa3T8ms3+RR7O/sqDnZysyDeFp0v3z0bGb32r9Qj//sLeq8+JY5tum/F3z7Fq9/xAn+v0ns0CulvT87/R5/fyNWd/d/dOHMv/8o89kXh3rBliunZL53q4ev+eOt2V+aJ6vZzaQD8z+6nJPH89/AAMAAAAAAAAAAADAjOADMAAAAAAAAAAAAADMCD4AAwAAAAAAAAAAAMCM4AMwAAAAAAAAAAAAAMwIPgADAAAAAAAAAAAAwIzgAzAAAAAAAAAAAAAAzAg+AAMAAAAAAAAAAADAjChevnxV/uBoYSzzhx98JvP7Dx/L/Nnv/yDz5XOXZV5tbMo8THQ8Ttsyb4u+zFPZk/na6Ysyn0tDff1JkvlJlHEInclLHSfzNwJ10PcXWn18FXWemweIST9AmxUyH4VaXz/Xz6dbRwjHu4cyf3BnX+bzpa7ACy+8KfPecEXmB4f6CXZu6vZ9dKLLr1/Oy/zwsq7AZ88vyjwz9felH/2FzPenBzK/fesrmT+6dUfmL6y+IvO80PU/5a3M207Xj6zR9XdyrN//1p6uv6Nf/VrmV19/QebdaCrzMNH3N+jr+tVlOi+Huvw3Vtdkfu6q7t+du5/+WebHpngWh6syr9JA5nGq+9dU6voXM12/ku4ewsj0/ynX/XcI5v7M+DE15RtN+4tm/Mtzff4U9A/KstHnn+jnq4M+PpS6/Asz/xmePSvz7kC332+e6flX81udL2zo+h9GOs5jJfOuZ8rX9J9TM/8serp+9wZ6fpn19Ptxf+KZmcNDq+t3lpkJaNI3MO7M/K819d/Nfws9Qcg7fYLkxs9C15/M9D9FazqgVh+fm/ltMO+nc+sD079nuTuB67+1qtTn70rdf2aZqV+lHqBc+TSmfM3wFqrKlI+uXiFEfXyZzPhs6ldr2n8I+vlbMwA2rWl/hWn/pn0m176jPn/X0y8gtfr5lkwHu3h6XeZxWY9voyM9wLVm/CqLOZmnzsxPCj0+5ab/cOPzuNbHF6b/Pb+o5++7L70q8+meXp9/9uiezPtPHsh8eVXPn1zx5UkXoJn9hes3PpH5uNLv99y6vv+Vzedl3uwdy3xypNef9VQ//7OxnoDlU90/lLt6/nlmWa8vo+l/CvN+j4/18cNF/X7OX9T7uw8e6v2Pre0dff0l3b6imaBlZoB1+4+dO39rxlezPgum/2xy3cIqswE9t6zXl9MdXUE6U3+nZn3f1Pr+UmsWMLVZv6zo/nnOzM8XFswEqDol45PxicyPj/X3iWOzf7G+oivQidnfi5l+/42Z31Vm/pkH/fx5retvbTZYk5m/RTN/Hlemfpv1TW7mX+HyGRmn3fsy//rWDZlfvPCyzHMzgV87vyHzQanLvyyeyXx/V89f8ky/oLlTZv/UfP+aW9XftyZmhvLsxjcyb035vvDSj2X+4s/1/c0P9PNnC7r/cbLHev54/cZ1mY+ePtT5VM8/+Q9gAAAAAAAAAAAAAJgRfAAGAAAAAAAAAAAAgBnBB2AAAAAAAAAAAAAAmBF8AAYAAAAAAAAAAACAGcEHYAAAAAAAAAAAAACYEXwABgAAAAAAAAAAAIAZwQdgAAAAAAAAAAAAAJgRRd5N5A/WFi7o/K91/sv/8L/L/IMbn8g8Pnsg8xcvvC3zUxdOyby3NJB5USzLfHOxL/MyFDJvxqXMa3146JpO5nlqZd7L9flTPtU/yPQNtpOozx/0/eWdvsFOP344qPX5u24k8yLT91+GdZk/eLYv853HN2SeXbgk8xevvCDzejyW+fGRbl/joMt/f3Ig88NpLfPmwZHMuzrJ/PwLz8k8y3T7/OH3/1rmB3f+o8wfPbsj88O7mzJff/6izNug39/h1o7Ot3X9u/PoC339Vpf/caXf79ZdffyZzbMyn+rDQ93o8pk7uyrzqxu6fc2fXdA3YFz747/IfDLek3lvbknmC8t6/OrnugBT3ch8XOj2H4Mev8q+Hj+mE90/xzQv88rUj1joHzSmf+uSHt+KoMsvmvbT5Lr9dEmfPzfPF6MeIOtCP1+nh78w6Ov50bjSx3dJj7/ts2OZP73/TOZJF29IZU+2EXRQAAAgAElEQVTmpbn/qtL1P5/T5TNYcH+DaSY4wcyvXPuIun2WpT5/FuZkPml0/e23+vmimb+2pn6WnStffYJY6ePnM9O+k5k/j/XzZ2Z+3dj3755f93+FWV+EUr/fqXn+Qr/eULnyNc9fj/XzN7Ve/9rymzPvr9B5V+jzp1a/n2QaQBe/3fhQ9M3zN2b8MO83uPqR6fqVzPsPSZdfa+p/NH8jPzbr57KnC6DK9QDT9vTzLQ/0/K/tm/dv1rdm+REa03/XYzO/afX42UZdwE00+y+FfoD1pTWZdwO9vn+8r9e/+8cPZb69dVfmcaLrx3Kunz/v6f4tK/Xx87meH22c1etXy+wvme4vHOVm/M70Caatvv7R+FDmBzt6frox1O2zWtbrm7BgJnBGb0XPP4cLun6NjvX+zKTWzz/X0/VnOjXjl0xD6Mz8cGo2UKMeXkIa6/ubNGb+v2D6t0qfv93W66PUmfHRzZ9M/Y9R339/UeeLc0Odm/FrPdf7ez29vROO9fZXuP9A739NJnr8Kuf1/c0l3b6imR+Z7ZcQTP/WJN3+opk/zZnlSyz0+q82DSxlen5VmPlXZdrvXDDzg42r+vxBt5/P3v8nmb/+9i/0+ZdXvlX+4jld/3b2dP8dOz0/Wl7W7beYW5T58XhX5nduX5f5zkM9f1pePS/zy2+/JPO1DdOBmPnPt/acvv/5xXMy/4df/ReZ7x8/kTn/AQwAAAAAAAAAAAAAM4IPwAAAAAAAAAAAAAAwI/gADAAAAAAAAAAAAAAzgg/AAAAAAAAAAAAAADAj+AAMAAAAAAAAAAAAADOCD8AAAAAAAAAAAAAAMCP4AAwAAAAAAAAAAAAAM6L44Non8gevTQ9lvvTa92X+7/6n/1nm+0+2ZL5dDWW+vLFm8nMyn+vp85dxLPMQOn38OJd5P7UyPwr6+LbT95cnfX9ZXunj7d8IRJ1W+vli25iz6/uro76/Zlrr83dJ5svrF2Q+7Ovr3793U+ahOZbx+bVFmfu/4NDPn5nq3U71+8t08YVRN5J581TXn669LvN6/5nMr/zgezIP830Zn33xiswfHezKfLfbl/nyRMbh8T3dPp4+uiPzOf14YX24KvPe8kDmxeolmZ8/tynzBV09Qyjvy/jwkR6fpo8fyXxXd4/hZHxK5nfu3NDHj/T4VoSezNfP6f5neWFO5m1uKthEt+/c3F/X6g4glYXMy0z3YO1EV5DGjD950ufvRT2+BpO3mS6flKYyzzqdx1yXb6eHx9DVZnw285cs6eND0O93PtPnL0pdfvGcPv94X/dPtZv/mPpTLer6M2r0/fXyUuZFqdtfV+vrZ1GfPwXd/jvT/4Xc1O9Wl1/KdD5XmPG/0/k06vILJs5N/Yzm/l37Ljp9A6kw81szwYudnh+ETr+/0rz/ItP33wRd/2LS7SMlPT9Kpv8KenoZYqHrf9bp+8uS6f+D7p+zYCbYZv4fJqb/KPT9dWZ4q8z6KjPH10k/f1nrvOqZ/s+MP8n1f4WpnxMzfzHVLxVmfWXGn6Ix9Uvfvs3jyDyAmb+5/Y38RPc/5vFCNjD9r2l/rnzL3HSgJs+iLp/zp3T/ur+k5+/Nia4/eTT7M2Z+kZvnG5oNgPH+gT5/1Pffmf6xKvT+W5xb0LnpoIpCr4+iqf9H+ycyT+VDmVe98zLfXJmXuZt9+x9orWnfdW32z3Jdf7KBrr9FputvnXSe1Xr9n7Vm/9Gs76qoy2ehp1/A7q6uP8UnT2S+uKD3Hy6vL8n84HhP5u758yM9v52f0/3fc5efk/lc0O0zrJkBLuj7u3/zVzI/eKaPX1zR3xfm5/X+rNl+C/XUzP9KXb/qqOevTl7p8SFW5vydPr4b6/vPaj1/yHIzPzT7D2tz6zIvzun6NX5wT+ZP9h/L/J/+/n+T+dXX3pb5lTdek/lcX5fvuQXTfsz7C2b+c3io129fvP9Lme+fmPlx1OP/2ctnZT7IdP04PNLfD7pDs74y3++Kvr5+P+r9q8W1FZm//Z13ZP7HG7+WOf8BDAAAAAAAAAAAAAAzgg/AAAAAAAAAAAAAADAj+AAMAAAAAAAAAAAAADOCD8AAAAAAAAAAAAAAMCP4AAwAAAAAAAAAAAAAM4IPwAAAAAAAAAAAAAAwI/gADAAAAAAAAAAAAAAzotgeTeUPvnlwV+Yvr52VeW9T5z/727+V+a///l9kPmmTzAflvM6rXOZNKmQesk7GKW/18Ulff6FrZD5K+ht+zHXeZjrPzP2FLurjM318rg8PyZRvlunyKRtd/vO9UzJfvrgs8wXzNxRnlhZl/rDW95e1+vmd+ljnW7vbMp+eTPT521rmbaOPn5j6c/JQv9/nVnT7f3r3mcxPXTgv82Kuknls9PMfPzuU+bPhU5mP9h7IPGv0860NTsv84ls/k/nm2vMyDye6/EedqYBHIxkvrJn3U+r6u/14S+YPH16X+eMP/yDzZjCQedEbyvzC5hWZrwz1+BWCbh+h0f1T6tzfgJnzF3p8TBOd50n3f2b0DY2ufqE146cbf8qofzBJ+gaieb4Q9PGpKvXhE318FvT9l0mf3xRvCLken9z7rUz/H6OeP8RlXUOGUedZ0PdnXm/ITP1wJyj18BjM7YVQ6fY7jbp/6qJuH13S7zfm+gFiMO+vcP2PHn9DeyLjotHrmxh6Mk/m+etOP1/W6fo3Nf1vbea3VWbaT6Pvvwo6v/jKyzK//dUtmb/4wvMy//oLPf5eeuUVmd/46DOZv/LG6zK/+cVNmb/40osy//jLL2T+navfk/mNa+/J/OXX3pT57RvXZJ6Z/rXLTAdn+q+6Nv2fWX8WZvxx8xdTfUOv0D9oTPs2y5swl3T7zFoz/pjxqTLrX9P9hHDi3o9+wDqa8d28gNzsH3TJ7R/o/ttPUNz8zFzfFF+b9Pi02NPXz+f1+Nya/Z2u1e1nztz/8VTvf+QLev258/gbfYH2HZ0v6PJbLvX6qerp8htlev2dKj3+T0ZjmR/dfyTzrYmuv71Cv7/h6rrMnbY1+zedmZ9Wun9qiiWdm/lb25j+szDzm1KXn909M/tr0c0/oy6/xqy/Dke7Ml9f0+3zwguXZH4wPZJ5c6zvf7HT40MxbzqY/orOzeHO4f2PZP7RHz/QJ8hXZdw33zfCQPfPuyf6/YaJ7l9M9x7CZE7Gw57ef87M+3P7s5Nnev/yZKL730nSz1/Uuv2Vmd4fW5zT73d1Y03mO0HvTz56oNtXODyQ8Ycf/FbmRzufyvzKZb2+iZ2pQN2OjB881e/n4ZffyPzz67dlfuoFff8/+avv6ON7enw8Gu/J/PDhQ5nvHerxOzPz/6LU899qoMfX9c3LMr/8ut4/3p3q98t/AAMAAAAAAAAAAADAjOADMAAAAAAAAAAAAADMCD4AAwAAAAAAAAAAAMCM4AMwAAAAAAAAAAAAAMwIPgADAAAAAAAAAAAAwIzgAzAAAAAAAAAAAAAAzAg+AAMAAAAAAAAAAADAjCiyupI/2NqPMr903Mi8Z26gmpuX+XCojz/a25X5tD6W+VxvTuZdra8fs1LmbTWVeZ10+RZB5yEW+vpZK/MU9PvLxjoPhX7+VOr7qxudZ0XSl8/HMs/3dX7QmuO3dQ1u5xf1+fumfMzfYGzXI5k740YfnwVdvnV2JPMTc391PZF5m+vrl6YHeWTq5xld/a1yoN9fGfUFxhPd/ve2df+VJ52fXhjI/M2f/ULmg9V1mYdgnu/xPZlP9vX9p1b3b4NTazJf3tyQ+ZHp/755X9//s0PdPyxneoBa29yU+fCsHn/q0Mk8jXX/USWdJ9P+255uX50Zvzpz/6HW10+t+Rs1038406SfL4/6/NGMz20042eXy7jR1S9EVz9ynTemf016+hRc/9BWuvzGQc8/M1O+qTXzFz29CJV5v8em/Zjm439gzt/kZv6kh6fQS6b+Nqb9m/uPbnqaTP1sdP03pw9Z6OsfJD2BT8nMzxvTvpO+/5Dp+l2Y9pkVOnfTm9z0j12n7+/m9dv6+JEu32sfXZP55EQ/wYcffCDzdnpgjn9X5r2g56eff/GJzLNO9z+ffXFdH9/q8vvyhr5+KEz/FM34n+v62011+Uxc/Tf3F838uTH9c57p9tGZ7rcJZv2uDw+FuUBmNhBGwfR/U30HhXl/ybT/2r3/zszfTP+Ulbp/iW7+aMavZqrbX8z08xX69kIyI9CkMPdf6PnVfNTtK4zM/oQZn3Mz/qwsLcn8VqXXl0f7T2X+9L4eP8698orMly6el/n6A71+Gw3N+zsx9aPV67PCzG+y3NQP835TtiBz52j/iT6/6eDmTp2VebWg+0+z/eTnz5lu3yl+u/ljMgWQD/X+dJXr55+a9d3BI91+2ge3ZB72H8m4/+rzMs/N9Lkw+9vBzL9HZv89BF3/v/lYz58+/eBjmdfliswHF9+Q+en1VZnHRs9vpmZ+4fYPeq0u35NWjx9bx4cy7471/m69sy3znV29v9ea+aebYeWmfWZm/ZibDYCFr/T+Z3V+WeYbS5dlXuvtydDsbMn8bqc70DsffCXzVOvy6bsPdJ1un3dyPT41i3r/8+zmRZmfO3NV5t2unl8fPdb9551DfXzX6P2BbqzbX2GWR3Gq2/fB0ecyP3/pRZlfPK/rJ/8BDAAAAAAAAAAAAAAzgg/AAAAAAAAAAAAAADAj+AAMAAAAAAAAAAAAADOCD8AAAAAAAAAAAAAAMCP4AAwAAAAAAAAAAAAAM4IPwAAAAAAAAAAAAAAwI/gADAAAAAAAAAAAAAAzokhlkj9IzUTmT0f6AovuDobmG3SvkvH0aCrzdmTOv6Tz2I718Vkh4ybq+2+jvn7qdN6GVuZd18m8GDX6+Kyvrx+jzGOjK0hmjm9CqY8/kXGogz7/JOjy2fryjj5+8ZTMx/v6BuPiqsx7pa4/IdQm10rz/JPDQ5kfHuvrp0rX30o33xB6Op4vdf0Ipa7f39bJVL+fbl9ffxzvy3zY0/X3rZ/9dzIfuL/xebYv471Hj3Q+OZB5d6zbf53p8lt4ti3z/rmLMr/w4hsy3x0f6fy9L2WeD3T/ONwcyDyLuv11ZviJjS6/SdDje53pvDPji+leQ9fqH1RRt1/zeCHp4gu5u8HSjA/m8btk5k8x17k+PBTmB1FPP0JnHr+dmvHDjM+VKd+mNv1PbsaPzMyPzOkbU3/HaU7meXLjh2m/Sb+gOur5dax0AyhN/U+ZLt+60M8XG11/s6TvL5ryT7Z8df2qo2lApn3nSd9fa+bvnamAlam/oa/vr5zqCVBnOsC6Mx2YmR+8+MoVmX/+yS2Zv/bdF2T+wbu/k7kZnsLUzC9j0u0r7ev28dYPfyrzT699LvPXX31F5l98dl3mV83xN67p8m97ugDzpOtfZupvz8xfzPItNJnuX0Jnxr9g1t/m+m1u+u/WrH9N/1R0uv6F6MZfs/439TvO6QLITfcUTfk3Y/3+GjP/yM37Cab47L8wmOoVzfiR57r/rMwFxmZ8MK0ndJ0+/9TU3zLp+jVn7v/8Zd3/3//wqcw/+eBdmZ+59LzMs0LPz1783o9lXn61LPP7OzsynzP7Y6WpH2eW9Q7o2Zfekvn8gp5/jA/0+vjOZ/dkHsNQ5oMV3f/1XfsqdP2LboHS6f69c+sDc3+p1Mfnre4fymWzvt4y+2du/m72v49vfi3z06aHWT21LvPdwswPBgsyv3/zmsy3vtb3//jRY5l35bzMF1/4vszPntL1PwS9QVkHff1YXpD58kC/3+Whzu/c1/uHD3c+kfnkqe4/3O7zkin/5efOy3wwrxvo3uGxzNOJ3l/85uYNme/s6vpV7un6cf6ln8h8dVP3n2HlZRnvPdH9x/FUf18YD3T7TaVeXxaF7t/68bbM5y6elfmpVzZlHud0/3y0pfenb+7pDdRmqsu3NvPf1szf+7Uu33ik319n5mdP7+n518LGksz5D2AAAAAAAAAAAAAAmBF8AAYAAAAAAAAAAACAGcEHYAAAAAAAAAAAAACYEXwABgAAAAAAAAAAAIAZwQdgAAAAAAAAAAAAAJgRfAAGAAAAAAAAAAAAgBnBB2AAAAAAAAAAAAAAmBFFc5D0LwY6zuebb3UDnckPd8f6B71FGcdhLvMs6vPHrJV5E2qZt60u3zwUOm/1N/pkPuEX5gdV6Mu8KUuZt0E/X5V6Mi9zfX/TWp+/a/T545x+f72proGtKZ9pruv//Ok1mRf3vpL5vRtfyvw7r7ymr1/q8tk8c0Hm06kuv4P8ROZl0HmedPkvDZZkvrFxSuan1p6XubP7zUOZd62pP/O6/XRHI5lfvPySzAdr6zIPJzsyPnj2VOZPRkcybzvTPze6/Z60+zIfR12+m0+2ZL5x5qrMf/72z2X+d4/uyHy0pa8/OdDtayHp/iVr9fjQlLr/SUmXf3T991j3z22IMi/M+Jbpw0OlDw9dp8ffLun+K9PTg5Bluv1OTf0Oja6/89Ecn5vx2ZV/rQuwDVOdF6b8Ol2AlZl/NFGfP5jxIZkXWAadJ3P9vDQz1Iku/848XijM/K47NifQE/TctK9o+ofMTdBN+0ulm9/qfNzqAuxM/+D6nxB1/Yjmb2SLqPuHLDPzV1NBGvt+9PFuft2Z9c31m9dknmr9/j/68F2Zx24i87klPf85vaTnt48f3pd5muzJ/NOP35P5nOn/vrl2Q+aF6b9vfHRbH2/WR3Wn+3fXPrNcdwBZNB2Mvrzr3kPfNPBo+s+pub9U6vVJaPX8vOvM+G30zfufmvGnKcz+QmfW/2b/oDXHR3N80zPj49TMX0z9KM0AlQXdP7v9kWQqaNvpvOx0/cla/fx1Y9qnqT9HZv3Uy3X/f7q3LPP9Cxdlvvfoscw//tWvZP7qj38i88zs/1165XWZPzfV7X/vQK9/hz39fobLqzJ3GrO+/e3f/98yv/NoW+aDTM8ft+/p8bWoD2U+NONzmOi839f7P6Gn23du1rcp0+vntjTrCzP+zi8PZZ4PdV7Uen40Xdbzl3uHev1w7YnOx6b8ynQg89Dq9lP1dPmuntXtd+GM7n/mVs34oIs3TEZmfTyny2ej1O3/ypUFfX6ZhrClX384+LPe/8ty3X7f+O5fyvz5t/X+c9+sn8peJXNne2dX5t/5yV/I/IPffybzu1/r+f+9G7+WeYg/kvG5C3r/em5D9w+jU7p/dPsfC2b836n1/mya6vuPfV1B5+K3e/8Ts38QzPoyNrr/z00LzMz3n8w837HbXurp+eMpM/8drOj5Ef8BDAAAAAAAAAAAAAAzgg/AAAAAAAAAAAAAADAj+AAMAAAAAAAAAAAAADOCD8AAAAAAAAAAAAAAMCP4AAwAAAAAAAAAAAAAM4IPwAAAAAAAAAAAAAAwI/gADAAAAAAAAAAAAAAzogih1r9YWpLxWtH/VjdwfGdP5kV3IvNscVPmS6W+fpwW+geNzlPS39BTbGXeBZ03WZR5KJKMs4nOQ9LX7+mjQzDFVyT9g9b8DUKROpmnqI+Ppa6feWkeoKxkPA36/prpgT79QJfwwYOHMv+H/+c/yPzf/df/g8xPXXpe5uvLG/r4+1/IfH8s4xAGczK+sLEo84Wl8+YC2pM712X+8OGxzAeLun+Mla5fRaPrT9E3HZjrvppc5nWh23/R1/WzaKcy35/synw8OpJ5Gun+v0j6+eafHsp8eGpZ5pc2X5T554//JPPjnR2ZLyysyrzq6efrCj0+tK1+v7GRccjM+JM1+gRZruu3001N/c90+bSNGT9LXX+roPMs6PuLfX1/edQNeGryrtXP15nyyc34m3X6/U2Snl/EzIzPybwfo4jm+XQcxp1pH6b6Nrm+/2jKLzd/glmb95+Snr8Xrb7+IOr3l4J+PrN6sPNLN3820ztff8z5s0w/fxEmMp8GffzJib5+bipYZso/5Pr6lcnHpv6+cvlVmX/y2Ycy/+73fijz63fuyvzlC6dlPp2a9U/S68OHD0Yyf+M735f5zY+/lPnzr1/Vx395S+Yvv3pF5l9+ek3muVmfdK0evxvXAL9l/55lpn8z7TPkun8paz0ANEGvP1LS478rntbMn5IZH4Ipv2jW15k7vjXtpzPzK9N/5BNdQG5+aqZXvn+0zPwq6PV/1uj1SVvq5zsJZv5i9j+KqOtnV+kCnLr21+n+4cKG7t/uj3X/+vUzvb+RfvNPMl+7clHmp889J/NhdUrnz83LPJj+dW97S+ZHn34u89//y29k/un9r2WelvT7XV3Q+zvrj/X6/ZuHKzKPlS6/5fN6f27xwgV9fNLr5/mo9y/07C6EzrzfUJj2Wer+aSkNZH58ZDrA0vTP+7r9BdN/xqnuX9qk+8f+inl/Pb1/tjjU+3+Nm5+PdP2dHpj2e6I3MHsDvX9UvKzLf5QtyPxkX8bh7g09/yzM+PL8C+/I/I2f6Pm7k47186dG7//FQrfftfl1fQPmA8Z/9d/+XOYf/kGf/+N3/0+Z7z68KfOh+UC1vqSvX0Tdfgvz/alnxv9hqQtwMNDHN/t6fh1avT8bGt3/hKGOy6THn7H5vpib/bM01fPbcWfWL279ZN5f6uvyWRrq/on/AAYAAAAAAAAAAACAGcEHYAAAAAAAAAAAAACYEXwABgAAAAAAAAAAAIAZwQdgAAAAAAAAAAAAAJgRfAAGAAAAAAAAAAAAgBnBB2AAAAAAAAAAAAAAmBF8AAYAAAAAAAAAAACAGVGcvXJR/uDlq1dkvvDc2W91A3tffyzzFJPMT29s6OMbff1U6G/gTSxkXoSpzGMRZd7mucxr8/xd0Hlw1zfHDzr9fL1Wn39a6hfQZD2Zx06Xf8zM8wd9vDu6rvdlvnXvK5k/OzEVsKhkPJ6MZL77qJX5P//df5b562+9I/OVckHmy6d0+1/rrct8/pSMQwil+4G0fetzmV/78ycyT7p5huHL52Q+2d6SebN1IvPYn9M3oKt3KAaLMq+mun4vDvrmAksybg6PZP5g3Mm8m9Yyb8s9mW9OJjIfyjSEanlVXz/p/u+k1u23bnX7DT3zgk39LF3zGen7r5PuIWOh31/emh5WXz50rX5AMzyH0vTwaaQLqDPl23X6AWJm/sbOPIC7fojm/UV9/WTG18y8PzN9CWb6Euqk64+tIJkeXztzfFGb+mEun8zrzQs9f+o6Pf6Hvr6BLun+o9WXD515/7nrP8z0pjMF2Jn5c9HpC7Smg+taXb+yRpdf38yfJ6b8g5ufVrr826m+ftbp53PNq+10+X16/Wt9gvGuPv6P78p8xbyf47Eu3wPz/HU4lnnY1fkff/c7ma+Y9dGta3r+6dZvH33xhcxjp8sncw3YHO/6v6Yw44epgLkZn5pOz9+KqemAWr2+LCo9gE17pv9y40etn6815W+KP1Smf09mAGgyM4Cb8S3L9Ptv7PzP1I9k6q+5fdO9hBNz/WTmV3mux+/CLN/M5UNu6od7/ty8wKnZv3Hz616nz7955Q2Z7z64L/MHB3p8efT5NZnP3/xG5svLen9jrlqR+YPDWzLf+fCmzLeePJW5s7L2vM7fuCrzy5u6gpZRt7/pVPev2wcPZZ6mY5nvbz2TebFs5vdDvX6Ppn/pMj3+VJUZP836NW90/7GU6wY4qnT76y3o/Z+hmV8Htz2R6/79qNHlNxrpfLL3QObHN+/p8wddv04aff+tmV80tZ4/Pr13SebPf9f0j4/vyPzBHd3/DM3+35XXviNzt36885H+fjM51vuLR1M3gdHxykW9/7y5oDeYh+d1/r13Xpf59EDvT36z9ZHMdx7o/cHhQNe/0syfJ7W+v7ynG/hcpfd/hwt6f39v64nM71zX4+OFyy/K/PTGeX39c7p8wyNd/06mZn+6MfW3pytwlpv505yen2yu6e+zsTTrM5kCAAAAAAAAAAAAAP7V4AMwAAAAAAAAAAAAAMwIPgADAAAAAAAAAAAAwIzgAzAAAAAAAAAAAAAAzAg+AAMAAAAAAAAAAADAjOADMAAAAAAAAAAAAADMCD4AAwAAAAAAAAAAAMCMKH7wV38pfxC/5QX2/vQvMr+xuyfzbPWMzKtqXual+cQ9Da3Mu1znZZdknmW5zPOs08dHff4TmYbQBH3+vNJ50+rnj42uISlzf2NQy7SNA5kXoZR5HicyPxg/lfm9T76UeVsfy7y3tCHzjec2ZX7l8qsy33/6SObZsc7vXn9P56En89XF0zLvrx3JfHFP1w9dO0M43Hog81tffC7z/dDIfP70azLfHJ6S+YMd/fz77X2ZZ0nXX6vQsem+Qtnq9r21Nyfzx8dDme/v3ZL5XG9R5tN9/f5OWl3+a0G3T6eY1+2jNDU4tvr+m6nuH/NMH9/lenzMXP2YmP4/mhmCLp5QdZXMk5uBRF0+ZngIsdU/mATdQDo3/td6/Hfzq8rMP5pcv//QTfX1O11+MdPvJzNPkJn+1c1vmsLNH8z8xlWPXN//1Lz/YJ7PHV5Ec/xE5ynq+pV09QnBzO86c3vRDDDJNMDOzL/N9DjMmeere7r+1CP9gvqmfQ9N/9KYPLn+18yP40TfX4r6+aswlvkLr+j55yefXJP5Gz82x//uA5mfv/y8zB881POHF8++IPPb//Armf/8Fz+V+R///GeZ//h7P5D5e++/L/Pvv/22zD/6XB/f5X2Zt6Z+Fa3uX8qo53+pNfXTdNBZMvMf8zfsk8yM38mMX1PdwdRmfBnpOBQ9s34tTQc4NbnZf3DjQzT9R2fGv5Sb+zPl70bfYOafnelf20bfXypM+9DT6xBrfQOZmX8l3XxD68Z/s3yMhS5h8/pDLHT5L07M+mjzgszHK6sy39nbkfn+oW6B+7cf6nz6iczvfn5T5u2xnn+vXjgv88uv6/3ZKz/+kczXFvT7mV9akLnT09OHYKZ34fq9OzL/8u7HMn/y9W2ZD17X7W/Y1/UrTU37NfPfzjSg2i1QvuX+cmX6h5Dp+qFHd7++O5jo5396U8/f2r1DnQS+tDMAACAASURBVJvhZWFZj68b62dlfrir+5ejHb0D/2xL189n/6DzeqT3r0qzP3Dm0hWZr5/SA9jd23r/+8bXun2OT/T9jRtdP1qzv9B7qPdPL17W48tr0zdkPrys93evvPWSzB/8nS6/J890/7dxbk3m/RU9vrrpV9Pp9hHd+rfS+0NP+/r7zdbJlswf3tPj89lLuvyvvqS/r6wP9f3d/vozmR8P9AStNuPfiimfiy+8LvOFTT1+OfwHMAAAAAAAAAAAAADMCD4AAwAAAAAAAAAAAMCM4AMwAAAAAAAAAAAAAMwIPgADAAAAAAAAAAAAwIzgAzAAAAAAAAAAAAAAzAg+AAMAAAAAAAAAAADAjOADMAAAAAAAAAAAAADMiOL44L78wWinkfnJ9U9l/uHWI5lnoZL5xrlXZb64MJB5V3Uyb6KMg4lD6JKM20ZfP2tbff2o76Cq5mSeehOZh1r/DUCdlTKPwdy/uXxZ6Os34Vjm006XT+wOZL5387bM53syDmdf+5HMNy9tynxxWefOyeElmY8Pn8h8/65u/we7WzLfPdTlGw53ZXztm1synxS6fnV9Xf9Db1nG66dfkPnGpedknk91+656un/K5/T9j2Tqbe/elfn9+9/IfG9Pv9/xwb4+fjSVeTT9Tyj0+NBWenwKXa5zI6Va/8C8/77pn/K+7l97UT9fW+vn65IpH928Qi/p52tNnnL9fpMbYM0PYqbzTA/PIZjjU6ufrwu6fnRBl/9cMvXTlF9mHnCu1veX1/r+3PubBF1/s1LfX27+BrE19cO939wUb8z1BZpWXyA1hcyrTpd/zPX5C1d/G92As2TyztSvZNpvbtp/qetXNC+4ifoFRnP9UOjjU0/n+6b8eub9lRPTf9T6+PFEl08X+jo3FajL9Pj82c1rMh+f6Pn5r//x1zKvDw9l/rt/+YPMu2+eyvzxL/X1KzP+fvjpx/r6pv/+44cfyTwd6vbxp9/p43tjGQfTfEM0/XfR6udrG11/QqHrf2nGH7f+bYO+vyLo/rk18yvX/UZTwLkZoNz0tzP9Y2Z2KHL9+CGvzP6F6V5jo8c3M70MsTI3aPrHxsyv3fSqZ/aHstzMv838Jdbm/Em3P7f+SMGsrzIzfpsKnszz5Xr4CZmpP0umgg6X1mR+enVB5k8e6/XrVtD7k8UT3cGunNmQ+flzl2X+g3/735jz6+c3ux8hlK4Fnsi03de56x+L4brMX7x0QZ/g4EjG9/c+k/nRtn7/5YUlmWdR188UdAV364vMrM9b0/+kWt+fWd6G0vSfxUT3P/cP9f7PvRt6/uKsnLso89fefFHmg4He/6sy3X8E039u79yR+ZP7j2X+6acfyvz+jS9lnne6fb/1b+ZlXunttZDN6x6mV+gB4DDq9jdxA1Cn21du8q2HOzLfXLgp8+HBKZnPz+vnLwrdfrttPX6Pzfh+yowAeannF8duf8nMzyuzPl4/c1bmu3f0DvfHH+n+PRvr/mnzit6/X72ox6fVi7+Q+di8P6d/SrdPN762Zvx49uV1mfMfwAAAAAAAAAAAAAAwI/gADAAAAAAAAAAAAAAzgg/AAAAAAAAAAAAAADAj+AAMAAAAAAAAAAAAADOCD8AAAAAAAAAAAAAAMCP4AAwAAAAAAAAAAAAAM4IPwAAAAAAAAAAAAAAwI4pr/9/v5A+e7D6T+aQzV1jYlPHG5iWZr54byrwfCpk3WSPzPOkHKJqozx9zmaegr29uL2RtKfPK3F/R189Xh57MY6Ofr81GMs8y/TcGeabvPyb9fsfNicy37n4l8yJMZP7iT/5C5hfPvyBza3Is43RUy3zBtL9hX7/f+ctXZL5yovPJeFfmn334scy/fPi1zLOFFZmvXLgs8zdfuirzhVXdP/ViK/NppvO53pzMq1z3b0fm/Y9M/9Gd6OMPdnT92z3Y1tef6OfPgm7f/Xn9fst+JfPljXWZr/YGMrdM+ba1Lt98oPuv4eK8zFOdZB5N/9FN9QO0nb6/GPT4k4exPn9j7r/T40OM+v6CGb87M34lM37n5v7yoK/fmrw2/Ucw7Ue/nRCyvi6/NtPPHxpzvHk++36Trh+h1edvSlO/MnO8ub4pnRDd+zXz05B0+aSg51dOZuZPIdc1qKlN++p0/Y1pKvM2N3+DGnX9D8HUn0b3z5l5w651Tmr9i5Tr+Zf7C9zc/GKa6/Jpe6b/aPX4+spVPb/947u/knle6fezMFyU+ds/fFvmv/6nf5T5z/76r2T+3vufyHxlRc8vzhb6/jc39Pzu/Zs3ZP7W1Zdl/uF7n8k8TF39NuOb6b9DZfoH0z+n1pw/ufav1Wb+FDJd/6em/64y3b/03fqh1fdnpp8hb3T5Z4Uuv8ysv5uk18eteT+F6V8LM78x09OQTc3828z/oql+nRmfUtD1J5j5VdaZ/Q8zvrVmfIymBuW6+ELd6et3pn71TPG4+W1V6xPkZn9soafnH/cOd2Semfr3zjt6fPnOOz+Ted7X5w8js8Gzty/j7bHO291HMj86OJR5N6/X1xcun5d5WDil86le307N/L4Xzfx8oufXlem/kmm/uVu/tbp+uvVHm3T77qZ6/6kz/f/Oid5fffjFlzJ3/cvrP/ipzr//pj6BM9XfL8Lens4Hev6+dEHX70smv/Cmnt/9w7Gu/3sP9f52b1/vzzoLA92/Lp5+XuZde1PmRTL7R25+kcz+1FB3sLtmf3Vjout/HOj+b7iyJnP3fa0z62+3O9CZ/YXQuv5LH18mPT5nPT2ADp7T3/+O7t2V+fsfvy/zy7t6//rsyy/JfMl8H+ifcjtw31L7RMa7X16X+R//oNeX/AcwAAAAAAAAAAAAAMwIPgADAAAAAAAAAAAAwIzgAzAAAAAAAAAAAAAAzAg+AAMAAAAAAAAAAADAjOADMAAAAAAAAAAAAADMCD4AAwAAAAAAAAAAAMCM4AMwAAAAAAAAAAAAAMyI4knXlz8YrZ2R+dLqKZkvl8syX1gayDxMWhnXWSfzLs/1+ZupPn9038gLk1ff6vBYmtNPxjLOR43Ms0o/X9PTN5jnpny6JOO20+WTTAHtH96Xeb0/kfnKpddlfmr9isyDfrzw9OEDmZ98/UjmbaxlXpS6/MpM1/98cUnmC+v6/OtnLuj8/EWZN4W+v71D3T43T+n+pRjOyTwUun9pR3s6T7oCDBZ0/5b3db5/rPu34+NnMh9unJX58s6BzNt0IvM0r/ufXq3fb9afl/n60prMzyydk/ng7LrMnfuHT2Q+MR1AzPT7bVrdvlvTfwYzvnW6+oQQ9ACTgj7B1BzfC7r95ub53OOnXN9fk5kB1Jw/uPG/iDo395dN9fnN9CYk0/9MS3N/lR5foymg3Dxf6PTzufsP0czv9PQmmO4nFGb+VUR9gjaa+Y35G8vY6v4z5K589PnraN5vZs7f1/UnmQLuat2/ZT19+RT1/MPVz9ToCtIkPf43jZn/JjN/7enzu7/Bjab8e2b+4voP072HD97/s8yLVs8PFtb1+HvupZdlvnWs28fdlU9l/vd/90uZD/f1+NSu6/Xx0rKev2zv6vezM6fnlx/fvSPzeGD6j1a/4DLo+0tugDRx1uj6XQTTQZv+aWznB2b8Mc2zSLr9Z5nO61yvP4O5v555f50ZH7Kg629j+ufOlH+TmwG003lqdP/WRp3nhS5fM30IXWPGL/f+gx5fYmvevxmfm8LU39K8v2Tal5k/ZLku/840QDs+u/l7M5L52Mz/Hux8LfPsSPefm2b/4s13fibz3O3fHR3JePv+scxvPfpc5qNnen9pqpf/oTD7g4VenoeVF/T+TLmvn3802ZF5bfrHaTmUeWH6l86tT039i5kuv4nZ/8zMBC6Z+hXN/oKb/915ovdXu6Db53ff0vO7V7//pr4BY/zotsyPdnX9OmzMBMLMX5ZW9QtYWNHz31OLCzL/8X//tzL/w//yv8p8+8lTmYdal8/qyoY+/Dk9vlWlnh8PHt+S+WGr7y8r9PwmN99fhr1NmReLevw0zd+Of2Wu729g9q8yM3+oczPBNdtDZvkb6lafv5dMBzOv++f+ef395fjONzJ/9Eivr7bH7+vrmw3UpXX9/XNq1lftwaHM3b/obj/R7W+4sPptTg8AAAAAAAAAAAAA+NeCD8AAAAAAAAAAAAAAMCP4AAwAAAAAAAAAAAAAM4IPwAAAAAAAAAAAAAAwI/gADAAAAAAAAAAAAAAzgg/AAAAAAAAAAAAAADAj+AAMAAAAAAAAAAAAADOiWH3hNfmDxSrKvDR5kZK5BX38SVOa41uZdqnRV2/19Ttz/jzq42PemVw/X2vOHxYKGU/qvj6+ynUe9PvLgr5+KPTzp06X78HBtsxHj/dlHpN+/vmN0zIfyDSEp/f0/d39+qbMR/sTmbfxWOZZq/+GI4v6+ZfG+v4nx2dk/txLlcx7w1WZ//Tf/4XMf/vLd2U+mhzIPJj237RTmddR18/MtO9iMC/z9TO6/oXJroy3H+j3N39B1+DXXn9L5k+evyLz0aOHMh+b7mWwoMtnaV6Xz9Kyrn+m+w7vXfujzJttXT9Wz1yQ+dLGkszbE10/Q6X739SZ8SHp8SWW+vlCp+u3+wuyzFy/zfQLio0Zv03xxUzff0hu/NMX6Ez55FGfP8t0bu4+BDN/ieb12vI38w9Xenmmb6A15ZfM+0nmDmoz/+zM+FllOk/RtM/cjB+tLUFzfVO+5v7KaObXpv62hakfpb6+a5/NVJdf6vT5p6Z43fQ6c+3XHB8affzYrH+6zLw/M39x/XNj6vdbb/9A5u/+/jcyr/p6/rdsyndq6u+XJ3r8/5t//9cy/8//8T/J/C9+8X2Zt8eufck4NLV+f9+5fFHmH391V+Zzo5HMWzPC1K1Zv7r63+n1YWfq39RM4KIZn1NuxkfT/npB949ufK/DnD6+0e8/5m7/RJdva95fMuXbdvr58qTLr4nm/Zr1VZx+u/mnW8C3lT6Dm99ltb7/0sw/MtO/1UnvD4RU69i8H7d/47bv3Px0ZOanpZufm/p/ODmUef3MvB/Tf119+UWZF2Z7LUz1/s3dW1syv/PwDzJ//OU9mXdm/lwtrMn8zJk3ZH7lTb0/0K90/3l4+EzmR7tHMu8Vev9gmEwHkMz4lJv5v1k/uPmzm/279W0w6yu3Pth5pvdPTw50/V1e1u/3+ZfflLmz+7VuH0/M/R3Xuv+sWl3A5VQ38MfHZn/x6InMV870ZL6RFmW++aO3ZX5y977Mb/zptsxffke/v43n9P7wYn9H5g8X9fNvbuv733LzN9PBz2/o+hFHOq+nen49mujxbbA0lHk+b9bPZv3bVLp+znW6/2rdBMCeXx8+15j176Juf/0rV2W+tf1I5nvHuv/LH+n99zv3dPvu3P6B+b6WCl0/hoN1ma++fMpcHwAAAAAAAAAAAAAwE/gADAAAAAAAAAAAAAAzgg/AAAAAAAAAAAAAADAj+AAMAAAAAAAAAAAAADOCD8AAAAAAAAAAAAAAMCP4AAwAAAAAAAAAAAAAM4IPwAAAAAAAAAAAAAAwI4r1uVz+oMqizLuilXmqa3ML+vxVVsq8Cfr+y6jvL8sLff62knnbNDJP2UjnjX7+ftGXeTDP36Yk88nBnsyPR0cyj+b6YU7H/cUlme/WncyPjnU+XB7K/OqVCzIPJ/r9Pnp2Q+aHx8cyjxNdP+uo31+d6fY1yPTx+4e6/Mbxqcynd/X5r1xekXlZrsl8Y13f3+PH2zKfjA9kPuzr9tVmOk9Bl/+wr9vHdPU5nT/6UuYPbn4u82p8KPNzr7wq88013T6Dy7/lnxjp1hHC6GQq81sfvSvz7Xtfyby/dEbmmxd0+RVmfOzyicxbUwC9iR4fi0L3XxN3f7r5hUGr23/e6fGtMeN/V+j2E834njJdP7q2J/Os0xU4C6aAon4/bdB5iPr+80KXf+h0nkwDdfeXmfcbkisfc3/m8NwcX5j5SRbN/Zv5azfWN5h6+vx5ZepX0uPPtNMTrML0L0Wt76/W0+MQXP2v9ftpTfUP0awfalN+5vmyBXP9Ql8/n+r1gWtfRWU6+Fa3/2TKtzP9g1vfffT+pzJvx89kfvj0kczvJF3BDvb1+qQc6PL77a8/kPm8mT/88z/+Seanbuv52ciUb5jo9dWHn30i87nDE316Mz9NZv2bRzP+mg66LfX161LPT4qpGb/N+BxaU/5m/pGVbnzS5Ze58cfcfzQz4FTo+49Jl28M+vmi6T9N7x9ioX8RS/38+dTcn5mfdO79m/VzSPr9dbmeP3aLpvxrMwDq4TvkU/18hZvf5fr+uqBz0zxCFkz5dGb8bPX+2e6JGf8yvf+ydlrvP/Tn9P6FW6Duf6nHx+s3f6mPf2yeL+n9rf6GnuC8872/kfnS8wOZ50Hn06l+f/fuPZT5bq3Ht97iRZn3V3T9KzqzPou6Ada5Gf/M+FKY/jdk+v7d+Dyd6vsfj/T7yaNunxcu6PIfLOn2NTrS/e/W7k2ZHz7R88Nppct/nMYy75n1RQx6/L8/0sc3Zn++XFiW+cUzl2R+/Zv7Mv/iN/9J5ueuXpX5wmm9/pwz/evz87p+75/S/e/KVPfvjVn/rC0uyjwc6/7n5ld3ZF5M9PGr58/KfNDX/Xfn5pcjXb+Dqb/RzfDMBCCa+VMy9T+Z6VtvoNvX5YHevz1q1mUeL+vnP97X77cJuv/MK7P+MhOM3qLeH8rd+kamAAAAAAAAAAAAAIB/NfgADAAAAAAAAAAAAAAzgg/AAAAAAAAAAAAAADAj+AAMAAAAAAAAAAAAADOCD8AAAAAAAAAAAAAAMCP4AAwAAAAAAAAAAAAAM4IPwAAAAAAAAAAAAAAwI4qqm8gfdF3SublA3ulftPZ4/Y06dYU+QVvKuMim+vylzkMy5ZMqfXjU9z8x5ReOdbx9/3OZP93f1yc4OpBxqvT7ycKcPv9cLuPJ/ljm3VRff/P112Vuak/YP3wm8zQeybyt9f03Kco85jrPMp2PzfGDpOtXfaJb6LSvn39vtKuv31uVeRmWZd6Nnsh8WtcyzzqdF1E//3Gt238odPkP53QNHJ16Qebjh3dlfuv+lsz3HzyQ+fLGGZkvrj4nc/cnRpOo28dkovvfvce6fT7b0/1buajr1/raBZkvz+v+fdzp9jHNdPsrzADZ03GIpnrGVte/I9M/TM38oNfp/r01M4BYmrxoZJ4yUwCmf2xrff95rt/AXKHLdzzVz1e3Zvzv6fuvzPNFM3/SpevLt6t1B9BkOu+Z/jMkfYfRzB+bRr9fU71t/1aZ6xfBvJ9MP98g6BtsTJ5KXb9yXTwhN9UzN++/nej6P3av3+Sm+vv31+r1UWjM+ibT44NbQdn1QdT1w3SPodLLo/Ddt9+Q+Z/e+0Dmb33/LZl/9KdP9PV/9KbM3/3gI5n/5c++K/Nvnu7J/M6tr2S+tbMj87/6+Tsy/+1vfiPzH7z9lzL/+GNd/imY9e9AN5BiavoHszzOTP9WJ93+U2P6j+g6KH39XqfzznQQTdDrh9yMoF2l+4fW9A+x0+WXRzP+dLp+dG6Hx/Sv0RzfNPr+q8zUD335EEz9D2Z/xWzvhNY8/8TUr/gtJxiZeb7a1M8m6jwF3b7cf5DUpoKUpT7DsVk/HG3fNHegj3/zh78wx2tPPv5C5p9e0/tvJ2PdPyxUKzLfeO28zL/zhh5/8lOmfZj1Zz3V6/fbH/9B5lt37ugL9JdkvHZKl898pudPyayv0sTUf7M/ZLpfO7+Prn3munymeV/mzVSfv282GM6e0fsjztET3X63rt+T+Ulmxt9cl6+p/eEg6V+49cecmf4f3dYb+GdeuirzrDT755nOv/jqtszn/un/kPlf/c3/KPN8UZdfvqDb7+qCjEMIa+4Hhm6/127q9cXdj/4s82xet8+liW5gk6D3D4ugK1g/199fUqMn8K3Zv8hN/Upmf8eamv0Lt342DXyp0P1jNPOX/rrpIAv9/JXpQMz0MTRu/9jsz/EfwAAAAAAAAAAAAAAwI/gADAAAAAAAAAAAAAAzgg/AAAAAAAAAAAAAADAj+AAMAAAAAAAAAAAAADOCD8AAAAAAAAAAAAAAMCP4AAwAAAAAAAAAAAAAM4IPwAAAAAAAAAAAAAAwI4o6n8ofjJtCnyHpuIrmBnQcQqxl3OWtOUEu00muHyCL+ht57OkHbM0TpqDv/2B7T+Zbtz6TedOTcch6unzOzL8o83Kgy+d4vCPznccTmR88OZL5/t6+zC+88JLMnabV7aPWtx/qqN9vm+v6Uxb6/RRBH59q3X5Okj7/cqHvP+86mZftosyd46TLPwVdwbu2lPko6edL5vnqVpdfSLp/iaZ85/v69NX5MzLf39ftY393JPOHd27LPN27K/PQ6vKLSefN3ILMs6mu34OFOZmvnr4o8/lF3b81aSzzaWYGwEzXz9yMv5Okz5+Z+ht1HIpc35+r33XUeWOOzzIzftaVzLtwLPNYNDIPrn6OdflP3OnN+J/M+NDWuv87MeVfmjyY+5tOTf9fmvdr/gYxmf7Z/QWjqd7BvJ7g5o8xc/NHN//Td9hm+g5LUwJDmYawX7r+w5yg08d3Zn6dknuD+v03pn/NTfspTP/aTvT7b10NS/r9ZaaDiEH3vz1Tv4pOn7/t9Pv57Np1mVetPv/nNz6V+ehIH//b378r88X5VZlPzPuZrujrj87oFrT1VM+ffvWn38l8KegJ3keffyDzPNPHR9O+i0a//y7T9T/19PGFqV9xbM5vNhgytz5qdf9i+6fWrK/M+N+aDY68Mu0/6flN6PT6qMvN/ocZAKObH5jyK9z+hynf1s2PzfjX5PoBTfcYopm+55lef7jnC6Z9uPFj2un6kZkJfpHM+GH2F6bu/Zb6/ZjtszCZmv09074vvqrXdysXN/X5G92+7j7T+3PnLr4q8xfn9f7U6pkNmQ8XlmQeTPdx1Ojxq9nekvmtD9+T+dPHev8hz/X+0IVLr8i8X+r1fdua9ZVpvyHT43/u+j+zfxjM/LcrdD4t9P03nX7+mOv149pQt++T/599++q1LEms/B4Re+9jrjd502dWZfnq7mqH7ibZY8gecghBwOhFgL6avoAwAmQwEmRG5MxQbA5dO7apYnV1+axKe/N6d87ZJkKveloLQkEPPPj/XtfZLnb4fe+5rv9XL2QcHv3uM5kvRrr/T2Z/Yjo1/eNIv9+Rmf+kynwfMPtDYabrz+Wh3mAuZn8krF2XcTb7a78x76et/0eZv35XX391Q9e/1GzL3Lk4PZD5R589kfnHv9L922hH158V8/1o/vSRzo9XZJ52dP3e3jPjRzb717UZQMz8YTDzMzd/i2Z9P2TdvuZm/6gy3z/d/LU1+wtV1OdfdGb/xe1wJbN/5tZP+uwAAAAAAAAAAAAAgH8q+AAMAAAAAAAAAAAAAEuCD8AAAAAAAAAAAAAAsCT4AAwAAAAAAAAAAAAAS4IPwAAAAAAAAAAAAACwJPgADAAAAAAAAAAAAABLgg/AAAAAAAAAAAAAALAk6i7U8gdlOpF5Klnm3bzIfCiVPn+jv1HnWl8/lUHmJZtv4EWXTwpR5n2ln//iy32ZP33/r2Sew5rM77/zpszfvvHHMh+v6PcTxzK2Dk+fyPyv/5c/l/n50SN9/s/flfnJi2/JfNLr+tVH/f5D0O8/t50+OjX6+qZ+VdHkyVw/6PZfr2/LfHVFX/8onMu8PdP358q/Gck49L1pv6Z/aHpTvpWuP6Z7CRPTP6+O9PnHd/T7aW/uyrw5vy3zcnAm86y739Cv6v4lTPQLXDOHr22tynw80ufPC12+weR1ZW6w1vWvG3QB5mTOX+n6G7Ppn0Y6L9mMv7nX13fdZ9T1v4rm+eOGztNMxiXo52uLfr7ONICp+Ru8Zl3GYdCXD6Ho86dG319qzfsfzPsx9TsmV//nMk+1mR9GM74Npv6a8yfTv0Xz/mPW/c9g2k+fTP1xf+Npzj9kM0CZ88dKl38086PQ6fqRzPGVqf+l13lnxu/KjL95ZuYvRT9fHVt9/pGeH7bRzB9b/f7f+frbMv/d7z6U+ZtvviHzX//9r2X+rR/+QOY/+9u/lvko3pf5/rPnMn/rgb7/5z/9W5n/0e/9UObvmvJ7x5Tfux/o40Mw7duMv8W071R0/W47ff1s2m9jxn/X/kt0E1B9/1Wn++fKlJ9ZXoS00PffmvKvg74/sz0SFmb+5qZXxfygZHMCs75xw0MxP4iDu76uH5WpPxPzfjvzfpKZX3ZmgjwUPT4UM/650qmKGV9d+SUzPqav9v7HlZ4gnz39UuZP93T/ubO5I/Ote3p9fGOi1x9jszwJ/ULnZ3r/5LMnj2V+fvhC5o+ePtTHn+v6PUnXZb73+sv6+HW9fnfT29KZ+mfqd671+FAnM/4E3T5Dbfbf3fre5mYAmOj2e36q119H56cyv3hxIHP3H2jXb96RedXo8u/d+q0x69ekN7iTmb+nrMuv0ttvoWp1BzEz9dd8Pgn1Td0+V83+7rPHun89Mv3H2obpP8wHhqMXuv799ssvZF5dXcg8JL3/fX39hsw3tvT40ayuyPzwme6f46nun04e6fXN1gP9fWhvw6zv3Qa7qZ+D258xE+xU6/Wtm78MZn53Zb5vuvnJqNX35/ZPa9O/pc7Nz9z+CQAAAAAAAAAAAABgKfABGAAAAAAAAAAAAACWBB+AAQAAAAAAAAAAAGBJ8AEYAAAAAAAAAAAAAJYEH4ABAAAAAAAAAAAAYEnwARgAAAAAAAAAAAAAlgQfgAEAAAAAAAAAAABgScT3f/WPRf5gc6RPMAwyz62+gWKOrxr9jXpIOq9D1ueXaQhDH80vtKvZXOYf/OLn5gwXMv3un/xrmb9+501zfm2Y6ev35v1Ntlb1BdJYxmcLXX5/8d/99zJf3VqT+dtvvibz9d17Mj988VjmXz7/XObDWS/zztTfPNbHT5Kuv6N6S+abF26gIQAAIABJREFUN+/I/PVr2zIf37ol8/39I5n/7M//vczLuJH5K29/W+YjfXjIveweQxV0XqLun7LpgIp5f6b7C3Wq9fHmb4DmQXfgg65+oe5XZJ5d+VX6AjHr45Mp/yHq8m108wsx6/sr+vZCiPoHs5HOc62fz91/PZjzm/qVe32BaCp4beq/+wu1Wlfv0Db6/dZhIfNsXmB7pTuQys0wxqb8iqlfvS6AOuj7a5KrXzIOc9P+w0Kf33S/oTf9XzU278/U/67TeVWb+V9nyq/X85eLU51fneoCzmkm83rs+j99/9OVqczDdFfG66t6/TA2xbvo9PiTs36BqdLzS9cBmaNDVev6Fy70/bWm/PNIl18J5v24/j3o+ftgGtC6Gx+SLt9ZZzqYk2MZX8YrmZvSCWWq56+t6f97Mz9anU5kHqf6DnNvCrjX7y+a/j0U0wGa+VnKZv3uOuDs1te6/pSxznPQzxfnOq+LXj+Gib7/Ysq/mPIdWl2/q6x7qKqY9tWY8aUx9ac35a+rRwhmfdsUfX57+hV9fNXr9ttFU38Hff6Y9QxnZKaHnelfFm5/q9HvP5r5W2X6h74y8zNTv0emeHvTgx8cP5P5xfEXMnfVezXp/ZGNDTfCrMt0NDb7a+d6fvjoUO+fDJ1uIZeXev6yKGZ823tD5hs3dPntbJgVQK1zt74emf0bd/ww6OunYPrPqW4/ldmfKb2e/+Xi5g/6/T1/8YnMT4/PZL63tSHza9d2ZH7rxk2ZnzzX9TvP9fg4v9LlP2t1+3MjTDErhNWg3+/Nl/ZkPl67IfO20vXjJ3/3n2T+4tH7Ml/d1Ndfv/VA5vMTXb4XnX6/V08PZP70TK8P3PeX3dt3Zf79t34o81v3dP1eu6XXx87s6lLmzx5+JvOnH/xW5jmZ7zc3vybzl+7q7wNVo/ufaCZwxcwvTPdp17+DWV8Mdn6j+/+60+u3Es38rHEbVKZ8zvT1+Q9gAAAAAAAAAAAAAFgSfAAGAAAAAAAAAAAAgCXBB2AAAAAAAAAAAAAAWBJ8AAYAAAAAAAAAAACAJcEHYAAAAAAAAAAAAABYEnwABgAAAAAAAAAAAIAlwQdgAAAAAAAAAAAAAFgSdQwT/YvcyjiVrPMYZR6DPr5ZFJn3TS/z0lQyT0HnfdLXb3t9/589+0jmzjvf+kOZv3HnbX2CkS7//uCpzD999qU+/9Ug452Vkcyv3XtV5hsTXT9/9F/+K5n/8m9/KvNnX3wo8/Xdl2V+8+YDmS9iJ/Oz0YnMhwtdvnWj22e1tibzzbXbMr+xNpb5+NaezHPQ9e/Rw9/IvNOXD5s39P03Y339qtHtN0T9NzKl6DzrywfTfYRcFvr4QV9/0tc6D7p/m0SdD7XuP8NYP2CZ68Ozub++6AIeTPkn0z5Dpcsvm/oxZH3/wYxPudH3lwbdP4xN+aXajA+mAleVzs3rsX+Bls38oB30++ndBYouvyrp9zOemvI1FXCo9f0PfSPzPNL1Y1RdyDwtTP+WdV6bF7ww7aMy9dMcHnLU5RNG+vzrZn63GHT9e3F+IPOjR09kfvLiTObzcCrzcaXnR6b7DiXr+rFST2U+rF+X+fUHb8j8xo6en1Smf4ydqb/RrC/M8BUHsz7odd6O9PpklE39NQ0g6+4r1K79mPGl7nT/tDDlG2r9/ONVXX/78abMV0/N+q6dyXwx1xOQONX1c83MD9Jg5k9zPX8PtX7BqV6VeezM+BT0+YvJQzENyI6/ZoJf6foTo86TaZ/F3GBbm/KrdPs1tx9CuJRpNMVrtl/C4NY3pvspZv7j3m/dm/rTmAHKFECJpv3VZn8q6ONjq+/fTL/N7lIIbdb9b6n0BUamfLKZnyUzv3brp95UgGTGz2QmKCvm/Wyub8t8MPsP+4/3ZX40fybzcKjjptPjT+l1/z+PKzI31S+sTXT5jTbvynz7xq7MN7b0+DOu9f5favT4WzrX/kz/UZn23+v7r8z4lsz+eDYL0GL2x93zxWT2B2QaQlP0/Gv+7AOZD2YD6+Y735f59o4u/3Kh1ydPz3T7PT3W66u+1+Ov2x8oWZdfmej2e/hCD8D3N/T6Ko91+1pd35L586CP39zdkPn1O6/LPO3p/cvP9/X3hblZH08bvT79/j//kcx//wc/lPmqeX9WZyaAzZWM0+Y9md+7pfOPt/T7e+/v/qPMzx69K/MXZv5++65ev43MBGlu9oda0/2b6VWo3f6WWb+X2szfkh5/x2YCXzpdQJ0rn7FZP8oUAAAAAAAAAAAAAPBPBh+AAQAAAAAAAAAAAGBJ8AEYAAAAAAAAAAAAAJYEH4ABAAAAAAAAAAAAYEnwARgAAAAAAAAAAAAAlgQfgAEAAAAAAAAAAABgSfABGAAAAAAAAAAAAACWRB1HRf6gdPoEKUb9g1jLOAedL4I+fwkLmSdz/6VpZB6bucxPFqcyn396LvMbOxOZv/7gazJ3utMLmf/y4acybx+1Mr8MVzL/dCTj8PJFlvmbb78k88naWOa37u3I/MUX+zLff/5Q5q+/8obM337zbX39L1/IvJudyXyxVsl8kq7LfGdDv6BmTdfPPMg4fPzxhzL/4lNdvmG8IuPt6ZbM60rXr2rQeVfp8g297j+HoI+P+vKh6vXxfaU7uEXRF6iLLt841f1zF/XzV0H3n8H078E8fzDvt0/6/uqgj0/BDCDm/YbKPN9IN6CpqZ/R5K35Gy9XvfNX/BuxaMqvmA4kJt2/Z/P+Ym/mD+b8YdD1pzPzl9jr01dFnz/rOISgy68z9T+b6un694W5vxj1CXLt6rcp/07P34JpH3XQ85vHj49lfrT/vsxb0/3tvvGyzFdGq/r4jXV9AaOen8j88dNHMv/y+ZHMP//V38u8e+WBzO+8fEvmqV6TeQ66/vSm/yiV6f+ybuC51g1s6PT8qwymfZv1T4ymfZj5R0lm/VbrAaSY9hWzHh/M9CMMa2Z+EnT7GGczP+vM+limIbj5zaTV5ePmd8XUn1TM+0u6fvdm/K6yPn6IZoIxcu1L5/XcVOBoFqC1GZ963b7KlW7/jWt/Zv7YFn3+VOn6M4l6/TbPpn6Y4s2VLr/FSJ9/ZOYfVXIdlK6f/cL07/1Xm78Fc3wx85vU6Pfnp9/mB50un6Srt50fmu7FLo/mpgOtTf2vgp6/761uynzlJX2Ds/6GzK9OZzJvzfq1yvr9u/YxMvs/01rf/3ii+6e1iVlfm/W/2x8J5vjoOqDWrO9c91vr+tWb9pWKzmOnG0gyw5N5/SGaCVxn5qfz1oxvE70/lCe7Mq+SeT+dbj+DWT9N1nT7DhOd58GU8KUun9zr8p9c0/VjUun7a80Ce2Oqz7++Y96Pqd8vzvX4vhf0941o1gfDoV5fro10A/72P/+BzL/5R/9C5q59hatLGT/64KnM20p/f9mu9fOlW3sy3xhvyPyNl/X3ifVWr5//w0//XOYv9vX+/trW92W+u2XWj0nXv8Htj/oOVEpm/ue6j6Ex61O3/7fQ7TO3Zv3S6Jz/AAYAAAAAAAAAAACAJcEHYAAAAAAAAAAAAABYEnwABgAAAAAAAAAAAIAlwQdgAAAAAAAAAAAAAFgSfAAGAAAAAAAAAAAAgCXBB2AAAAAAAAAAAAAAWBJ8AAYAAAAAAAAAAACAJVHHoZc/SGUk87bO+gqx6BtoGpnnKurzD3MZl3aQeTT3V3QcZk+u9PEr+v5uvPqazEd7lb6BS32DF0dfyLzXtx+62ROZD70u36xfb3g66BtoPpjK/M4b12S+ee2+zJ99vi/z/Z//UuYrm6/I/M6DDZnvvboq86CL1zPVx8mDbt+P3/1Y5r/9h7+VeT/R7fv6zddlPplMZJ6zbh9tdH8Do++v1KZ/KTpPtb7/aF5grnX/3V2ZDiy1+vxBH78ounxSr/NJpcu/LGqZV6XTx5v+x73fNJj6YZ5vmJoGbOJo+teSTfklM34WXb61+Rux1tSP1Ov6HdJCxtm8n8HkI5Pb9u36D9O8iimfptO5mZ6E3ryf0un3W9JX+xtAW7qVHj9GczfA6Qbcj/T5c6/r14sXRzKfPdbzn0Z3P+GNP/gjmd9/+U2Zr5vm8/+3N83refe9X8n8H//qz2V+8P5vZd7MdAO4+fY9maek549ugmSG71CibgF10edPZnzqsz5+dG7GB1N/8kj/IJkOqMq6/fWmh8hmfZbNAGmmD6E377dqzP2Z/suNT8XML2PQ9TOmsbm+WX9nPT9040sa6/Iz1T+EaObH6ULmxdT/1rSvEHX5uPm1ef2hjnp9n4OZX5vyb6LuIIZk9i/M/GMw8/fevOA4mPmf6UDd+qE3GzCNeb+VmT/XbgKeTP8dTfsyHdRQmfmZmR8WU35VNu+vNhMYs/5x50+Nfj9D0uV31Zr+09TPFbO/uLGxLfPVouePYXtTxous++/O9N+TYup3Z8aPoN9vY/pn1zxM9xiCax+m/1i4CVhj9keibl95MBMwM36Xxuxvm/2h4MZXU/1C0OPPEHT5D+FEn97MH3fv6P3LSa3Hv8snev2l7z6E9ZXrMt/Z0uXb53V9AbPAHyr9fE251Ke/0u9vYeYP3UjXz52bt3R+7abMZ43uX05OzPznUr/fMNMV/Po9fX9vf+9PZO72r86ePZP5B//4rszzlZn/J93/zLZ0D3qt6PvPm7qF7O5syfzu1/T3p9+b6e8z//ih/j5yeqH3T6Y7ev1u96fM+jOZ+W9dm/Vtbfp/s8Hs9t+yGT+iez4z/3HzQ/4DGAAAAAAAAAAAAACWBB+AAQAAAAAAAAAAAGBJ8AEYAAAAAAAAAAAAAJYEH4ABAAAAAAAAAAAAYEnwARgAAAAAAAAAAAAAlgQfgAEAAAAAAAAAAABgSfABGAAAAAAAAAAAAACWRJ1DI3+QWn2CNkeZj0adPn/UF4hN0TcQKxlX5v5C6GWazdF1XMh8dXUk8/Xd6zI3Tx9mjx7LfDxak/nNtSuZPxqb8tOvN6ROP0Hf6/z48pnMdx7p+1u/tiPzjdt3Zf7s6D2Z//Lf/bcyv/jRfyXzW/dvyNzV3lB0/e1MBV4cPJf5kxf7Mv/y48/1BSr9BDfe/q7MdxrdvodQ6zzrClpVuv9JeSzzUOn7y1Ffv8umgy26/IZs+r+o21dlepgy6AoUi/4bopHpf+tG199hRR/ftzpPWT9fnczzm/qVTPlVg84Xg4xDSWZ8rnX5V8FcIOj6V8JEn7/X91dM/5RN/e5M+y1Rj6+meoYw6PYTiq7/ddTP19e6/kTTPmJnBtisr5+Kfr5k2l/qdAFG07+Xketf9PHZ9K9ugJyfHMv82cMvZD4a9Pv7vT/5NzLfu3db5l/V1ekTmZcLPX6tbpoGsrYt43e+9W2Z37mmj/+7P/u/ZX5+/kLmo0/1+9l5602Z12Z+1JsJbhnpClj1pnzNBD+5v9GtdJ5M83HtpzbXj25+YOb/bn0Vsv5Fbx4w1lOd6+4vDGZ9NxQ9vhazvqxrPX6G2s1v9PXjYMZ/079W0Vw/ufHRVUB9fDYVtEm6f2v19MWvr8z8IvXu/ZvTm/mn2Z4JVdYPOO9N+4w6r3T3GoJ7/2b+He36w7whM8Ebu/mzqwBjU35TM38z67No1gdmeyS0Zv5calP+ZUXmo8rMb035J9PCelP/B7MBOc5u/S/jsGjN+2l0+2pM/zxZ6OPHSZfvOM5kHsz+RZ90/zSY/rcUU3/M+s81sJT0+2uauczb3uy/9Ob8Zv0X183+xdztz+j3W2Zu/WfalxnfQtDzl8asz6+b/et7dx+Y6+v69fTRQ5k/OziX+c7ONZlvjPdkXmddv8qlbj9m9y7Msl5/npzq9cXODd2+puOv9j98TdHnN8NTCHP9g7NDvT7Nla4fr7/9pzKfmu3Zy8NTmX/26W9l3p2YN1zp+jNq1mVezP7l6fGhzKd2A8TUr5t6f+L6vU2Zf/qZ7oDKXJdPv9D9z8jUz2jWp8ntT5nxqXP7l2Z9Wpn5k9sfiGb/3m0PpMHNzwAAAAAAAAAAAAAAS4EPwAAAAAAAAAAAAACwJPgADAAAAAAAAAAAAABLgg/AAAAAAAAAAAAAALAk+AAMAAAAAAAAAAAAAEuCD8AAAAAAAAAAAAAAsCT4AAwAAAAAAAAAAAAAS6KuxoP8QclR5pNiju903plP0HWvr1+nxpxgJOOce5mPQyfzqqlkvjrelHmItYxPX5zJ/Pjomcx3N27K/NbNGzLfP9HXz5dPZV6Foo+vdP246PT7Oe4PZX6nuibzl99+TeY/++nPZf784Wcy/+L/+Lcyf+nNN2S+s7Em8ybrBtQ+eyHz5xP9flz7LJsrMr//9tdlfmek2/eim8i8Lfr+m6DrV5/18anX7T/mdZ3Xun8ooZV50MUT6s6cP5nnL1nmlen/K1P/wqCP78z7G5Ju/6b7DGHQz9fq04c6znSezPgS9PupB/38sdP3H0f6/br+N1Wmgpm4Henzh1aXn3s/ddTj+5D0+XtdPKE29TtG83zJHJ90/1UH/fyhMnk05Wf7R60z/WMopoKY+tVXun3kqI/P1Vzmx4cn+voLPX/5zvf+mcz37t2WudPuH8n86dHnMn/22anMXfe4ujaV+Vtv3tUn2ND5zu5LMv/j/+ZHMv/3/+ufyfyTLz+Q+dg837Vb+v2NzPA273QJx961H3N8Zd7giun/Tf/huv/S6wIoZv5QGtM/9nr+M1Ru/SbjEM36M1W6BxzVY5lXg54fhrzQcdTP7+YP0cyvejO+JH36EM382Y3fVaPLL5rxs9Rm/Zh0/RxF84Dm+m5620U9gWzc9MHcv3v/odXHRzN+u/5hMOXv/oegFLf+0ddvim5frv4Gc/66WpX5YPYnUtDvP5n592DKb1Lr+5+Y65vm6Vq33f/rzRmyGd/qzuzvmecLZn3Yt6b/NvtLZniwHUQy40NM+gUtTP3PK2Z9aMaHUlz9df3nV2vfxXSQtZs/mPsbon4/VdDrBzuBNhPEfqHvP5n1WXL7N4Oe37rxP3R6frU+0ftblZmf9bNLmV9e6uc/PdPr++OTT2R++7nen11du67Pb6Z3pbmS+em5rl9xpMuv1tsH4Vp4IPNU6/Ibiqk/pv+elwuZV0Ff/8Zdvf9+41Xdf5vPM+H5Q73/HWa6fVxGN783cdHz/77o+Uc/6PXB1f5DffzGlswntX7/I/P97fod/X3l6Ohc5qU/0NdvdPsc3P5b7/aXzPy2MvNnNz0285e6NvN/0/46M/9y63P+AxgAAAAAAAAAAAAAlgQfgAEAAAAAAAAAAABgSfABGAAAAAAAAAAAAACWBB+AAQAAAAAAAAAAAGBJ8AEYAAAAAAAAAAAAAJYEH4ABAAAAAAAAAAAAYEnwARgAAAAAAAAAAAAAlkRdx17/YqK/EXe5yLwdosxT0cfnuT5+HluZD0GfP9WDzEehknlMY5nn2Mi8Lfr67aSW+X7/XOfHhzJ/e/frMr9974bML4+PZb6Y6/qVsy7fQb++cNLp8r071ucfxw2Zv/r2KzK/utLl2+zclfmsXsj80bHOQ9D1L07WZV7vrMh8e3dV5hsrezqvdP1ti2nfyVSAoNtPE/T5Q9H1YxH18U2l308Kun8aRd2/ZnP92uTBtS9TfsGUf3Ljhyn/weR9NuWf9f0nU79c/9IF/Xwx6Podzf1XaS7z3tx/HvT1h6gfMA66/6yrrK9f67zo2wvm8Vz1C7HW/V8w5RsudGyGfzO7CKEZdP1Jpv1lU/+qysxPzPvtezM/M38iWEz/F835x6YCLDp9/aHW/Ws285Ptoh9wa3NL34DRPj+S+U/f/YXMTw+eyLxKrv/X8cmJ/sGzi2cyf+e1FzLfvfcdmU/WXpL569/U+bt/9b7MD090/Vzb0eUX3fg66ApaNaYDMeNHNej3M6t1/9D3+viRTP38PJr5U6ln+vyVbn/F1O9s1p+2/KormYes38/I9I+9OT73Zn5h+sdi6mdpdP+fzPg8XOo89Lr+Hx3r8fcsmvXNXPfvY9c+VyYyrirdAqYrazI30/fQVWb+Z6bPfTEDYGPmB1nfoCm9kM34WHTzDrE29dNMMGLS76dxy7ukJ3htq/OTZ2f6/GZ+N7jyK3r+OtrQ84+dqW7fg+ugTP+Zzf+ITMz+lZl9h9o0oDgy80NTg5OpX8mMD6HS5VPM/uWi0u13zdX/Wu/fnLv5h+k/qqKfvzf1t+p0/S+1HmAWpv71nemfzQymSvr+zOlDdhsEjdl/aM3+TjD7w2aAsLNLM78y05NwdXEq86HoCcL6Tb1/vLZ1IPPuUF/fNL/w1Oy/jzrdPrqg8/m57uGS2Z+JWd/flZkfdGem/7rQBdQl/f6a1U2Z962ZIKapjDfffCBzt7/y9Eu9/iy9vr+V9Wsyr9wCujf7p2b/L5r1WZvM+Ts9Pz461fOXjVqXX7Wq5x/jka6/bgPi8kxX8Om6mUEUM7/XR4fG/GJu1l8x6eeL5gb6aOpX0v2P2/91+//8BzAAAAAAAAAAAAAALAk+AAMAAAAAAAAAAADAkuADMAAAAAAAAAAAAAAsCT4AAwAAAAAAAAAAAMCS4AMwAAAAAAAAAAAAACwJPgADAAAAAAAAAAAAwJLgAzAAAAAAAAAAAAAALIl6yL38QRejzIdiviHHSh+fij6+y+b8+vp13co8mfsrWZ9/ZbIq88XZicwvj/ZlvnHjuszj3msyD0dfyPhk/3OZT+KGzO/f0dc/OXwk87Oo3/8o1TJvVqcyD0m/35R0/V5v1mV+7carMr/51psyX9vakfm81fVnWIxk3qxNZL6qq28YjXT5NKZ5htkg477o84eojw9Fv9826/oTijl/1Md3le4/xzoOKZj+0bSPIegL1En3XzHqF9gGnWfzN0TTRt9/ZfrXwbyeIZv+24xfKXQyN7UnXBb9fKXX+aq+/dCb5pFN/Z+Y4TVG/fzDoEsgDeb5g36Avtbvfzbo4+u5vr/pVPd/yQwfOS9kHk0NqU39aEz7arPu383rCWb4DDnr+8um/VRBl29t+qeq0++/dLp+XhzNZB6292R8b29b5qPrt/T5Tf/04YvHMn9+8KXMS9blP2r0/Kxq9A0OV1cyr491/o8ffyzzr491A9u9/5bM1+q7Mp+u6vntYqbrx8z0T9NBt8/Su/Zr5k+1mSCY9tPP9fVr037dBM6u78z8rbRm/mCOT2MzfzDz91KZ3M1fzfygM+vHzhT/YJ6/KroDn5j5a1Xr8luY6nd5+EzmJxe6f5gfPJd5m90ET8c5z/UPzPjXpDWZj3d0/3/t+jWZr13XC6zSmPpp+h8zfIfK1P/s9j/m+gLJnD8k07+47R3T/2Szf3VyrO//6Eu9P/H8UNff2jz+xMzvc6ULYFRvyvzwwQOZ37+l62c066dgxsfixodON2C3v9iZ+a/bX6zN+sKND6nT+4ex6PGhifr+e7O/4davI7dAXJjxodIdpH76EIa5md+bBhLN+FZNzP6AWT+NTP/j9p+GbOZ/Qb/fsXl+s7y1+0Nufh+udPmNp1syP7/Q4//B02OZb+3p9dfu9+/LfO9In//iSt/fYOqXm9+mRr/ftKLzutfnH63o+7tx/xWZm+27cHCoy68y/WNV6fEnZ33+UOvyqcwErT3X+y+HR5/JPJkJxuaOHh9fH9+R+aOLC5mHhV5/5l4/n/v8VZn9vyY1+gRmf3xjT+/vhCu9vp+5/tnsHzdm/rGozP6GKZ9kxtdo1u/u+6AZfkLp3QawmX8XPf5mM//gP4ABAAAAAAAAAAAAYEnwARgAAAAAAAAAAAAAlgQfgAEAAAAAAAAAAABgSfABGAAAAAAAAAAAAACWBB+AAQAAAAAAAAAAAGBJ8AEYAAAAAAAAAAAAAJYEH4ABAAAAAAAAAAAAYEnUKetvwCVlfQbzCbkxh4cYZZzrSh9ubiAmff4QikyrWj/AJKzIvB7r/MXxqcw3D57L/OXr2zKfLWYyL1dHMr+oz2S+sbql8+2vy3xunr+t9fO9dGtd5qN1ffz8UpfP0y8+kfnm2qrOV/X9bU8bmYcVff9d0fV/GHT9TkMn8ziY9unOnwaZh6zb96jXh5dsflCZ/iPp3DT/kIr+QeX6p6Cvn6Iu3z6Y8q10XrJ+vylP9PH66qEt+vppqGWuSyeEYJqPq34hmvGvjGReJ1MCZvyJUZfvWtD1qzeXj0WXYFO5Cq4LsDVvyHQvoZjmGzp9f+NwKfM66voVwlimMS1kbppP6Ez7TKb/jMXcf68LuDfvd2Tqby46bwfdAM30LpjhK7Tm+D7r99OY/md07ZbM3V9IdqZ9zvaffKXzjyYbMp9s7ci8Mu1nYcbH0pr+odP18+pMH7876HxtXfe/o8q036g7mJiP9fknazLvFvoNLlz9N/VnnFudF32BcW0GSNO/JDN+9VH3P0Nv+i/TALI5f466fkTTP47CXN9A0Pef3fzJvJ/KdJAjM8CnTj/fwanuH48++a3ML2szgTL1e2Oi10cbW7p9Xbum18+LQd/fbN/Mf/sTmR+d6f7h2YXOd1/synzyms6nlX7+SWdmyJ0Zv836INf6+Lpy/Ytu4LVZP/VzXb+PDvT+xfOnX8rcLZ/u7Onx9/buqzKf6+4plKT792cPP5b51ePfyfyLmamfN16S+disfzqzPzc240c2/V80/efIrN/aqOtXqvT8oHILLLf8M/Nrt706mPVXqvXz965/MPu/jVs+bZj358avQdf/ZOYP/djMT3pdwLUZP/rKjN+92b8x509m/hfN+w1zt7+t2+/KjRsyP3/xQuYf/+4XMr/z2usy31nR4/8rP9THH/xGxuHZ0bnMy4oeX1dM8W/0uv/YvL6pj3+g9883i54/nXd6/nJ4/FDmaaLXjzs3pjK/OtbfB2ZXZny4MBtE13X7n891/3H4eF/mZns+rI33ZP716/dk/sWxbt/DXL+/OuvvE1XQ9Xslme8T79yReZP1/O7k5KnMT1t9/7tmATgy/ddgFiBXZv1S8pUi7n5MAAAgAElEQVQ+v9nfsNNf830jRrN/1pjxZa77n/NyoY+XKQAAAAAAAAAAAADgnww+AAMAAAAAAAAAAADAkuADMAAAAAAAAAAAAAAsCT4AAwAAAAAAAAAAAMCS4AMwAAAAAAAAAAAAACwJPgADAAAAAAAAAAAAwJLgAzAAAAAAAAAAAAAALIk6llr+YLrQ34gvY5R5rLK7AZl3QZ+/BH18zDoPjcn15cN4W5fPTr4h88vzL2X+7MMPZf76d76tr/+avv7psxWZD4tLma/f1Odv6kbm4c5tffxopI83p3cef67Ld3Yxk/nK6q7Op+ZvLEa6/g1dp4+vBh1Hff2YdZ5afX859/r8Ud/f0I/18YNp/+b80ZRvnfX5J1mXf+ld/6P715J0/9hknfdhIfPB/I1PKrr8q8H0j0WX31B0A02m/66jrl856vKJlenATfvIxbSfoq/v/sRqGMzxC52fF10+oZ/LuAqtzqe6/22jrj/jRt/fihkfBlP+7vXmWvcPOekTtN2azAczf8nRlO+g7y+Z/q+qdfkU0z56U3+Taf6jYPr/Xvd/fdL1K6/oG2guTPu/0nm5MO3HjA+hNcfb8qtkPp1syHxzTbefztxfZd5PN9bjX2r0/ds/Ma2+2t+g5l6PfylM9PGm/uZkcnf/Zn2VypXMK1OAI9N/OXXR7a80+v3PTPtqav38pvqHnM38xnRQrvz8+G76V9M/TxrTP0XTP5ru5fBSjy/PP/m1zIe5Xt9t7FyX+c76A5nf/9bLMr95bU/mrn7o0TOEyytdgLP9M5nvP9brw48+/Ejmh4ePZH6tNe3/rXsyH9XrMh/c+GzKd+Kmz66CVmb+b7qH87MTmX/4UNfvsWmf3/3u92T+0hvfkflkxRSQeT7du4Xwyttfk/lv/+avZH5y8ELmL2Z6fXDt/qsyX016flKZ/bVi+lc3vCXTA4xc/2/W58H0z7Fz8wezP2r2r3Krx4/BrL9Lpe+/NuNnbTZA3frM7c+V1qx/zPOPRnr96eZ3QzDjs91g1ONvb/tPnVdmfyiY8p+Y/b3GzI9Xt83+8ZNPZP7oV38v87d/+C9lfmdb7w9vfFevz+88OpD5SXcqc1M9QzPS+7+bt0z5T1dlfnqp52f7n+j5h5tA7dzakvnqil4fzK/0/COaEe5qrttPa74vrd7X9fPZZ5/J/Cc/1vXzzW9+XebfeFnX36/p4TF0/Y7M5xfHMr881/PH0YYuv9Tq8f/R8VOd/+QXMj/d1/X3k+/p+re9ZwqwmurY9H+D2V81va/9PphGuoNPZoKdzATyyOwfHvzmp+b8AAAAAAAAAAAAAIClwAdgAAAAAAAAAAAAAFgSfAAGAAAAAAAAAAAAgCXBB2AAAAAAAAAAAAAAWBJ8AAYAAAAAAAAAAACAJcEHYAAAAAAAAAAAAABYEnwABgAAAAAAAAAAAIAlUQ9VlD9IvT5BE/TxC5OXkmU+hEHmdTL3X8s4hNDouNd5l+cyz9v6BurmrsxnTz+X+fs/e1fm99+6I/OhWZN5aG7L+GymDx+N9PttRrr86pGpgJ0+/sXn5zJ/7yc/1+evV2W8dv+WzEeDrj9Dp/8GY2jN8bHIfKUyf+MRKxmXpN9fMe2zDfr81VjGoXQ6Hxr9/FUxz9/r41PQeacfP6Soyy83+gS9PjzEeiTzqujzp6wv0Jv3H4ruf5ukX3B099fr84es61dn6l9t6m8TdP9Tor6/swtdfvOnj2R+sbiU+aLXedDVI6x0+getrv5hmOjjt1YnOr+5JfOVZlfmMUx1XvT40Db6/cRej9+j7CZI+vyp0vUzm/pdZdN+TP3szPtNrv0Hnbfm8H6iO/jK9J9hY1Nff7+V+f7sucxvda/KfLSmrz/d0fODcKjnJ/2lrr9z8zeci6Cfvwz6+Drq+UcV9fHVVM+fnLPLhcx7M/7Wpn5XYV3mpdXPF6PpYHXzDdnMvxZmfTK48bHoAhg1uv9aJP38XeMWWPr6sejr96b/Cqb/q5K+fj+YFxR1/Ytu/rsw69Oxztui2+/h5x/LvMv6/l/57h/K/O6OHn9v3Lsmc/P6w+LsWOZD0v2fWb2HlbQt8427GzK/8fLvy3z7pl6/v/erv5X5cXco8/ZTPX+avqZLIJvm6eavlRlfXP9VTPO6WOjx/cmjL/QJzPHf+9Efy/z+G6/r8xuz0zOZu/F3Lej10eZIF+B3/vCPZP7uL38i82fPjmR++uUTmTevmvl31M83mP27aMb37AZ4Mz13hhWdR3d9Uz9z78YfHfem/EJl7s/MD4KZ36XB7N+a/iWumvmVKb9F+9XGh87sX+RKV6Da9H8hm/dTm/018/4G8/qy2T+bmP59c1ePb/OZ7t8+fHYq8/KXfynzl37wPZmvT/QAt/baTZ0/1fsPZ6YBXlV6fnU1089/eaTXn/Mnuv6dD2Z+uanXp5Opad9mfVCPdf/fm/3di5keP52X778p8/3bD2X+4uiFzH/yD/r7yuNP92X+xnfeknmodflfnOjzrwT9fucLPX8vvZ5/f/K7D2W+eu8lff11M/+pT2T+4Qf6A9Palt5fuH1Nz+9i0vN/V/+7TudJP36ItVl/m/Xxs/d+IfNiPqDwH8AAAAAAAAAAAAAAsCT4AAwAAAAAAAAAAAAAS4IPwAAAAAAAAAAAAACwJPgADAAAAAAAAAAAAABLgg/AAAAAAAAAAAAAALAk+AAMAAAAAAAAAAAAAEuCD8AAAAAAAAAAAAAAsCTqUulvwPUoy3wYZjKvUq2P16cPKVT6B+NGxjnrC6Tcy7wPUeZDGGTeJHP9jZHMz9IrMi9PvpT5J+8/kvnair5+uHZN5515vm4u8xj18dVc16+zp2cyP7rS5dPHdZlPX74v8xs7KzJPvangM5OXIuMc9fvrdPUN42Dqf63zUOkLJH37oWp0+56b6+dOX2Ccdf9QTPtdBH3+yjxfLLp8ctbPP2T9fit9+yGa5ytBnz8XXf5V0uevGlNArnz00a55hJD1DyZR553JDw8vZX7w8W9l3oaFzNeaNZlvrI5lXo1NPjH9x8UTmZd9XT+emfHz6Mkzme+89KbOt3d0XnT/vFrr+5vXrcyrmX5/qdHzq9Kb+Yv5G712pOtnbcafMuj6MdT6+QbTP+aJ+xtDU75FHz9p9PvdX9H3356c6+Nn+zK/u6PnRzfWdfvdr/Xz9b3uX49b3f/kRr//cW3m12Z+cW1rQ+a7t2/p8xuu/7/M+vlvrN+W+chUTzO9CaHW9T+a8ScWsz4KOu+iaT+hk/m80u0nmgncyPSfJevru/svWb+gFHX5FLP+603/ktz8zyxg22zKd6HHz4OPDvX5O92/7dz9jszf+eYbMh83enwIWb+/sw8/k/lirtvvMNWXn5r1y8pIrw/Dzk2db27K+O6rd/X1r/2pzP/mP/5PMn9x8VzmoyM9/7m2uy3z3sw/O9P/2P2dXvcP7cHnMi8L3b7eefubMr9762WZT0b6/vZ/96nMT6+OZF7mevw+Gunx9/rWdZmv3tLzjze+8XWZ9/Ofynx+rvufyyf6+vnlGzI3u08hJd2/JDM/7s36cDDjY4lmgW32J5OZQEQzv2vM+WuzvuqTOd7sv7kZ2GLQ95/M+sZNP4tpn71Z3wyDvkCV9PjWm/2T6OYHpn8008NQir5+n/X5g9l/uQp6fzaY9evGrTsyf/Fcj//vfv6RzB8+0vsDd772mszv3db9T8j6/Z+1ev+5a/X68LNHj2WermQcurQl8/FNff/rW/r4dtA98DDT/eOk1vl4U89PzvsDmX/x7vsyf+u735b57/+xnn/F3qzPz/X4v/+Zvv/9P/sbmZegK8DKVLe/67f0+vreXb3+OHmh+5fxSM9/N69PZP7y9+7JfDjX86cP/uFXMj/64qnM21f1+PPt7+j6M9nU/evho89lPu/1/Hq20AucJ7/+ncz7ha4/Wztfkzn/AQwAAAAAAAAAAAAAS4IPwAAAAAAAAAAAAACwJPgADAAAAAAAAAAAAABLgg/AAAAAAAAAAAAAALAk+AAMAAAAAAAAAAAAAEuCD8AAAAAAAAAAAAAAsCT4AAwAAAAAAAAAAAAAS6IOZZA/yCbvzAWi+8bcRxmXkc5DKDJNM5Onylxf5/V4ReZNO5f5kPXz7a3r8ru4d0/m+dFzmV9eZpmH/omMU6WPH85nMp8Pun4tZq3MQzD1Y+WmjNd3d2W+d+eWzKtUy3wY6fpXykKfv9f1z1w+9Mm070GfoIRe5vruQhiVqb6+Pn1YLbr84nykT2AKKDe6fnWm/KJpPqmYEuobGZfa1O+s7z+Z/qUU3YM3pv8u5vnjzLxgU4Al6fKJWb+fsalgC/N8+wfnMj/55Fcyd93Tt77xXZlv39b9z8rmqr6AMczN+wnflumTw89kfvbZocxnB2c6f6jP/+iFfj/DK9dlvlGvy7yOpv2b/tdMn0Iouvyjm/9Uuv4Og2n/UfevrZmfVZWZH2UzvpjyyUH3D5NK3//O6m2Zz64+kvnJ+49kfvfO6zLfe03Pz17T08NweKDbz/niQuZ1rQt4fXtb5rfW9Px2/aVXZT4e6/7bzd8/fd/0r6aDXZlOZJ4qfX+9qX99r+dvo6jb59iMP60Z30rQeV2Z43tdf4aiy6+Y/qUy66toxvcQzfG1WV+a+cloYdYvwcwf41jm67t6/vv84YnML7IeH51vvr4j87GboHR6fvn+L38t80Wr738x1+XTFP1+6y09f62qA5mvz/XzXzvT6+fVe2/IfGNzS+avv/JDmf/m3Z/JfHZ+LPO8sSfzFbN+T6Z/iUn337N8KfNHz49kPjHN+8bd12S+YpaH5x99IPPTM71/kd38zc1vznX5P02nMt+OZvyZ6vH7wVt6/fHbn/21zE+HL2S+dnFN5uubZvzNun7lQbd/N76npPvvodMTtFT0+DBuzPhl9odyNgOY2R9x3bvpXkMx5V9qc//69CG48XXQZ6hb84Aj/f5H0cxfWvN8jW7/pdHnN9Pz0JvnT8Hs/ySzf+PWp2Z/tlox5feS7p/P1/T7GU719R891fvTj/afynxk1gfu+0TXmv2poPdnRls6n2zp+5uM9QBnpt+hmPVB3br5ty6f7VXd/59d6vXH4RP9/j6+0Ne//8++JfPv/Ymefz18qNf3p/ffl/mTD57JfH6un//+rt6fuveN35N5ibp/as/0/HHTrM93XntF5vfvvSTziVkf3791V+b/4d/+zzK/+vg3Mj82+6u7la6/U3P/Z5d6/vv4o32ZDxd6f3NrU9//d/71N2TOfwADAAAAAAAAAAAAwJLgAzAAAAAAAAAAAAAALAk+AAMAAAAAAAAAAADAkuADMAAAAAAAAAAAAAAsCT4AAwAAAAAAAAAAAMCS4AMwAAAAAAAAAAAAACwJPgADAAAAAAAAAAAAwJKo09DLHyxikXkc6W/IwyL+f76p/7dm0NdPbdYnqMz9h0rmk0GffhH1D4asz99kfXw0n+gnU/2D/qXbMi9nc5mf5Ut9fND1p4qbMg9Bv7/Jjq4/TTOR+drqSOajyarOG31/Mej61evXH9zzl6TLNxT9fFXQ+WDqfxj08aXo+4tFl0+V9PP3yTQAW74zmZrmGUKn619nDs+1Lp8U9Plj1HkZTP3JtczH5v1k073mSj/f0JsOtDLtq9b1r0nm/Zjx5+iilfnhx+/JPA8LmX/rn/2pzB9842syt+amBnbnOp80Ol/fkPHmtW2ZL17X9eP4+TOZf/rjn8n80fFjmT/5Ute/9LaMw2o1lXmpdP9Uihm/9OVDNPOf0JrcxHWlx/9Y6fvPuvmE3Ov6GU0JjMJY5o3pXjZW9PzjaqTzxxfHMh//5Kcyf/33fiDz+994ReZ7M53PTs5kPhnr/nVc6QGw2lyXuacr4K//4t/pw3tdP7Zv6/JZu3dH5rVpX71pX2560iQ3wdDtqzXrixjd/EvfYJVN/1T0/evaF0Ix4/vUtO9Qm/VVr5+/z/r546D7vyHr81+/fU3mW9e2ZH55eiHzx1/o8Xt3R8+Pxts7Mnc++MVvZL441ePvzLSfIZsa1Oj+p1zo8aXTxRMWV/r9HnypT/BG0PPD6W09v1u7tSfz3U/1/Gp2oetvH/X4lc38Jpj1fQy6fV4dXcl8fnYo870HL8n8zp7ZX1jo658OegJzZfbHzPIprKysyDyZ6Xk71+V7UPTz3TH969amLr/1PT1+nn/xSOZXN/ZlvlLvyryY9Wdo9fhVJTNBNBtstdlf8f9Bo3+R3P6ROT7X5vxmf7E3uRm+Q93r/YWc9PytmOePnb6/EnX/X5n5UzHtowxmf9stv8am/pkNLDd/q83+YTT1OyX9/JWZ/7Sm/x9NdPtcv3Nf5osben/l7ELvTw+m/46m/wimfa02uvzWxnp8T2Z61pv9v5jN/pipv5XbXzbff4pZv0zM8rFd3JX5VTyQ+VGr5zfpP+v9o+3vvynz9V39fuOJ/n6w9Y1XZX6t1vOD5lX9/Ub3viEcf3Eq8+5El9/QmPpljl9M1mQ+WdPz2+sbN2X+g3/zL2X+i//zL2X+3q//Wubfn/6BzGcXev1yfqT7r6vj5zIfmf779nffkvnOyPQ/MgUAAAAAAAAAAAAA/JPBB2AAAAAAAAAAAAAAWBJ8AAYAAAAAAAAAAACAJcEHYAAAAAAAAAAAAABYEnwABgAAAAAAAAAAAIAlwQdgAAAAAAAAAAAAAFgSfAAGAAAAAAAAAAAAgCVR59DIHwxVsWdQepPHeSXzZtDX74s+fxrp43OIMo9Bn38RBpmHoJ/P63VcJjKuR+b0O6syXh10/UhZP39f6+dfn+i/QahN/awr/f4aU3yDqV8hm/qb9PFlMH9jkWp9+bDQx1etvn7U5Reyvn9TvCGavyEpI31/7vx11ucfTPMy3UMIrX7+ZNqvuf0Qsnm/5vXEuamfZSzjFHX55WDqr+n/YqXzIeoSKtH0/2b8yeb8i14f/+TzhzIv5v3f++bvy/z2N16TuTO8eCLzL/aPzBl0+2tM+5kEPYBsbF+T+Xh3S+Y3b96V+c5/fUfm/f/+f8n8YtD95+GzS5mnG6aAzABbm+4/JtNBmfEpuuHL/CCa9j+YHq6Y+UVlOuja3H/bzmR+sTiR+ZPn+v3OZocyP57pCcTR45/I/OnzA5m/8+3vy3z7jm5f0+sbMvd/4qn7h4Mr3f88e+8DmT/++Y9l/nRYkfnezZdlvrp7Q+Zu+rNww6tp/rHXF5hVbv5g1i9ugjTo+cXQuQmSzqtGX39sxuc+6vXBYCZAqetk3g26/LKZP+Zi1m+mfgxJz79KNuuzpJ9vuqY72OmtbZl3ozWZP/7iVOZtq/vPg0qX79jUTzM9DZemfayY+hsXZn16OZd57vX7efi5foBXpnp8WV1dl3ncNAPsiX4/rb79MJ3qvJj+LZv5f7vQ86+U9PNtrej6Gya6fc0urmTeFrO/MNX1J430+Lw60uVzlC5kfn6ur1/mZn091vXrzq6Mw8aDWzJ/8lT3H/ND0/9vmA0a039H04FEN70268N5q09Qim5g51fnMo+X+vy1WR+HVf3806meX4Vaj+8T03+49Yvb/0tm/K7d+l+mIUS3P5t1/evNBXLR5Zc6sz9myr8x/eNg7r8199cUPT4ns4B1y9fQ6vE1Nfr6VdTzq2ZV9//BjE9j0/4Hs//d9qb/Mf3/2Mx/xlE3wEVn6rfbILD73zquOl3/opmfbW/p8i2rezJPV/sy3z94LvMv/7Nen7dmf331Qpf//QevyLxe1/1zMvsTjz7Q6/ODSz0/NJ/HQur1++1qXT756SOZV1PdP6zd1fOP+3cfyPx3938t86MXen/p0RO9v3rrVf1+w9HHMu6Knv9V002ZX5/o8nH4D2AAAAAAAAAAAAAAWBJ8AAYAAAAAAAAAAACAJcEHYAAAAAAAAAAAAABYEnwABgAAAAAAAAAAAIAlwQdgAAAAAAAAAAAAAFgSfAAGAAAAAAAAAAAAgCXBB2AAAAAAAAAAAAAAWBJ1a74BNyHLvOg4TNOgjx8XnUedx7m+/pBr/QMT97GXeRMaffpcybwEXT5D0c8fSifjUdSHL5I+fxX0Caa1KcCprl+DKb88mL9RKKb8TP0JwZWvzq9MA4hZP9/U1I9Rpcv3rLuUeR6ZBlKPZNwO+vorpn0sTP9RhbHMm7KQeUjub1hc/brSpzftp0qm/pv7y65+mvYZ+1bmnWmfXa/vr6pMB9/o85eo22fOpv8x1+/m+gW9+Pxc5ovLE5lf216T+Tf/4Lsy17U7hOGLT2X+8+dnMu9O9POVoOvHtNblt7axIfP26rnMd6/09cf3rst81Exk/sM/+S9k/uP/9L/J/PyxLv/p5E2Zr+ytyjxF038NevyuG90/Bz18hGyab6r0+btK9++l1+2/jTq/aPX49OzzX8l8/+mRzEvR/fso6Od/cazP/+T5scw/fu89mX/wc/1873znHZlv3b4hc/f+Hx9/KPMP/ubvZb54firzA1NBx1ubMj850/3HHTO+dKMHMr+xsiXzaJpfbdpfGPT9xdq8oKj759YsYHLQ7TcWM36b+UFKun9rsr7/3OnxPxfzAoLuP830LYRKjy9h0OV3eTqT+fbGtszrNJW5W39Pa33+MNP96zjq9cPclH9l1mdpxcy/3fx50O3/Kuvr10U30L7W9S+Z9Wtrlh+Xpn0mM/8ar+r7n52Z9VXR5Z8GXf8Gsz9RzPpZt84QqrEpwBXTv+nHC5VbHs7M/s5Il39j1s/jSpfPqDble6Hnp/1IrzDyoOcnddmR+eZE14/V6ysyL71Z3y30/bv1dW50/xDM+NOa8efo6FDm55d6/rM40OujaqHrnxvA4kiPX9N1vX4bb+n5z/qOrh8rZoMkBT0/GGrdQHvT/8ThK+6/mv2FPDHzs15fP3a6f3Dzx1jp8buY8SWa+Xef9fnN6jW4HY7aVODK7I/F6PanTP2L+vmT2V9NZn6TR2b/2TTvwWzPVmN9f7XZ/54lfQNufjQ2z19M+Q9Z31811e1je6zv73J8R+Z1o/f3Tsz69Wr/ocznrX6+9TvXZB47Xb6Xv9P7f8dm/Omi2YEs+v1Fs4GQTs34N9f7p8MtvX/5WqvHn2jax96K3l88GfZlXu/clPnbD16W+WSs50dfPvxM5luVHr+DmT8Pc/1++A9gAAAAAAAAAAAAAFgSfAAGAAAAAAAAAAAAgCXBB2AAAAAAAAAAAAAAWBJ8AAYAAAAAAAAAAACAJcEHYAAAAAAAAAAAAABYEnwABgAAAAAAAAAAAIAlwQdgAAAAAAAAAAAAAFgS9VAG+YONuCLzvlzIfFjo8+fY67zR36ibYVXmnfnE3YeZzOtFkXkMrcwnpZZ5Cfr5Z0k/QJRpCNH8oCr6Bzno99f3I5mX80rmTW3qh7l+MX/DEJN+vqbX77c1x4eor7+eFvr4VrevttfXPzo71McfzWXeZxmHRa1/UA/6+ddWdP1IkzWZb27p9l3Xun6lqS6/0jb6+F73D9G1QFM+0fQPddbl309c/6T7lyrp8qtM/5b16UNl2s9UF38Ipn8KF/r5T4YrmVdFl+/rr78p83HQ9Tvsn8v44yPdfsPpsYwvZrp9x97032Z8jGEs8401XX/Ok+lfnz+X+eruNZmHsW4/d269LPMPPvpQ5rOuk/n1qK+/2ur6dRV0HqMuv2T6h8q0r1TpClBl/f4XRXcAR+dHMj/49DcyD/rxw+bKDZnvXd+U+dqmrr9vFp0/eXoq889/+lcyPzrTx//4x38j83pjIvNyqc+va3cIodEVaPP+A5m/fPu+zO9cvyfz7uBE5ueHev1xefiuzC/2dmR+694rMl/fXpd5YybgZdAVfDDz02TqZzb9U4hm/WLmh0PW/YeZXoRk5ifub5QHM76Eoo+fFj1+zxtdfv25Ht+/fP9zmZ/MDmQeTfnHS92/hrku3+lE9++bO/oFLh7p/icn8wBjfX91b+q3mT9HM4DUpn6Z4THEqa4/u5tTmR+b9cXCjC8h6OevzAMszAAwuPm724Aw+0u1G+CvzP7J4lLnZ7p8u06vz2dnOq8aff1zM3+6Onwo84Xp/xvTv7n+o+91/z/Vry9MzPw0Dmb9aPZ3qlo/X5d1+R8dvtD5Z7r/jFM9vldT/X6v331ZH9/o/mFUuf0xXf6zU/38Ya7nV8ePz/Thm3p+vbm1K/NR1M+XsqmAUY8PZnkfkvmB7Z/M/aWk639vpj/u/WbT/zZB7w8Us/4czP5zymZ/szH7v43ZPzbjUwp6fTKJ+vlbs7/UV2b/rNN5TGZ/r9b7vyWb/clKr38a074aM38oZv8gm/WNaz/J1n9dP6e1eX8bun/amekbSIvrMl9f0f33/XsvyXx2oetnM9bjy2Su98+npvx7M77M5278cfN3PX6EhR5f7QTc7G/OOt3/hrGuP1sTs79rxhe3wZLM/lmY6AZYjXX55UGvL/kPYAAAAAAAAAAAAABYEnwABgAAAAAAAAAAAIAlwQdgAAAAAAAAAAAAAFgSfAAGAAAAAAAAAAAAgCXBB2AAAAAAAAAAAAAAWBJ8AAYAAAAAAAAAAACAJcEHYAAAAAAAAAAAAABYEvXzz5/KH0xfuyvzlRBl3raNzDvzDXrI+vwxZJnXvT6+jkXmIer7y8UcX1oZV0nffxXN85exzLMp3yq661/JfKh7mZeFLp9hkHFI+vFCDuYEfaWPN4fXgy6/adDPN0u6fGaLM5k//vg3Mg9HJzK+MM+XQy3zttH1o9S6fl4m3f6rpG/w8vqrMr9547rM12r9/kdlJPPO1P/OvP9i+seq1fWrVPr+alP/676TeRzp/imb/rO60tdPla5fw1jXD9O7hsugn288fy7zaZjJvBnp+zfDTzhbvJB5f7HQJ2j185VW338Z9PvLja5fMei82rtjjtf93/mZnn/kQT//5q6en4w2pjIfr7j5gb5+Y8aHYMbvqnHzIy2Z6jM0ZvzVr4Xp/8QAACAASURBVCfEXlfwq8snMj/89Wf6AhP9hA9e/SOZ337wjsw3tnX5j3X1ti7nuv88+xc/kvnf/8X/IPNPfvY7mT/b1+1nFPT498a3vifzb/3hH8h8c3tP5re3dmXu/gbVdH/hycMPZP7bn/9W5vmRrr+PHx3LfPcdXf/27m/JvOn0A06Kmb92ugKPxrr+d4Me32Key1zfXbD9nztBqtz6xPRv2R2vr2+KLyzM/Ori4lKfwDx/P9ELoCcv9ADw6hv6/qarun1OL49kHmo9P85Zv5/KFICrPrWZIFaVnp9m1/+b9rd3bVPmKU5k3j1/rPOk218o5vpm/lVFnbfRlJ9MQ6jXdP9SPTcvwM2v9fAbFkH/YDHT9ffySrevcunKT1+/N/svIen5azNZl3kJqzKf96b8zQRxam5/bvrvYarLN5rrXzzT85+nHz+UeWXWN9s7N2T+0n29/tl5oPcvtkdf7X9wstk/PLzQ+0NffvKRzPcfP5P5wTMzv2/0+nRnrNdvKZn1t9nfKkWXj9meCiO3ADPrr7Si669Znod+0DeYzArR7Z+Yy4fJoMsvuvlbo1/QKOk7KGZ9OjPzh1Mz/brqDvT53frY1K/pVPcvpvsOMfw/7Ntns2VXft/3tcPJN+fbuRtAA2hgBoOJ5IhDckhRJEvRtsp6YJWq/Kr81K6yyy7bJZZMS7YsFYOHHGowMxgAg9BAo3O4Od+Td/A7+C5XTfmBT30/T39377PDCv+1djfP70k5h3krsr9VRd5fHXkBncj+cZVHxv/I/kIa6eBppIAbRdaX/Ute361F9i/vvsfrv153BfNsyPX1UXqBeR5ZoIynsf1pfj5FNzKC8OVFz5/mkf3vSPvpDy4xP9zj+evymOu/FztcP6QdHp8//tnPMT8428d869Y25pHZMTSG3D78H8CSJEmSJEmSJEmSNCP8ACxJkiRJkiRJkiRJM8IPwJIkSZIkSZIkSZI0I/wALEmSJEmSJEmSJEkzwg/AkiRJkiRJkiRJkjQj/AAsSZIkSZIkSZIkSTPCD8CSJEmSJEmSJEmSNCPy/v4j/IPB0hrm7eWcf6CZYF4VLcyTtMC8aJR8/jFfX2ua8fEtPn+74usPaY1xHSr+/ck0cvyY8wbffzPj3w91E+Npye8n9vyqJPJvEBJuP2WIvD8+e2i0+Pxhyu9vMub3c7J3jPnzB08wb0ceT2t9C/N3tq5i3txewrxTc/sZXvQxvzi9wPxk/xDzyeU+5o9HnF8Z38S8N7eNed5sY16FSPuuuP1UZaT/lnx8Pubxp+DuESKXH7KM33/IIv0zcnhdcQOvylgP5vY3itz/4jw/v2arEfl9Np3w+wuxx9vh/jmfR8bnmq//6hyff+FWD/MknGN+cLyL+f7zHcyvXbuDeXfxGubNRuT9RgbYy1O+v92Ux69OGGDOs2cIWbeDeTPyb/jSwONXGZlfw/gU4+NXl5h3Wtx+br39Q8xvvPEu5u0uxiGEM0zHhzz+VpH6p8evJ/R6/Pz/5B/9K8z/bf3fY9755AHm21fvYv5H/+pfYj7fi9S3YcLxMc//ocXnby/wA174xtuY37rD8/9Xv/6c85/+FPO9Lz7CvNH+PuYLG9w+6iLSv7s8P6aR9Uee8POfFtz+k8D1b17z+UeR+b2sOI+MXiFp8vVNc34+ZRX5hZTzvMfPr1nz+z++4Pm5X/L8c/gE49B7KzK+tfn3F5dGmF9OeHyN1Z9JiKyfE24fdRrpPxnnC21+P3lrHfNRpH4/O/ySj6/4/bSaG5i35zEOScnvLy24fpxE6v/5yP7DSY/PP+jz9cXWHyFSP00j09vgjH9/UkcacMrvb64VWV9G9kdGkf51csrro177APNiwMfvRp7P4sYq5lngF1CPuUJ++ojX/yGy/nnn+38P8/VVrl8X1jmP1Z/9EddPrZTH39j/4FlNuf3nd9/H/NZr/H7v/+yvMB8PIu23xfNzu7OAeRJZQFWR7lkX/Pux7dEsMj+VZeQCch6/ssgKcZLG6r9IfVLx+DyJ7O/G5u9mys+3P+Dx6/iA1w8HR5xXkfXrKHL9IeX+mUTG5yQyfzdyvv/567cxX1vg9U2WcftsRuqnScXvf1Tz+ccpb8Blkf31PNK/qsj3n36f319/ENm/WOQCKpvn+S2JbP+9mOxhPhzw9VeB57esxe0zNr61p9x/h12+wSzh65tG2s/JGb+fJw8+w/zlE94fGdU8Pz79kM9/8NXXmJ9ecH1yvPMK848GPL7dvfce5u0Wjz/+D2BJkiRJkiRJkiRJmhF+AJYkSZIkSZIkSZKkGeEHYEmSJEmSJEmSJEmaEX4AliRJkiRJkiRJkqQZ4QdgSZIkSZIkSZIkSZoRfgCWJEmSJEmSJEmSpBnhB2BJkiRJkiRJkiRJmhF5XvXxD/rTHcznkuuY142c8zDBPC2mmCd5hXne5OMnReQbOJ8+pCHjw+uETxA4n0Ty2PNLpiXmacrXn0T+jUAdasyrtOA89oAzvj7+9RDS9De7/5Dw8S+/fIr54e4XfP56EeObv/tjzN++fZfPv8RxJ/D7CTX331Dz85mO+fwXwwHmv/zbn2J+fnAf8xeXfP6129yCVpcXMM9b3D+SKbfvJDL8lGHEecXnn0Z+IPb7zYSfT9mMjX+RHpry9adp5AL7fHwZOphXrQafP4mM35HLW1pcwXyY8Pvt8PAeqmIZ8+WFdT7BfOQHCq4Pnr98xPlPeXxsLLUwH2+0OW/x+FPVF5hf7B5h3i92I8cfYh5qfr/N8hLzTo8H8O7qVczXt7g+y+Z7mO8WTT6+w+9nsT2H+Vyb22e7Hauf+P0Onu1j3j85xryO1C+n2Qbm27f5/XW63H+/fe99zL865fH17je/ifl84PkxRNrnyX3u35HRJeSR+raV8/wbljYxntucx/ybv/UDzNPGGPMP/+6XmL/6+gHmveVvYZ40Iu1/wuubusHzY53y+dPI+iqUPP+XeaR+SPj8k8sTzKcVt9/RlK+vFalvOh2en5KM6/dGpLxoZ/wHS70u5tNzrs+Pyy8x3xzw+NtdXMN8ccg9vFVz+7w84fdbVZH2EyvAIu13vsHzW2uJ58+FdIj58MVLzA/7kfVn4Pa1tMHz96TivIg8vyRExpean2+V8/zXzLn+ughcf16ecP9f6HL/XZjn9t2P7J+EY77/LLK+jlU3p8f8fMKE7z82fb6cvob5WZ/r2/Njro9DxvNv3oisLx7w/FoGHj+/9+N/gPnd17l/x0zHPH7tveT6KBzz+NkMLzBvNbl/LW5H1oerkfVxxePjez/4A8zv/+IDzI+fPcF8/fo7mDdynh9j/8OpHHH/rhs8/9Sx+iZSXyU552XN7TtSnYUw4fZVxvaPI08wMjqG4ZCPf3r/IeZHx3v8AyVf/+rcFczXl3l+aHW5f8Ra2NnOK8wPd88wP9/7CPOTK/x8br7J/Wc9sn+ZRurXcZ/nt6yKtJCM+08R2+CPfB8oy8j3H96eCfkG7190Ivuv5YTnh3DB7bcueP1ZBq7/qwY//1j9UUe+X7Vz7j9Zyvn8iM9/ssf1z/Ex7/90Fnj/Nam5f29c5/Ejtjw/vzzFPO9xfdSuuX9+/Of/BvP0v/jnnGMqSZIkSZIkSZIkSfr/DT8AS5IkSZIkSZIkSdKM8AOwJEmSJEmSJEmSJM0IPwBLkiRJkiRJkiRJ0ozwA7AkSZIkSZIkSZIkzQg/AEuSJEmSJEmSJEnSjPADsCRJkiRJkiRJkiTNiDyEJv7BxeUl5ivLFeaN5pSvION8XCWYd0eR0zdq/oOUr78I/PuXkbxZlfzzkW/wnbyFeZ3x75eB7y8Wh8DXnyf8fJsh47OnfP6s5vPH/gXDJHL+sub81ZMTzPvjU8yXtlcx/9Hf/5eYzzcbmEdf4OE+xhcj7kCROISkwHhlcQPzxS6PPz/+w9/H/KsvtzC//+kvMN//6gvM29/5LuZLbW7feZPbV1Lz8SHJOS/5+LrFx0f/BdA08hcpjz9VzQ2orrj91rH7D9w/Gtw8w+lggHlk9oqqIo9vEiaYzzd4/A8Nfv+D0yPMz/YeYL7/7Azz3f0+5pHpMSx3uf+GBX7/J+c8/t7/4GPMn339CPPe6jbma1c6mG/0OK/DMua7x9w+yxfPMb949RTz5OptzDtj7gGdbpvzFj+/STXG/PgpX3/e4fHj+HKIeX8Qab+tSP0z4udf7fEAsLrGz3c6isyvW+uY55H6d3DE/fv48gLz8xf8/i7Hx5iXgeeHLOfxfbG7g/n62ZuYr9zl5/fuaz/E/NX9zzE/7/P9nzzh+mzx9hrm4zqyfuHXE7IW/0GV8/ySFJyfv+D7Pzt9jHnZnce8lXD7aEbWJzGDCffPJLzk3+/x+6vaPL7Md3h8Ha3w+qI/5vbxeO9nmN9cfg3z1ZSv7zLhvPd6D/PJhOe/PCxgHls9Nef4+M6E54fqjMfHZy95fqgn3H/Wtrn9L/a4PqrSSAFccn2ZR8rvOuX+1Y5c38bmFczH53uYH+9/hPnCnfcwv3GFx//JhK//qM/1dTHk+W1v90vMQ2T/pLvAz+/6G3x/odPF+OhXB5gXUx5fzl98ivnpS24/Zcb189bVG5i/8doK5jHFPu//PNn7GvPRIY8fo5oXSLw6DCHLeP7unh1ivrTB89PqFuetLo/fi7f5/fQ/4fZRjbi+S1avYh5qrr8bVaS+yXh+rhI+f1XyDJTE9ldi29cTPr4deP6dROrvENk/rWueX77+itdv0xGv3zeWeX56971/iHlnkY9vLSxiHtt9Cklk/RY5/PwZ1wcffPAJ5uMTXj88/Pgc8/rt72E+t8TtK1uI5JEBLI3UD7ENynHk8KLP7TOPfN9Yy3h/uhXZ3xn0+flPJpEbGEf6X8nzSx2pH4o8skEXWz61uH6Yb/ILHAd+P2lk/3rrCs9Py+17mK/e5PX93BrPb5HXH/Xow88wf/yQ+38j5fnl1U//EnP/B7AkSZIkSZIkSZIkzQg/AEuSJEmSJEmSJEnSjPADsCRJkiRJkiRJkiTNCD8AS5IkSZIkSZIkSdKM8AOwJEmSJEmSJEmSJM0IPwBLkiRJkiRJkiRJ0ozwA7AkSZIkSZIkSZIkzYi8aPM34CQ0MZ/WOebtYsp5wr9f53z+elhiPknqyPk5n2YNzMuKr3+S8fnb9RjzEPj3A58+tJLI6bM2xkUd+TcCyQXHGb8ffrshhILvPw0Z5t2SH9BOf4j54Pwpn3+O7+BHP/7HfPxSC/NQjjh/+gzjw8E55kcnBeaDyTHmaYvvv7p8hfnywg0+/+Y65vfe/w7m+Zjf/wcf/hXmB4+/xrz77ruYzzX59ydTHh/DlDtwmnD/ao54/C7yyPib8e8nga8/iTz/cjjAvCi4/Q8mFeaj0SXmk0tu3ycXfH0bE4zDTv8I84OH3D9ejfn+6kt+/8cTHr8u9nn+mWQ8vjZ7a5jPr65ifve1K/z7kfnv5UdfYP7kId9/qHn8/e6Pfgfz9771TT4/P75QRKbXwxd7mD/45DM+/oDnh4unn2Dem+f3d6P7GuZLVxYw7xfcvk8udjGfG/IDriPjSz3l9n/R5/GrmfLx7bCP+dFkEfNxn68/73YxzxKu78YlD2DjPo/v/cj4erjP9z+KzB/NJvfPy0VuP+PI+5nf/AHmjaU5zK/f+m3MP/vsp5iPh1yfnU5XMK9bPIDkY67vYvNzaPL8f358gvmLB7/CPI+M790bPL8sLC1hvhSpX6aR9e2o5PXB+Ute/9SX/HzySP3fmOP2t73M7ePw8hDz/V2uf/b2+fpvLkfm/5UNzNOU729lfR7zVtLBvDnl8S0Lkfnn2RPMD48OMD845Pq1vbKM+eIiz59Jwuuvccr1YVrz+FBNeHxJaz5/I/b78/z+pn2+v4NXPH5ur/L8s3CH67eNazw+DM/5/b484fo0afP4dP0bP8L8W3dvYh7aPP9PA7+fte3rmD/6+D7mzx9yffnoU67P88j+0frbvP4OgdtXccjj28PdzzF/9YLr62Ef47DQ4/4/TSP7nwnXT4PI9uH5Sx4fh2Nu31dfex3zdo/r29YSt8/RkOvLrOb777Qj+2sVj/9Fye0v1JEFXmSDNons7+Qlj89pxnlshzVJ+fkU1Rnmz57w/kXo8/rtyhKPr7/1x/8M82aL21dUZH80sr0UmnWkg0Xmt6U338J8O5L/xX/8c8wPHvH+5avHXJ/feutbmLcX+P2lU+4/kc8rYRwZ/5Ip969GzeNHI7Z/Os/1V0i5PpqmkfGhwXm/5vGhnvL6pIhsQLUi33daGdfny/N8fc2M6/cy8PzTTvj+rqzz94Hm1l3Muxs9zFttzn9T3/pd3n+49d4dzB99xPXX4cETzP0fwJIkSZIkSZIkSZI0I/wALEmSJEmSJEmSJEkzwg/AkiRJkiRJkiRJkjQj/AAsSZIkSZIkSZIkSTPCD8CSJEmSJEmSJEmSNCP8ACxJkiRJkiRJkiRJM8IPwJIkSZIkSZIkSZI0I/IQ6sgfZJinWY55ElqYl3UZ+X3Os8j1T+sE81BXGDfrCZ+/5OtLIvdX5JHnm/LxYcrXn/DpQxp5flXN+ThEnm/B7SMPfP0hmWJcZ5HnF3k+5fCIfz/jfyNx/d27mLfzDubVJf/++LLgvOL3MxyMMZ+GEecFP/9p5PdP20t8/MUp5kuR/jN35zXMr7zzBuadD/8O88HpJebhbIhxvs7jX9Xm/lPw6w9Zze+nSvj5Tcsm5v2LAeb1GT+fKuH+Nyy4/XHrCoFH5xDKCb+fwQnnX//ibzDfWF3BvDg7w7yqefzqnx5jfjrlBlKEOcyT5Qbmi70tzBeWepi/ffMtzJsdfsNHJ9z+Gk1uX2++zb9/59vfwvz6DR4/ov+EbsrjO8+OIWykPH/kv/vHmL882MH8q5//a8xH4RzzkyO+v6u3bmHea3L7HE14/DyKjE95yk84a/D4Vw14fBuUPAKdJ/uYJ0Uf84szzvPWAuZVi8eXKuP7L2qen2t+faExXMR8NOLxbRpZf0ymPH70S54fzy72MF9b5BtcuMbj5+hznt+zMT/fSWSEaEfmj/Q3/Ce+1YSf38uvHmCe1JH54fd+hPlcl49vLfL4UL/i57vzbJfPv83969a9dzB/vvcI8/4wMr9lfH9z823MVxfXMD/pROrPIY9vry75+aZnnDfm+fnWkf2DPImsXyPrw8n5CeaxBXSd8PW3lnn86GytYp4l3P8nke2BasTjU+z+ysD1ZR4Zf7PI/k1d8/W1Vq9iPhjx9X35hPv3xZTb1/SA20dacr6+ton5az/4Hcw32zw/x5y+eIX5cMTvp7PJ7fPt3/oO5tfvcl6U/w3m/UMeP0YnB5hfvOT66XjCxw9P+fjRkCfYLLI9Nskj+18ReaR7TxMev8cT7j/7p5yvnnL76DYi/bsdmZ/6XH9nU84bkf3P2ONPI/VnbH8iyfgH0oSfbxoZf6cJt786sr9aRPL9c36+k/0XmLd4eA0/+JN/hnkzcP0Xzvj5HOw+xXxnzOvXMvJ9oFV1MV/tcb55/TrmjQ4/wD/4+/8Y83/3Z/8d5pd7F5ifHhxivp1dwTyJrD/HCY8PdcV57PtIM7J+iH2+eHrC7eM2Hx4WNzY43+f178kpv58y8n0rTSN5g8fvtWs8Pudzkfp8HNnA7kdG0GlkAdvk349sb4TzY17/D3h7OoQL/r4SUr6/+cj6p1zh53frWzx+ND/i/UP/B7AkSZIkSZIkSZIkzQg/AEuSJEmSJEmSJEnSjPADsCRJkiRJkiRJkiTNCD8AS5IkSZIkSZIkSdKM8AOwJEmSJEmSJEmSJM0IPwBLkiRJkiRJkiRJ0ozwA7AkSZIkSZIkSZIkzYi8Kmr8g3anhXkVBpiPSz6+SHPMQ8LfqKc5X/94MuLTZ1PMswnGIZ0mmOcZX1/V4/uv6ib//hDjUKT8+0ns/VUV5lWInL/uRI6PPL+cX0Cd8vsdVvx+i1N+gO18HvPri1cxj/ny048wz+b5+a20FjEfVfx80xa3v3LI7a8sOE9K/v1Jwu93UIwx756fY97o8Pu79t4bmD9+8ADz44tLzNsLkfbfbGCeJNz/kqrknF9PGJwfc/7wIebTkn+g6kb6d5vbb9adw7yT8fyyscnHJ6PPMc8XeHy7/8FfYb525x7my1s8fixcfZ3z013Mi4qvP2/z+1ttrmK+fWML8yrn8eX89BDzg90vMZ9r9zC/+jo//yvzkfH7hPt3sfMFH94/wTybLGC+dPMm5mvzGeYrJfev8b0/xPzTn/0N5o8G/H7aXy9j/t5738K8GVYwf7Kzg3kn49/vzHH7zts8/l72uf64qHh+a014/K9rrs/qcaz+vIL5dHDGeR0pMFtdjOe31jDv7/PzywoeP5IQqU+5+4bLyO2t1Vw/pjnPL/MdXr8MRzw+N1Ke39ttfv9Zwc+niKxfvvr8KeZVzdf/1m/z+Pv6rduYZw2+vtj89vTsCeaHx3x/WRkZf//ea5jfXuL3/+Qxj5/jITfQIlJ/L83z81lqr2M+7PL8Mhpw/V31jzA/OebxpywLzJPI+nSatTHPI+vPTmT90Ozx8c3I8b3A41tkeybUgcenPNL/swbnkyY//6LivIzsn4Sc+0fa4Lx7k+vP6c4B5q++vI/5xcke5ttXr2P+xjvfx3x9keubcLSP8bNPfo353iW3z4SbZ7gx4PXh0rvfwbzD03945/f/K8wf/eX/jHl+wQ2sf/EK81aT29ck5fqskXP9k+WR5x/4/LEFfBKZ/xqR8a2K1Tdj7t/7Qx7/txrXMO/Oc/10MOH6t+DyKNQlj29l4OebRcbnKotcAE+fIZSR/evI/BYi9W+Z8/WNIufff/ySf77g/vdbP/ojzFtNXp+GM25/X33xGeYvB7w/Mo2072oYyWvuX0dzvD+1d8710Tff4fVxI/J95v33f4j5T/7P/wvz00Pev5hb38acry6EPPD+bhIbv1LuYGmXx+e05vF39OoJ5ruH72G+tcb7O3ffeQvzZJH3L073uP0kGU/wd2/x/sdFEtnfiLTfsz2uv9Y6fH+NLo+/owbvr/cveX66fMn1zemA9yfTkp/PJOH228h5ffL6NV5fLt3l/rdxg9+//wNYkiRJkiRJkiRJkmaEH4AlSZIkSZIkSZIkaUb4AViSJEmSJEmSJEmSZoQfgCVJkiRJkiRJkiRpRvgBWJIkSZIkSZIkSZJmhB+AJUmSJEmSJEmSJGlG+AFYkiRJkiRJkiRJkmZEPp5m/AdJC/NWI8E8qyaYpxXGYZrwN+rL6QXm9XSKeaM5j3kxGWE+jeSLWY15utTBPBnz800Cv78Q+PercsznH/LvNzoNPj56fSwtf8N/o1CVGE9Djvlq7Ocjt1cEbv/TAbefR0+eYD6XLWF+5fp1zLvL/H57a03O26uYt7h5hJDx7zenXczTDuetyL9x6XXXMA/JU4z7p5eYT7fXMc8Kvr6q5v4bptx+h0cDzA/39zFvpjw+Lr11FfONLo9vnRa338DDd+jkkedzmxvgi6tzmJ9PTjFvnPcxvzg9wrzVW8R8Y5Pbz7Ub72GeVAXmjYp/v7P8m42//RGPbw9+/teYFxdDzDdu8vPZvsr9e3B6gvnFmPvH8yfP+Pwpzz+9kp9Pe8TtbyNw/bOxfAXz7964hvmTr3j+eHXyBPPx5CHmw/ptzNevbGF+cXiM+cnOC8ybC/x8VtZWME8mPL4msfqlxeNja5nnt+6Y5+eqwc8nqbgATyu+vm7exrzI+f6vbnD/PH3F42uY8PgW2jw/JFmkgEti9S1rxqbvyPtvpPz7eRapHyZc35+c8gRbnvD4u7zE9cG17XuYh8DjX3HJ11cl/PvrV1/D/NVnn3L+9BeYt3Juf9e+eRPzd2/z8/n880eY58c8P1Tz/Hw6JbfgKlI/590e5nWTx4deh9vncBpZH8Tqm0gPbXS4/pskPH+Xkf2PXjPy+4HH3zoywNQljw9pzuePDM8hVPwHReQCa16ehDTl/t+qIs8v5/nveInrw+MD7v8X51xfdTp8/bc7y5gXF4eY73zC48/nRzw+55ENinbG+3vPmnz/y4/uY97YfB3za22ub3avv4P55JDru/ERP9/lK1zftpcj64cpj19hxP0vKSP1S6Q+KSLHp0P+/UbO41sjNn63NjGvujw+XUTW91XN9V9a8fVlkfEhRPb/qtj7SSN5pP6rM/79OolcX8IPsE74AiaR/aG6Osd8KTL/d1e3MY852P8c8xf9HcyLEc8fkekpjAP3j6ri5zs65zzLeX9o5+EDzLfffRfz1TlePy+tcn04Knh+G/V5/Ou1+QmnkfqmDHz+MuP+3erw+DB/nfcv+ztPMP/6Z7x/tf47/xDzbIHrqzeu8fh6vs71RacVqc8wDeHwyS7mDz/4EPPhkPfHm++8ifl6m+f/Zsrj38kez//7R5H6oeDxscq5forVz82a67f7X3+J+fc2eP2yvMm5/wNYkiRJkiRJkiRJkmaEH4AlSZIkSZIkSZIkaUb4AViSJEmSJEmSJEmSZoQfgCVJkiRJkiRJkiRpRvgBWJIkSZIkSZIkSZJmhB+AJUmSJEmSJEmSJGlG+AFYkiRJkiRJkiRJkmZEPtjbwT+4XL+N+ZXGEuZJwRdQVyXmRXmJeV4lnC/Mc57w9Y8K/v0y8PVfVhXmcydNzPM2xqHKOA9VA+NmOuHjm3z9IeX7D+kU49jlJ5H3m6Z55Hh+vnXO5w/tGuMsRJ5P4OsLK8sYD548wXx//9eYV8U55jeyG5gvba1x3utins33MI8+nzLyb1QakeMjOpF/A9OcxP6NDLefsuDju5HfrxPOj0f8fl88+QjzpLWK+fXf+T7mbyyvYN7o8vufRK5/en6BeTLi/llOeXy7sbGOeVUtYr6zwuPfYOcx5sMXDzF/dHmM+Rvf/g7mq2kL8xD4+Z4cDzGfXvDz//jD/4j5+fMnmG9d5frjje+9e18XDQAAIABJREFUh3kY8Px9OuX2t39yiPmwz+3rMuH5YdzmAmmh4P5TPeP21W7z/Ld05Q7mr13j8X3nAd/fxd4Z5uGE689sjsenK7fewbwYcvuux9w+spILsM78FubjwQHm7TRSX3S5fm0sYBxGE66/Tk9HmHfyDua9xTnMqwseP86nfHxvnX9/esH9s7XA7X+zEymwYy5OMD674Plhbpvr8zzw9SeBj68mA8zPd1/y8YHHp9UtHn+Xu/z+xke7mJ/t9DHPN3l+bGZcv975/R9hfvK//XvM73/2IebLS1xfLN27i/nWZmR+evwc83qf5/9sgdt/L1L+jiP1aR6pz+tGZHyN1P9pye2zHVlgpm3uP/0xz29lze2zDlwfVJH1T6OIrK+TyPiV8/nTyPq6FVnfppH2UUT2dxoVz39ppH5KQ2T+yLj9n87x/Jr2uX7ZuH0L8/lFboCnL44wf1nw/J22Iv0j5/ZdR/pHHakfvjh8hfndMrI+721ivLbE66/9wxeYj6fcP1s9LqC2Mm6fxZDH57ri9jPg8isU5RjzNPD7CQmPP3XC8/PiJu+PLvW4ATUi+2tVZH1WcPkeQofP34jsz5Y1v99Q8fySFPz700h9HzJuAOMysr8d2UFNuXwMoeT2kWd8gvlb1znv8fhaRtZHXx5y+5j0uX83Aq9fWw2eH+oet5/JKPKBo+D33+/z+fcj+xObpzy+NBd5/F3b5Pf3/IDX542S229e8PPNM27fRcp5UnD7TSL1y9Ia718WA16/Hh7y/P3BX/w55tde5/p/cZXrm9gXlJ1I8zzbeYL5s13OH37G+0+tLrf/9d/9x5gvRvaP+7uPMJ+OeP4MkfXLpIqsX6bcvpqR9XMd+XxUROq3vZe8fr5193XM/R/AkiRJkiRJkiRJkjQj/AAsSZIkSZIkSZIkSTPCD8CSJEmSJEmSJEmSNCP8ACxJkiRJkiRJkiRJM8IPwJIkSZIkSZIkSZI0I/wALEmSJEmSJEmSJEkzwg/AkiRJkiRJkiRJkjQj8vbyBv7B8e7XmD9fzjG/dvUqX0GRYDwdnmNejfn3OwsdzNev8/U1MA3h/q8/wrwoR5ifF0PMV+o25nWeYV4mBeah5ueXtPjwIvD1h7TmPHJ9/RE/vzTw87k86GM+jTz/x/unmF85u4n50uYc5purdzF/efMI85NRhfkXZwPMX33wKeaxfyFy7c3bmGfcvUMrrGA+t9LD/OY3vsE/EHE2fYV52eT2ma8t8Q9E7r/M+P0lJeevnj/GvAp8/Gv33sf8jeU1zGMujl9iPnh8iPlZwf1/UI8xzybcgudXeH6YX+H2uTXPx0+638P885/+r5ifPDnG/MlLfr5vvcHjS1Xy85v0S8xPj84wv4i0v3p+FfPW3TuYDyPzQzfl97O8yf339OwC88HSJebVMDL/RQaIMuP5uZFy+04aPP/EzHfWMW/ni5ifF/z7z3d4/K0Sfn7La+9hfv2bv4P50f7HmI+5fAjdNhdIV29yfZB1+f23IjPwye4e5ruvdjF/9eAp5uvf5/Frfn4Z82yR+1ez5vGtH6k/s81NzNea3H/SlI+veHgMn//yA8wPDrl+K8Zcf14u8vUlK10+/wmPz+cHkfo94fH7zms8fofI+mD/7ADzsxNe/5W7U8xvfaOJ+dUVfr5HP7qH+elPPsT84aPPMN+4+Sbm88tbmL98xv27H1l/tapI/Rn4+VaB15/DhMe3rBXpn7H6OeHrmzR4BZ/k/HzSSPuvuDwICd9eqCMbDJOC66+y5vtvFjw+1JH1RR2p3/KUb7CsOK9rfv6R5hOSJre/ENl/ySLte3WJJ6Cbr93AvJHw9Y0j65sqdns5N6A08vt1g5//tBFp/wUf/3Wfx6dbrXnMO93I/Jbx+zsZc31+I9I+1hcXMB8XXB9fNLj+aQ25Ptjf5wIkaXAHac9xfd5e4etfu8LzTzdMMB8ec313ur+PeavL+z+tLrefYcnjZ2x8z5qcTyuuz+uK30/Opw9ZzefPA9c3VeT+RxXvb6WR9eVKj/tHbP/44pAfQHHOE2wSef6NBo9/SZufX9bgvN3h8WN0GVlARvafR4e8vjtY5v7bmnL/Oc54fBnUkfpgyu2n0Yv0j8jniWrM80sV2f+L7b82IvXL+s0rmOctnn9P+rz+Gu4+wDzl1x8mJf9+I7KBUUbq06LJ+zdzkfX3Yo8HgMj0HlqL3P8uD/kEZaR+iu3OhUj9WgUeX6ss8guR+bs1F1k/Rb5QZi0en/0fwJIkSZIkSZIkSZI0I/wALEmSJEmSJEmSJEkzwg/AkiRJkiRJkiRJkjQj/AAsSZIkSZIkSZIkSTPCD8CSJEmSJEmSJEmSNCP8ACxJkiRJkiRJkiRJM8IPwJIkSZIkSZIkSZI0I/LXv/9d/IPPfvmfMH/x6WeY95Ie5osb85iP6ybn1QXmK52r/PsZxlHbG5uYP3/1FPO6SjAv6g7mWV1iHvj0oUhqzMehgXk95jwPE8zPzgacH+9hXkz7mCdjfj6Ds+PI7w8x/9ngbzD//X/+X2K+eW0N83fC9zGf63Yxf/r8EPPijJ/f2fE55qcffo55llacFy3Mb9y+g/lFpH0vbvH4c7R7hHm2wO+nwcNT6IQc86ri9nl4yO2znI4xX+jx+Lc2v4J5o8vv5+L4APOTxy8xP7rk+zufTjEvRtwA0rSN+WjA56/6PD5t334L86Uuz2/Zd/8p5n/+5/8t5ucX3L8bNY8PSyvrmJcN7r/pIt/f4oR/P1/Ywrx7wv1jb/wE8+07b/D51zcwXw38+6PHnE/2efxsVjz/LvHjC625Ocy7q8t8giie/5aX+fzTNt/AIOcC7Mn+Puan/Z9h/tZdnj+vbL3L5y94fFpe4Oef5JEXGCvQIpoTHr++/pDr952zS8zPP/4Y87U1vv+NOe7f+ZuR9cEljz9V5N+w5jXPv2HC8+cXv/pbzL/86mvMz4f8+1mL6/uv7n+C+cb2IubDSH0+HHH9c/sO1w95h5//aMz5YMzjy2Aywrzsn2D+1c9/ifl3f/xHmH/jzjcxf/L5p5ifH7/C/HD/EeZzKwuYLyzz+vOyz/X9RY/nn0aLx+e64v5ZBz4+yXj+zHJuH2XBxxcjbv9JFhtfIveX8gKgnvD9TwI//2nO118VPH80p/z80oSvf5JG/o9AJG6Egv8gUv9MI+vHMvJ+RiXX70XF+xNrKzcwb7aXMA8Fj19Vyb/fj/SfUEXWL5H3F3m8oZpy/yonfP4eT2+hFZk/OoHb59mY7/9yj+vH6zW3z805Hl+388gDbEeu75Lvb6vi+nM6jDy/VZ6/r21z++2scf1aROa3X33A82NI+Pk1t3j+a+WR8Teyfpsk/P7zMtL/Ivun0eFzyvVhHilf80j7rUoef/KC22dScX1cBz4+quAHNBdZHk3zyPjU4PG1kXP7avLrDWXBf5DV/H3i7DLy/sb8AJZPuf4t60j9/egZ5uGC7+9invvvemx+Sbh/VXlkfuPyJpQpP78sUr81I98v1td5f3i0yOuzg0HkBiI3mB7z80kD7+8tbPP6O6kjL3DME3w6OMX8fHcH87lF3l9avcP39/SU5/885/k1i4y/SaQ+G0fG5yLl47uB91fmNnn/MlY++j+AJUmSJEmSJEmSJGlG+AFYkiRJkiRJkiRJkmaEH4AlSZIkSZIkSZIkaUb4AViSJEmSJEmSJEmSZoQfgCVJkiRJkiRJkiRpRvgBWJIkSZIkSZIkSZJmhB+AJUmSJEmSJEmSJGlG5D94/zv4B1X/EPNH9z/HfH//KeZzc/cwb7USzCeTGvPDnceYt8cYh9Dg+MnxI8zThK8/by1hXiV8f0k9xTwrM8ynWYF5MZ1gfn7Az3d81se8157HvM74BWVZjvnGyjrmw/VVzPf+759i/uL5BeY//bN/jfn3fv8/x3xuvon5O2+/j/mdW/z8dx4eYT4JfPz55BLzZuSfmGy0r2Ged/j9TloDzE+++gLz8Qm3/8ZyiXknVJiHnPtnHRl/RuGc/yDl/t1c4ue7vcHHhwG//4M9bj/9Mb+f0wmPL3Xg559Uc5ynPP4Oan5/vcj7mZ7x/XfmFjFfvb2B+buvc//+9BnPr3lnGfPFzS3Me9z9wkXB77fg7hW6Jb+faTXCfHx8jPnxzl9gvrq+hvn8Oj+f2PyywNNb6DT5D/J5vr5BIzL+RA0xPd454KMvuYMsr/P402hF7u/kOeaT8xPMpxc8fl69+hbmocPtc7/P42Na8fgWQgvTScUd6Mtf/xzzvNXGfO7OTcznI/3v+S8/xXx8bxfzRiPy/l/x+213uH5r9biAnxSnnO9w+37zxl3Mzztc31/b5v5xNOD+l1bc/wd9fn4XF/x+9vZ4/gojXp9kGV9fJ/JvkE9HXF9eDLg+KBt8/MtXX2O+eWsT86X1bczPLnl+Pjvn9tdd4/l7LlIfx4afKvD4UEXqrxCrzwLXv83I/J/kkQUEHx7KyPq5nPD1VwUfn1eR66v5/Bk/npDlkfV7Gjl/ZH8gJDy+JRmvP4smX18a6d955PkXsdcfqd+zJFLA8vQWqjS2QRTR4PknCXx9zUj9nEfKvyLjAWAyjnSgaeT6I/2rPY68wAWeH7sVt49GZIPh5PEO5vc/4vpp6Y+vYt5r8vVfX+YGdtrpYh5WuL5JS34/jZzXZ3U4w/zkxSvMv/jgAeax9Xdrje+vl0Q2YCc8vjUi3T9LuQPVaeT3I/0vi4xPdey/YEXadx3pvvmI1xeNbAHzrOb+vX/E3wfeLnn8mdvi9fPci8j64JgHyLKIjH8HLzHPUp7/+kNePxctPr7T4ee/0eLxoXftBuaXp/x+ipzbx0UdWb89foj545LHn81Vrm/DMtenIeMO0Ei4/8Tq235kf3JyyuurMrI+qutIgZ7H6u8epskC573Y+NGN1Oc3uX1O9rh+evnyM8w3tu9gnq93MH/vnXcw/5I/D4TG0R7mac317yRS/0563P/u3eD9mbVtXp/G+D+AJUmSJEmSJEmSJGlG+AFYkiRJkiRJkiRJkmaEH4AlSZIkSZIkSZIkaUb4AViSJEmSJEmSJEmSZoQfgCVJkiRJkiRJkiRpRvgBWJIkSZIkSZIkSZJmhB+AJUmSJEmSJEmSJGlG5LE/uHfvXcz3nj7FvLg8w/wiG2LeTRcwz9t8fD0pMd87eIb5tK4wH5Wc560M82YYYc5XH0KScJ6lfIZpXWN+9uwJ/8CQr/98b4B5Y5vf7433f4T5ytwW5w2MwyicYr6w/Rrmz/7urzGvx9w+f/XT/wHzO7f+EPPXv/c25iuLK5hvb17D/PKS20eV9DHPmy3MpxPuP/0Rn//0wceYHz18xeeveAicL7qYjy75/fZ7PP5V08j9H5xjXkf675Wb/P5DxvcXTnYxLqf8fi7OCsynsREu5ffTznh8TTJ+PtMwxnxQ8r+Ruqz5+LnpBPMkcP/YfvM65i93uX23G3z/q/MYhzzyb8TSgsfv4QU/nyTl/jNO+P1PulcxH+z/AvPnD7/E/Ob7PL6urm9inv2G/8SuHnH7SQt+v8dj7r/5iPvP4aMdPv/pCeb1MY9/C0trmLcbG5gnDR4fj06OMH+xw/P3/MoS5pfj36x+a1zy+DnsR+qnJvePxvItzO9scv3UTriAGu5w/fzFl/z8L3/9U8wbTX7+S5H5bW2Z21crsgJqr85h/to7P8Z85QqP341mpIX0uT7YGbzk4//uI4wPxtx/Tg54fPzy5fuYf/MGTzDtNs9/ocn1Sd3i/lcl/PzORzz/9Gp+/2WL+8e04gXaJOU87UYWeCnffxobgUZcnxUtnr9DweNTOzK/1Cm/3ypy/1XO54+UVyFEnn9jGjm+4vk31Hz+PNI+ypLvL8/4/U4yHuCykm8wqbj+qEt+f2kjsgCP1O9ZtH7mAitrRfK8h/nJ5BLz4eUe5u25K5g3I/NT/oTH937B41vBw0MoU26/WeD22WxxB0tXuD5uRJaf4ZTHn1YrMj9EhocXX/H+5Sedf4f53Td4/lvdWMd8aSkyPobI+BJZX1SRBnDy4gXmv/rbx5iXGbeP7gKvz3rdDubtitt3iORFZP8gi4yvdaw+KyLzd2R8D83I/kXN42c1jPTfSPtfWlnEfP8lt9/9V7z/cHjE9f/Wxjbmr3/3O5gn9z/AfP+rA8wnI97/PbjgPMu5PsxSfgHb8zz/XP/mG5gvdbm+rg8PMb+1fQPzasr1Yavg/OQFjx+Hpzy/3b55C/P5lVXM88j+6tmA1z8vX/DzC6ecjwLXx83IBlHZ4PYz6XP/bx00MR+tLmO+co33B+Y6vD4/GB9j/uSQ9z9Wdn+F+e3N38U8afP4/+Y772F+eMz13fkF39/cAj/frR6332Q5ViCxi1Mev/wfwJIkSZIkSZIkSZI0I/wALEmSJEmSJEmSJEkzwg/AkiRJkiRJkiRJkjQj/AAsSZIkSZIkSZIkSTPCD8CSJEmSJEmSJEmSNCP8ACxJkiRJkiRJkiRJM8IPwJIkSZIkSZIkSZI0I/LoX6T8jXj+6gbmp7uXmE9GQ8x77R7mzTCPedUYYZ5XfH9phXGoGk3MG63I+fPIN/g64d+PvJ8y4Rs42tnD/LI4wny1MYf5D/7e72F+891NzEPJ8VnB7aeu+fheaGF+78o1zFf+8E8xP3j1AvO9R/cx/+rBTzB/8exLzN/94XcxX+g1MOenE8K4LDCvLrn/Pzk/w3x4/yXmJ5cTzPvNRcyzhW3Mu4t8fKj5/g8O+f4LPjycD8aY5wXffyj5+NCMTAEJ9++qbGM+Dad8+knG5084nzT5/pOKB4AsMsBMMs5HkfEpNPn3eXQPIUwvMC66fP91i8f/s4Qb4Fzk34iVgcePpOb2Vwz5+tptnt/X7vD8sbv+DzCvHv8t5icl1x9ff/qYzx/pv4cffYx5N/J8t++9gfnyjbuYd24vYT5p8fhQtbj+KQPXDzsvuQe06kj9t87tI5/bwjzLuX+dj7n/FhU/n1j/nkTqx7CygnE6z/X35tYC5u2cx+8i0v/Pl9YxP/mC65+qHGC+tMb119W33sK8FXk/zRa/oeX2MuZpB+OQnPcxnybnmGeR67+6dBXzzX/CeVXx/PHiBb+/Vw9/jvmt63+A+cZVvr7hGc//jS6378GE649uj+u/UPELbmdcIbci42do8/GNlMefZ/u7mB/vH/PvjyIFaKR+bCQ8P2X8+sIk5/Yf0+ly+1nevoV5t8vjX8giGwBpZIQv+f2Pan5A04rzVsa/n0ZmoDqywisTzvOKC+C05vV5SGJbUNw+s5Lnp2bO82tzjcf34Q7PT7unzzFf2rqC+cb6dcxfrvH5BxPu30XB7TcJPL5szHP91Vnk53fn7dcwD4HHl6O9R3x0pPl0b93DfD7j+eN4NMX8i/sf8gV8ye2v3eX5Jav4/U2L2AKUx+ej08j+QI/fb2+B90d6Czy+dmP7q5Ht0UmD/yBpR34gcvvVhPvHNDK/lZHxtx3ZP6rHsfmF7y+2P9yIrN8Wtnn9MXy2j/mvfvIfMP+TP/0XmOddnn/u3P0WH994gPneV68wTxs8/ucLq5jP9fj5L63y+nQ85vr86Dlf/+7+M8yTlNfPr936NuaLazy+7L96ivnzp3x9z+5/hfnCW69j3p7w87/c5/qkWfP3o+4G15+dLvfv7gLP/+PIJ7rJcAfzw6MnmFfnPL+d3Of1X/MGr/8bC5H6MfD88skTHl/G07/E/Obt72Dea3B9s7nG68PNbd6fiIoM73XJ/f/xy68xf/SXv8Tc/wEsSZIkSZIkSZIkSTPCD8CSJEmSJEmSJEmSNCP8ACxJkiRJkiRJkiRJM8IPwJIkSZIkSZIkSZI0I/wALEmSJEmSJEmSJEkzwg/AkiRJkiRJkiRJkjQj/AAsSZIkSZIkSZIkSTMiH53u4x+cnXGejTLMm70G5o2iiXlSFnx8qDCv6i7mdV7y+RuR+6tyzIvmFPNQc5ynfP4q4fu/ODvnnz/a4Qu4nGC8/r13Mb/55l0+f7iI/P4p54eR9nt8gHm3vYZ5vrqB+eY8t6/N1/j+G2ubmH/+7/8j5i+O/wbzrx9/jfmb334T86ydYF4f8/s7uOT+W3Mc8si/UWnN3cJ8ZW0V8/X1Fcx7cxiHScH973if2+fgkPvfqODxoz7exXxcDDEP/HpD0eM8RMbfojnGvJ7w8XVkfK1KPj6b8PieNCP/BmrU5vO3eH5L2wt8/imPz0+He3z8HN9faPHzSwPnZcUNJKlHnHf4+Uym/P66SQvz9cj8vb7K9/c8/23M958+wLziyw/7T55gzm8/hPbqMubTjDvo2jVuf+0O11/p734X884jnr/SCY8/6WVk/rjg8fHs8hXmy2++jvn2Ol9/KDoY11wehiThAi/LeHyJWYyMX0nFeVpz/x5H8mm/j3k75eO33uL68f0//c8wXyi5fVWR8X864g5c1pyPjg4xHw+f8fFjHj9Dm8e/KwnXr/PbXN/94A/+KebJ//FnmB88fY757rOXmC/d+xbm1+9w+2kccf09DUuYry/z+Nksuf+2q1j9uIV5OuH6bucRP9/BHj/fk10eP7PI/NGM9N/WAs9PIeH+V494fVmN+fm/2n2C+TBSHy6vXsd8K9I+6kj9F6nOQoi0ryxw+8hrPj4p+fhx4OuvI+uvLOP2UZWR8a3g9UGRcP3GrSeETmSBs9Lbxvxx4P7z1a8+x/zWjbcw73QXMd/cXMe8GA8wT475/S+2I/XjXR6/blyN7e+w4SGPXw8fPeUTNOYxvrPF819jk9vXwR6v3w8PjjEvB1wfDApun1lk/Op2IuuzHr/ftM3j98YKz2+dOZ5/W5H+GyaR/t+I7D9F6u+6jIzAsQE6i4x/CY+fXL2FECq+/yxEnk8e+YXof/Hi8WFhjdvH8TGPTyeXZ5j/xX/4HzF/893vY95YuYF5nvD1b9/k9tVZ4fVh/5Q3MPNwiXkV2T/rH/D4c77D9eGIl69hYY73R29+4zXMVxd5f+HNe7y++/kHf4X5ww8+xnz3F5wvLPD8Hinfwvr772P+2haPj+0Wt792ZH+z5u2Z0Gzy/saw5Ov/6iXXLzs/eYT58WcfYt67fQvz9hqvz853eP789S8/wfzlS15/X7/Nz+/mPOdhgSegOvKBry65gv3gw7/GfPSI9z9OIuO//wNYkiRJkiRJkiRJkmaEH4AlSZIkSZIkSZIkaUb4AViSJEmSJEmSJEmSZoQfgCVJkiRJkiRJkiRpRvgBWJIkSZIkSZIkSZJmhB+AJUmSJEmSJEmSJGlG+AFYkiRJkiRJkiRJkmZE/nD3Bf7BuKr5DJG8Vzc5T/j0SZ5jnoYR5lUy5R8IGR8fKv79tMS8GfnEnvDpQ53wA5pOJ5gPT875ByLmF29jfve1m3yCoo/xrz/4BeYX41PMx8fc/uqcH/BCY4x5Y+cQ89vfvMfnz5Yxf/vqOubdf8IN6Of/5s8wP6kbmD/dPcC802xjPulz+x8X3H4Xrl3BfHn+BubNLl9ft8f9u5ny+NAcd/j8Jb+f9iLf38rCIuaXZ9x/zqc8fh88+Azzt995B/N8bgnzzZUe5udDfn4XU+5/Rc3vp478G6Yk4fmnEbqYb/b4/ta338A8ROa3vX6B+eDlDuZ5m+fH1R6/v17SwjxJ+PqKnJ//tMn9rxuZf/uDS8xfPuL2cfUm3/9ql69/sDCH+doZt6/u6zw/zl17C/PVOf7969dWMA/DE4yTSx6/Wzm/n8V73+LjG9w+kwm/39OnzzD/9WefYF7c/xrz8s07mK9srmLe5NsLVcoDQMbdK5Q8PIbYAJNkkd9PuP0XF1xfX/SPMOfRP4S3/8EPMV9b5Pk9FHx941dDzM/PIvd3sov56ZDrw5Bw/xlOuAFlLa7vmz0eH5qrLzGfW+T6dPPKXcz39p5j/vOf/CX/fovrn2vba5hf6fHx40j921ycxzzmnTtcn140eXybFGeYv7y/j/l0n9v36txVzL/57d/CvLfAz2/jBq8PY0749qOeP/0A869fcH189PwrzEenG5hfu3cL87TJ6888sj3RavH4EQLP35NhZP8icvbQ4AssQ2T9PeY8S/kKqkh9WEe2p7LI+LuwwMevLfP67WjvIeZ/+2/+J8zf/M73MR8NI+vnFu8fLGzz+69Snn+qJs8vZ8c8/gyGjzH/8hOu30LF8/96h8e3zk0+vpHy87mxxuuH41ak/o7UZ6MR108xjVVuwMmIC8y5lNcvWcr9J4/cXxrZAK0bvP7MIxukkfI6JJHxLyQ8gESaR8gj41/s+so6Mr7XPL7HBvA6sv9WBh7fefcjhOuv8/7H3uMnmI+HXF9/8su/w7xIef6/eYXX1zfuRPZfV/n5Tc55/Juec/8+P+P1w2TM9X/S5P6zuszr27UrXN/U55H9uYr3j/Nlfr7f+/7vY360x/XvyVefYz6IrE9v/M73MH9n+zrmk0j/G53z+2skvD8TBjw/D3uR9fE8z993b3D9ce0f8f7VJz/9JeaDC27fOU8/YWljG/NGk/dvpz1+/l8+eYX5F2NePzQj9WtMccr9q458fyx7vD+1cYPrE/8HsCRJkiRJkiRJkiTNCD8AS5IkSZIkSZIkSdKM8AOwJEmSJEmSJEmSJM0IPwBLkiRJkiRJkiRJ0ozwA7AkSZIkSZIkSZIkzQg/AEuSJEmSJEmSJEnSjPADsCRJkiRJkiRJkiTNiLzZXcQ/mJ6dYd6u+AeSXgvzVrOBeTOUmBcZHx/SMR8/rfn4mr+RJ4EfQDbN+fzTDOOC4zAeXmJ+fvgS87zZxPz3fvBNvoCI6aOvMR/2+fr7u6eYF5HnX2UJ5s1eB/NWm9tv/+gA88adecw7HW5fN7dvYz754z/C/MO/+wTz0GhjPN/j9lH15jBPN3l8WVm6hnk9nXIeef/DER8/jPSfk8j5e80lzNdbPD7NrW1i/ta9b2P+4eEu5geHF5g/+fRjzG+9+13/Ng3KAAAgAElEQVTMl268gfnmOT//Xn6M+cHgHPMicP9OU+7f3W4X883vvI15p839I2bw4kvMz/b5+PkNbj/N+Y3IFfD8V4VJ5HCe3zoVT2BVq8C8KDjf7/cxHzzm9tNYWsD89MEDzNvz/P5f+963ML+6zO2r1ePnOzrm+WfvcIh5mPL82kl7mC/XPD/2rnL7zLbWMN+8cYt//8Y65r/4t3+B+fPPPsM8TCLz122+/qSO9K+U23er5vFtMuX5perx+Jum3H4vC+5fScbj99Ib3H7Wm6uYh8j4M37A7f+LXc6rPs+Px5ecTyp+vq1WZPzLuf+EwP3/7Jjrl/kOv9/FNX4/V25zffPFpzx+Hh/tYf6Tn/wE83de4/pnZXUF8/k5vv9Bn+u75WWu38MKH79Scvt+/OULzF998HPMt6/y+uC3//RfYL51Jdb+/r+1ysPn/4vjv495ZHkbPv67/4R5FqkfT/a4/11Z5f6VBR7/y0mk/go8/pRV7N/48/xUROavOvL7eeT4tOYXlNWR8bOI3H8+wryOnD/t8vg/HPL+2OUrPr7/8s8xv/vDH2Pe63H9M635/vnphfDic94/eHL0DPPdE/79xTVen2RLVzBv3uH9h2bJ/SsMIxuYOc+/qyucp4Hrs6zi9j+Kdd/IBmze4rwReTz9yP5nnf5m9W2IjS+R+jdN+fm25iP18YTXR7H1ZxobfxO+/qrm64ttT6cl/34SqR/LkueXRqR7rKZcPyy+zvtDe7tcH+2/eoj58YtHmJ+9PMR8evgu5oubPL6Mz3n+Px1zXlbcPkKXf//m+g3M127z+jvS/MNwj+vTJ5H9xVvTAeb5xk3Mv/udH2B+fsb7n6tz3L62ulzf51Xk+0I/sj4d8P7KScnfp+opf/+qEh4gFiMFdneJ599Gk4//7e/9HuZ/+7OfYn76FbevzfeXMZ9//Rbm4ZLf326L67eLkxM+fcHvr5Vw/20t8/5Sb4nvv7fI6+82Lz/8H8CSJEmSJEmSJEmSNCv8ACxJkiRJkiRJkiRJM8IPwJIkSZIkSZIkSZI0I/wALEmSJEmSJEmSJEkzwg/AkiRJkiRJkiRJkjQj/AAsSZIkSZIkSZIkSTPCD8CSJEmSJEmSJEmSNCPyzU6Of/D4ixPMJ5EfaHev8fHtJuat0MA8Sfkbdh06nDcHmOdFiXkINaaTUGCeNPj6y4p/fTLg67s84fu7stnjH8jbGJdTbgHVlE9/fsR/MOXHG6o2338W+P6avQXMV65u8QW0+f2dHT/HfNw4xbzRXMN8fn4T86UtPv7w/BjzhfY65tkan7+7/Trmk8j7Lc72Me+fc/8KJbev8ZjfX1UMMT+bHGJ+WqxgfrU4wjzNuX9dvfdD/v3H/wnzTz74OebdrIX5xlv8fm+8exvz451lzOcrfv41Tw+hm/P8trzEvx8i43c17mP+/MlHmD+4v4f5wgL3r/U7b2OeBZ5ApoHnhzQkmFeB5+9m5AXlWRfz+Xnun1nK5x/3uf88++ox5pd7F5i/Pc/j41rnXcyrfIT58e4O5q92uP2UJZ8/i9Q3k9YY8+KU56/+iJ/f6nWuD5ur3P43bnL7/86fcP331//7/4L5452vMe+t8/Xl8xnmsf41bHD/rRp8fKgi41esgK8j7WfI97e+yfVJq8v1ZXXI9cnnh9w/Lg94/VJG7q9OuH+UkfGtP+b310ovMc/GPP+GlOfH8WWkPlqJjL9zPL698d0bmL/6v/n+9g7PMT87/xnmnUgDXlpfwnxzLvJ829w+L+d4/ptyeRAef831V2Oej/+tf/5fY751JVIgBa6PT/a5vr38jMfHw0vufwtXtjFfjowPK29yfXnvnXuYF1PuP18/eIX5Zf8l5hftu5j3IvdXRurfMnD7TSquf4uEF2All4chzSP9J3D9UEXaXxrZAIkMz2HK01O4KM4wH7zi+aeR8g8kHV5fbNzg9rFx9QrmRWR4n6u5/qkKHj+fHz7l/CG3/50+P59b2Rzm127z/s1iyu2vHnD7KituX42c8zrSfqvIf7EpuHuGInJ96WXk/jL+gSrjCyyGkfrnkufv0SXX/4OS64NRwfc3N8/7K+0e52nKz7czz/NnFqn/IttbISTcP/NIfRdCbH86soEcIvNPpD6uah6Askj72rrC7ydr8vVflJHfn/D1lz0en6rI/kS2yPncNLK/1OT3v9Tj9V07Mv0OT7l/7j3l+uZ0zOuryYSvb++Y+/97r/Hzvzzh67955Q3MJ33+/Ytjbh+LHa5fx5H1XZnw/Hqyw/cXAl/fKNK9DyPrq8UN3n9e3bqFeTdSv9799jcw//CQf//oEddfvfe4fujM8fy3Va1ivrDE6980iczPkfqgVfD8kbZ4/Gw1Oc8j20P+D2BJkiRJkiRJkiRJmhF+AJYkSZIkSZIkSZKkGeEHYEmSJEmSJEmSJEmaEX4AliRJkiRJkiRJkqQZ4QdgSZIkSZIkSZIkSZoRfgCWJEmSJEmSJEmSpBnhB2BJkiRJkiRJkiRJmhH5k08e4B+cVxXmyfI25gtbPcyHNcahqPn3O9Mp5nU7xzxNM76ANOG8LjkOfP46RK5vyt/oi7rAfFzx9Y0Tvr8scvtZxde3Uw8xn1vi4y8uOphX2RLmddrAvL2+hvn21nXMT09POT94iPnZiPPzE27/m9/6Nuar3Sbm+zsDzPfWOd9s8/nHozHmgU8f9k65fZdZH/NOpP/F4ir8P+zbR7Nl2Xmf+bXN8de79KaysixQQMERBEiQECnDDjGkCH2C/mg960m3BhIViqAkkiJEiADhCJY3aSpvZl6X19/j99497snzRgeiBzrx/Kb/e7Zd5l1rZ/IANcmmmOeJ2//zIR+/3+LjL9/oY/7q8HXMD/Z+gfmvfvUPmH9tzM//zre+ifnGdZ4/1vj1p7zN/SP6N07NnN/P8MUzzL968hnmnz3bw7zd2cB8/d7XMM+DBlxkfH8ZTw8p1TwB5BW/oKLg68uC49eJx5etHs8Ph/MLzMcXl5hPKu5/7a03MF+6w/d3fHDG+ckJ5nn0b/iC/jOcBfVBUH9dzvj5lUUX82r3JeY7k3PM2zcfYH7t7g7m91/n+fPzvV3Md0+O+PgD7t9FUF9Ho1sT1HfB9JWaOf/BeNTBfNpw+x7nXN9GLusx5rMR5xcV58PEeT+o/7MWj08Nl58pKP9TCsbXbs71b2frGubFKl///JLzi1Mu4Dpt7v+jYHyez7i+OJ/w81ma8/0fPH+O+eHlIeavWsuY522uz7oZ979v/dG/wPz6jejfcHN+csDj20e/5v2Bg8tXmM8veH5LR1wf3bvF+wfrc15fvPG1tzF/99t/jPn46i8x//RXv8V8/bvrmA/Wb2JezaIBJBr/wxmE4zxYf1XcvuqMB7hO0HyLNl9fFswvZxU/n1fPuf1G9fX2Gr+/r//ZDzDfWuX65OqE9xfmNY+fKRhful1uX9/50Z9j3rnO65/hT/8n5qPhMebzcx7/86UVzFOLG1jJ5X3KovqXf56C7bHUCfbf8ob3NzlNKQ/O30z4D169fIL52eU+5vVp9IT4/FdzfkGnJc8fZYfXh718FfP2Le7fW+u8fzhoc/2cyugFBeN7UP+PCj5+Kxjf2sH+6SgYf+eJ2/dyFuzPrvHxV9f4+RYF12f3b7yHef8+H7/h4SllwfxzNuX2PU9cPw1HXP98+Kt/xPzi4gDzoLyOhte03OPn/w8jvv/1W6/xCUqur6uK55fDsyeY99Z4/dMK2vfwiOfvWfB9ZBLUd9Ng/yAP+u9kP/i+V3H7773O+7cb13l9euOdh5ifPOH9lfFjrn/673D7Ww7q03ZQH8xzXt+mmuefTsnvtxscfhZs8J1d8vju/wCWJEmSJEmSJEmSpAXhB2BJkiRJkiRJkiRJWhB+AJYkSZIkSZIkSZKkBeEHYEmSJEmSJEmSJElaEH4AliRJkiRJkiRJkqQF4QdgSZIkSZIkSZIkSVoQfgCWJEmSJEmSJEmSpAVRnk0n/BeDDYyLTob55GKI+cnJU8xHV3PMm1mQpw7mN1ZKzFc37mKecv6Gvtwt+OcNX/8s1Zj3213MB/0W5kvZCPOUKo4H6xhfv/Mm5p2NW5jnJT/ftQHfP7fOlA5e7HJ+wPlnH36G+cnVDPONbX4/ZRG0n6XgDtvcfvKa82bC15fm/PynJ9z/T0eXfPwR/74pppgP6x7mZdC/mtRgnir+/Zy7d0o1X/805/N3+/z8r339JuaHOffPq34b84+eH2K+e/RXmG/t3Me8G/wTpbzLD3g64f5x9PIV5rOC3++w4OczuM/j2+rGa5iXIz5/NwXzXzC/NBW3rzxo/9H4UeVBB+CfpyLx+Nm0eXyM+l9xdoL56io3wNe+xfVBUB6kfMjzaxPMfzmXLylNgvfX4gNMgvaVBc83v+D76y/x+9s/4eu7s3bOF9Bf4d/f38T82R7P/80Vnz+brGFe9jFOVVCepznPH3nD/SfLuH0Nutx+6mB+nV6cYX414Qa0snMP8+0dfv7jGbefbPySc0xTSjW3307ivNdewvxGh9vn6ls8v2zd2MK8Cgbgj/7+v2H+65/+I+ZZfxnz5dUB5nffeAvz+7few3xtjdd/kQ9+8V8wnzzm9j295Hylyy1sfYXruzIP6vPAh//A7+/kkuujaVA/ZNz803zE9//pLg+Ar7fHmPdOeXy4vcH9b3XtGuYp5/5zdsLrm7U1rh/LnMfvebA8ScH6ISif0izj+buecZ4nbp+tYIAtgvlp1Ob7Oz7l9eP4K57fd5Z5/Pq9f/4jzFNQn81G3L+Oj55jXgX7M50lnp/bSzuYb+xsY/5H13n+WdngAudXf/0TzF88eoH5xjLXV8vB+njWCeqbittfEayPsoYbeDB8pDLn+SsP5u95cPwXzz/C/OosqK8Lvr/r7/D8fGd9NTg+x8czHv+PTrh/V/vcf2ZHX2F+MN7D/M7225h3V/j91lnwAoP1dz+oYMtW1P759NNgf6HV8ADYtHh+q4tggdlwA1ka8fNdWuf5fxCMH02wvro4O8Z878u/x3w64/fzqw8/x3x2wdfXCr4PbPZ4/hhs8fyxEozPnQHX/20uj9JleYX5+TnP/71XPL7tBvXL7Wu8vkqdYP7IuX0Fn4/S+DIYnye8PzBp8fhxOOX18eqL65j3XufjX3/9a5iPX/wt5nXi+6tOefwpB5wXY55fqobfb9Pm8ScruX1NgvXjs91n/Ptx8P0HU0mSJEmSJEmSJEnS/zL8ACxJkiRJkiRJkiRJC8IPwJIkSZIkSZIkSZK0IPwALEmSJEmSJEmSJEkLwg/AkiRJkiRJkiRJkrQg/AAsSZIkSZIkSZIkSQvCD8CSJEmSJEmSJEmStCDKtHKX/6KZYjw5P8H8y89+xRfQtDEf1xPM65y/YddZB/NXz/j+Nm/sYr6y/gDzm9d3MF9u8f3XeYN52eH7b5cDzCeJj1/Nh5hHysEK5ttlnw8wCJ7PjNtH9C8cst4y5k9+9TPMr+Z8/KuzEeb9XoH5/W++hXmW9TCfnB1h3i34+W/du4d50eP2dfXqJebVMbevuqwwzxL376gB5Bkfv5rXmDdT7j/z8pSP397EvN9fw7xXcP9IidtfvX0D8/n4jA8/4fHzcs798+KzjzCvCn4/ecN5M8M4ZYn7T9brYt7d2sZ85waPL1Uwfucdvr9yys93nHH7bAXjf5RXOV/frOH2l4Lxq5syzOuMB+B8yP2vXWKcbt7g+qiXlvgAV/x+qhk/31QGDbi44uPz9JJS1eJ8zP17lvH15cH7uRzy+NrN+AWdnfL9r/a5/kjbPL4ulTy/jC/4/rMmeL+J72+a+PnVBfePzpzzPOMG0hlw/1zp8vh1eHSJeRoF80uPz//a++9hPtg4xvzo6hbmzYivf1Zz/ZIH64+lHre/669fx7xfrGKeau5fn/ziJ5j/l5/8HPPx8T7m1+7y8/3Bj/4Q87df5/dbRgV+KxoA2aD9J5iP8v+K+e4vn2NeX/L4WlZRfcdePH6GeRPUZ1eXnKcO10dZye2z7ETjJ49/50H7q85uYp42OA7Kg9RpcwOsguebNWPOg/qnCa8wmD8qPn5R8viRNcH8E1x/N5gexzX331nQPtLTp3z+Gfe/+++9yb9f5/2d0QHvH/3y1x9gPq+C+rni619tcf8c7nD99NYyz0/R/sz777yP+eEH/4T5V/vcv48P72O+dI3n36bNDTBYPqUmWB8Vwfyb59w/qpLbfx5Mb68Ov8J8dPoK8zKoz9/48Y8xf+fuQ8yD8j4U7F6nOv0e5gfH/Hw++Ju/w/z0+RPMHw+5PnzztXcxL1e4/eZLvH9XTIP98Ybf78H+IeaTxOv/6QXnpy1u/0czXr9fPeV8ZZPXD+dT/n0/XcP84pSfz6Nf8Pj++Oke5ntX53z+IY/f/Ybv/+YNLoC2vsvj98027/9m3LzSINj/GSaeX1Zqvv/zPo9v2SHPr/MX/PxPg/3B5RWuf/td7r9ZMAFVcx5AxyNun9MJ19+TYP1xMubxs3t8H/NBMP/Nd3j/5vSM66vl1hbmZc3PPxofU8H156DD/WM8usD849/+AvPZkPdP6pz7l/8DWJIkSZIkSZIkSZIWhB+AJUmSJEmSJEmSJGlB+AFYkiRJkiRJkiRJkhaEH4AlSZIkSZIkSZIkaUH4AViSJEmSJEmSJEmSFoQfgCVJkiRJkiRJkiRpQfgBWJIkSZIkSZIkSZIWRNnqD/EP9p8+wXx2xr8vutcxv3v3JuYbS33MU6vB+GrE+eV4gvnR8yeYHw45Px1fYv76/duYd1s9zIteB/Nej38/vRxhPq6nmC9hmlKazTHeffEI85PDPcwvL68wr/j1p+H0lP+gM8B43ikxX+ny77df28Z8cOsa5qPjrzC/3G9j3t9cxrwo+PezjN/vcK/AfBK8n5QyTFtZC/OyDPI+/xuYeoxxmk25/bVmwfjU4f7VzdcxX655fCyWeHzLj7n99gfcw9ubPL70e/z+pkMef5qc29d8WPPva37/q6tdPn7J7b/dmmGe8+tNecHtow7+idak4ftrqqB9B/03Nfz+qsT9u0r8fvLEz69q+PjluMI8+idu8yJ4PsH4E+LbT9PE7T9N+PmcXfH4U875/mZB+5zNuX1MSs5bM35+TQraf83jVxU030g0/Ux7fII6mH8m7aD9Vly/1SU/vzrjF1glPn6W8/HLNs8Pg22u709f7GL+s5//HPM/+bN/g3lk5+4G5ptzzifzCz7BOcezgp9fr8P9Mxp9rmZ8AXu//SfM//4fPuDzT/n61t56F/Pv/+CfYf72Ww8xT4n73/Hjl5iXNT/BzuYK5k3QPx9svoH5p72PML8c8fg+Cd5vpOjy+yuKVczrjNevWcb1X6u3iXkwPKX1AT+f1WWuf7dXb/AJAnXOE3gd1F9VMP/Pg/V1E9QnKQtyvrxUD3kGbDLO8x7ns4r7XzEJxr9gfsqmvECr5kF9tMTz8/XbvD+Tgvr1+ee8Pj8f8v5ZZBqsL08vuf92XvH+S1nx/PX6976Becq5g7/93vcwf7z/E8xPz48wv32X18+tLr//6WWwvsg4z8pgfVrw+VOwPrwYcvsengUbGIHtt17H/N0H0fzNRsf7mA+D539Zc/+7c2MH82sbdzHv/Vuubz/5L3+J+e4pt88n+y8w36x5fzBb4vY1ecn1w6vdLzCv+zy/VnNenxUVv79hj+uvy3Penz0c8fi699HHmPd3+P46Xa5vhk2wP9rn8XNcc3272uL5b3XA57/9ze9jvvYer3+Wo/rlhN9vO9j/7wX7i9Wcx8dRMP5eX+X+M17lAmm4x/3z+OAA8/bKGubdaH8a05S6E77/ScnzbzPn+mN6xfXpqMPz07jD81Oa8fUVo+D74pwb6FVQnxXBCrvKgvm55vO/OuP57emnPD6lCbePa+9z/XRjlduf/wNYkiRJkiRJkiRJkhaEH4AlSZIkSZIkSZIkaUH4AViSJEmSJEmSJEmSFoQfgCVJkiRJkiRJkiRpQfgBWJIkSZIkSZIkSZIWhB+AJUmSJEmSJEmSJGlB+AFYkiRJkiRJkiRJkhZE+fTjT/EPqssJ5tc2bmH+zT/9I8y31pcw/93NMb2aNZh/8fQe5l/+9f/AvHp1jPmzFn+Dv3XrNubrrQHmp6trmF+NaszP9i8xX1sbYX7y2QeYf/HFrzF/cXiKeZVlmE/rDuZr6/x8Wp0W5mVTYn7j/gbmD++8h3ndDDF/+gW/v8tyjHm/z88nXfD7ry+5/VYFv5+65t/nGT//qsfPv9tdxrzo8u87FfffcTHDvGoqPn7QfmbpCvO8WMG8nPP4UPa6nDf8ftZW+fjtLv++XlvFPLX4+dQNt//8kvNWwfPDtCgwnwfHTznnZc39Y5Y4b4LxLwWXVwX/BKzO2/wHgSxNMS8Tv99Uc95k3L9mwfXPg/FpzM0jXSU+f78TvB/+eTob8vg7vuJ8xo8/ZR1+Pk0/eP5N0H5n3H/Ogwa4fcHzV36fjx+ZH/H4Pg/ef7EavN+M54ege6es6WHejhpQxjcwic7PcVq6zeP32bOXmL/86Cnm/3n4f2L+xz/6A8wjTTsYIBPXD3XQ/rM5d8DTS24fJ5MDzKfPvsL882f7/PtgfEl9nt+/8Z0fYv7Nb/D6KRoAH//mS8wnI27fo5rHt+VDHl+u3d/i398N1mcdXl/svniO+STq34FW4vFxsNnHfHPOed7m9c1gmfN8me9vucfXv9K6iXlr9f/ff+NeF0H9kvP4UBW8/xAdvprz7+fB+09lUJ8G/0cga/j8dbD+GQavp9vh/j2reX189Ir3Jx4G/TtlPP6ngzOMPw/ql+GI85Uu74+VXV4fz07OMT8ecv3z+CmPTzfv3sG8d20H8zTg+qHf4fknqn8nQf3Z4+EtNV3eHymmQf0c9O+6iPY/OJ+Oub44OHiM+XKLH8D9N7+OeWT0jNvP4T7XN48OuX5MiZ/v5TOef958m+uT5Q0eH177Me9vT//6J5h/9exzzGdBfTl9FNT3R59hHu0PrGy/hfn6gPvH9g4/317B49vFJe9/fV7w+Hc45fa39znvT5ctHj+u3+Xn09u4jvn6LW7f1Sk/3527X8N89W0en1froH4+4vltfMH78ynYn510+Plezfj456f8/JYG3H+vXXuA+WGHr//5Pq9f95/z+Lt5m8+/HOx/B9ufaRq831kezD9FUB+Wwf5GwfNTNQnyPo/veeL6YSnYX6rbQX2e8/kvrri+3HvK7z+/vMD83R/z/sa7b3wL84j/A1iSJEmSJEmSJEmSFoQfgCVJkiRJkiRJkiRpQfgBWJIkSZIkSZIkSZIWhB+AJUmSJEmSJEmSJGlB+AFYkiRJkiRJkiRJkhaEH4AlSZIkSZIkSZIkaUH4AViSJEmSJEmSJEmSFkSZjUb4B/dWb2P++//2zzAvoiu4OMP4ZDTHvNXOMF8adDEfFPz7bz64hflG+c8w/81P/grz+tUTzC+WlzDvrPATns0nmJ9PLzD/6X//a8xP9w4xr65OOc/XMb92cw3zSb6Fedni9zvoc95f4utb7fHv17a4/0xn3P+ev3yF+cn0Oeatdf43Hq1WC3PuPSnVq6uYj1OJeXPC9z/PghGk4vEhb674/BXff1O0MW8H40snuPws1Zi3gn+iM+1y/56eVZi3xzz+poaf76uKz1/N+PzFJf8+9bn/zwcN5usrPT58zf23y80zDfn0qan4/tM4OEDJ/acO+lee8/HLYIbOgn8jFh0/a7h/lVnwfFJw/JKvf2mH58/s8QDz48tnmM9PuP+WN3j8WN3exHxv/xzzLOP5e1YEz68O+mcVtM8J319R8vuftfqYtwoeX1eu7WCepjOM9188xpyvLqXuNp+/nwcTwDwY4Odjztvc/pqg/zVzfr9B+ZQ2Mv6D+Tdfx3zvl/x+Tk45/6v/+DeYb2zz+D/FNKXWEreAbrGM+bzh6x9fDDGvUzA+Bt0zldw/B13Ot2/w/Pu9730ruAC+/sefP8H88uQY87rg/pVn3H/GieubSVA/9Zd4/ti4dhPzva8eYX6yx/VrZOPGdcync25/aZnHl4vTYHyq+P11gvJzOuX323qd11etosMnCDrQ0S6vr4Lth7S+cQ3zMri+dnB9dc3tdzjmPMu4fuzUwfotD+avoP9F9d98ErS/Sx5f8zyojwuuv7JgfT++CgbgKtj/uLrk43f4+ruJ20+5FKxPZ3z904zHn/Mhv1+efaPZIaU6WD/1Sm7fzYDfX5Hz74vgCougvmuC5W3VDeqnYH9gfsnrg+D1p/XtbcxvbnCernj+mIy4fb149hXmoxm3r3rKFdx8zPnmV9x/tjvcgq+t8P7g02u8PzZ/yu3rq48/xnxlh8//4O5DzG9/+/cxD8rDtLW+gnkr2D+L/g8a986U7r1xB/Onv/gI88tXTzHvtPgKpse7mBfB/ti1YP1a9zb492/w883mPL9M6mD+Xub2vzTg/MaA2+d5w+3/7ItPMR+O+f7W+zy/r63z9W3f4v6b/pbr2xdXPD4Pj44wby3z9Q1zri+i/eWm4Pe/XvD9X9/i72N14vF772gf8/kp97/1TjD+lLw+C7bH0lXQPc4vgv25ig9w/903MH/39vt8AcH6YHLM7dP/ASxJkiRJkiRJkiRJC8IPwJIkSZIkSZIkSZK0IPwALEmSJEmSJEmSJEkLwg/AkiRJkiRJkiRJkrQg/AAsSZIkSZIkSZIkSQvCD8CSJEmSJEmSJEmStCD8ACxJkiRJkiRJkiRJC6LcWdrBP/iDP/9jPkIr+Ib8/EuMdw/OMB83JebtpRbny8uc93qYp5U+xnfu38N8PHsf89/+7G8xP336DPPR2gTzw0efYH62+xTzYYVx+uXFKeZrq9cxX91ex7yzdhPzzU4X8+1BG/P+rfuYrwxqzFtjjNN4+grz3SM+wN7zl5hn5RLm3S7ff5n4+WUrA/79OveflTbvKXUAACAASURBVCV+flWxgfn49BzzNLrEeDrLMG9WG87rDua91irmWc7jW1MF52/4/TVpivl88gLzyZjb3yi4vuPnX2A+HY0wTw2PXzz6p9TtcfuZXdvCfG1rG/ObA54/ioLnv0nD7b+seYBtVfwEponbd1kFecbtp8n4/rIZxqng209VK7i+4ABNMD8VM/792q1NzEe7F5g/fcTz98aNP8V8afsa5jd3TjDffcL9d1rw+JjV3P/qMff/Muf2UXS5/W6WPP/c/9a3MU9B+zp48QTzaXB/+QrXxytLPD+0cr7/cRXMj9Wcjz/n+rdb8PnnwfiUZdzBmorf33owPja/9x7mw4NDzFtX3H7HDb/fET/eNDrh++8WR5j3+PWkOqgv8iVef7S6XP/lQftOyzx+vPbGQ8y7Fdd/V8dc/1Qvef1wfsXjX14Ez2eV89Tw/BdNMN0uH78s+f3OMs4n+0PML0+4/S+t8/HXbz/APO9zB5meP8L8fJ/XP1fB+JROOF/aOMb8+ibXd6cvDzA/eP4c82zA9WXqrGFcJH4/qeL3W3W4f2dTrq+Kmn9fJ37/Tc3je57x+8trPv64Dib4jOvzmuNUTHh+CW2uYPxgld/vL3h5ls4PefycLvP8W82C9tEUfAHBCmyWggI8MDnj+adJPP5lS7z+y4L6o4r6xyRYfyR+frNgfdZp+P7mWVCfzrn/lHN+fzc3b2Ae3F6qg/Z1MQzqt36wv3vEC8yTIa9vmpx/v3vM+ytLFzy+L63w/uVKsH92dcL1zeUx399bd+9j/qM//3eYp6B9pmB/KSqgmymvn1MRrS/5/az3eX5tfetrmO8/5vF5eHmF+fiS76/O+P1229z/Hv4h12ep4PH/ap+/H5wEHbxTcH2/scTtezLl9zv8/JeYn5xwfVd0ef49m/H4cr/m+bU9uMW/f/ctzI9/wfd3Eaxf221+fq1g/6QJ9l/Kgvev7z/k71t1j39/FazfZ894fG43wfptjdtfsD2RmjnXL+MJj29VMH4Pgs+j1+98nf8g+P3kJe8//PqTj3+Xw0uSJEmSJEmSJEmS/lfhB2BJkiRJkiRJkiRJWhB+AJYkSZIkSZIkSZKkBeEHYEmSJEmSJEmSJElaEH4AliRJkiRJkiRJkqQF4QdgSZIkSZIkSZIkSVoQfgCWJEmSJEmSJEmSpAVRvv/73+C/yPsYz/YPMH91dsKHr4eYd9Iq5s14jvnxJV/f2cUV5ju372C+/vp9zFfXXsO8bn6O+RdfPMb81nW+/vaA39/D7/8B5vNmhvnKjN/PqD7DfFxdYD7Z+xTz49ZtzHe+vYl5nXP7m3DzTc+Pn2B+OuLfj6sJ5t1+F/P2Uhvz6QW/v/l8ivnw6BTzXo+fb95w/wxuL513S8ybE24/w6bGPDtdx7zg7pO6iW8gy7cw73cbzJf6nBc1v5/qnNvXaMYN9Hif++9sNsZ8eaWF+c03eP4pG76+6qSD+bg4xPxs7yXmJ4mf785Nfr/t5QLzTiv4N1hzfn4Tbt5ploL2n3H/KjPuv01w+XnG7bcOrn9e8AmajA9QF3x/K+s8f4x29zF/8tkXmD+89U3Ml+9fw/zG197GPE/c/l+cv8J8HozP7Ybnl2gA3wjym7f4/lPN89PRS34/jx99jHkTtI/lDZ7fOiX3z7rCODUt/oOsCvo/Hz61Mz5+0eP+UxUZn3/K41tR9TDfyfgOhteD9tFw+xhNuf7pDfn5zqP3F9UXOR+/6HL/2+wNMK96PD6eTo4xb434+ldyHl9Sh38/O+X67GweFMgVjz9FxtdXTfn6Lk+4/a1s8PNd2+ACcev6LcwHO5w/K/j5PP7p32J+949+H/OsFRS4Qx7/dpb5+sZXK3z8Dr+/lSUeP3ptvv79A67vdn/7K8yzJb6+bv8G5uu8vEh1wfXzeMoDUDD8pZQH9VPNec3De0o513dZUCBWGec8O6fUK/gC65z3J57sc330/gnvH3W372I+ePh1zK8d8wbDs8e8frm84vG96HD/GQT1Sz+oj27f5f2tyKvjLzEPlgdpsLSGebfm+adKPH7MgxYY5Snj+qmYcf+piqCD94L9hyrYPz3n+iIU7A8WJT/fbIfHz5WNYH39kvtPf53b/42VZcy760H9GegmPn9/k+fHasrt480ffuf/8zX9v0wvMT495P2PyRGPj4kvP53kXP+mguu/a71g/6fF7bs/2MZ8nnP/HR3x+Dsb8QOYTF9wPuHvDykYn+s2t7/pi13MLzOeHy6D+WO+x+P7k71zzJsq2J8IFtjDEdf3p0f8+2j5Wbd5/G1mQX0S7P8tLy9h3h9cx7wI9k+617h91Inr09Eh10+vXvL6oOny/DDYCebPgp9/xT9PdRHsTwYbLKNLnn/Kazx/7ezs8AmCCujVEdc30+D9+z+AJUmSJEmSJEmSJGlB+AFYkiRJkiRJkiRJkhaEH4AlSZIkSZIkSZIkaUH4AViSJEmSJEmSJEmSFoQfgCVJkiRJkiRJkiRpQfgBWJIkSZIkSZIkSZIWhB+AJUmSJEmSJEmSJGlBlGvbr+EfVMEBRmeHmOdNB/NuwflstcXnP7rC/Bdf/grzydkU8zvNK8zf2VnBPPrGPpseY356uof5yvom5j/+N/8a8+t9fv+ROl3yH/Dtpd2TzzD/8Bd/h/n54a8x/+8vtzF/+70a82lriHmaTjCuU4H58nof81ZnCfN2VmI+nfH7eXXG9zc9f4F5a5+vr7W+inm7x/1jM3j8p0s3+Q9Sg2mZ+PnlMz56K+f2s7aZ8fk73D6qeoz5+OAC84tXTzE/+oI7aL4ywPz7P/oO5jcevof5emcZ88is5v738U95fDm8+BTzZpnnn/EZn79T8O+nGzuYz2tuH1nN819W8gzelD3M0zz4N2JB+69qzuuC59+q4PufNty/8pz7f6vP99dZv4b55e5LzH/zyU8wf7f+E8w3H2xgfu1rPH9vnN7FPJ9x+0ltjus+999Wye+nSfz+H3/2BeavnnL/Ph/y/XWW7mHe2uT5YT7n9tUO+k+Rc/3bZNx/qyAfB923U/D1D4P5sWj491ni8S+r+QL7GbePJuPz94P2OelH4yvGqYnq+zYfoKiC8WvKx2/m3L6LERdQvXqOebnKA0CV8/WdXXEB1VTcfrNg/C87Qf17yfc/SVH93sU8BfX9OOP6beM6r0/Kgp/vh0dPML/6O25/1998HfNUcP2eLd3C/N5Dbt9L0fzR5t+fXfD6+OLJJ5hPg/VB6vL8u3mL129Zw+9vHtSvTTA+ZLNg/ODhN2WdoD7MeH2XB+NHlvH9pRTcX7AB1e3x+deC8esyGB8+/ZLb13vbXF/dvs71RXp7hHFv/SvMd3/7mI+f8/i0fZvHnz/43g/5+Hz4dHJ2hPnhF0/4AHOuj1a3uX/mwf5I3nD7nBXcfpqGx9egfE7Thh9gkfH6LE+cZyU/vyfPeP177xnvr5yc72N+esb7C02br68d7H+tPeB8eZn3L7rB8jdrBw08UCzx/W1G88u71zEfJB7/0vQU49Mj3j86eMHjz9WMB+iLabA/EUy/ZdA/joL1w/Ud7oG9Fo/fq60tzGcbfAP7nzzDfO8rHr/rGY9PWztvYX5+sIv5wQvev2hF+3M9vv888fg4W+b6qb44x3zUcPuup3z84TCoT4Z8/ePjM/55xfV/L5hflm6tYT4Y8P2VVzw+1A333/3nwf7LIY8fTcPrh6WtYP7ucP/Oo/p3FMzPHS6Qr6YnfPwu//7uDV4ftYPfpwm/n96A++f6ym3M/R/AkiRJkiRJkiRJkrQg/AAsSZIkSZIkSZIkSQvCD8CSJEmSJEmSJEmStCD8ACxJkiRJkiRJkiRJC8IPwJIkSZIkSZIkSZK0IPwALEmSJEmSJEmSJEkLwg/AkiRJkiRJkiRJkrQgytQPvgGPTzGezWvMryYVHz6NON+bYv7ZZ1/w7ycN5tOK739eZJjXsxbmk4svOX/Gx1/JtzD/kz//t5jf276JeUr8fmZn55i30oQPf2MH47dufBvz1eurmP/dX/wF5nsv9jB/8hjjdPPePcyLFb6+rXYH87IsMa8St9/UtDFudTcxHzTcf8/OzzC/OOL2vTJ4G/Nuv4t5b2ONj9++wrzVHWDe9JYwn7/i9l/2ME5lMec/mMwwri4OMX/yBeeHXzzCnFtfSn/4g+9ifu+Nb2DeaUf/xih4PkOOWxk/v298Zxvzp6fcP5/unmA+eX6E+WzlBuZlxv2vbPP43OTc//vBv/EKun9qovGnDo6f8fvNG26BdcPHz/nxpBZPr6mXFfz7N+9gvjfm9jc84/rl4w/+K+bdFw8wf3iHx8fW1gbmqcXX1wT13XTIv0/H3D+e7x/w8S+4/Y2ydcz7m9cwX17h/t80XN+loD6cVNxAy6AD1kH/zwvuHwU375TPgvFnzs+/aPj+s4yvP8uDAajm8zd1MIMFw1cneL7doL6aVNz+y5rvr0rB8YPn166DFxzISh6/ovm5FYy/edB/6mD+rrt8f9H8NEv8frKgAtpa4/rxasTr13zC+WqLC8jlPq8vqk6wvg3mt/3PPsU8tXh8XNri+qrbcPu5POf2MZxxA3v85GPMi2B4ycoVzHurvD5ZqrhALVPw/qpg/VZw/wiWjym4/XB8rILxJxie03zK80NUv6U2n6DDzTNdu3Yd8+Ehr5++fLSL+a3rvL+xcf8+5rff5PXx5iZf/5vvfB3z0ZDbz41eH/PWNrffFIyv+//wD5ifXvH1Ld3n/Ze1kuu/Zh7Ut7No/g7qr4x/385/t/3F2Yzb//mEx5/Ti5eYt4P5/b/+8ieYl52gfRxy/3n1/Cnmk6B9rS3z+Dxo8wC5vsPta/Mh7y/dvv0a5vkpz/+dgt9vt+T5YV7zADg75ud38OIJ5kcjbl/zV7z/W3eCBXiL65P5mNtnE+zv7wfr04073P7Wt3j9ffcW7w+cPuf9w6p6gvnB833My8EtzKfB/skseP5Ni/tPmXP91l/n/YmNYP/k6PIS8zTj9td0OV+6xvvj0fpnPB9jfvqK9zeqkt/Pk0+5Pt/scf1aJO5/5/Ng/ypYX4+7y5jvtIP9k2D+bILvc6nm4zc5jw/jiu9vGqyvuzn/vt8N7v93NK75+W3y8tX/ASxJkiRJkiRJkiRJi8IPwJIkSZIkSZIkSZK0IPwALEmSJEmSJEmSJEkLwg/AkiRJkiRJkiRJkrQg/AAsSZIkSZIkSZIkSQvCD8CSJEmSJEmSJEmStCD8ACxJkiRJkiRJkiRJC6KM/qAI8vNphfmrLz/FvJqcY74/GmI+nfcwb4oW5q31DuZLS/cw76Q25sefjPj8aYz5t3/8R5jf27mGeWT26AvMD04mfID5GcY31/Ywzx6+j/n1zdcx/96/+nPMf/of/m/Mq4sLzGcl94BBfx3zosY4cetMqQn+YF5z+8myPuaDZhXzqs03cHnE/fNy93PM+8UdzHsFX99qn/t/0ef31/QyzIcnM8wvxtw/JqdXmFfpEvNnByeYn3zyG8zzgsen77z/+5hv3+fxZXK6j/ms4PeThg3G9ZjHl8PnPL+8/v3vYH5v+z7mkxcHmH8x5vfTH3P7HTRrmJdpjnmduP1Ocv43Xk3i599p8QDUXPH1FQ0fvyj4+qtgACwb/n2eePwquHunflAh3Xv3IeZ7z7j9vDrkvDx9ivn50RPMN7r8/ot6CfNZmmKe5jx+vbgK3n8wv7XXH2C+HtRvK70VzJs5t5/5nBtI0+L6N8/5/iOd4AGNg/Zdz3j+mwf1SZYH408e9M/g/rOCn9+85vZb19xBW/x6U1EH80/w+ubBv6GNxp8s4/vPBkH/DZZw3cEy5meHGKdqxO8/ssPlR3rV5vGnlfELaFecD4P+vT0I6pPon0gPg/XphMen7oCvf2fzBublgI9/fHWM+WTM41vUP85evMB8f8zrk2HDz+9sn+urpgzeX83jU6/LHWCnw+v/YY/7d2/M68t+h+vDaH6povElaP/B8JMmDbeP6Pd5E4zf0Q5UKzh/we2/l/EJtjdvYl4Pef32m99+gPkbF7y/tfk2t6/uCr+/XovHh1hQfwf136f//i8w//nuV3z2wQbmN2/x/koWtP9qxnkr+n20/poH9VURrL8qPv6rE15fX77g/PjZl5i3S55/eyu8/7a1uYV5vb2D+eySB5Avdn+J+YtHPD9kBbff9S4/n1vHvL65Cgrolckp5qN2sL+4yfVblnh/b3/I+88XI56fx8c8/qWg/WYznn+zYH+iLnl8b5qgfg7qz6tg/2nllOun7up9zN949y7mh085b29y/7y+wf1vcJfXz4+ec/ufzoP1RTA/j+fB+Fdy/+wE+9Pzhvvf7du8v7y5HdSP/PjT6SX3r+DrSWq3ef9vHvTvV8OgAAvmryzj+b/o8v7JdtB/i1Ywf9bB/kswf0cfKPPg+1wdvaE2r0/KPNhgqII82F/4/HgX88vdR5ivDvj4/g9gSZIkSZIkSZIkSVoQfgCWJEmSJEmSJEmSpAXhB2BJkiRJkiRJkiRJWhB+AJYkSZIkSZIkSZKkBeEHYEmSJEmSJEmSJElaEH4AliRJkiRJkiRJkqQF4QdgSZIkSZIkSZIkSVoQZfgXk3OMP/roHzAfXo35ApqaT89xmpR8C/1uhvlyd4D5w6+/jnk+bGG+e/gJ/757hfnrt97APPHtpXT4EuPHz/n844sjzC/mU8xfnF9gfg/TlHYevo/53Vv8fk7e/THmH378K8wvX/H1bwy4fRedLuatVoF5U3AHmGbc/vNmhnnWbmPeqTb59zf7mI8u+PkNz3h8meXcPk8bjFPrhJ9vMeLnc5Vz+65rfj/1dI55NRpifnn+DPMsaB/f+tY3MH/jX/wI88npPub7zw4wnzUV5mWX28/hV08wf/zh55gfJX7/3//hH2K+ce0O5s3jF5i/vDzDPB3w/Zdpgvl4OuLj1zw+DFvcgVrdFcz7Bf8bsqWcx5e8w++nyrj9ZDOeAPPE83M0f2bB84kOsHP7GuadDa4/xlc8/qSC89NZcP38eFOVBw+ozc93pdfDvNjYwLzf4/bTLXn8yxLf/yzIo38iWcz5/HnGz69u+AR18H7ymo8/b/j9jIP7z2c8PxY9Hp+KxPNfFtQvVZvzOrj+Zsq/L4MH3KSgfgrWJ2XD91+WfP551sG8jhpoZwvjqubjPw/m9wfvBA9gmfvvzhLPLxd5ML/NeHxZbfH4kg94fp6/3MV8VHH/K3s8vlclX/98idtHscrta6m7jHl2Fcw/w0vMnx+dYp7mPD6kYHxYX7/FP1/j59fucD6d8vOdTE4wv3jG9/dsyvXh/ddew3yws4R5HYzv6Xec35pgfyYFeZUF66+gfsiC+iqb8PFTUB+s3+b2Ndzn/j8Zcvv5xUdf8fl3n2LetHj/YLXm+i/PuP0P23z9ux/w9Ue9u1jfwfz1h7y+2mjx+JQ3vH9QZVH74vaTtaICkPP5nPO9r/j5Tk94/uXVY0pf/9GfYb6zehPz9S63v+01nr97m+uYH7x2A/Mfnv0rzJ/u/hbzR1/x/mcrWN9t3ryP+fkFzw9fHnN9Uc54/utl/IaXr3F9c3K8h3lWcv9qCp7fq2B8zjvc/zq9oP20+PhVxc+vCZ7vrOb9t4v5KubbQz5+0eH5e3Wb+9fBHvf/zre5vl6+xvX/17f5/naf8/5fPuP5oxrx+HzeDsaXr/P1DTb5/u5d5/k9KE/SdPQK80e/+ADzVofHtwf3HmBe9rn/BNNL6gX3F9WHVbD/UEbzZ87ryxTsn9Q1968U7H+0yuABBPvnTbA/PW1zfXVwzNffDb6vDY+4/1285N8fjvn8/g9gSZIkSZIkSZIkSVoQfgCWJEmSJEmSJEmSpAXhB2BJkiRJkiRJkiRJWhB+AJYkSZIkSZIkSZKkBeEHYEmSJEmSJEmSJElaEH4AliRJkiRJkiRJkqQF4QdgSZIkSZIkSZIkSVoQZfQHj17uYz6edzHPg0/M0RfobK3Df1DwEdbbq5i//8fvY95vLWP+8uoY8yeff4H52toO5mmrzXlqMD0ejTCfVKeY70+HmM+nFeZZXfD5nzzn329uYb69dRvzb373PuYvn36C+eWrl5iPb97EfLm/jnnKaoxn1QTzYsbPtwyO32R8/F7JQ0Q/G3C+wtd3Ppli3gyD9jvh6x8HI0yn4OtLRYZxi+OUd/uYXw57mG9v8vi6sc7jx72H72Lez1uYX834Bg/ODjHv9rl95DWf/+hkD/PhZI75NHi9qb0U5Ny+5pMZ5pPqBPMn06D9nvP408z5/XQTP4DZnM/fBL/v9zcx33rnDubrJc/PWYfvLy+C8XPO7aPs8PzaTTy/lTXPv9H4sbrD99+r+f7mY34/TeL7X6o4z9o8fk4T999BUJ/NgvF5Ugb3N+L3M2l4fin58lMTvN46qL/KnN9/nfj9jit+PlXGx+8VPD41Kbi+hp9/EbSfKhh/qzG/v9Ti55sV/AKj9xc83pQqvr6mCa4/6H9NUD8E3T+lLtcH7X5Qf7fXMD8+DtYHX/H8tLXGx9/cuY55FdR/o/oC8yJ4wM2M28+T6RUfP+P1aavF9XPVCtpXtPwLxo92L5jf5txBnr84wnzWjDGPyuu3734D85VbvP7urgXrq0ARzJ9Pjnl9f/zkA8yvHnH9+skvf4X5g2/w81lauYZ56nH7qtvcfop5sEWUB+N/8POs4PbXmvAAHQzvqdMJ1n8zvsD2dR6fhuc8/tTB+HVwwO3jcsLvpxOsf1NQ/w6zqH7dxnj7Xe5/D3Z4fdBOXP+mxPXLNOf6rgjGx2lUoAT1VdB8094e758ePf+QTz/i9vvWd3+E+Zvf/y7mzZSf73zvGebHY86XH3F90N3g9rPy4C7mOw/+OebfwzSlx1/+E+bH52eYP/r8KeYvP+XxfXv7FubL6xuYD9o8fhUD3l86CNb3ecHHnwb1c9nj8w+6QX2UBeu/ivv3eR3s3/HwmLJgfTMqeQDor3P9Msz5/o5fcv3565/+EvM//Xc8f3WXVjB/+Bbnl6fnmDcT3p+8HuyvtDZ4/ukG6/dIPeL69m/+j//EBwjmjwfffIj58hq3/1bwie6q5vG7zLiD5sH8lvJoAyTIo+8PQf2ZB/23rPn+yoL771XwfIoON7Ciw+NbXnD7Lib8/Lrr/H3prMPf54YVtw//B7AkSZIkSZIkSZIkLQg/AEuSJEmSJEmSJEnSgvADsCRJkiRJkiRJkiQtCD8AS5IkSZIkSZIkSdKC8AOwJEmSJEmSJEmSJC0IPwBLkiRJkiRJkiRJ0oLwA7AkSZIkSZIkSZIkLYgyTaf4Bw/e/Cbmk/kA89PjCebtpsa8bM8xb/X7mN978w7mg94q5ik1mH74V/8B81HD17+xxde/1GlhnoLjN80Y81eJ308aX2Fc8a9TmvH1nU8LzD//4HPMt398k88/2ML4ra/dxvyXv36M+dXec8w3V3Ywr7PoCXL7K1KGeRb8G4+64f6fVXz+qmhjnooexmt9vr5pi/vHYDbCvAkeb9Hw82v49lPZ4+uL/oVN6+wU88umi/n28gbmbb690PCS+38z5HxezIIT8P1XF/x+iy6/oLWlNT5/4PJ4iPns/JJ/3/DzKXrLmG8u38d89Sb/vh30v1QF88PLF5gPZxeYH3z5Ceaj1XXMr9++h3lRlpiXQQcs5nz/TTA+1BnnPLul1Jpx+22nDuZ5cH/joP8XLR7/ZznXH61gfko113etjH8/H/H1VTN+AJ0BH7+V8wSRj/n305zvb17y+J0S10ft4PlFDaBTcAPoZ/z7q+D9Z8EEmaXg+oP6pZxyPi+CCT54Pq2Ge2gz5/ubBe03tYLrD95/EVxfVF/3S67PNm7w+Hv01UvMn378j5hv/eCPMe9sb2N+p+L5/8NdzlvTcz7/mNvHcTD+pDHPH53uJuary7x+Xiq5/eQ1t49Jxf3v5as9zMtgfbixdQvzr997E/OtzWB9G5gH9UfdcPsftJcw37zO68ejm7+P+csHvD58/De/xvzgEa8/q3d4fllu8f0VbW7/s6D91XOuv1Kwv5NNovUvrx/yittPHnTfLKrfgvmxfY33j1au+P1UOyuYjy+D+SWYP6ugvkk1H7/c4PbfC+a3VlCfZhX/wTDI65zHv14T1EdB/ToO2vfVFY//+199jHkK6ouvffsPMX/vh9/l4wcmh19g/vjFE8wPPuP1YVT9rS/x822tc/u7/uAdzK9d5/51f8Dz7/Hup5i/ePIh5qdXXJ91V4P1T9A/I90B13fby7w/cP6Kjx/tn0Xr23m0QRWMv+cT7n+zYH24Eu2PBOuf/oD3X2bB/NVt8fl7G1w/ns65/v3Jf/wLzG++w/srN+9wXgXrnyJY30TVX3nA93cWfN84OOD9uY9++xvMZ12eX1be4PG3v831ZxW07/k82J8I8jLn95MX/Abmwf5GtP1TBN8XUjB/pyz4vhCcf55z+8uD/ZFr0f7Hzg3Mqyve/60PjzHfXOX96+63uX8uP+fj+z+AJUmSJEmSJEmSJGlB+AFYkiRJkiRJkiRJkhaEH4AlSZIkSZIkSZIkaUH4AViSJEmSJEmSJEmSFoQfgCVJkiRJkiRJkiRpQfgBWJIkSZIkSZIkSZIWhB+AJUmSJEmSJEmSJGlBlJ9/9Cv8gze+8W3M3/n6u7/TBYxOK/6D4BN1b6X4nc6fmhHGH/xf/wnz4fkU80Gbb+BaOcC8g2lKqeG4ngTP9+IS4/OGf1+kOebljE/fTGrMp3tHmO8+e4b57Tt3MB9scJ51nmN+FdzfrLrCvBs08GzOL7go+fxFxvms4v6TV/x+65ofQF7yBXSC/t1ptzCfdjgvE7ffPOgf3LtTCh5/KhI/36MWH6EMznA1ecIXkN/mPNCObjBx/z15dMq/rs4xH51w+1pZ6WOeMm4fVTB+XQX5wfkLzIu1Fcx/8J1/gfm9hzuY99pdzFPOHWzCv45e2lNtswAAIABJREFUb3r1jMfHf/zNX2J+9HSPT1Dx9d+5z+N3ngczaDB/zoLnNwzmx2D6T+02X1894Quss2B+CM5fB/ND0XD7LzIe3+rg+dcNDzB5xvVJ0+X7z4P5NWjeKQueH48uKVXB/FOPgvlpHtS3HX6BdVRf5Hz8ogmeUBA30QMs+P1ls+AEQT5v8wyez4Pxs46u/3erP6IBqJ4HE3DQfpZLPv587R7mJ094fvt49zPM75++ifn17YeYp8TvZ607xnx3l69/aYnro2LM9cVkEtT3y/x++kGBPg/mn2iBfHnJ4+fxwS7mSys3MH/nG9/HfGeF31825PrwZP8x5ntXF5j38+D59rm+Wr19H/OdlVXO169h3u3y+v+zv/oZ5i8+/Bzz1771Hubryz3M6yaYf4L1aTuYIOYZv588qC9awfEnQZ61Oc87fH9lHozvNdf/kUFQYOQlX3+d8/st5jw/VsXv9v7SlNdv42h+zPj8ZdA+qygv+PqqYH/n5d4h5uODV5g//MYPMX/vD7/HFxAYffkB5s+ePMX8xR7vj6YWj+/NnN/v8TGvQNvTE8yr4hHmrWwb85U1Hv+vbXN91Ov+E+bDpWXMyzKoL15+ifnFG+9jvhxssK3e4PtbPeP59TzYPy6iBcJ4iHE2DdafFY9fxSzY3wza7+oKz88tHl7T5Tn3n2h7bXmVz18MuH2dTHl8Ov8lt98vf/sp5tc2tjAvM35ArZzn1+HsAPOD59w+z6bcPmbB/uDW2zz+bl5bwny54fmxCTZgqsR5K1g/58H8WQf7a/OG83Zw/jIPxrfg+8E02h8INuhb8+D7Q/B9ogi+L9wI6t+9Do+PT0/4+9VrJfefrXWev9be4PHD/wEsSZIkSZIkSZIkSQvCD8CSJEmSJEmSJEmStCD8ACxJkiRJkiRJkiRJC8IPwJIkSZIkSZIkSZK0IPwALEmSJEmSJEmSJEkLwg/AkiRJkiRJkiRJkrQg/AAsSZIkSZIkSZIkSQuiPDo7wj+4+Nl/w/zGjduYb2+/jXmrg3EappeYz17x7y+PDzHf/emXmI/58Gn5+l3M28Mh5uf1iE8wCq5gc5vz1MV0mFqYz4MnUDcZ5q1UY14E/wRhkvMfVMNLPkDN50+Jr7/d4vPPCj7+JDh7UQV/EFx+nfMfzOd8f/OsjXmry+2nPZpi3sz5+urg/aZijnHOzTdVTYn5qMUvIOfbS1nQgKt0hvnlNOj/4yuMn7z4BPOVuw8xX08Nnz/NMP380wPMp8cnmM9bPD6udbYwL9Y3MH9tm++fW1dKp49+jnm3x/3nx9/7V5g/+Np1voCG38/wZA/zvODDR/NDd2MF81uv3eT89v+O+U//8j9gfjrl/rV/yu3r+mof86LL7y/l/Pzzmq8vy/gFNBkff1bwAJTVPL6nYHwtU49/Pw3G7+D6m3YwwQXDT5bz+F0EE+S4Cp5Pw+8nmp9bGY8g8ynnRcHnnwb1VRVcXxk8nyoYX7LgBVUZv59o/CrCBsD3nxVR+2B5yfPbPKgfovo3mwb1V3D8Kqg/m8QNoBvUXxtdPv7O69/E/OWTn2H+k//5N5h/fxrU70H9sfvsKebjcfD+EtcfxQbPD+WMx8/eYID5PHy/bFrz+HKyt8/nD8aP7Xu8fl8Pps/J+Snme08/xvzgjOvf4QW3j27wfItrXJ/PLvn6lzvcvnodfkBvvfYW5qMfcP/49GcfYH50cIz50hrXn61ggmkF02swvaVOMD9NS+4B4yqoP6IGXgS/r/gG6nN+AGXQP7KM22ed8/7LNNh/aDp8ffmc729+FuQtHn/aDV9fHuxPNN1gfg3m36Lh9z9v8/VPa24fZ2eP+Pg8PKUH336f/yAwOuL92yfPvsD8q0Mev/J+sEEb1F/VONhAaXP7z7dvYL60xevTLOf90abH68OVB9/A/J0HH2H+wSNen1bB/tWXB1yfLP3jTzFf/t4PMV/ZXMP8xlu8f9J6yfXF8Izvv4k2OMf8gAYZ5/11rr/62+uYX38Q7a9z+z7f/Qrzq8T9p3+N91c2dzYxb+b3MY++j1QzHh/3xpw3wfg6roL5YxaM/2t8/2sl1+ftm1z/bGwsY94K9n+qoHlH81cezN+p4fY/nvIXiHmwvx6tr4dB/82nPP82eTB/5/z7rBc8/2B7og72f/I6qP/aPD/2cm6f2SWP7wfHPL5ejLjAKLrc/v0fwJIkSZIkSZIkSZK0IPwALEmSJEmSJEmSJEkLwg/AkiRJkiRJkiRJkrQg/AAsSZIkSZIkSZIkSQvCD8CSJEmSJEmSJEmStCD8ACxJkiRJkiRJkiRJC8IPwJIkSZIkSZIkSZK0IMpXV/wH7dMzzA+evMR8q/sB5p37K5hfHfMFjk9GmJ+dzzAvUg/z7kYf83ywinl/fQ3zk70jzPcvTjG/n+5gvr21jnnx5RLmg3yC+azh51vXGeddjFOr1eE/mBacN5zPq4Z/Puf7bzp8A3lnznnRxrzO+d9ozMd8/Lrh3xdlyb8PHn/G3SMlbh6p5sef5mNuP3niA5QlP59W4uMHjy/ViY8/vJzy8fd5fPzsyZfB8Y8xf/nhLuZ3tl7HfPeTZ5inds351k2Ml9vcv772zd/D/OEdvv7Ip//pv2E+veTx+3vf+HPMb2zy+JtG5xjvPTvB/OTsEPOVTgvzfsYd/PQFz4/rN/n5dDauYf7df/2/Yf7T//xXmB883cd86Y0B5uutLcyrCuOUt4MBrOYBpJoG42/G41Or5P6Tt/gG8kn0bwCD+SeYfrOGz18mzusseH45P/98xvk8GL6KFv/BjF9PaoLrL3Ke/6PzN0H9Ugfzb6fi66uD91sHE3ge/D7MS24fVeL6qx28n6zh5zsO5veg/Ej9oP+nOd/fPDhBnvP4XQUNoM75Ae1c5wJvPH8H8+Fzrl9+/ttfY96vuIF0E/efZm0T89Tl99MOXl+vx/Nf3guuLxhfs4bb3/yS18fTK64/V5dvY/76Tb7+jKev9PzFI8zPTi8wPz4M5rdggVG2+PpfBeur28H7uRzx9aeXvD/Ru8/P/8HNW5i/usX962zG9dHViOvTpT6/4KYK8iyYv4J8Fs1vwfgeTK9pHozfRXCCVsb1dVBepKC8S3UZ3H80gQbTV1QgtHKen5ro+oMbbC/x+iIVPL8V8yHmVc3jRxY0kNGM9z9nY34+mw95fhz0ggcY1MdHJ7x/+CQYP6ugffVXuH3Pg/qyGvMfZInf73Iwv3TqoIOPefwtLnh9uLIVXN+ttzBf/epnmE+C+w/Kn/Tho48xz1f4+bz+zrcxv765g/nKGu/fXx5w/zkZcv1SB+VbP6hfl9d4fbAS7M+nnH9/8OwLzD//lPfP8pLfz80HvH/SCvaPi4r7X3/5BuaTYP6dTHiCmQUz4KAaY54S1ye9Pr+fos0DyFZUwAYTaHT1TTTBB/VTPeXnP82C7wvB+cseH7+aBRtgwfqkKIL6Ifj+lkX7+3lQfwbtbzoL6s/g/uqM+1ee8/q5s8b99/yUx8ezoxeYFx1ev/g/gCVJkiRJkiRJkiRpQfgBWJIkSZIkSZIkSZIWhB+AJUmSJEmSJEmSJGlB+AFYkiRJkiRJkiRJkhaEH4AlSZIkSZIkSZIkaUH4AViSJEmSJEmSJEmSFoQfgCVJkiRJkiRJkiRpQZQ3rt/HPxgFB7h69Qzzi6rE/GSfjz86eon5cZVhXhT8jXup5LybtTFP01OM59U55q9G/AB+9jf/E/ObN9/BvN3dxPxH9x9i/j8+usC8nl9h3sz5+TZdbh/tgvPBvdcxTwXHs4qvf17zAZa3VjBfqfj8WaqD8/PvU9Xw7xvOWxnnsxE/nyrn95Nl3D+rOZ+/ie6/5uNnNR+/zDmvEr/A3afcv9PoBcbtDe6fb9x4DfPZiJ//tR3uf3uf/RbzjeU+5l///p/y7/stzG/dvI15d6WLeeTv/+O/x/zjn/4C8/vf/JeYb792E/NhmmL+8rM9zC+veH5JwfGPM26/T2fcweoJn//2jNv/jTH3z87NoP1/6w3Mz//qGPPxeTB+rfD5W0H90ATjV/D4U17w8+8E42c4Pk6D8TFxnjo8/2U532AQp9QEx0+/2/jdBC+gVQfzV4vHrzrj/lcG82/2O/4bzKw1w7yT8/V3E9//cc0NrKn5/lt10H/a0fzL95fP+PrzoHnnQf2TDYIDBP0nOw/eb87Pt8qDArbh9j0Pfh51/2D4S3fv8fh53uP107g54hME518utvgPgv7byXuYF0EDyqP3H9xAsHxNWc3vd3rB828zHmN+6xqvXwaD65hfTQ4xnw3nnAfPL2/z73vB+unOnbt8/OVVzIfDIeavfv7r4Pf8/n80XsJ8ZZXb50b3GuazEV//POf6qC65fdTBAjVav5ZBB8iz4ABFsL4M1qdNUF9kicePVjA+ROvbuuT+mYrg+oL5rwwmgCyYH6pswjk3r7BAnfDtpW70fgoeH7Nwf2KAeV2d8e8TP5/lHrePdtB+U7D/UJ/x+qesgudT8fvJppzPZnz8aszvbyV4//1Vrh9a0fNr+P1MS64vu8Hw05ty/VsH65v+KtdPN27dwfx4/wvM/+mTR5hPz3j/4fab72HeL/n6O2s8f2ys8+959zmlzoz3J6L91ZMD7j9XkwPMv/rkCZ8/+L5w+w7vf+U577+1ggm2Sdx/2m1uv52gPmtKPn40fTdFB/NJxf03D55vtH8TDG8pBfN3WfD+ZBOs76IFQBPs72c8vaWixfcfLL/TtIr2Z4LjRwu4YH9rkrj+b6ogD/Yfovon2l+qo+8PQf3SCi5gZZ3717C/jPk8WH/5P4AlSZIkSZIkSZIkaUH4AViSJEmSJEmSJEmSFoQfgCVJkiRJkiRJkiRpQfgBWJIkSZIkSZIkSZIWhB+AJUmSJEmSJEmSJGlB+AFYkiRJkiRJkiRJkhaEH4AlSZIkSZIkSZIkaUGUSx3+BtwpCs4Hb2A+vJxjXlyOOO8fY94azjBfLvj+tnduYb6yOfh/2reTH8uyxK7j59zpDREvpowp58oaqGp3VasNst2AbdoyRkgIyxIsvOO/YscKWDTIYmGDMG0jWRaubqsH3FXuobKrMysrMzIzImOON93p8B/8foteoH76fra/uO+de+6Z7wuZh17XT9ZUMn91diHz44snMv/b//4nMv/Gv/ojmY/fuS/zD+te5l+8+rHMrxZJ5lmhn8+7H35F5rujKPMmdDI/fflK5qHUn78VR/p68xuLvtPli7X+9BgKmSfdPEPXLUyuy5/lun7yTBegiLr/ZpUeP2IsZR46XT9tWsr85HQm8/nx38t8vLUl86/+xr+QeTWeyLxvdP00T1/I/Pz6sczHt/Zl/pXtTZmnkSlfdyrz0+/r8r+50df/n48/kfm6Gb/XH+r+OVkfyvzs+ETmi5tzmcdqLHPXv4IbHzo9/3aNnp9evdDlX6sGMt/Z2ZZ5bsq/u6mvb3sz/mZ6fitzPX+lWo8/5utDnun+EYKeAKIufvC/8dPlb4Ien8NCF6CO+vlVpv3mnb7/pB9PSKZ+MvOAMj09hJhM/4qmfw7M84+6fLm7wU7nKdPjW5b08+9M8dtS339r1pex0fWb6Ti0uVlfZbp9rQU9fvVmfdGb+S82Zv8l0xCSaR8h0+uz0OoO1Jem/szH7+/uyHyR7ck8y00HDLp+y16vz/NO78/q3ox/ra6AODPlM9vL1qy/b5a6/wyCnt8H411dANMAq6Cf3874WObR7B+q8W2Z39k70PkHhzKfnun1y08//huZf/7sucyLYkPmj290/TzcfyjzjfG6zE+v9PMPensTwkD3f9f/YtDr46JwG1Td/ptGj19Vr9uXWT6EQhffnl8Es790BSiiLkBvxvdpq5/PvNbP9/pM719S0g2ombsGZtbPa3qA1LujELa3df8fLfUAl5nzy0Gp5/+JaT9mexSa5Y3MO3O+1UTd/qK5vp/p84vM7C8a072L+/p8Y3Ninn/S7b8odAcbDswDyPX4WYepzGOp6//Wmm4g9yZ6fB+NP5D5i9dfyPzohT5fv37xVzIv7+j5/+7hWzLPNvT9xUKv3+aNfj4nR/r+FjdHMj86vZJ5lev2c2v3nsyzkV4flJ05fwhmfyfTEMrW7L8LMz4EvX5OA7O/KNz6XfeP0qx/k3l/VUdXQ3p8Kd35jtmeu/OnaNZXmXn+7vysWur7y8z84N4PBLO/7836LIzd+krvz0qzPx6Y+asz53OtO1/r9flCY/pPGfT8Nxnq9VNt1u/8BzAAAAAAAAAAAAAArAheAAMAAAAAAAAAAADAiuAFMAAAAAAAAAAAAACsCF4AAwAAAAAAAAAAAMCK4AUwAAAAAAAAAAAAAKwIXgADAAAAAAAAAAAAwIrgBTAAAAAAAAAAAAAArIiijZ38g5TnMh9kvcwvzSvm9uQzmef648PX3nlX5pt3DmV+rxrKvA26fhahkPn92/dkfnDwtsz/7u//VObHNxcy/+TbfybzD37nD2S+/WBf5uP9kcybZq6vX9+Q+Vqpn09YLGR89PhTnb98KfP10Z7Mhwe6flqZhlCEpcxTpdtf3+v7H5v22aRK5p0ZH/ToEELWJ/0HpS5fH6P5Ap0Pep33jf74xc1zmcdSX//B2x/J/M7tHf0BjS5gu5jJ/HpDP7/x+KHMp+OBzI9PzmS+OJ/K/POP/4fMX69t688v9AMYbGzJfHtPt+CHd/XzW1vX419Kt2TeV/r7q6Drf3p+rvNat4/FvJZ5fa4n8N7M75cXevzfvNbtYxjXZZ4yM35kun6T61+9/vw21+N3NOunkHQFZr0ZYDpdfjN8h2Wlx+c+6QVYZob3Itf3l8wH9J2uv5mZgbKBLv/AjP8p6PLVra7gLNcrgNIsEMz0FdLCzG/B5Hr4CnmuK6hPun90ZnxIpX5+0VRANO0vtvoPopk/YtLla1r9APtej6+5eT4x6u/PMzf/6PE3mO/PzPMNnb5/d3lRmAEqmfHPrA9jrus/dWaDaeYPO8Ca/WOem/W5nv5DafpPn62ZDzAPyChN+Xbfe0fm4zd6fOnM+D4odP+evn4j859+/69l/vzZlzJvzfixe/+RzHfu6v67NONzMOOz26CloPd/oTbzqxt/zfonFmb8KXT/jLW+3q0v3H9AFL2unxh1+QqzPg1mfI9TfX9HU73/ml/q86H+TM8P88yM72Z9Vbn5wZyQTJe6fNNWt//Tly9kvrmp94f1XH//7Pxa5stdM7+Y+y9zvf8dTsz5WK7P10Kn58dgPj7VZn011v1nNDTnfxN9vpZlY5mPzfgchhMZL3u9P/3ye49lnuX6+ycbd2VupvdwK5r9+aGef9JC3//iVN//m2u9/30+/4XMN6NZQLjjv0xfnwZ6/VUP9PoobuoOsDXQ53fVli5fNO9PUm/mv17fXzQbpNa1H7OB68z5Rb80+3uZhpCZBUwqTJ6b9YUpQTIHxEvzfiM35x/ufCRLuvy1OR9JJjfNL6RMv19IZv3SBz3+9Wb9kNz5UaH7V2HOb1q3f291+czxYCjM+wm3AG3N+UfZuvMR07701wMAAAAAAAAAAAAAflXwAhgAAAAAAAAAAAAAVgQvgAEAAAAAAAAAAABgRfACGAAAAAAAAAAAAABWBC+AAQAAAAAAAAAAAGBF8AIYAAAAAAAAAAAAAFYEL4ABAAAAAAAAAAAAYEUURVHIP2hSkvn1tJb59BdHugRnxzJ++/2vyfzwo6/LfK/T5eun1zKfLl/LfDaXcdjZn8j8vXfXZb628c9l/tNPP5b5s8tTmZ/82bdk/o3f+wOZb739lsx/aa+nMv78i09k/ovHP9GfX41lvPHB2/ryXPeP1EWZt/1A5n3Wy3wQWpnHpH/jkZvy57n+/tL9hiTqz2+DzkOm6y8r9Pc3XSfz4+mZzBeLUua3dt6R+c6jPZk7y3M9Pr46eiXz9VLXTzbW49NoNJR5uqf7z/M3JzK/HG7KvBuuyXwy0d8/3Nfz27vb+zLf2NL9M0TdP9bKSubzsb7/QdTPrw1LmZ8+1e27bXX/aArd/rPKjH9meEiNvj7muv/nlZ7fF1muczd+6q8PoXXjq768D/oLmk6336w347dpn61+vKEPuv2Wpv5C1O0rmfG7D/r+81bXX8p1+ZamfRbm/jIzPBSmfaS6kfnUPV8z/7r5u+5N/ypNBxjr3Dz+EM36IwzM59emf3S6gedJP9+FWb8Esz5rdBw69/m5bh9ZOJd5MdADUGvmp/5GxiFN9fMpRvp6V3/B9O9o1o+tqd9kxsfQ6/bRmQkiDsz83el8GfXzb4e6fLX5/strvf8NnWkAwYzv4VLmo3Vdvu5Ub7CnJ29k/smn35X52bXuH2+CXv9ubej1895b+vq1yYHMQ7qS8WUyzy/o+xsUuv8XSY+v7n8IzPAfklkgpqQ/wf0HQ1/o+3fDb5/0+jKY9UkWzQLQFODljd4/TY+fyHx5o+tvPZj2e/cfyLwe6Ps/HOn2FYZ6/L3o9f5mdvRc5qeXOm9P9PnYWb3QeavHx2fHen/+0aW+/51tPb/sbujzh4PxlzI/H5j9fW7WlzINITfjS17qBcLS9PDNkW6/YV2v/zrT/7/zX/6jzN+YAW649RWdH+r+Y5anIZjly3amP7/YvC/z6x09/2YXun82Zv5v9PFuMNsf+wCHvb7/iTnfGo/0+XyIZgPtzlcHbobUUm3mT7f/MPvv1OryV+b8Is/09YXZfzbufNisb13/iJ3+g85UYOtWIGb9VJnzlc6dr5gBIprnU7vzKdN/XP3Z9m3Op93zc+P33BxfRDO/9ab4TaOvj2Z/mJv2ncWZvt6snyu3PpUpAAAAAAAAAAAAAOBXBi+AAQAAAAAAAAAAAGBF8AIYAAAAAAAAAAAAAFYEL4ABAAAAAAAAAAAAYEXwAhgAAAAAAAAAAAAAVgQvgAEAAAAAAAAAAABgRfACGAAAAAAAAAAAAABWRFGFJP8gNUuZz85rc/25zLe2dmR++7c+kvkoXct8enwj89fnz2W+uLiS+bzX9ffqfE3m791dl/nGYEPmX/von8n88U/+RuZHnz+V+bf+w7+X+Ue//Xsy37m9K/PwWrev01zX7/RiKvO20N9f3dL1Pz25kHlf6e9PcxmHflrIfLSxKfPhlrm+0r/xyCoZh2FnfiPSdDqPuYzHuS5/kzUyL5Iu37LX41NzZj7flO/wcCLzYbkt8+XVpcxfvXoq8y+PdflDFmW8t6bb78ZQl3/30SOd/+Y3ZT4ZtTJ/8uWJzPNC398o1+1jONTjSzDVm7Je5nPTPa5PXsr81VzPX2cXuvz9tS5fNdD9sxro9j/OFjIfmvGlvKPb19XRz2V+c6H7d3/LjD+job4+6PrLGl3/0bSfYMav2On2nUp9f12vG+Cw1QWcF/r+U9Dl60z3CplpX2Z92kT9/Ds9vIRg+m8w91/0Zn40409T6/ZXmo/PTPmqZO7PPKAmlDJPYaw/3xg0eoGUufZj2l9m5u9g2lfW6waUJV0/7ie2nZmfo45D3un+3y91+frO9O/WPABz+22u/6Aw68fUm/Zrxs8smf1tNOOvuT4GXf+ZGR+KVj/ghangYaX3B4tM718vOp1/8Vjvj/PFqcxP3uj889d6fRdM953Xuv7yRtdftrUn8/1cj28P3tH5vdv/UOZufDibHsn86KlZf5n7q0wBTPMPSzNAF7p7hGjOTwqzfmrN+DGv9f6mT7r99Es9/kcz/hWb+nwrLvXzm890/zPL63Dv0Vsy/+i3/7H5BCOZB7zU67Mw088n9LoBXOzr85200P3v/Ebvv55/9wcyP7vR+/fjFy9k/r//+i9k/m//8I9lXt3W7eurxe/K/OjNmcyv3Qb4Rj/fSaX79+T2A5lvbuv1cUj6+2dXen773v/6zzJ/dm02EKNDGT/68J7M81z3n9asvzozfvZmf5qb/cNIpiGkTT3/Vb0+/15s6fbVzfX8tGEOWKM5vwhBty+zvAx9p8ufov7+zC3w3frazF/m+CKY44VQmvk/Nbp/NHFmctN+zf2XS7P+Tqb+kxlfTP0kc/4Yw0DmndtfmfXVyOxfcnP93JXfDH8xN/tvM39Esz+Kbn+90O+PulyvD/tKj3CFWd9UpgPF0uxvgzlfMPvDttHt22xf+A9gAAAAAAAAAAAAAFgVvAAGAAAAAAAAAAAAgBXBC2AAAAAAAAAAAAAAWBG8AAYAAAAAAAAAAACAFcELYAAAAAAAAAAAAABYEbwABgAAAAAAAAAAAIAVwQtgAAAAAAAAAAAAAFgRRRt7+QdNXct8dvJM5pUpwMNf/0cyXxvkMp+eTWV+dnwh89m1vv7yspF56nX9jaadzF8MdA3d3RrKfP/OLZnvPPjXMv/2f/2WzH/yTD/fs4+/I/NH9+/LfLKpn287PJB5lGkI+aDQfzC9kfH11VOZX5S6BLnuPiEzN3C11L/RWJtvynz77h2ZrxcbMk+deT5ZK/M819enrJS5TkPoku5f/Y3un3XSD2iS6wc0HO7KPOjqCZenpzJ/cT6X+aKZyTyZn/i8vNH9Yz7X42NW6C84eOd9mb/9a/9U5vXsL2X+xRvdf0e9Lt91mujvn+rnk3Ld/85//kLmn7/+TObLWj//vF6TeT/Ykfk40/WzXpnxc6Dj4vah/gPjzVT3v5np/7cyPf6MzPjWmRXMIur1QW86YF7q8leFHkAaM0Lmpv2XvR7/2laXLwRdfyHX5ctM+czwGaIZf4rClL/T80M0l6dl0h9vJrBo1g+laZ/m9kMTdPnyZNYv5UjmXWPalynf0Iw/Xa2fT0pmfZ7p3LWwzvxGNg96fBxkOk+dfj59oe8/07Hdn6RWf7+TSr0/CUm339x9vbnButPPr3Tjk8mzXvePaG5gab499fr6ofuJdqUHmHZtXX//TJdw1l/r7x/p9c/R2bHMm9lY5stSP9840vNztf1Q5nu5XsBsPdD392D3nsw3t3T55vVrmT+i/O0KAAANr0lEQVT75LHMy0L3v409nUfTfRdmfRDN/JE6Pf51nZufdfu8vlrIfH59IvPY6PV9M9P9c5FM+xvp9Xm+ocefxuxfD+6+JfN3P/xA5nb9FswEY84Pw825zpd6f9Nmuv7XB7r9FAdvy3z7zp7MDw/1+BH/9L/J/G9/+KnMf/4/9f72Lzf0+d7v/9Y3ZT7c25b5W3v6852m1v0vq80CuDLjR+36v95f/92f/7nMp2b+S0PTPh68K/Pxmjn/anX/mUdzvibTEKLpv32p89wMzxO3vjPPtzTr/xj19Z1Zn5ntT4imBhszvpnHE5LZ3zVmf12ZA+LMzN/B7J+imX9bc/3sxozfZgOdmfG9GJrzGdO+1kq9fssL84bK9M9k9h9ZafZ3roGa2O9vtNy9Qcn1+i2a/Xfd6/o1x+shN+3HrQ9iNOOLGR87U8DKPT4zQERT/t6MH31t1j/B9D+ZAgAAAAAAAAAAAAB+ZfACGAAAAAAAAAAAAABWBC+AAQAAAAAAAAAAAGBF8AIYAAAAAAAAAAAAAFYEL4ABAAAAAAAAAAAAYEXwAhgAAAAAAAAAAAAAVgQvgAEAAAAAAAAAAABgRRRdneQf3Mw6mffzK5nf2qpk/vC992WehSjz2eBG5uPtPZnH0ZrMu41W5lmvv38jFjKfbKzLfDGWcRgmXf9VpT//m3/8hzJ/dXapC5BvyHhyuCPzzfGBzGfdQubTq+cy73P9fMvhSOa3bn2gr789lPmo1O0/LHX/m1+/kfn15VOZH//oXOaz/QcyH2/vyzyvdP2lqPtPahuZd5Uef0Km81iY+g+l+fxaxnmur19kS5lPl+b+k87rYManpNtX3+n7u+oGMh+efSnzjQPdvyf7WzKvBocy77onMr8o9fwxmZ3J/LS/pa839X/W5jKvC91/etO/ihvzfKpeXz/UvwFL5vr1TT0+bB7o53vZ6f5x+vwLmZdjM/9s6+9fmv7VB91/MpP3evoPIdfts+vN+Gnmj96Mb23Q42OvH0+oM90+8lznwdV/q8tfJJ3HqOs3mOItTR7M8x+Yn1hGU4CU9POf9fr7W3N9Ntf1U0Y9v9aNqf9K5+byEPTwGbKZ7mDRPJ/arE/6XtdPTLqDZOb5xqTLn8zzrXPdwIrcrJ9M/aalnl9S1A9wYMa/2OnxpzP7v2TWV1lp5l8zQLe6eYTSDJBdZsbnZOZnM/6lpOe3bNfMH1d6/3gxk3HY3tf7y3e+8esy7xtdvmieX7rUeW5+4z440O17rTb73+ZUxrMnev/16ZPPZD4v9P519ECvj4tC959Fp9tnMOvn0lyflvr5npzqBja9fiXzwVg/33yyKfMYdL61o+9vauaX82dHOv/FS5nPom7fhw/vyvz6SrfPJz/U7e/8xYnM7z7S52s7u3p86MzyLHS6/cxfmPm7+6HM9967I/O81Oc7v/FH/0bmp+b86cn3fyDzH/3V/5V5Yfbv7+7o5xM2Tf8Y6wPIutbz12Ix158/1e1zfnkt8ydHenxNud6/D7f1+uO9XX0+tnFnW+Zu+9O2Zv1u1k9Nqce/4UiPH11l5lczPYSpjme1WZ8Wev9XmvXvrNEDSGbm/3Gh89I8v7rS1/dmfZm3+gtas3/s3L/wmf25rV+z/2sz3X42J3p9Upn5++paz5+d2d/Okx5/KnP+kTL9/IrebfBNAzLvd9pO1+/M5EXzy52/RLf/aswGMtd5Y9pPm+n3a8m8H8g6XcHueK4z57vLTNdPZfJQ6Pvvg3m/Yfpn0+vP5z+AAQAAAAAAAAAAAGBF8AIYAAAAAAAAAAAAAFYEL4ABAAAAAAAAAAAAYEXwAhgAAAAAAAAAAAAAVgQvgAEAAAAAAAAAAABgRfACGAAAAAAAAAAAAABWBC+AAQAAAAAAAAAAAGBFFJl5B1xfT2VeZb3M99/6QOZZiDJ3RmFN5v3GjczH65syv9VXMs82dF52un5m81OZNwtd//N2KPMw0vUzGN6R+Vd+5+syf/Hz5zKfHO7JfFSNZX782WOZN8trme/t35f5O2/r+9t8tCHzjVjIPJg4lDo+u1zI/PTVuzL/6Q++ra///InMDx7p9nt4qL9/HPX1Xaf7fzvV41O3pvNk6nfQd/oP2lrGfa3Hl2G3rj8/a2Sc9NeHMpnxs89Nruuvz/T1U908w009k/ko7Mh890CPb2t6+AkLUz2zbinz7vpKf8DmSMaTLX35fr2t/yDo8i309BMGbZJ5ZcavnS09/m09PNQFaHX7uvzkE5m7X6ht3db1Hwp9f21uGojp/1mm69cNL303kHlu1ld11DU0MNe7Gs7yVn9+rj+/N9Wbov78UOnyNUGPT71pf0VmWljUzzcfmBs093dhBtAm6e/vrl7K/OxMj78x6fknmvoN67r9ruV6fL/1QK9Pi15/fpWZ9bfZX8Sgn4+Z/kLo9fzU97p/pEx/f2v6d0im/Zv2mxVmfWX6TzTjYxvNAiHo52emrxCSqV+zvuxd/Q71AN4FU7+m/kOry9f1ev7PzPw9HOj91aLQ5WvP9PO76l7J/OEjvb9c25jIvNzU6+dcby9DbPUGwGzvw8lrvf5r3uj8u6cvZF52Zvza0Ouvtcrs/6NuvzGZ9m/qr+v0+DW/1Ocb/VTni5luf/nWI5k/uP+2zA8Ob8l83VRvbtZ3T57+WOY/+wtTf9Mzmb95diHz0Vifb12a5ctFr9cP55//ROZ3zvT8/tbh+zKvzfq6Hpj2e6Xr9/ix3kDuP9qX+XD/rsx/819+Q+bXUz1/npycyPxnP9PnN6/WzflcqRtAlunn1wWz/8r0+WU30+1r2ev5bVHp9n1wR5//7WzrDfqo0vWTzPrRDI/+gCro9W9fmP1dbtZ35oAyK8wNrOv1Z6x1/eWZvv+5mb/M9sXtXkKf9P1FVz9m+Cmibt+5mV9Da84vRuZ81axPS3P+NTbn12v39Py6v6v753isK/Doqc5np1/IPJj5o3PrI/d+LJjz4Ub339Cb/YE5P4jmfCCa/acpXWii7kFuf1YFXb9tcvsr/f1Zbu6/MwU05+e5OT/szfwUazN+uvINzfiqrw6ZOcDgP4ABAAAAAAAAAAAAYEXwAhgAAAAAAAAAAAAAVgQvgAEAAAAAAAAAAABgRfACGAAAAAAAAAAAAABWBC+AAQAAAAAAAAAAAGBF8AIYAAAAAAAAAAAAAFYEL4ABAAAAAAAAAAAAYEUUWV3JP0hhKPO6KmUem6RLsFzIuL28lvmXn35P5mmey3z9YFfmk51tmYda3//Vhb6/s9OfyXxxpb/+YLgl86rYlHl2W3/+eKnbxyAvZF5f6fufduYGm0bGj37tn8j8q++8J/Nqott3CL1MF9NTmZ+d6fY7GuvfYMTJvsz33r8n880H/07mP/qT/yTz7vhI5s3auszTzprMY6n7T+ijvj7Tzydluv/3Y92+p02t82wu83rWyXxU6vaX5SOZV4NW5p3uPiHo6g151ON3U+r6XejqCcFMD9F8f1Hp51+Y3zhNij2ZX53oGxhvTWVeTQYyvzN+JPPoKmimx8/Y6fY9XDP9b0fHXX8j85PPHsv89PxS5sVEl3+juiXzkOnrYzL1W+r2pXt3CNGsn7JWf8LAtN9Y6Q6cOl3+kHQeB7p+dO8PwVWvq7+81wNYbwrQmm/oXAHN+NjM9B+cznX/fPP6pcyL6ZnM3fgwnZkJIOr5ozU/EY1nen68CZ/L/PVnen7b+UCv3/a2lzIfren1e4y6fUTXwKJ+/mZ6DH2nK3jpepge3sIw6ftb9DqvpzOZX5j5ZznX6/+Y6zzoxxuG0VTAum5fw8mhzMfrenx0459pHqHW26eQZWb9k3T/Hee6AOORXr9fvdYFTHPdfp7+7LXMy4ken2Kn73+j0usrM72FqWlfbaH75/xGj39rld6fTya6fqvdDZmHVrfAQjePUCTdPuamAV/dnMi8uziWeVno9edXv/Z1mT/a0u03L3X7uKzN/FiYBmQ8evCWzKvf1c937Ts/lHke9Pjc3+j7G0/GMj83+4P5hf78J6/N/ND8WObDoT6fu3XHnH/t6P6bGrN+e3Uh80Oz/9gtD2T+6MP7Ms9/oPdXYTzR379/R+ap1/vbzJzPxqD7VzfSG8hsV49fG2aDsLZjPn9Tt99R1N+fWj1B9NGcPxS6fRVm/u9qXb6u0ecP8xtdgU1txrdaX1+Nzfp3Qz+f3Myva0FXUGvWR2mpPz/vzf7eHI+kTM//5vgglGb9mjLd/hpzwJeZ89Oi1fVXu/qdn8u8zfT8ZpYvoTfri9S48wv9+VXSD7g15wNdpfOs1+0jLPTz6c34UJr9f2n2H51pH+75Z+b+Q6/zNbP/dQdEddTX98nsLxrd/6pCl99Ub2jM+UEf9AK9WJjrXQFyXT/8BzAAAAAAAAAAAAAArAheAAMAAAAAAAAAAADAiuAFMAAAAAAAAAAAAACsCF4AAwAAAAAAAAAAAMCK4AUwAAAAAAAAAAAAAKwIXgADAAAAAAAAAAAAwIrgBTAAAAAAAAAAAAAArIh4fn6e/n8XAgAAAAAAAAAAAADwy+M/gAEAAAAAAAAAAABgRfACGAAAAAAAAAAAAABWBC+AAQAAAAAAAAAAAGBF8AIYAAAAAAAAAAAAAFYEL4ABAAAAAAAAAAAAYEXwAhgAAAAAAAAAAAAAVgQvgAEAAAAAAAAAAABgRfw/j1rU/8yPEqAAAAAASUVORK5CYII=;" vertex="1" parent="1">
          <mxGeometry x="700" y="520" width="1920" height="1080" as="geometry" />
        </mxCell>
        <mxCell id="U8PuOopB3r8MZxE_C5kV-2" value="" style="edgeStyle=none;orthogonalLoop=1;jettySize=auto;html=1;rounded=0;strokeWidth=3;strokeColor=#FFFFFF;" edge="1" parent="1">
          <mxGeometry width="80" relative="1" as="geometry">
            <mxPoint x="1597" y="1049" as="sourcePoint" />
            <mxPoint x="1637" y="1019" as="targetPoint" />
            <Array as="points">
              <mxPoint x="1597" y="1049" />
            </Array>
          </mxGeometry>
        </mxCell>
        <mxCell id="U8PuOopB3r8MZxE_C5kV-3" value="" style="edgeStyle=none;orthogonalLoop=1;jettySize=auto;html=1;rounded=0;strokeWidth=3;strokeColor=#FFFFFF;" edge="1" parent="1">
          <mxGeometry width="80" relative="1" as="geometry">
            <mxPoint x="1612" y="1085" as="sourcePoint" />
            <mxPoint x="1652" y="1055" as="targetPoint" />
            <Array as="points">
              <mxPoint x="1612" y="1085" />
            </Array>
          </mxGeometry>
        </mxCell>
      </root>
    </mxGraphModel>
  </diagram>
</mxfile>
